# MagicaVoxel @ Ephtracy

# material
mtllib Walk3.mtl
usemtl palette

# normals
vn -1 0 0
vn 1 0 0
vn 0 0 1
vn 0 0 -1
vn 0 -1 0
vn 0 1 0

# texcoords
vt 0.658203 0.5
vt 0.662109 0.5
vt 0.783203 0.5
vt 0.787109 0.5
vt 0.791016 0.5
vt 0.794922 0.5
vt 0.798828 0.5
vt 0.802734 0.5

# verts
v -6 13 1
v -6 13 -3
v -6 15 1
v -6 15 -3
v -5 0 1
v -5 0 -3
v -5 13 2
v -5 13 1
v -5 13 -3
v -5 13 -4
v -5 15 2
v -5 15 1
v -5 15 -3
v -5 15 -4
v -5 16 1
v -5 16 -3
v -3 0 2
v -3 0 1
v -3 0 -3
v -3 0 -4
v -3 6 -0
v -3 6 -2
v -3 7 -0
v -3 7 -2
v -3 13 2
v -3 13 1
v -3 13 -3
v -3 13 -4
v -3 16 1
v -3 16 -3
v -3 21 1
v -3 21 -3
v -2 13 -3
v -2 13 -4
v -2 14 -3
v -2 14 -4
v -2 15 2
v -2 15 1
v -2 15 -3
v -2 15 -4
v -2 18 2
v -2 18 1
v -2 19 2
v -2 19 1
v -2 21 2
v -2 21 1
v -2 21 -3
v -2 21 -4
v 2 13 -0
v 2 13 -3
v 2 14 -0
v 2 14 -2
v 2 14 -3
v 3 0 2
v 3 0 1
v 3 13 2
v 3 13 1
v 3 14 2
v 3 14 1
v 3 15 2
v 3 15 1
v 4 0 1
v 4 0 -0
v 4 13 1
v 4 13 -0
v 4 13 -3
v 4 13 -4
v 4 15 -3
v 4 15 -4
v 6 13 1
v 6 13 -3
v 6 15 1
v 6 15 -3
v -4 6 -0
v -4 6 -2
v -4 7 -0
v -4 7 -2
v -3 13 -3
v -3 13 -4
v -3 15 -3
v -3 15 -4
v -2 0 2
v -2 0 1
v -2 13 2
v -2 13 1
v -2 13 -0
v -2 13 -3
v -2 14 2
v -2 14 1
v -2 14 -0
v -2 14 -2
v -2 14 -3
v -2 15 2
v -2 15 1
v 3 0 1
v 3 0 -0
v 3 13 1
v 3 13 -0
v 3 13 -3
v 3 13 -4
v 3 14 -3
v 3 14 -4
v 3 15 2
v 3 15 1
v 3 15 -3
v 3 15 -4
v 3 18 2
v 3 18 1
v 3 19 2
v 3 19 1
v 3 21 2
v 3 21 1
v 3 21 -3
v 3 21 -4
v 4 0 2
v 4 0 1
v 4 0 -3
v 4 0 -4
v 4 13 2
v 4 13 1
v 4 13 -3
v 4 13 -4
v 4 16 1
v 4 16 -3
v 4 21 1
v 4 21 -3
v 5 13 1
v 5 13 -3
v 5 15 1
v 5 15 -3
v 6 0 1
v 6 0 -3
v 6 13 2
v 6 13 1
v 6 13 -3
v 6 13 -4
v 6 15 2
v 6 15 1
v 6 15 -3
v 6 15 -4
v 6 16 1
v 6 16 -3
v 7 13 1
v 7 13 -3
v 7 15 1
v 7 15 -3
v -5 13 2
v -5 15 2
v -3 0 2
v -3 13 2
v -3 14 2
v -3 15 2
v -2 0 2
v -2 13 2
v -2 14 2
v -2 15 2
v -2 18 2
v -2 19 2
v -2 21 2
v 0 15 2
v 0 18 2
v 0 19 2
v 0 20 2
v 1 15 2
v 1 18 2
v 1 19 2
v 1 20 2
v 3 0 2
v 3 13 2
v 3 14 2
v 3 15 2
v 3 18 2
v 3 19 2
v 3 21 2
v 4 0 2
v 4 13 2
v 4 14 2
v 4 15 2
v 6 13 2
v 6 15 2
v -6 13 1
v -6 15 1
v -5 0 1
v -5 13 1
v -5 15 1
v -5 16 1
v -3 0 1
v -3 13 1
v -3 15 1
v -3 16 1
v -3 21 1
v -2 0 1
v -2 13 1
v -2 14 1
v -2 15 1
v -2 18 1
v -2 19 1
v -2 21 1
v -1 11 1
v -1 12 1
v 0 10 1
v 0 11 1
v 0 12 1
v 0 13 1
v 0 15 1
v 1 10 1
v 1 11 1
v 1 12 1
v 1 13 1
v 1 15 1
v 2 11 1
v 2 12 1
v 3 0 1
v 3 13 1
v 3 14 1
v 3 15 1
v 3 18 1
v 3 19 1
v 3 21 1
v 4 0 1
v 4 13 1
v 4 15 1
v 4 16 1
v 4 21 1
v 6 0 1
v 6 13 1
v 6 15 1
v 6 16 1
v 7 13 1
v 7 15 1
v 3 0 -0
v 3 13 -0
v 4 0 -0
v 4 13 -0
v -4 6 -2
v -4 7 -2
v -3 6 -2
v -3 7 -2
v -2 13 -3
v -2 14 -3
v 2 13 -3
v 2 14 -3
v 5 13 -3
v 5 15 -3
v 6 13 -3
v 6 15 -3
v 3 0 1
v 3 13 1
v 4 0 1
v 4 13 1
v 5 13 1
v 5 15 1
v 6 13 1
v 6 15 1
v -4 6 -0
v -4 7 -0
v -3 6 -0
v -3 7 -0
v -2 13 -0
v -2 14 -0
v 2 13 -0
v 2 14 -0
v -6 13 -3
v -6 15 -3
v -5 0 -3
v -5 13 -3
v -5 15 -3
v -5 16 -3
v -3 0 -3
v -3 13 -3
v -3 15 -3
v -3 16 -3
v -3 21 -3
v -2 13 -3
v -2 14 -3
v -2 15 -3
v -2 21 -3
v 3 13 -3
v 3 14 -3
v 3 15 -3
v 3 21 -3
v 4 0 -3
v 4 13 -3
v 4 15 -3
v 4 16 -3
v 4 21 -3
v 6 0 -3
v 6 13 -3
v 6 15 -3
v 6 16 -3
v 7 13 -3
v 7 15 -3
v -5 13 -4
v -5 15 -4
v -3 0 -4
v -3 13 -4
v -3 15 -4
v -2 10 -4
v -2 11 -4
v -2 13 -4
v -2 14 -4
v -2 15 -4
v -2 21 -4
v 0 0 -4
v 0 10 -4
v 0 11 -4
v 0 13 -4
v 1 0 -4
v 1 10 -4
v 1 11 -4
v 1 13 -4
v 3 10 -4
v 3 11 -4
v 3 13 -4
v 3 14 -4
v 3 15 -4
v 3 21 -4
v 4 0 -4
v 4 13 -4
v 4 15 -4
v 6 13 -4
v 6 15 -4
v -3 0 2
v -2 0 2
v 3 0 2
v 4 0 2
v -5 0 1
v -3 0 1
v -2 0 1
v 3 0 1
v 4 0 1
v 6 0 1
v -3 0 -0
v -2 0 -0
v 2 0 -0
v 3 0 -0
v 4 0 -0
v -5 0 -3
v -3 0 -3
v -2 0 -3
v 0 0 -3
v 1 0 -3
v 2 0 -3
v 4 0 -3
v 6 0 -3
v -3 0 -4
v 0 0 -4
v 1 0 -4
v 4 0 -4
v -4 7 -0
v -3 7 -0
v -4 7 -2
v -3 7 -2
v -5 13 2
v -3 13 2
v -2 13 2
v 3 13 2
v 4 13 2
v 6 13 2
v -6 13 1
v -5 13 1
v -3 13 1
v -2 13 1
v 0 13 1
v 1 13 1
v 3 13 1
v 4 13 1
v 6 13 1
v 7 13 1
v 3 13 -0
v 4 13 -0
v -6 13 -3
v -5 13 -3
v -3 13 -3
v 4 13 -3
v 6 13 -3
v 7 13 -3
v -5 13 -4
v -3 13 -4
v 4 13 -4
v 6 13 -4
v -2 14 -0
v 2 14 -0
v -2 14 -2
v 2 14 -2
v -2 14 -3
v 2 14 -3
v -2 15 2
v 0 15 2
v 1 15 2
v 3 15 2
v -2 15 1
v 0 15 1
v 1 15 1
v 3 15 1
v 5 15 1
v 6 15 1
v -2 15 -3
v 3 15 -3
v 5 15 -3
v 6 15 -3
v -2 15 -4
v 3 15 -4
v -4 6 -0
v -3 6 -0
v -4 6 -2
v -3 6 -2
v 5 13 1
v 6 13 1
v -2 13 -0
v 2 13 -0
v -3 13 -3
v -2 13 -3
v 2 13 -3
v 3 13 -3
v 4 13 -3
v 5 13 -3
v 6 13 -3
v -3 13 -4
v -2 13 -4
v 3 13 -4
v 4 13 -4
v -2 14 2
v 3 14 2
v -2 14 1
v 3 14 1
v -2 14 -3
v 3 14 -3
v -2 14 -4
v 3 14 -4
v -5 15 2
v -3 15 2
v -2 15 2
v 3 15 2
v 4 15 2
v 6 15 2
v -6 15 1
v -5 15 1
v -3 15 1
v -2 15 1
v 3 15 1
v 4 15 1
v 6 15 1
v 7 15 1
v -6 15 -3
v -5 15 -3
v -3 15 -3
v 4 15 -3
v 6 15 -3
v 7 15 -3
v -5 15 -4
v -3 15 -4
v 4 15 -4
v 6 15 -4
v -5 16 1
v -3 16 1
v 4 16 1
v 6 16 1
v -5 16 -3
v -3 16 -3
v 4 16 -3
v 6 16 -3
v -2 21 2
v 3 21 2
v -3 21 1
v -2 21 1
v 3 21 1
v 4 21 1
v -3 21 -3
v -2 21 -3
v 3 21 -3
v 4 21 -3
v -2 21 -4
v 3 21 -4

# faces
f 3/6/1 2/6/1 1/6/1
f 4/6/1 2/6/1 3/6/1
f 8/4/1 6/4/1 5/4/1
f 9/4/1 6/4/1 8/4/1
f 11/6/1 8/6/1 7/6/1
f 12/6/1 8/6/1 11/6/1
f 13/6/1 10/6/1 9/6/1
f 14/6/1 10/6/1 13/6/1
f 15/6/1 13/6/1 12/6/1
f 16/6/1 13/6/1 15/6/1
f 23/4/1 22/4/1 21/4/1
f 24/4/1 22/4/1 23/4/1
f 25/4/1 18/4/1 17/4/1
f 26/4/1 18/4/1 25/4/1
f 27/4/1 20/4/1 19/4/1
f 28/4/1 20/4/1 27/4/1
f 31/3/1 30/3/1 29/3/1
f 32/3/1 30/3/1 31/3/1
f 35/4/1 34/4/1 33/4/1
f 36/4/1 34/4/1 35/4/1
f 41/3/1 38/3/1 37/3/1
f 42/3/1 38/3/1 41/3/1
f 43/7/1 42/7/1 41/7/1
f 44/7/1 42/7/1 43/7/1
f 45/3/1 44/3/1 43/3/1
f 46/3/1 44/3/1 45/3/1
f 47/3/1 40/3/1 39/3/1
f 48/3/1 40/3/1 47/3/1
f 51/4/1 50/4/1 49/4/1
f 52/4/1 50/4/1 51/4/1
f 53/4/1 50/4/1 52/4/1
f 56/4/1 55/4/1 54/4/1
f 57/4/1 55/4/1 56/4/1
f 60/7/1 59/7/1 58/7/1
f 61/7/1 59/7/1 60/7/1
f 64/4/1 63/4/1 62/4/1
f 65/4/1 63/4/1 64/4/1
f 68/6/1 67/6/1 66/6/1
f 69/6/1 67/6/1 68/6/1
f 72/6/1 71/6/1 70/6/1
f 73/6/1 71/6/1 72/6/1
f 74/4/2 75/4/2 76/4/2
f 76/4/2 75/4/2 77/4/2
f 78/6/2 79/6/2 80/6/2
f 80/6/2 79/6/2 81/6/2
f 82/4/2 83/4/2 84/4/2
f 84/4/2 83/4/2 85/4/2
f 86/4/2 87/4/2 90/4/2
f 90/4/2 87/4/2 91/4/2
f 91/4/2 87/4/2 92/4/2
f 88/7/2 89/7/2 93/7/2
f 93/7/2 89/7/2 94/7/2
f 95/5/2 96/5/2 97/5/2
f 97/5/2 96/5/2 98/5/2
f 99/4/2 100/4/2 101/4/2
f 101/4/2 100/4/2 102/4/2
f 103/3/2 104/3/2 107/3/2
f 107/3/2 104/3/2 108/3/2
f 107/7/2 108/7/2 109/7/2
f 109/7/2 108/7/2 110/7/2
f 109/3/2 110/3/2 111/3/2
f 111/3/2 110/3/2 112/3/2
f 105/3/2 106/3/2 113/3/2
f 113/3/2 106/3/2 114/3/2
f 115/4/2 116/4/2 119/4/2
f 119/4/2 116/4/2 120/4/2
f 117/4/2 118/4/2 121/4/2
f 121/4/2 118/4/2 122/4/2
f 123/3/2 124/3/2 125/3/2
f 125/3/2 124/3/2 126/3/2
f 127/4/2 128/4/2 129/4/2
f 129/4/2 128/4/2 130/4/2
f 131/4/2 132/4/2 134/4/2
f 134/4/2 132/4/2 135/4/2
f 133/6/2 134/6/2 137/6/2
f 137/6/2 134/6/2 138/6/2
f 135/6/2 136/6/2 139/6/2
f 139/6/2 136/6/2 140/6/2
f 138/6/2 139/6/2 141/6/2
f 141/6/2 139/6/2 142/6/2
f 143/6/2 144/6/2 145/6/2
f 145/6/2 144/6/2 146/6/2
f 150/6/3 148/6/3 147/6/3
f 151/6/3 148/6/3 150/6/3
f 152/6/3 148/6/3 151/6/3
f 153/4/3 150/4/3 149/4/3
f 153/4/3 151/4/3 150/4/3
f 154/4/3 151/4/3 153/4/3
f 155/7/3 152/7/3 151/7/3
f 155/4/3 151/4/3 154/4/3
f 156/7/3 152/7/3 155/7/3
f 160/3/3 157/3/3 156/3/3
f 161/7/3 158/7/3 157/7/3
f 161/3/3 157/3/3 160/3/3
f 162/3/3 159/3/3 158/3/3
f 162/7/3 158/7/3 161/7/3
f 163/3/3 159/3/3 162/3/3
f 164/7/3 161/7/3 160/7/3
f 164/7/3 162/7/3 161/7/3
f 164/7/3 163/7/3 162/7/3
f 165/7/3 163/7/3 164/7/3
f 166/7/3 163/7/3 165/7/3
f 167/3/3 159/3/3 163/3/3
f 167/7/3 163/7/3 166/7/3
f 169/8/3 155/8/3 154/8/3
f 170/8/3 155/8/3 169/8/3
f 171/3/3 165/3/3 164/3/3
f 172/7/3 166/7/3 165/7/3
f 172/3/3 165/3/3 171/3/3
f 173/3/3 167/3/3 166/3/3
f 173/7/3 166/7/3 172/7/3
f 174/3/3 159/3/3 167/3/3
f 174/3/3 167/3/3 173/3/3
f 175/4/3 170/4/3 169/4/3
f 175/4/3 169/4/3 168/4/3
f 176/4/3 170/4/3 175/4/3
f 177/7/3 171/7/3 170/7/3
f 177/4/3 170/4/3 176/4/3
f 178/7/3 171/7/3 177/7/3
f 179/6/3 177/6/3 176/6/3
f 179/6/3 178/6/3 177/6/3
f 180/6/3 178/6/3 179/6/3
f 184/6/3 182/6/3 181/6/3
f 185/6/3 182/6/3 184/6/3
f 187/4/3 184/4/3 183/4/3
f 188/4/3 184/4/3 187/4/3
f 189/6/3 186/6/3 185/6/3
f 190/6/3 186/6/3 189/6/3
f 195/3/3 191/3/3 190/3/3
f 195/3/3 190/3/3 189/3/3
f 196/3/3 191/3/3 195/3/3
f 197/3/3 191/3/3 196/3/3
f 198/3/3 191/3/3 197/3/3
f 199/5/3 193/5/3 192/5/3
f 200/5/3 193/5/3 199/5/3
f 201/5/3 199/5/3 192/5/3
f 202/2/3 200/2/3 199/2/3
f 202/5/3 199/5/3 201/5/3
f 203/5/3 193/5/3 200/5/3
f 203/2/3 200/2/3 202/2/3
f 204/5/3 193/5/3 203/5/3
f 205/5/3 195/5/3 194/5/3
f 206/2/3 202/2/3 201/2/3
f 206/5/3 201/5/3 192/5/3
f 207/1/3 203/1/3 202/1/3
f 207/2/3 202/2/3 206/2/3
f 208/2/3 204/2/3 203/2/3
f 208/1/3 203/1/3 207/1/3
f 209/2/3 204/2/3 208/2/3
f 210/5/3 205/5/3 194/5/3
f 211/5/3 207/5/3 206/5/3
f 211/2/3 208/2/3 207/2/3
f 212/5/3 209/5/3 208/5/3
f 212/2/3 208/2/3 211/2/3
f 213/5/3 211/5/3 206/5/3
f 213/5/3 206/5/3 192/5/3
f 213/5/3 212/5/3 211/5/3
f 214/5/3 209/5/3 212/5/3
f 214/5/3 212/5/3 213/5/3
f 215/5/3 210/5/3 194/5/3
f 216/5/3 210/5/3 215/5/3
f 222/3/3 219/3/3 218/3/3
f 222/3/3 218/3/3 217/3/3
f 222/3/3 217/3/3 216/3/3
f 223/3/3 219/3/3 222/3/3
f 224/3/3 219/3/3 223/3/3
f 225/4/3 221/4/3 220/4/3
f 226/4/3 221/4/3 225/4/3
f 227/6/3 223/6/3 222/6/3
f 228/6/3 223/6/3 227/6/3
f 229/6/3 227/6/3 226/6/3
f 230/6/3 227/6/3 229/6/3
f 233/4/3 232/4/3 231/4/3
f 234/4/3 232/4/3 233/4/3
f 237/4/3 236/4/3 235/4/3
f 238/4/3 236/4/3 237/4/3
f 241/4/3 240/4/3 239/4/3
f 242/4/3 240/4/3 241/4/3
f 245/6/3 244/6/3 243/6/3
f 246/6/3 244/6/3 245/6/3
f 247/4/4 248/4/4 249/4/4
f 249/4/4 248/4/4 250/4/4
f 251/6/4 252/6/4 253/6/4
f 253/6/4 252/6/4 254/6/4
f 255/4/4 256/4/4 257/4/4
f 257/4/4 256/4/4 258/4/4
f 259/5/4 260/5/4 261/5/4
f 261/5/4 260/5/4 262/5/4
f 263/6/4 264/6/4 266/6/4
f 266/6/4 264/6/4 267/6/4
f 265/4/4 266/4/4 269/4/4
f 269/4/4 266/4/4 270/4/4
f 267/6/4 268/6/4 271/6/4
f 271/6/4 268/6/4 272/6/4
f 270/4/4 271/4/4 274/4/4
f 274/4/4 271/4/4 275/4/4
f 272/3/4 273/3/4 276/3/4
f 275/4/4 271/4/4 276/4/4
f 271/3/4 272/3/4 276/3/4
f 276/3/4 273/3/4 277/3/4
f 275/4/4 276/4/4 279/4/4
f 279/4/4 276/4/4 280/4/4
f 278/4/4 279/4/4 283/4/4
f 279/4/4 280/4/4 283/4/4
f 280/3/4 281/3/4 284/3/4
f 283/4/4 280/4/4 284/4/4
f 284/3/4 281/3/4 285/3/4
f 285/3/4 281/3/4 286/3/4
f 282/4/4 283/4/4 287/4/4
f 287/4/4 283/4/4 288/4/4
f 284/6/4 285/6/4 289/6/4
f 289/6/4 285/6/4 290/6/4
f 288/6/4 289/6/4 291/6/4
f 291/6/4 289/6/4 292/6/4
f 293/6/4 294/6/4 296/6/4
f 296/6/4 294/6/4 297/6/4
f 295/4/4 296/4/4 298/4/4
f 298/4/4 296/4/4 299/4/4
f 299/4/4 296/4/4 300/4/4
f 295/4/4 298/4/4 304/4/4
f 298/1/4 299/1/4 305/1/4
f 304/4/4 298/4/4 305/4/4
f 300/4/4 301/4/4 306/4/4
f 305/1/4 299/1/4 306/1/4
f 299/4/4 300/4/4 306/4/4
f 306/4/4 301/4/4 307/4/4
f 304/1/4 305/1/4 308/1/4
f 305/1/4 306/1/4 308/1/4
f 306/1/4 307/1/4 308/1/4
f 308/1/4 307/1/4 309/1/4
f 309/1/4 307/1/4 310/1/4
f 307/4/4 301/4/4 311/4/4
f 310/1/4 307/1/4 311/1/4
f 309/1/4 310/1/4 312/1/4
f 308/4/4 309/4/4 312/4/4
f 310/4/4 311/4/4 313/4/4
f 312/1/4 310/1/4 313/1/4
f 311/4/4 301/4/4 314/4/4
f 313/4/4 311/4/4 314/4/4
f 314/4/4 301/4/4 315/4/4
f 302/3/4 303/3/4 316/3/4
f 316/3/4 303/3/4 317/3/4
f 312/4/4 313/4/4 318/4/4
f 308/4/4 312/4/4 318/4/4
f 313/4/4 314/4/4 318/4/4
f 318/4/4 314/4/4 319/4/4
f 319/6/4 320/6/4 321/6/4
f 321/6/4 320/6/4 322/6/4
f 328/4/5 324/4/5 323/4/5
f 329/4/5 324/4/5 328/4/5
f 330/4/5 326/4/5 325/4/5
f 331/4/5 326/4/5 330/4/5
f 333/5/5 329/5/5 328/5/5
f 333/4/5 328/4/5 327/4/5
f 333/5/5 330/5/5 329/5/5
f 334/5/5 330/5/5 333/5/5
f 335/5/5 330/5/5 334/5/5
f 336/5/5 330/5/5 335/5/5
f 337/4/5 332/4/5 331/4/5
f 338/4/5 333/4/5 327/4/5
f 338/4/5 334/4/5 333/4/5
f 339/4/5 334/4/5 338/4/5
f 340/3/5 335/3/5 334/3/5
f 340/4/5 334/4/5 339/4/5
f 341/3/5 335/3/5 340/3/5
f 342/3/5 335/3/5 341/3/5
f 343/4/5 336/4/5 335/4/5
f 343/3/5 335/3/5 342/3/5
f 343/4/5 337/4/5 336/4/5
f 344/4/5 332/4/5 337/4/5
f 344/4/5 337/4/5 343/4/5
f 345/4/5 332/4/5 344/4/5
f 346/4/5 341/4/5 340/4/5
f 346/4/5 340/4/5 339/4/5
f 347/1/5 342/1/5 341/1/5
f 347/4/5 341/4/5 346/4/5
f 348/4/5 343/4/5 342/4/5
f 348/1/5 342/1/5 347/1/5
f 348/4/5 344/4/5 343/4/5
f 349/4/5 344/4/5 348/4/5
f 352/4/5 351/4/5 350/4/5
f 353/4/5 351/4/5 352/4/5
f 361/6/5 355/6/5 354/6/5
f 362/6/5 355/6/5 361/6/5
f 363/8/5 357/8/5 356/8/5
f 364/8/5 357/8/5 363/8/5
f 365/8/5 357/8/5 364/8/5
f 366/8/5 357/8/5 365/8/5
f 367/6/5 359/6/5 358/6/5
f 368/6/5 359/6/5 367/6/5
f 370/4/5 367/4/5 366/4/5
f 371/4/5 367/4/5 370/4/5
f 372/6/5 361/6/5 360/6/5
f 373/6/5 361/6/5 372/6/5
f 376/6/5 369/6/5 368/6/5
f 377/6/5 369/6/5 376/6/5
f 378/6/5 374/6/5 373/6/5
f 379/6/5 374/6/5 378/6/5
f 380/6/5 376/6/5 375/6/5
f 381/6/5 376/6/5 380/6/5
f 384/5/5 383/5/5 382/5/5
f 385/5/5 383/5/5 384/5/5
f 386/4/5 385/4/5 384/4/5
f 387/4/5 385/4/5 386/4/5
f 392/3/5 389/3/5 388/3/5
f 393/7/5 390/7/5 389/7/5
f 393/3/5 389/3/5 392/3/5
f 394/3/5 391/3/5 390/3/5
f 394/7/5 390/7/5 393/7/5
f 395/3/5 391/3/5 394/3/5
f 400/6/5 397/6/5 396/6/5
f 401/6/5 397/6/5 400/6/5
f 402/3/5 399/3/5 398/3/5
f 403/3/5 399/3/5 402/3/5
f 404/4/6 405/4/6 406/4/6
f 406/4/6 405/4/6 407/4/6
f 410/3/6 411/3/6 413/3/6
f 413/3/6 411/3/6 414/3/6
f 408/4/6 409/4/6 417/4/6
f 417/4/6 409/4/6 418/4/6
f 412/4/6 413/4/6 419/4/6
f 419/4/6 413/4/6 420/4/6
f 415/4/6 416/4/6 421/4/6
f 421/4/6 416/4/6 422/4/6
f 423/8/6 424/8/6 425/8/6
f 425/8/6 424/8/6 426/8/6
f 427/4/6 428/4/6 429/4/6
f 429/4/6 428/4/6 430/4/6
f 431/6/6 432/6/6 438/6/6
f 432/7/6 433/7/6 439/7/6
f 438/6/6 432/6/6 439/6/6
f 439/7/6 433/7/6 440/7/6
f 434/7/6 435/7/6 441/7/6
f 435/6/6 436/6/6 442/6/6
f 441/7/6 435/7/6 442/7/6
f 442/6/6 436/6/6 443/6/6
f 437/6/6 438/6/6 445/6/6
f 445/6/6 438/6/6 446/6/6
f 443/6/6 444/6/6 449/6/6
f 449/6/6 444/6/6 450/6/6
f 446/6/6 447/6/6 451/6/6
f 451/6/6 447/6/6 452/6/6
f 448/6/6 449/6/6 453/6/6
f 453/6/6 449/6/6 454/6/6
f 455/6/6 456/6/6 459/6/6
f 459/6/6 456/6/6 460/6/6
f 457/6/6 458/6/6 461/6/6
f 461/6/6 458/6/6 462/6/6
f 463/3/6 464/3/6 466/3/6
f 466/3/6 464/3/6 467/3/6
f 465/3/6 466/3/6 469/3/6
f 467/3/6 468/3/6 469/3/6
f 466/3/6 467/3/6 469/3/6
f 469/3/6 468/3/6 470/3/6
f 470/3/6 468/3/6 471/3/6
f 471/3/6 468/3/6 472/3/6
f 470/3/6 471/3/6 473/3/6
f 473/3/6 471/3/6 474/3/6
