# MagicaVoxel @ Ephtracy

# group
o 

# material
mtllib Lapide 01.mtl
usemtl palette

# normals
vn -1 0 0
vn 1 0 0
vn 0 0 1
vn 0 0 -1
vn 0 -1 0
vn 0 1 0

# texcoords
vt 0.849609 0.5
vt 0.919922 0.5

# verts
v -0.7 0 0.4
v -0.7 0 0
v -0.7 0 -0.1
v -0.7 0 -0.3
v -0.7 0.1 0.4
v -0.7 0.1 0
v -0.7 0.1 -0.1
v -0.7 0.1 -0.3
v -0.6 0 0
v -0.6 0 -0.1
v -0.6 0.1 0.3
v -0.6 0.1 0.2
v -0.6 0.1 0
v -0.6 0.1 -0.1
v -0.6 0.1 -0.2
v -0.6 0.2 0.3
v -0.6 0.2 0.2
v -0.6 0.2 0
v -0.6 0.2 -0.1
v -0.6 0.3 -0.1
v -0.6 0.3 -0.2
v -0.5 0 0.5
v -0.5 0 0.4
v -0.5 0.1 0.5
v -0.5 0.1 0.4
v -0.5 0.1 0.2
v -0.5 0.1 0
v -0.5 0.2 0.2
v -0.5 0.2 0
v -0.5 0.2 -0.1
v -0.5 0.3 -0.1
v -0.5 1 0.2
v -0.5 1 -0.1
v -0.4 1 0.2
v -0.4 1 -0.1
v -0.4 1.2 0.2
v -0.4 1.2 -0.1
v -0.3 1.2 0.2
v -0.3 1.2 -0.1
v -0.3 1.3 0.2
v -0.3 1.3 -0.1
v -0.2 0 0.4
v -0.2 0 0.3
v -0.2 0.1 0.4
v -0.2 0.1 0.3
v -0.2 0.1 -0.1
v -0.2 0.1 -0.2
v -0.2 0.2 0.3
v -0.2 0.2 0.2
v -0.2 0.2 -0.1
v -0.2 0.2 -0.2
v -0.2 0.3 0.3
v -0.2 0.3 0.2
v -0.2 0.3 0
v -0.2 0.3 -0.1
v -0.2 0.4 0
v -0.2 0.4 -0.1
v -0.2 0.6 0
v -0.2 0.6 -0.1
v -0.2 0.7 0
v -0.2 0.7 -0.1
v -0.2 0.8 0
v -0.2 0.8 -0.1
v -0.2 1 0
v -0.2 1 -0.1
v -0.1 0 -0.2
v -0.1 0 -0.3
v -0.1 0.1 -0.2
v -0.1 0.1 -0.3
v -0.1 1.3 0.2
v -0.1 1.3 -0.1
v -0.1 1.4 0.2
v -0.1 1.4 -0.1
v 5.96046e-008 0 0.5
v 5.96046e-008 0 0.4
v 5.96046e-008 0.1 0.5
v 5.96046e-008 0.1 0.4
v 5.96046e-008 0.5 0
v 5.96046e-008 0.5 -0.1
v 5.96046e-008 0.6 0
v 5.96046e-008 0.6 -0.1
v 5.96046e-008 1 0
v 5.96046e-008 1 -0.1
v 5.96046e-008 1.1 0
v 5.96046e-008 1.1 -0.1
v 0.1 0 -0.3
v 0.1 0 -0.4
v 0.1 0.1 -0.3
v 0.1 0.1 -0.4
v 0.1 0.2 -0.1
v 0.1 0.2 -0.2
v 0.1 0.3 -0.1
v 0.1 0.3 -0.2
v 0.2 0.3 0
v 0.2 0.3 -0.1
v 0.2 0.4 0
v 0.2 0.4 -0.1
v 0.2 0.5 0.1
v 0.2 0.5 -0.1
v 0.2 0.6 0.1
v 0.2 0.6 0
v 0.2 0.6 -0.1
v 0.2 0.8 0
v 0.2 0.8 -0.1
v 0.2 0.9 0
v 0.2 0.9 -0.1
v 0.3 0.9 0
v 0.3 0.9 -0.1
v 0.3 1 0
v 0.3 1 -0.1
v 0.4 0 0.4
v 0.4 0 0.3
v 0.4 0.1 0.4
v 0.4 0.1 0.3
v 0.4 0.5 0
v 0.4 0.5 -0.1
v 0.4 0.7 0
v 0.4 0.7 -0.1
v -0.4 0 0.5
v -0.4 0 0.4
v -0.4 0 -0.2
v -0.4 0 -0.3
v -0.4 0.1 0.5
v -0.4 0.1 0.4
v -0.4 0.1 -0.2
v -0.4 0.1 -0.3
v -0.4 0.2 -0.1
v -0.4 0.2 -0.2
v -0.4 0.3 0
v -0.4 0.3 -0.1
v -0.4 0.3 -0.2
v -0.4 0.4 0
v -0.4 0.4 -0.1
v -0.3 0 0.4
v -0.3 0 0.3
v -0.3 0.1 0.4
v -0.3 0.1 0.3
v -0.3 0.1 -0.1
v -0.3 0.1 -0.2
v -0.3 0.2 -0.1
v -0.3 0.2 -0.2
v -0.3 0.6 0
v -0.3 0.6 -0.1
v -0.3 0.7 0
v -0.3 0.7 -0.1
v -0.3 0.8 0
v -0.3 0.8 -0.1
v -0.3 1 0
v -0.3 1 -0.1
v -0.2 0.5 0
v -0.2 0.5 -0.1
v -0.2 0.6 0
v -0.2 0.6 -0.1
v -0.1 1 0
v -0.1 1 -0.1
v -0.1 1.1 0
v -0.1 1.1 -0.1
v 0.1 0.3 0
v 0.1 0.3 -0.1
v 0.1 0.4 0
v 0.1 0.4 -0.1
v 0.1 0.5 0.1
v 0.1 0.5 -0.1
v 0.1 0.6 0.1
v 0.1 0.6 0
v 0.1 0.7 0
v 0.1 0.7 -0.1
v 0.1 0.8 0
v 0.1 0.8 -0.1
v 0.1 1 0
v 0.1 1 -0.1
v 0.1 1.3 0.2
v 0.1 1.3 -0.1
v 0.1 1.4 0.2
v 0.1 1.4 -0.1
v 0.2 0 0.5
v 0.2 0 0.4
v 0.2 0 -0.3
v 0.2 0 -0.4
v 0.2 0.1 0.5
v 0.2 0.1 0.4
v 0.2 0.1 -0.3
v 0.2 0.1 -0.4
v 0.3 0 0.4
v 0.3 0 0.3
v 0.3 0.1 0.4
v 0.3 0.1 0.3
v 0.3 0.2 0.3
v 0.3 0.2 0.2
v 0.3 0.2 -0.1
v 0.3 0.2 -0.2
v 0.3 0.3 0.3
v 0.3 0.3 0.2
v 0.3 0.3 -0.1
v 0.3 0.3 -0.2
v 0.3 0.5 0
v 0.3 0.5 -0.1
v 0.3 0.6 0
v 0.3 0.6 -0.1
v 0.3 1.2 0.2
v 0.3 1.2 -0.1
v 0.3 1.3 0.2
v 0.3 1.3 -0.1
v 0.4 1 0.2
v 0.4 1 -0.1
v 0.4 1.2 0.2
v 0.4 1.2 -0.1
v 0.5 0 -0.2
v 0.5 0 -0.3
v 0.5 0.1 -0.1
v 0.5 0.1 -0.2
v 0.5 0.1 -0.3
v 0.5 0.2 0.2
v 0.5 0.2 0.1
v 0.5 0.2 0
v 0.5 0.2 -0.1
v 0.5 0.2 -0.2
v 0.5 0.3 0.1
v 0.5 0.3 0
v 0.5 1 0.2
v 0.5 1 -0.1
v 0.6 0 0.4
v 0.6 0 0.3
v 0.6 0 0
v 0.6 0 -0.2
v 0.6 0.1 0.4
v 0.6 0.1 0.3
v 0.6 0.1 0.2
v 0.6 0.1 0.1
v 0.6 0.1 0
v 0.6 0.1 -0.1
v 0.6 0.1 -0.2
v 0.6 0.2 0.3
v 0.6 0.2 0.2
v 0.6 0.2 0.1
v 0.6 0.2 0
v 0.6 0.2 -0.1
v 0.6 0.3 0.1
v 0.6 0.3 0
v 0.7 0 0.3
v 0.7 0 0
v 0.7 0.1 0.3
v 0.7 0.1 0.2
v 0.7 0.1 0.1
v 0.7 0.1 0
v 0.7 0.2 0.2
v 0.7 0.2 0.1
v -0.5 0 0.5
v -0.5 0.1 0.5
v -0.4 0 0.5
v -0.4 0.1 0.5
v 5.96046e-008 0 0.5
v 5.96046e-008 0.1 0.5
v 0.2 0 0.5
v 0.2 0.1 0.5
v -0.7 0 0.4
v -0.7 0.1 0.4
v -0.5 0 0.4
v -0.5 0.1 0.4
v -0.4 0 0.4
v -0.4 0.1 0.4
v -0.3 0 0.4
v -0.3 0.1 0.4
v -0.2 0 0.4
v -0.2 0.1 0.4
v 5.96046e-008 0 0.4
v 5.96046e-008 0.1 0.4
v 0.2 0 0.4
v 0.2 0.1 0.4
v 0.3 0 0.4
v 0.3 0.1 0.4
v 0.4 0 0.4
v 0.4 0.1 0.4
v 0.6 0 0.4
v 0.6 0.1 0.4
v -0.6 0.1 0.3
v -0.6 0.2 0.3
v -0.3 0 0.3
v -0.3 0.1 0.3
v -0.2 0 0.3
v -0.2 0.1 0.3
v -0.2 0.2 0.3
v -0.2 0.3 0.3
v 0.3 0 0.3
v 0.3 0.1 0.3
v 0.3 0.2 0.3
v 0.3 0.3 0.3
v 0.4 0 0.3
v 0.4 0.1 0.3
v 0.6 0 0.3
v 0.6 0.1 0.3
v 0.6 0.2 0.3
v 0.7 0 0.3
v 0.7 0.1 0.3
v -0.5 0.2 0.2
v -0.5 1 0.2
v -0.4 1 0.2
v -0.4 1.2 0.2
v -0.3 1.2 0.2
v -0.3 1.3 0.2
v -0.2 0.2 0.2
v -0.2 0.3 0.2
v -0.1 1.3 0.2
v -0.1 1.4 0.2
v 0.1 1.3 0.2
v 0.1 1.4 0.2
v 0.3 0.2 0.2
v 0.3 0.3 0.2
v 0.3 1.2 0.2
v 0.3 1.3 0.2
v 0.4 1 0.2
v 0.4 1.2 0.2
v 0.5 0.2 0.2
v 0.5 1 0.2
v 0.6 0.1 0.2
v 0.6 0.2 0.2
v 0.7 0.1 0.2
v 0.7 0.2 0.2
v 0.5 0.2 0.1
v 0.5 0.3 0.1
v 0.6 0.2 0.1
v 0.6 0.3 0.1
v -0.6 0.1 0
v -0.6 0.2 0
v -0.5 0.1 0
v -0.5 0.2 0
v -0.7 0 -0.1
v -0.7 0.1 -0.1
v -0.6 0 -0.1
v -0.6 0.1 -0.1
v -0.6 0.2 -0.1
v -0.6 0.3 -0.1
v -0.5 0.2 -0.1
v -0.5 0.3 -0.1
v -0.6 0.1 0.2
v -0.6 0.2 0.2
v -0.5 0.1 0.2
v -0.5 0.2 0.2
v 0.1 0.5 0.1
v 0.1 0.6 0.1
v 0.2 0.5 0.1
v 0.2 0.6 0.1
v 0.6 0.1 0.1
v 0.6 0.2 0.1
v 0.7 0.1 0.1
v 0.7 0.2 0.1
v -0.7 0 0
v -0.7 0.1 0
v -0.6 0 0
v -0.6 0.1 0
v -0.4 0.3 0
v -0.4 0.4 0
v -0.3 0.6 0
v -0.3 0.7 0
v -0.3 0.8 0
v -0.3 1 0
v -0.2 0.3 0
v -0.2 0.4 0
v -0.2 0.5 0
v -0.2 0.6 0
v -0.2 0.7 0
v -0.2 0.8 0
v -0.2 1 0
v -0.1 1 0
v -0.1 1.1 0
v 5.96046e-008 0.5 0
v 5.96046e-008 0.6 0
v 5.96046e-008 1 0
v 5.96046e-008 1.1 0
v 0.1 0.3 0
v 0.1 0.4 0
v 0.1 0.6 0
v 0.1 0.7 0
v 0.1 0.8 0
v 0.1 1 0
v 0.2 0.3 0
v 0.2 0.4 0
v 0.2 0.6 0
v 0.2 0.8 0
v 0.2 0.9 0
v 0.3 0.5 0
v 0.3 0.6 0
v 0.3 0.9 0
v 0.3 1 0
v 0.4 0.5 0
v 0.4 0.7 0
v 0.5 0.2 0
v 0.5 0.3 0
v 0.6 0 0
v 0.6 0.1 0
v 0.6 0.2 0
v 0.6 0.3 0
v 0.7 0 0
v 0.7 0.1 0
v -0.5 0.3 -0.1
v -0.5 1 -0.1
v -0.4 0.2 -0.1
v -0.4 0.3 -0.1
v -0.4 0.4 -0.1
v -0.4 1 -0.1
v -0.4 1.2 -0.1
v -0.3 0.1 -0.1
v -0.3 0.2 -0.1
v -0.3 0.6 -0.1
v -0.3 0.7 -0.1
v -0.3 0.8 -0.1
v -0.3 1 -0.1
v -0.3 1.2 -0.1
v -0.3 1.3 -0.1
v -0.2 0.1 -0.1
v -0.2 0.2 -0.1
v -0.2 0.3 -0.1
v -0.2 0.4 -0.1
v -0.2 0.5 -0.1
v -0.2 0.6 -0.1
v -0.2 0.7 -0.1
v -0.2 0.8 -0.1
v -0.2 1 -0.1
v -0.1 1 -0.1
v -0.1 1.1 -0.1
v -0.1 1.3 -0.1
v -0.1 1.4 -0.1
v 5.96046e-008 0.5 -0.1
v 5.96046e-008 0.6 -0.1
v 5.96046e-008 1 -0.1
v 5.96046e-008 1.1 -0.1
v 0.1 0.2 -0.1
v 0.1 0.3 -0.1
v 0.1 0.4 -0.1
v 0.1 0.5 -0.1
v 0.1 0.7 -0.1
v 0.1 0.8 -0.1
v 0.1 1 -0.1
v 0.1 1.3 -0.1
v 0.1 1.4 -0.1
v 0.2 0.3 -0.1
v 0.2 0.4 -0.1
v 0.2 0.5 -0.1
v 0.2 0.6 -0.1
v 0.2 0.8 -0.1
v 0.2 0.9 -0.1
v 0.3 0.2 -0.1
v 0.3 0.3 -0.1
v 0.3 0.5 -0.1
v 0.3 0.6 -0.1
v 0.3 0.9 -0.1
v 0.3 1 -0.1
v 0.3 1.2 -0.1
v 0.3 1.3 -0.1
v 0.4 0.5 -0.1
v 0.4 0.7 -0.1
v 0.4 1 -0.1
v 0.4 1.2 -0.1
v 0.5 0.1 -0.1
v 0.5 0.2 -0.1
v 0.5 1 -0.1
v 0.6 0.1 -0.1
v 0.6 0.2 -0.1
v -0.6 0.1 -0.2
v -0.6 0.3 -0.2
v -0.4 0 -0.2
v -0.4 0.1 -0.2
v -0.4 0.2 -0.2
v -0.4 0.3 -0.2
v -0.3 0.1 -0.2
v -0.3 0.2 -0.2
v -0.2 0.1 -0.2
v -0.2 0.2 -0.2
v -0.1 0 -0.2
v -0.1 0.1 -0.2
v 0.1 0.2 -0.2
v 0.1 0.3 -0.2
v 0.3 0.2 -0.2
v 0.3 0.3 -0.2
v 0.5 0 -0.2
v 0.5 0.1 -0.2
v 0.5 0.2 -0.2
v 0.6 0 -0.2
v 0.6 0.1 -0.2
v -0.7 0 -0.3
v -0.7 0.1 -0.3
v -0.4 0 -0.3
v -0.4 0.1 -0.3
v -0.1 0 -0.3
v -0.1 0.1 -0.3
v 0.1 0 -0.3
v 0.1 0.1 -0.3
v 0.2 0 -0.3
v 0.2 0.1 -0.3
v 0.5 0 -0.3
v 0.5 0.1 -0.3
v 0.1 0 -0.4
v 0.1 0.1 -0.4
v 0.2 0 -0.4
v 0.2 0.1 -0.4
v -0.5 0 0.5
v -0.4 0 0.5
v 5.96046e-008 0 0.5
v 0.2 0 0.5
v -0.7 0 0.4
v -0.5 0 0.4
v -0.4 0 0.4
v -0.3 0 0.4
v -0.2 0 0.4
v 5.96046e-008 0 0.4
v 0.2 0 0.4
v 0.3 0 0.4
v 0.4 0 0.4
v 0.6 0 0.4
v -0.3 0 0.3
v -0.2 0 0.3
v 0.3 0 0.3
v 0.4 0 0.3
v 0.6 0 0.3
v 0.7 0 0.3
v -0.7 0 0
v -0.6 0 0
v 0.6 0 0
v 0.7 0 0
v -0.7 0 -0.1
v -0.6 0 -0.1
v -0.4 0 -0.2
v -0.1 0 -0.2
v 0.5 0 -0.2
v 0.6 0 -0.2
v -0.7 0 -0.3
v -0.4 0 -0.3
v -0.1 0 -0.3
v 0.1 0 -0.3
v 0.2 0 -0.3
v 0.5 0 -0.3
v 0.1 0 -0.4
v 0.2 0 -0.4
v -0.4 0.4 0
v -0.2 0.4 0
v 0.1 0.4 0
v 0.2 0.4 0
v -0.4 0.4 -0.1
v -0.2 0.4 -0.1
v 0.1 0.4 -0.1
v 0.2 0.4 -0.1
v 0.1 0.6 0.1
v 0.2 0.6 0.1
v -0.2 0.6 0
v 5.96046e-008 0.6 0
v 0.1 0.6 0
v 0.2 0.6 0
v -0.2 0.6 -0.1
v 5.96046e-008 0.6 -0.1
v -0.3 0.7 0
v -0.2 0.7 0
v 0.1 0.7 0
v 0.4 0.7 0
v -0.3 0.7 -0.1
v -0.2 0.7 -0.1
v 0.1 0.7 -0.1
v 0.4 0.7 -0.1
v -0.3 1 0
v -0.2 1 0
v 0.1 1 0
v 0.3 1 0
v -0.3 1 -0.1
v -0.2 1 -0.1
v 0.1 1 -0.1
v 0.3 1 -0.1
v -0.1 1.1 0
v 5.96046e-008 1.1 0
v -0.1 1.1 -0.1
v 5.96046e-008 1.1 -0.1
v -0.5 0.1 0.5
v -0.4 0.1 0.5
v 5.96046e-008 0.1 0.5
v 0.2 0.1 0.5
v -0.7 0.1 0.4
v -0.5 0.1 0.4
v -0.4 0.1 0.4
v -0.3 0.1 0.4
v -0.2 0.1 0.4
v 5.96046e-008 0.1 0.4
v 0.2 0.1 0.4
v 0.3 0.1 0.4
v 0.4 0.1 0.4
v 0.6 0.1 0.4
v -0.6 0.1 0.3
v -0.3 0.1 0.3
v -0.2 0.1 0.3
v 0.3 0.1 0.3
v 0.4 0.1 0.3
v 0.6 0.1 0.3
v 0.7 0.1 0.3
v -0.6 0.1 0.2
v -0.5 0.1 0.2
v 0.6 0.1 0.2
v 0.7 0.1 0.2
v 0.6 0.1 0.1
v 0.7 0.1 0.1
v -0.7 0.1 0
v -0.6 0.1 0
v -0.5 0.1 0
v 0.6 0.1 0
v 0.7 0.1 0
v -0.7 0.1 -0.1
v -0.6 0.1 -0.1
v -0.3 0.1 -0.1
v -0.2 0.1 -0.1
v 0.5 0.1 -0.1
v 0.6 0.1 -0.1
v -0.6 0.1 -0.2
v -0.4 0.1 -0.2
v -0.3 0.1 -0.2
v -0.2 0.1 -0.2
v -0.1 0.1 -0.2
v 0.5 0.1 -0.2
v 0.6 0.1 -0.2
v -0.7 0.1 -0.3
v -0.4 0.1 -0.3
v -0.1 0.1 -0.3
v 0.1 0.1 -0.3
v 0.2 0.1 -0.3
v 0.5 0.1 -0.3
v 0.1 0.1 -0.4
v 0.2 0.1 -0.4
v -0.6 0.2 0.3
v -0.2 0.2 0.3
v 0.3 0.2 0.3
v 0.6 0.2 0.3
v -0.6 0.2 0.2
v -0.5 0.2 0.2
v -0.2 0.2 0.2
v 0.3 0.2 0.2
v 0.5 0.2 0.2
v 0.6 0.2 0.2
v 0.7 0.2 0.2
v 0.5 0.2 0.1
v 0.6 0.2 0.1
v 0.7 0.2 0.1
v -0.6 0.2 0
v -0.5 0.2 0
v 0.5 0.2 0
v 0.6 0.2 0
v -0.6 0.2 -0.1
v -0.5 0.2 -0.1
v -0.4 0.2 -0.1
v -0.3 0.2 -0.1
v -0.2 0.2 -0.1
v 0.1 0.2 -0.1
v 0.3 0.2 -0.1
v 0.5 0.2 -0.1
v 0.6 0.2 -0.1
v -0.4 0.2 -0.2
v -0.3 0.2 -0.2
v -0.2 0.2 -0.2
v 0.1 0.2 -0.2
v 0.3 0.2 -0.2
v 0.5 0.2 -0.2
v -0.2 0.3 0.3
v 0.3 0.3 0.3
v -0.2 0.3 0.2
v 0.3 0.3 0.2
v 0.5 0.3 0.1
v 0.6 0.3 0.1
v -0.4 0.3 0
v -0.2 0.3 0
v 0.1 0.3 0
v 0.2 0.3 0
v 0.5 0.3 0
v 0.6 0.3 0
v -0.6 0.3 -0.1
v -0.5 0.3 -0.1
v -0.4 0.3 -0.1
v -0.2 0.3 -0.1
v 0.1 0.3 -0.1
v 0.2 0.3 -0.1
v 0.3 0.3 -0.1
v -0.6 0.3 -0.2
v -0.4 0.3 -0.2
v 0.1 0.3 -0.2
v 0.3 0.3 -0.2
v 0.1 0.5 0.1
v 0.2 0.5 0.1
v -0.2 0.5 0
v 5.96046e-008 0.5 0
v 0.3 0.5 0
v 0.4 0.5 0
v -0.2 0.5 -0.1
v 5.96046e-008 0.5 -0.1
v 0.1 0.5 -0.1
v 0.2 0.5 -0.1
v 0.3 0.5 -0.1
v 0.4 0.5 -0.1
v -0.3 0.6 0
v -0.2 0.6 0
v 0.2 0.6 0
v 0.3 0.6 0
v -0.3 0.6 -0.1
v -0.2 0.6 -0.1
v 0.2 0.6 -0.1
v 0.3 0.6 -0.1
v -0.3 0.8 0
v -0.2 0.8 0
v 0.1 0.8 0
v 0.2 0.8 0
v -0.3 0.8 -0.1
v -0.2 0.8 -0.1
v 0.1 0.8 -0.1
v 0.2 0.8 -0.1
v 0.2 0.9 0
v 0.3 0.9 0
v 0.2 0.9 -0.1
v 0.3 0.9 -0.1
v -0.5 1 0.2
v -0.4 1 0.2
v 0.4 1 0.2
v 0.5 1 0.2
v -0.1 1 0
v 5.96046e-008 1 0
v -0.5 1 -0.1
v -0.4 1 -0.1
v -0.1 1 -0.1
v 5.96046e-008 1 -0.1
v 0.4 1 -0.1
v 0.5 1 -0.1
v -0.4 1.2 0.2
v -0.3 1.2 0.2
v 0.3 1.2 0.2
v 0.4 1.2 0.2
v -0.4 1.2 -0.1
v -0.3 1.2 -0.1
v 0.3 1.2 -0.1
v 0.4 1.2 -0.1
v -0.3 1.3 0.2
v -0.1 1.3 0.2
v 0.1 1.3 0.2
v 0.3 1.3 0.2
v -0.3 1.3 -0.1
v -0.1 1.3 -0.1
v 0.1 1.3 -0.1
v 0.3 1.3 -0.1
v -0.1 1.4 0.2
v 0.1 1.4 0.2
v -0.1 1.4 -0.1
v 0.1 1.4 -0.1

# faces
f 5/1/1 2/1/1 1/1/1
f 6/1/1 2/1/1 5/1/1
f 7/1/1 4/1/1 3/1/1
f 8/1/1 4/1/1 7/1/1
f 13/1/1 10/1/1 9/1/1
f 14/1/1 10/1/1 13/1/1
f 16/1/1 12/1/1 11/1/1
f 17/1/1 12/1/1 16/1/1
f 18/1/1 15/1/1 14/1/1
f 18/1/1 14/1/1 13/1/1
f 19/1/1 15/1/1 18/1/1
f 20/1/1 15/1/1 19/1/1
f 21/1/1 15/1/1 20/1/1
f 24/1/1 23/1/1 22/1/1
f 25/1/1 23/1/1 24/1/1
f 28/1/1 27/1/1 26/1/1
f 29/1/1 27/1/1 28/1/1
f 31/2/1 29/2/1 28/2/1
f 31/2/1 30/2/1 29/2/1
f 32/2/1 31/2/1 28/2/1
f 33/2/1 31/2/1 32/2/1
f 36/2/1 35/2/1 34/2/1
f 37/2/1 35/2/1 36/2/1
f 40/2/1 39/2/1 38/2/1
f 41/2/1 39/2/1 40/2/1
f 44/1/1 43/1/1 42/1/1
f 45/1/1 43/1/1 44/1/1
f 50/1/1 47/1/1 46/1/1
f 51/1/1 47/1/1 50/1/1
f 52/1/1 49/1/1 48/1/1
f 53/1/1 49/1/1 52/1/1
f 56/2/1 55/2/1 54/2/1
f 57/2/1 55/2/1 56/2/1
f 60/2/1 59/2/1 58/2/1
f 61/2/1 59/2/1 60/2/1
f 64/2/1 63/2/1 62/2/1
f 65/2/1 63/2/1 64/2/1
f 68/1/1 67/1/1 66/1/1
f 69/1/1 67/1/1 68/1/1
f 72/2/1 71/2/1 70/2/1
f 73/2/1 71/2/1 72/2/1
f 76/1/1 75/1/1 74/1/1
f 77/1/1 75/1/1 76/1/1
f 80/2/1 79/2/1 78/2/1
f 81/2/1 79/2/1 80/2/1
f 84/2/1 83/2/1 82/2/1
f 85/2/1 83/2/1 84/2/1
f 88/1/1 87/1/1 86/1/1
f 89/1/1 87/1/1 88/1/1
f 92/1/1 91/1/1 90/1/1
f 93/1/1 91/1/1 92/1/1
f 96/2/1 95/2/1 94/2/1
f 97/2/1 95/2/1 96/2/1
f 100/2/1 99/2/1 98/2/1
f 101/2/1 99/2/1 100/2/1
f 102/2/1 99/2/1 101/2/1
f 105/2/1 104/2/1 103/2/1
f 106/2/1 104/2/1 105/2/1
f 109/2/1 108/2/1 107/2/1
f 110/2/1 108/2/1 109/2/1
f 113/1/1 112/1/1 111/1/1
f 114/1/1 112/1/1 113/1/1
f 117/2/1 116/2/1 115/2/1
f 118/2/1 116/2/1 117/2/1
f 119/1/2 120/1/2 123/1/2
f 123/1/2 120/1/2 124/1/2
f 121/1/2 122/1/2 125/1/2
f 125/1/2 122/1/2 126/1/2
f 127/1/2 128/1/2 130/1/2
f 130/1/2 128/1/2 131/1/2
f 129/2/2 130/2/2 132/2/2
f 132/2/2 130/2/2 133/2/2
f 134/1/2 135/1/2 136/1/2
f 136/1/2 135/1/2 137/1/2
f 138/1/2 139/1/2 140/1/2
f 140/1/2 139/1/2 141/1/2
f 142/2/2 143/2/2 144/2/2
f 144/2/2 143/2/2 145/2/2
f 146/2/2 147/2/2 148/2/2
f 148/2/2 147/2/2 149/2/2
f 150/2/2 151/2/2 152/2/2
f 152/2/2 151/2/2 153/2/2
f 154/2/2 155/2/2 156/2/2
f 156/2/2 155/2/2 157/2/2
f 158/2/2 159/2/2 160/2/2
f 160/2/2 159/2/2 161/2/2
f 162/2/2 163/2/2 164/2/2
f 164/2/2 163/2/2 165/2/2
f 165/2/2 163/2/2 166/2/2
f 166/2/2 163/2/2 167/2/2
f 168/2/2 169/2/2 170/2/2
f 170/2/2 169/2/2 171/2/2
f 172/2/2 173/2/2 174/2/2
f 174/2/2 173/2/2 175/2/2
f 176/1/2 177/1/2 180/1/2
f 180/1/2 177/1/2 181/1/2
f 178/1/2 179/1/2 182/1/2
f 182/1/2 179/1/2 183/1/2
f 184/1/2 185/1/2 186/1/2
f 186/1/2 185/1/2 187/1/2
f 188/1/2 189/1/2 192/1/2
f 192/1/2 189/1/2 193/1/2
f 190/1/2 191/1/2 194/1/2
f 194/1/2 191/1/2 195/1/2
f 196/2/2 197/2/2 198/2/2
f 198/2/2 197/2/2 199/2/2
f 200/2/2 201/2/2 202/2/2
f 202/2/2 201/2/2 203/2/2
f 204/2/2 205/2/2 206/2/2
f 206/2/2 205/2/2 207/2/2
f 208/1/2 209/1/2 211/1/2
f 211/1/2 209/1/2 212/1/2
f 210/1/2 211/1/2 216/1/2
f 216/1/2 211/1/2 217/1/2
f 213/2/2 214/2/2 218/2/2
f 215/2/2 216/2/2 219/2/2
f 213/2/2 218/2/2 220/2/2
f 218/2/2 219/2/2 220/2/2
f 219/2/2 216/2/2 221/2/2
f 220/2/2 219/2/2 221/2/2
f 222/1/2 223/1/2 226/1/2
f 226/1/2 223/1/2 227/1/2
f 224/1/2 225/1/2 230/1/2
f 230/1/2 225/1/2 231/1/2
f 231/1/2 225/1/2 232/1/2
f 227/1/2 228/1/2 233/1/2
f 233/1/2 228/1/2 234/1/2
f 230/1/2 231/1/2 235/1/2
f 229/1/2 230/1/2 235/1/2
f 235/1/2 231/1/2 236/1/2
f 236/1/2 231/1/2 237/1/2
f 235/1/2 236/1/2 238/1/2
f 238/1/2 236/1/2 239/1/2
f 240/1/2 241/1/2 242/1/2
f 242/1/2 241/1/2 243/1/2
f 243/1/2 241/1/2 244/1/2
f 244/1/2 241/1/2 245/1/2
f 243/1/2 244/1/2 246/1/2
f 246/1/2 244/1/2 247/1/2
f 250/1/3 249/1/3 248/1/3
f 251/1/3 249/1/3 250/1/3
f 254/1/3 253/1/3 252/1/3
f 255/1/3 253/1/3 254/1/3
f 258/1/3 257/1/3 256/1/3
f 259/1/3 257/1/3 258/1/3
f 262/1/3 261/1/3 260/1/3
f 263/1/3 261/1/3 262/1/3
f 266/1/3 265/1/3 264/1/3
f 267/1/3 265/1/3 266/1/3
f 270/1/3 269/1/3 268/1/3
f 271/1/3 269/1/3 270/1/3
f 274/1/3 273/1/3 272/1/3
f 275/1/3 273/1/3 274/1/3
f 279/1/3 277/1/3 276/1/3
f 280/1/3 279/1/3 278/1/3
f 281/1/3 277/1/3 279/1/3
f 281/1/3 279/1/3 280/1/3
f 282/1/3 277/1/3 281/1/3
f 285/1/3 283/1/3 282/1/3
f 285/1/3 282/1/3 281/1/3
f 286/1/3 283/1/3 285/1/3
f 287/1/3 283/1/3 286/1/3
f 288/1/3 285/1/3 284/1/3
f 288/1/3 286/1/3 285/1/3
f 289/1/3 286/1/3 288/1/3
f 291/1/3 286/1/3 289/1/3
f 292/1/3 286/1/3 291/1/3
f 293/1/3 291/1/3 290/1/3
f 294/1/3 291/1/3 293/1/3
f 297/2/3 296/2/3 295/2/3
f 299/2/3 298/2/3 297/2/3
f 301/2/3 297/2/3 295/2/3
f 301/2/3 300/2/3 299/2/3
f 301/2/3 299/2/3 297/2/3
f 302/2/3 300/2/3 301/2/3
f 303/2/3 300/2/3 302/2/3
f 305/2/3 303/2/3 302/2/3
f 305/2/3 304/2/3 303/2/3
f 306/2/3 304/2/3 305/2/3
f 308/2/3 305/2/3 302/2/3
f 309/2/3 305/2/3 308/2/3
f 310/2/3 305/2/3 309/2/3
f 311/2/3 308/2/3 307/2/3
f 311/2/3 309/2/3 308/2/3
f 312/2/3 309/2/3 311/2/3
f 313/2/3 311/2/3 307/2/3
f 314/2/3 311/2/3 313/2/3
f 317/1/3 316/1/3 315/1/3
f 318/1/3 316/1/3 317/1/3
f 321/1/3 320/1/3 319/1/3
f 322/1/3 320/1/3 321/1/3
f 325/1/3 324/1/3 323/1/3
f 326/1/3 324/1/3 325/1/3
f 329/1/3 328/1/3 327/1/3
f 330/1/3 328/1/3 329/1/3
f 333/1/3 332/1/3 331/1/3
f 334/1/3 332/1/3 333/1/3
f 335/1/4 336/1/4 337/1/4
f 337/1/4 336/1/4 338/1/4
f 339/2/4 340/2/4 341/2/4
f 341/2/4 340/2/4 342/2/4
f 343/1/4 344/1/4 345/1/4
f 345/1/4 344/1/4 346/1/4
f 347/1/4 348/1/4 349/1/4
f 349/1/4 348/1/4 350/1/4
f 351/2/4 352/2/4 357/2/4
f 357/2/4 352/2/4 358/2/4
f 353/2/4 354/2/4 360/2/4
f 360/2/4 354/2/4 361/2/4
f 355/2/4 356/2/4 362/2/4
f 362/2/4 356/2/4 363/2/4
f 359/2/4 360/2/4 366/2/4
f 366/2/4 360/2/4 367/2/4
f 364/2/4 365/2/4 368/2/4
f 368/2/4 365/2/4 369/2/4
f 370/2/4 371/2/4 376/2/4
f 376/2/4 371/2/4 377/2/4
f 372/2/4 373/2/4 378/2/4
f 374/2/4 375/2/4 379/2/4
f 379/2/4 375/2/4 380/2/4
f 378/2/4 373/2/4 382/2/4
f 380/2/4 375/2/4 383/2/4
f 383/2/4 375/2/4 384/2/4
f 381/2/4 382/2/4 385/2/4
f 382/2/4 373/2/4 386/2/4
f 385/2/4 382/2/4 386/2/4
f 387/1/4 388/1/4 391/1/4
f 391/1/4 388/1/4 392/1/4
f 389/1/4 390/1/4 393/1/4
f 393/1/4 390/1/4 394/1/4
f 395/2/4 396/2/4 398/2/4
f 398/2/4 396/2/4 399/2/4
f 399/2/4 396/2/4 400/2/4
f 397/2/4 398/2/4 403/2/4
f 399/2/4 400/2/4 404/2/4
f 400/2/4 401/2/4 404/2/4
f 404/2/4 401/2/4 405/2/4
f 405/2/4 401/2/4 406/2/4
f 406/2/4 401/2/4 407/2/4
f 407/2/4 401/2/4 408/2/4
f 402/1/4 403/1/4 410/1/4
f 403/2/4 398/2/4 411/2/4
f 410/1/4 403/1/4 411/1/4
f 411/2/4 398/2/4 412/2/4
f 399/2/4 404/2/4 413/2/4
f 413/2/4 404/2/4 414/2/4
f 414/2/4 404/2/4 415/2/4
f 405/2/4 406/2/4 416/2/4
f 416/2/4 406/2/4 417/2/4
f 408/2/4 409/2/4 418/2/4
f 407/2/4 408/2/4 418/2/4
f 416/2/4 417/2/4 419/2/4
f 417/2/4 418/2/4 419/2/4
f 418/2/4 409/2/4 419/2/4
f 415/2/4 416/2/4 419/2/4
f 419/2/4 409/2/4 420/2/4
f 420/2/4 409/2/4 421/2/4
f 411/2/4 412/2/4 423/2/4
f 413/2/4 414/2/4 423/2/4
f 412/2/4 413/2/4 423/2/4
f 415/2/4 419/2/4 424/2/4
f 424/2/4 419/2/4 425/2/4
f 421/2/4 422/2/4 426/2/4
f 420/2/4 421/2/4 426/2/4
f 424/2/4 425/2/4 427/2/4
f 425/2/4 426/2/4 427/2/4
f 423/2/4 424/2/4 427/2/4
f 411/2/4 423/2/4 427/2/4
f 427/2/4 426/2/4 428/2/4
f 428/2/4 426/2/4 429/2/4
f 429/2/4 426/2/4 430/2/4
f 430/2/4 426/2/4 431/2/4
f 431/2/4 426/2/4 432/2/4
f 432/2/4 426/2/4 433/2/4
f 426/2/4 422/2/4 434/2/4
f 433/2/4 426/2/4 434/2/4
f 434/2/4 422/2/4 435/2/4
f 429/2/4 430/2/4 437/2/4
f 437/2/4 430/2/4 438/2/4
f 431/2/4 432/2/4 440/2/4
f 438/2/4 439/2/4 443/2/4
f 436/2/4 437/2/4 443/2/4
f 437/2/4 438/2/4 443/2/4
f 443/2/4 439/2/4 444/2/4
f 444/2/4 439/2/4 445/2/4
f 440/2/4 441/2/4 446/2/4
f 433/2/4 434/2/4 447/2/4
f 447/2/4 434/2/4 448/2/4
f 448/2/4 434/2/4 449/2/4
f 442/2/4 443/2/4 450/2/4
f 443/2/4 444/2/4 450/2/4
f 440/2/4 446/2/4 451/2/4
f 431/2/4 440/2/4 451/2/4
f 447/2/4 448/2/4 451/2/4
f 446/2/4 447/2/4 451/2/4
f 451/2/4 448/2/4 452/2/4
f 452/2/4 448/2/4 453/2/4
f 442/2/4 450/2/4 455/2/4
f 450/2/4 451/2/4 455/2/4
f 451/2/4 452/2/4 455/2/4
f 455/2/4 452/2/4 456/2/4
f 454/1/4 455/1/4 457/1/4
f 457/1/4 455/1/4 458/1/4
f 459/1/4 460/1/4 462/1/4
f 462/1/4 460/1/4 463/1/4
f 463/1/4 460/1/4 464/1/4
f 461/1/4 462/1/4 465/1/4
f 462/1/4 463/1/4 465/1/4
f 465/1/4 463/1/4 466/1/4
f 461/1/4 465/1/4 467/1/4
f 461/1/4 467/1/4 469/1/4
f 467/1/4 468/1/4 469/1/4
f 469/1/4 468/1/4 470/1/4
f 470/1/4 468/1/4 471/1/4
f 470/1/4 471/1/4 473/1/4
f 471/1/4 472/1/4 473/1/4
f 473/1/4 472/1/4 474/1/4
f 470/1/4 473/1/4 476/1/4
f 476/1/4 473/1/4 477/1/4
f 475/1/4 476/1/4 478/1/4
f 478/1/4 476/1/4 479/1/4
f 480/1/4 481/1/4 482/1/4
f 482/1/4 481/1/4 483/1/4
f 484/1/4 485/1/4 486/1/4
f 486/1/4 485/1/4 487/1/4
f 488/1/4 489/1/4 490/1/4
f 490/1/4 489/1/4 491/1/4
f 492/1/4 493/1/4 494/1/4
f 494/1/4 493/1/4 495/1/4
f 501/1/5 497/1/5 496/1/5
f 502/1/5 497/1/5 501/1/5
f 505/1/5 499/1/5 498/1/5
f 506/1/5 499/1/5 505/1/5
f 510/1/5 503/1/5 502/1/5
f 510/1/5 501/1/5 500/1/5
f 510/1/5 502/1/5 501/1/5
f 511/1/5 507/1/5 506/1/5
f 511/1/5 506/1/5 505/1/5
f 511/1/5 505/1/5 504/1/5
f 512/1/5 507/1/5 511/1/5
f 513/1/5 509/1/5 508/1/5
f 514/1/5 509/1/5 513/1/5
f 516/1/5 512/1/5 511/1/5
f 516/1/5 515/1/5 514/1/5
f 516/1/5 514/1/5 513/1/5
f 516/1/5 513/1/5 512/1/5
f 516/1/5 510/1/5 500/1/5
f 516/1/5 511/1/5 510/1/5
f 517/1/5 515/1/5 516/1/5
f 518/1/5 515/1/5 517/1/5
f 519/1/5 515/1/5 518/1/5
f 521/1/5 518/1/5 517/1/5
f 522/1/5 518/1/5 521/1/5
f 522/1/5 521/1/5 520/1/5
f 523/1/5 518/1/5 522/1/5
f 524/1/5 518/1/5 523/1/5
f 525/1/5 518/1/5 524/1/5
f 526/1/5 522/1/5 520/1/5
f 527/1/5 522/1/5 526/1/5
f 528/1/5 524/1/5 523/1/5
f 529/1/5 524/1/5 528/1/5
f 530/1/5 524/1/5 529/1/5
f 531/1/5 524/1/5 530/1/5
f 532/1/5 530/1/5 529/1/5
f 533/1/5 530/1/5 532/1/5
f 538/2/5 535/2/5 534/2/5
f 539/2/5 535/2/5 538/2/5
f 540/2/5 537/2/5 536/2/5
f 541/2/5 537/2/5 540/2/5
f 546/2/5 543/2/5 542/2/5
f 547/2/5 543/2/5 546/2/5
f 548/2/5 545/2/5 544/2/5
f 549/2/5 545/2/5 548/2/5
f 554/2/5 551/2/5 550/2/5
f 555/2/5 551/2/5 554/2/5
f 556/2/5 553/2/5 552/2/5
f 557/2/5 553/2/5 556/2/5
f 562/2/5 559/2/5 558/2/5
f 563/2/5 559/2/5 562/2/5
f 564/2/5 561/2/5 560/2/5
f 565/2/5 561/2/5 564/2/5
f 568/2/5 567/2/5 566/2/5
f 569/2/5 567/2/5 568/2/5
f 570/1/6 571/1/6 575/1/6
f 575/1/6 571/1/6 576/1/6
f 572/1/6 573/1/6 579/1/6
f 579/1/6 573/1/6 580/1/6
f 576/1/6 577/1/6 584/1/6
f 574/1/6 575/1/6 584/1/6
f 575/1/6 576/1/6 584/1/6
f 584/1/6 577/1/6 585/1/6
f 580/1/6 581/1/6 586/1/6
f 579/1/6 580/1/6 586/1/6
f 578/1/6 579/1/6 586/1/6
f 586/1/6 581/1/6 587/1/6
f 582/1/6 583/1/6 588/1/6
f 588/1/6 583/1/6 589/1/6
f 574/1/6 584/1/6 591/1/6
f 589/1/6 590/1/6 593/1/6
f 593/1/6 590/1/6 594/1/6
f 591/1/6 592/1/6 597/1/6
f 574/1/6 591/1/6 597/1/6
f 597/1/6 592/1/6 598/1/6
f 598/1/6 592/1/6 599/1/6
f 595/1/6 596/1/6 600/1/6
f 600/1/6 596/1/6 601/1/6
f 602/1/6 603/1/6 608/1/6
f 604/1/6 605/1/6 610/1/6
f 610/1/6 605/1/6 611/1/6
f 606/1/6 607/1/6 613/1/6
f 613/1/6 607/1/6 614/1/6
f 608/1/6 609/1/6 615/1/6
f 602/1/6 608/1/6 615/1/6
f 615/1/6 609/1/6 616/1/6
f 612/1/6 613/1/6 617/1/6
f 617/1/6 613/1/6 618/1/6
f 618/1/6 613/1/6 619/1/6
f 619/1/6 613/1/6 620/1/6
f 618/1/6 619/1/6 621/1/6
f 621/1/6 619/1/6 622/1/6
f 623/1/6 624/1/6 627/1/6
f 627/1/6 624/1/6 628/1/6
f 628/1/6 624/1/6 629/1/6
f 625/1/6 626/1/6 630/1/6
f 630/1/6 626/1/6 631/1/6
f 631/1/6 626/1/6 632/1/6
f 632/1/6 633/1/6 634/1/6
f 631/1/6 632/1/6 634/1/6
f 634/1/6 633/1/6 635/1/6
f 635/1/6 633/1/6 636/1/6
f 637/1/6 638/1/6 641/1/6
f 641/1/6 638/1/6 642/1/6
f 639/1/6 640/1/6 648/1/6
f 648/1/6 640/1/6 649/1/6
f 643/1/6 644/1/6 650/1/6
f 650/1/6 644/1/6 651/1/6
f 645/1/6 646/1/6 652/1/6
f 652/1/6 646/1/6 653/1/6
f 647/1/6 648/1/6 654/1/6
f 654/1/6 648/1/6 655/1/6
f 656/1/6 657/1/6 658/1/6
f 658/1/6 657/1/6 659/1/6
f 660/1/6 661/1/6 666/1/6
f 666/1/6 661/1/6 667/1/6
f 662/2/6 663/2/6 670/2/6
f 670/2/6 663/2/6 671/2/6
f 664/2/6 665/2/6 672/2/6
f 672/2/6 665/2/6 673/2/6
f 668/1/6 669/1/6 675/1/6
f 669/1/6 670/1/6 675/1/6
f 675/1/6 670/1/6 676/1/6
f 673/1/6 674/1/6 677/1/6
f 672/1/6 673/1/6 677/1/6
f 677/1/6 674/1/6 678/1/6
f 681/2/6 682/2/6 685/2/6
f 685/2/6 682/2/6 686/2/6
f 679/2/6 680/2/6 687/2/6
f 687/2/6 680/2/6 688/2/6
f 683/2/6 684/2/6 689/2/6
f 689/2/6 684/2/6 690/2/6
f 691/2/6 692/2/6 695/2/6
f 695/2/6 692/2/6 696/2/6
f 693/2/6 694/2/6 697/2/6
f 697/2/6 694/2/6 698/2/6
f 699/2/6 700/2/6 703/2/6
f 703/2/6 700/2/6 704/2/6
f 701/2/6 702/2/6 705/2/6
f 705/2/6 702/2/6 706/2/6
f 707/2/6 708/2/6 709/2/6
f 709/2/6 708/2/6 710/2/6
f 711/2/6 712/2/6 717/2/6
f 717/2/6 712/2/6 718/2/6
f 715/2/6 716/2/6 719/2/6
f 719/2/6 716/2/6 720/2/6
f 713/2/6 714/2/6 721/2/6
f 721/2/6 714/2/6 722/2/6
f 723/2/6 724/2/6 727/2/6
f 727/2/6 724/2/6 728/2/6
f 725/2/6 726/2/6 729/2/6
f 729/2/6 726/2/6 730/2/6
f 731/2/6 732/2/6 735/2/6
f 735/2/6 732/2/6 736/2/6
f 733/2/6 734/2/6 737/2/6
f 737/2/6 734/2/6 738/2/6
f 739/2/6 740/2/6 741/2/6
f 741/2/6 740/2/6 742/2/6
