# MagicaVoxel @ Ephtracy

# group
o 

# material
mtllib Lapide 05.mtl
usemtl palette

# normals
vn -1 0 0
vn 1 0 0
vn 0 0 1
vn 0 0 -1
vn 0 -1 0
vn 0 1 0

# texcoords
vt 0.927734 0.5
vt 0.990234 0.5

# verts
v -0.1 0 1.5
v -0.1 0 1
v -0.1 0 0.1
v -0.1 0 -0.7
v -0.1 0.1 1.5
v -0.1 0.1 1
v -0.1 0.1 0.1
v -0.1 0.1 -0.7
v 0 0 1.8
v 0 0 1.5
v 0 0 1
v 0 0 0.1
v 0 0 -0.7
v 0 0 -1.2
v 0 0.1 1.8
v 0 0.1 1.5
v 0 0.1 1
v 0 0.1 0.1
v 0 0.1 -0.7
v 0 0.1 -1.2
v 0.1 0 1.9
v 0.1 0 1.8
v 0.1 0 -1.2
v 0.1 0 -1.3
v 0.1 0.1 1.9
v 0.1 0.1 1.8
v 0.1 0.1 1.5
v 0.1 0.1 -0.6
v 0.1 0.1 -1.2
v 0.1 0.1 -1.3
v 0.1 0.2 1.5
v 0.1 0.2 -0.6
v 0.1 0.9 -1.3
v 0.1 0.9 -1.5
v 0.1 1.1 -1.3
v 0.1 1.1 -1.5
v 0.2 0 -1.3
v 0.2 0 -1.5
v 0.2 0 -1.6
v 0.2 0 -1.7
v 0.2 0.1 1.6
v 0.2 0.1 1.5
v 0.2 0.1 -0.6
v 0.2 0.1 -0.8
v 0.2 0.1 -1.3
v 0.2 0.1 -1.5
v 0.2 0.1 -1.6
v 0.2 0.1 -1.7
v 0.2 0.2 1.6
v 0.2 0.2 1.5
v 0.2 0.2 -0.6
v 0.2 0.2 -0.8
v 0.3 0 -1.5
v 0.3 0 -1.6
v 0.3 0.1 1.7
v 0.3 0.1 1.6
v 0.3 0.1 -0.9
v 0.3 0.1 -1.1
v 0.3 0.1 -1.3
v 0.3 0.1 -1.4
v 0.3 0.1 -1.5
v 0.3 0.1 -1.6
v 0.3 0.2 1.7
v 0.3 0.2 1.6
v 0.3 0.2 -0.9
v 0.3 0.2 -1.1
v 0.3 0.2 -1.3
v 0.3 0.2 -1.4
v 0.4 0.1 -1.2
v 0.4 0.1 -1.3
v 0.4 0.1 -1.4
v 0.4 0.1 -1.5
v 0.4 0.1 -1.6
v 0.4 0.2 -1.2
v 0.4 0.2 -1.3
v 0.4 0.2 -1.4
v 0.4 0.2 -1.5
v 0.4 0.2 -1.6
v 0.4 0.9 -1.3
v 0.4 0.9 -1.5
v 0.4 1.1 -1.3
v 0.4 1.1 -1.5
v 0.4 1.4 -1.3
v 0.4 1.4 -1.5
v 0.8 0 1.9
v 0.8 0 1.8
v 0.8 0.1 1.9
v 0.8 0.1 1.8
v 0.8 0.1 1.7
v 0.8 0.1 1.6
v 0.8 0.2 1.7
v 0.8 0.2 1.6
v 0.5 0.1 -1.5
v 0.5 0.1 -1.6
v 0.5 0.2 -1.5
v 0.5 0.2 -1.6
v 0.6 0 -1.6
v 0.6 0 -1.7
v 0.6 0.1 -1.4
v 0.6 0.1 -1.5
v 0.6 0.1 -1.6
v 0.6 0.1 -1.7
v 0.6 0.2 -1.3
v 0.6 0.2 -1.4
v 0.6 0.9 -1.3
v 0.6 0.9 -1.5
v 0.6 1.1 -1.3
v 0.6 1.1 -1.5
v 0.6 1.4 -1.3
v 0.6 1.4 -1.5
v 0.7 0 1.9
v 0.7 0 1.8
v 0.7 0.1 1.9
v 0.7 0.1 1.8
v 0.7 0.1 1.7
v 0.7 0.1 1.6
v 0.7 0.1 -0.9
v 0.7 0.1 -1.1
v 0.7 0.1 -1.2
v 0.7 0.1 -1.4
v 0.7 0.2 1.7
v 0.7 0.2 1.6
v 0.7 0.2 -0.9
v 0.7 0.2 -1.1
v 0.7 0.2 -1.2
v 0.7 0.2 -1.4
v 0.8 0 -1.2
v 0.8 0 -1.6
v 0.8 0.1 -0.7
v 0.8 0.1 -0.8
v 0.8 0.1 -1.2
v 0.8 0.1 -1.6
v 0.8 0.2 -0.7
v 0.8 0.2 -0.8
v 0.9 0 -1.1
v 0.9 0 -1.2
v 0.9 0.1 1.7
v 0.9 0.1 -0.7
v 0.9 0.1 -1.1
v 0.9 0.1 -1.2
v 0.9 0.2 1.7
v 0.9 0.2 -0.7
v 0.9 0.9 -1.3
v 0.9 0.9 -1.5
v 0.9 1.1 -1.3
v 0.9 1.1 -1.5
v 1 0 1.9
v 1 0 1.2
v 1 0 0.3
v 1 0 -1.1
v 1 0.1 1.9
v 1 0.1 1.2
v 1 0.1 0.3
v 1 0.1 -1.1
v 1.1 0 1.2
v 1.1 0 0.3
v 1.1 0.1 1.2
v 1.1 0.1 0.3
v 0.1 0 1.9
v 0.1 0.1 1.9
v 0.7 0 1.9
v 0.7 0.1 1.9
v 0.8 0 1.9
v 0.8 0.1 1.9
v 1 0 1.9
v 1 0.1 1.9
v 0 0 1.8
v 0 0.1 1.8
v 0.1 0 1.8
v 0.1 0.1 1.8
v 0.7 0 1.8
v 0.7 0.1 1.8
v 0.8 0 1.8
v 0.8 0.1 1.8
v 0.3 0.1 1.7
v 0.3 0.2 1.7
v 0.7 0.1 1.7
v 0.7 0.2 1.7
v 0.8 0.1 1.7
v 0.8 0.2 1.7
v 0.9 0.1 1.7
v 0.9 0.2 1.7
v 0.2 0.1 1.6
v 0.2 0.2 1.6
v 0.3 0.1 1.6
v 0.3 0.2 1.6
v 0.7 0.1 1.6
v 0.7 0.2 1.6
v 0.8 0.1 1.6
v 0.8 0.2 1.6
v -0.1 0 1.5
v -0.1 0.1 1.5
v 0 0 1.5
v 0 0.1 1.5
v 0.1 0.1 1.5
v 0.1 0.2 1.5
v 0.2 0.1 1.5
v 0.2 0.2 1.5
v 1 0 1.2
v 1 0.1 1.2
v 1.1 0 1.2
v 1.1 0.1 1.2
v -0.1 0 0.1
v -0.1 0.1 0.1
v 0 0 0.1
v 0 0.1 0.1
v 0.3 0.1 -0.9
v 0.3 0.2 -0.9
v 0.7 0.1 -0.9
v 0.7 0.2 -0.9
v 0.4 0.1 -1.2
v 0.4 0.2 -1.2
v 0.7 0.1 -1.2
v 0.7 0.2 -1.2
v 0.1 0.9 -1.3
v 0.1 1.1 -1.3
v 0.3 0.1 -1.3
v 0.3 0.2 -1.3
v 0.4 0.1 -1.3
v 0.4 0.2 -1.3
v 0.4 0.9 -1.3
v 0.4 1.1 -1.3
v 0.4 1.4 -1.3
v 0.6 0.2 -1.3
v 0.6 0.9 -1.3
v 0.6 1.1 -1.3
v 0.6 1.4 -1.3
v 0.9 0.9 -1.3
v 0.9 1.1 -1.3
v 0.2 0 -1.6
v 0.2 0.1 -1.6
v 0.3 0 -1.6
v 0.3 0.1 -1.6
v -0.1 0 1
v -0.1 0.1 1
v 0 0 1
v 0 0.1 1
v 1 0 0.3
v 1 0.1 0.3
v 1.1 0 0.3
v 1.1 0.1 0.3
v 0.1 0.1 -0.6
v 0.1 0.2 -0.6
v 0.2 0.1 -0.6
v 0.2 0.2 -0.6
v -0.1 0 -0.7
v -0.1 0.1 -0.7
v 0 0 -0.7
v 0 0.1 -0.7
v 0.8 0.1 -0.7
v 0.8 0.2 -0.7
v 0.9 0.1 -0.7
v 0.9 0.2 -0.7
v 0.2 0.1 -0.8
v 0.2 0.2 -0.8
v 0.8 0.1 -0.8
v 0.8 0.2 -0.8
v 0.3 0.1 -1.1
v 0.3 0.2 -1.1
v 0.7 0.1 -1.1
v 0.7 0.2 -1.1
v 0.9 0 -1.1
v 0.9 0.1 -1.1
v 1 0 -1.1
v 1 0.1 -1.1
v 0 0 -1.2
v 0 0.1 -1.2
v 0.1 0 -1.2
v 0.1 0.1 -1.2
v 0.8 0 -1.2
v 0.8 0.1 -1.2
v 0.9 0 -1.2
v 0.9 0.1 -1.2
v 0.1 0 -1.3
v 0.1 0.1 -1.3
v 0.2 0 -1.3
v 0.2 0.1 -1.3
v 0.3 0.1 -1.4
v 0.3 0.2 -1.4
v 0.4 0.1 -1.4
v 0.4 0.2 -1.4
v 0.6 0.1 -1.4
v 0.6 0.2 -1.4
v 0.7 0.1 -1.4
v 0.7 0.2 -1.4
v 0.1 0.9 -1.5
v 0.1 1.1 -1.5
v 0.2 0 -1.5
v 0.2 0.1 -1.5
v 0.3 0 -1.5
v 0.3 0.1 -1.5
v 0.4 0.2 -1.5
v 0.4 0.9 -1.5
v 0.4 1.1 -1.5
v 0.4 1.4 -1.5
v 0.5 0.1 -1.5
v 0.5 0.2 -1.5
v 0.6 0.1 -1.5
v 0.6 0.9 -1.5
v 0.6 1.1 -1.5
v 0.6 1.4 -1.5
v 0.9 0.9 -1.5
v 0.9 1.1 -1.5
v 0.4 0.1 -1.6
v 0.4 0.2 -1.6
v 0.5 0.1 -1.6
v 0.5 0.2 -1.6
v 0.6 0 -1.6
v 0.6 0.1 -1.6
v 0.8 0 -1.6
v 0.8 0.1 -1.6
v 0.2 0 -1.7
v 0.2 0.1 -1.7
v 0.6 0 -1.7
v 0.6 0.1 -1.7
v 0.1 0 1.9
v 0.7 0 1.9
v 0.8 0 1.9
v 1 0 1.9
v 0 0 1.8
v 0.1 0 1.8
v 0.7 0 1.8
v 0.8 0 1.8
v -0.1 0 1.5
v 0 0 1.5
v 1 0 1.2
v 1.1 0 1.2
v -0.1 0 1
v 0 0 1
v 1 0 0.3
v 1.1 0 0.3
v -0.1 0 0.1
v 0 0 0.1
v -0.1 0 -0.7
v 0 0 -0.7
v 0.9 0 -1.1
v 1 0 -1.1
v 0 0 -1.2
v 0.1 0 -1.2
v 0.8 0 -1.2
v 0.9 0 -1.2
v 0.1 0 -1.3
v 0.2 0 -1.3
v 0.4 0 -1.3
v 0.6 0 -1.3
v 0.2 0 -1.5
v 0.3 0 -1.5
v 0.4 0 -1.5
v 0.6 0 -1.5
v 0.2 0 -1.6
v 0.3 0 -1.6
v 0.6 0 -1.6
v 0.8 0 -1.6
v 0.2 0 -1.7
v 0.6 0 -1.7
v 0.1 0.9 -1.3
v 0.4 0.9 -1.3
v 0.6 0.9 -1.3
v 0.9 0.9 -1.3
v 0.1 0.9 -1.5
v 0.4 0.9 -1.5
v 0.6 0.9 -1.5
v 0.9 0.9 -1.5
v 0.1 0.1 1.9
v 0.7 0.1 1.9
v 0.8 0.1 1.9
v 1 0.1 1.9
v 0 0.1 1.8
v 0.1 0.1 1.8
v 0.7 0.1 1.8
v 0.8 0.1 1.8
v 0.3 0.1 1.7
v 0.7 0.1 1.7
v 0.8 0.1 1.7
v 0.9 0.1 1.7
v 0.2 0.1 1.6
v 0.3 0.1 1.6
v 0.7 0.1 1.6
v 0.8 0.1 1.6
v -0.1 0.1 1.5
v 0 0.1 1.5
v 0.1 0.1 1.5
v 0.2 0.1 1.5
v 1 0.1 1.2
v 1.1 0.1 1.2
v -0.1 0.1 1
v 0 0.1 1
v 1 0.1 0.3
v 1.1 0.1 0.3
v -0.1 0.1 0.1
v 0 0.1 0.1
v 0.1 0.1 -0.6
v 0.2 0.1 -0.6
v -0.1 0.1 -0.7
v 0 0.1 -0.7
v 0.8 0.1 -0.7
v 0.9 0.1 -0.7
v 0.2 0.1 -0.8
v 0.8 0.1 -0.8
v 0.3 0.1 -0.9
v 0.7 0.1 -0.9
v 0.3 0.1 -1.1
v 0.7 0.1 -1.1
v 0.9 0.1 -1.1
v 1 0.1 -1.1
v 0 0.1 -1.2
v 0.1 0.1 -1.2
v 0.4 0.1 -1.2
v 0.7 0.1 -1.2
v 0.8 0.1 -1.2
v 0.9 0.1 -1.2
v 0.1 0.1 -1.3
v 0.2 0.1 -1.3
v 0.3 0.1 -1.3
v 0.4 0.1 -1.3
v 0.3 0.1 -1.4
v 0.4 0.1 -1.4
v 0.6 0.1 -1.4
v 0.7 0.1 -1.4
v 0.2 0.1 -1.5
v 0.3 0.1 -1.5
v 0.4 0.1 -1.5
v 0.5 0.1 -1.5
v 0.6 0.1 -1.5
v 0.2 0.1 -1.6
v 0.3 0.1 -1.6
v 0.4 0.1 -1.6
v 0.5 0.1 -1.6
v 0.6 0.1 -1.6
v 0.8 0.1 -1.6
v 0.2 0.1 -1.7
v 0.6 0.1 -1.7
v 0.3 0.2 1.7
v 0.7 0.2 1.7
v 0.8 0.2 1.7
v 0.9 0.2 1.7
v 0.2 0.2 1.6
v 0.3 0.2 1.6
v 0.7 0.2 1.6
v 0.8 0.2 1.6
v 0.1 0.2 1.5
v 0.2 0.2 1.5
v 0.1 0.2 -0.6
v 0.2 0.2 -0.6
v 0.8 0.2 -0.7
v 0.9 0.2 -0.7
v 0.2 0.2 -0.8
v 0.8 0.2 -0.8
v 0.3 0.2 -0.9
v 0.7 0.2 -0.9
v 0.3 0.2 -1.1
v 0.7 0.2 -1.1
v 0.4 0.2 -1.2
v 0.7 0.2 -1.2
v 0.3 0.2 -1.3
v 0.4 0.2 -1.3
v 0.6 0.2 -1.3
v 0.3 0.2 -1.4
v 0.4 0.2 -1.4
v 0.6 0.2 -1.4
v 0.7 0.2 -1.4
v 0.4 0.2 -1.5
v 0.5 0.2 -1.5
v 0.4 0.2 -1.6
v 0.5 0.2 -1.6
v 0.1 1.1 -1.3
v 0.4 1.1 -1.3
v 0.6 1.1 -1.3
v 0.9 1.1 -1.3
v 0.1 1.1 -1.5
v 0.4 1.1 -1.5
v 0.6 1.1 -1.5
v 0.9 1.1 -1.5
v 0.4 1.4 -1.3
v 0.6 1.4 -1.3
v 0.4 1.4 -1.5
v 0.6 1.4 -1.5

# faces
f 5/2/1 2/2/1 1/2/1
f 6/2/1 2/2/1 5/2/1
f 7/2/1 4/2/1 3/2/1
f 8/2/1 4/2/1 7/2/1
f 15/2/1 10/2/1 9/2/1
f 16/2/1 10/2/1 15/2/1
f 17/2/1 12/2/1 11/2/1
f 18/2/1 12/2/1 17/2/1
f 19/2/1 14/2/1 13/2/1
f 20/2/1 14/2/1 19/2/1
f 25/2/1 22/2/1 21/2/1
f 26/2/1 22/2/1 25/2/1
f 29/2/1 24/2/1 23/2/1
f 30/2/1 24/2/1 29/2/1
f 31/2/1 28/2/1 27/2/1
f 32/2/1 28/2/1 31/2/1
f 35/1/1 34/1/1 33/1/1
f 36/1/1 34/1/1 35/1/1
f 45/2/1 38/2/1 37/2/1
f 46/2/1 38/2/1 45/2/1
f 47/2/1 40/2/1 39/2/1
f 48/2/1 40/2/1 47/2/1
f 49/2/1 42/2/1 41/2/1
f 50/2/1 42/2/1 49/2/1
f 51/2/1 44/2/1 43/2/1
f 52/2/1 44/2/1 51/2/1
f 61/2/1 54/2/1 53/2/1
f 62/2/1 54/2/1 61/2/1
f 63/2/1 56/2/1 55/2/1
f 64/2/1 56/2/1 63/2/1
f 65/2/1 58/2/1 57/2/1
f 66/2/1 58/2/1 65/2/1
f 67/2/1 60/2/1 59/2/1
f 68/2/1 60/2/1 67/2/1
f 74/2/1 70/2/1 69/2/1
f 75/2/1 70/2/1 74/2/1
f 76/1/1 72/1/1 71/1/1
f 77/2/1 73/2/1 72/2/1
f 77/1/1 72/1/1 76/1/1
f 78/2/1 73/2/1 77/2/1
f 79/1/1 76/1/1 75/1/1
f 79/1/1 77/1/1 76/1/1
f 80/1/1 77/1/1 79/1/1
f 83/1/1 82/1/1 81/1/1
f 84/1/1 82/1/1 83/1/1
f 87/2/1 86/2/1 85/2/1
f 88/2/1 86/2/1 87/2/1
f 91/2/1 90/2/1 89/2/1
f 92/2/1 90/2/1 91/2/1
f 93/2/2 94/2/2 95/2/2
f 95/2/2 94/2/2 96/2/2
f 97/2/2 98/2/2 101/2/2
f 101/2/2 98/2/2 102/2/2
f 99/1/2 100/1/2 104/1/2
f 103/1/2 104/1/2 105/1/2
f 104/1/2 100/1/2 106/1/2
f 105/1/2 104/1/2 106/1/2
f 107/1/2 108/1/2 109/1/2
f 109/1/2 108/1/2 110/1/2
f 111/2/2 112/2/2 113/2/2
f 113/2/2 112/2/2 114/2/2
f 115/2/2 116/2/2 121/2/2
f 121/2/2 116/2/2 122/2/2
f 117/2/2 118/2/2 123/2/2
f 123/2/2 118/2/2 124/2/2
f 119/2/2 120/2/2 125/2/2
f 125/2/2 120/2/2 126/2/2
f 127/2/2 128/2/2 131/2/2
f 131/2/2 128/2/2 132/2/2
f 129/2/2 130/2/2 133/2/2
f 133/2/2 130/2/2 134/2/2
f 135/2/2 136/2/2 139/2/2
f 139/2/2 136/2/2 140/2/2
f 137/2/2 138/2/2 141/2/2
f 141/2/2 138/2/2 142/2/2
f 143/1/2 144/1/2 145/1/2
f 145/1/2 144/1/2 146/1/2
f 147/2/2 148/2/2 151/2/2
f 151/2/2 148/2/2 152/2/2
f 149/2/2 150/2/2 153/2/2
f 153/2/2 150/2/2 154/2/2
f 155/2/2 156/2/2 157/2/2
f 157/2/2 156/2/2 158/2/2
f 161/2/3 160/2/3 159/2/3
f 162/2/3 160/2/3 161/2/3
f 165/2/3 164/2/3 163/2/3
f 166/2/3 164/2/3 165/2/3
f 169/2/3 168/2/3 167/2/3
f 170/2/3 168/2/3 169/2/3
f 173/2/3 172/2/3 171/2/3
f 174/2/3 172/2/3 173/2/3
f 177/2/3 176/2/3 175/2/3
f 178/2/3 176/2/3 177/2/3
f 181/2/3 180/2/3 179/2/3
f 182/2/3 180/2/3 181/2/3
f 185/2/3 184/2/3 183/2/3
f 186/2/3 184/2/3 185/2/3
f 189/2/3 188/2/3 187/2/3
f 190/2/3 188/2/3 189/2/3
f 193/2/3 192/2/3 191/2/3
f 194/2/3 192/2/3 193/2/3
f 197/2/3 196/2/3 195/2/3
f 198/2/3 196/2/3 197/2/3
f 201/2/3 200/2/3 199/2/3
f 202/2/3 200/2/3 201/2/3
f 205/2/3 204/2/3 203/2/3
f 206/2/3 204/2/3 205/2/3
f 209/2/3 208/2/3 207/2/3
f 210/2/3 208/2/3 209/2/3
f 213/2/3 212/2/3 211/2/3
f 214/2/3 212/2/3 213/2/3
f 219/2/3 218/2/3 217/2/3
f 220/2/3 218/2/3 219/2/3
f 221/1/3 216/1/3 215/1/3
f 222/1/3 216/1/3 221/1/3
f 224/1/3 223/1/3 222/1/3
f 224/1/3 222/1/3 221/1/3
f 224/1/3 221/1/3 220/1/3
f 225/1/3 223/1/3 224/1/3
f 226/1/3 223/1/3 225/1/3
f 227/1/3 223/1/3 226/1/3
f 228/1/3 226/1/3 225/1/3
f 229/1/3 226/1/3 228/1/3
f 232/2/3 231/2/3 230/2/3
f 233/2/3 231/2/3 232/2/3
f 234/2/4 235/2/4 236/2/4
f 236/2/4 235/2/4 237/2/4
f 238/2/4 239/2/4 240/2/4
f 240/2/4 239/2/4 241/2/4
f 242/2/4 243/2/4 244/2/4
f 244/2/4 243/2/4 245/2/4
f 246/2/4 247/2/4 248/2/4
f 248/2/4 247/2/4 249/2/4
f 250/2/4 251/2/4 252/2/4
f 252/2/4 251/2/4 253/2/4
f 254/2/4 255/2/4 256/2/4
f 256/2/4 255/2/4 257/2/4
f 258/2/4 259/2/4 260/2/4
f 260/2/4 259/2/4 261/2/4
f 262/2/4 263/2/4 264/2/4
f 264/2/4 263/2/4 265/2/4
f 266/2/4 267/2/4 268/2/4
f 268/2/4 267/2/4 269/2/4
f 270/2/4 271/2/4 272/2/4
f 272/2/4 271/2/4 273/2/4
f 274/2/4 275/2/4 276/2/4
f 276/2/4 275/2/4 277/2/4
f 278/2/4 279/2/4 280/2/4
f 280/2/4 279/2/4 281/2/4
f 282/2/4 283/2/4 284/2/4
f 284/2/4 283/2/4 285/2/4
f 288/2/4 289/2/4 290/2/4
f 290/2/4 289/2/4 291/2/4
f 286/1/4 287/1/4 293/1/4
f 293/1/4 287/1/4 294/1/4
f 292/1/4 293/1/4 297/1/4
f 294/1/4 295/1/4 297/1/4
f 293/1/4 294/1/4 297/1/4
f 296/1/4 297/1/4 298/1/4
f 297/1/4 295/1/4 299/1/4
f 298/1/4 297/1/4 299/1/4
f 299/1/4 295/1/4 300/1/4
f 300/1/4 295/1/4 301/1/4
f 299/1/4 300/1/4 302/1/4
f 302/1/4 300/1/4 303/1/4
f 304/2/4 305/2/4 306/2/4
f 306/2/4 305/2/4 307/2/4
f 308/2/4 309/2/4 310/2/4
f 310/2/4 309/2/4 311/2/4
f 312/2/4 313/2/4 314/2/4
f 314/2/4 313/2/4 315/2/4
f 321/2/5 317/2/5 316/2/5
f 322/2/5 317/2/5 321/2/5
f 323/2/5 319/2/5 318/2/5
f 325/2/5 322/2/5 321/2/5
f 325/2/5 323/2/5 322/2/5
f 325/2/5 321/2/5 320/2/5
f 326/2/5 319/2/5 323/2/5
f 326/2/5 325/2/5 324/2/5
f 326/2/5 323/2/5 325/2/5
f 328/2/5 326/2/5 324/2/5
f 328/2/5 327/2/5 326/2/5
f 329/2/5 327/2/5 328/2/5
f 330/2/5 327/2/5 329/2/5
f 331/2/5 327/2/5 330/2/5
f 333/2/5 330/2/5 329/2/5
f 334/2/5 333/2/5 332/2/5
f 335/2/5 330/2/5 333/2/5
f 335/2/5 333/2/5 334/2/5
f 336/2/5 330/2/5 335/2/5
f 337/2/5 330/2/5 336/2/5
f 338/2/5 336/2/5 335/2/5
f 339/2/5 336/2/5 338/2/5
f 340/2/5 336/2/5 339/2/5
f 341/2/5 336/2/5 340/2/5
f 342/2/5 340/2/5 339/2/5
f 343/2/5 340/2/5 342/2/5
f 344/2/5 340/2/5 343/2/5
f 345/2/5 340/2/5 344/2/5
f 346/2/5 344/2/5 343/2/5
f 347/2/5 344/2/5 346/2/5
f 348/1/5 345/1/5 344/1/5
f 348/2/5 344/2/5 347/2/5
f 349/2/5 340/2/5 345/2/5
f 349/1/5 345/1/5 348/1/5
f 351/2/5 348/2/5 347/2/5
f 351/2/5 349/2/5 348/2/5
f 352/2/5 340/2/5 349/2/5
f 352/2/5 349/2/5 351/2/5
f 353/2/5 340/2/5 352/2/5
f 354/2/5 351/2/5 350/2/5
f 354/2/5 352/2/5 351/2/5
f 355/2/5 352/2/5 354/2/5
f 360/1/5 357/1/5 356/1/5
f 361/1/5 357/1/5 360/1/5
f 362/1/5 359/1/5 358/1/5
f 363/1/5 359/1/5 362/1/5
f 364/2/6 365/2/6 369/2/6
f 369/2/6 365/2/6 370/2/6
f 366/2/6 367/2/6 371/2/6
f 369/2/6 370/2/6 372/2/6
f 370/2/6 371/2/6 372/2/6
f 368/2/6 369/2/6 372/2/6
f 372/2/6 371/2/6 373/2/6
f 371/2/6 367/2/6 374/2/6
f 373/2/6 371/2/6 374/2/6
f 374/2/6 367/2/6 375/2/6
f 368/2/6 372/2/6 376/2/6
f 376/2/6 372/2/6 377/2/6
f 373/2/6 374/2/6 378/2/6
f 378/2/6 374/2/6 379/2/6
f 368/2/6 376/2/6 381/2/6
f 381/2/6 376/2/6 382/2/6
f 382/2/6 376/2/6 383/2/6
f 375/2/6 367/2/6 384/2/6
f 381/2/6 382/2/6 386/2/6
f 380/2/6 381/2/6 386/2/6
f 386/2/6 382/2/6 387/2/6
f 384/2/6 385/2/6 388/2/6
f 375/2/6 384/2/6 388/2/6
f 388/2/6 385/2/6 389/2/6
f 387/2/6 382/2/6 391/2/6
f 391/2/6 382/2/6 392/2/6
f 390/2/6 391/2/6 392/2/6
f 390/2/6 392/2/6 394/2/6
f 392/2/6 393/2/6 394/2/6
f 394/2/6 393/2/6 395/2/6
f 375/2/6 388/2/6 397/2/6
f 395/2/6 393/2/6 398/2/6
f 396/2/6 397/2/6 399/2/6
f 398/2/6 399/2/6 400/2/6
f 400/2/6 399/2/6 401/2/6
f 398/2/6 400/2/6 402/2/6
f 401/2/6 399/2/6 403/2/6
f 397/2/6 388/2/6 404/2/6
f 399/2/6 397/2/6 404/2/6
f 403/2/6 399/2/6 404/2/6
f 404/2/6 388/2/6 405/2/6
f 395/2/6 398/2/6 406/2/6
f 402/2/6 403/2/6 406/2/6
f 403/2/6 404/2/6 406/2/6
f 398/2/6 402/2/6 406/2/6
f 406/2/6 404/2/6 407/2/6
f 407/2/6 404/2/6 408/2/6
f 408/2/6 404/2/6 409/2/6
f 409/2/6 404/2/6 410/2/6
f 410/2/6 404/2/6 411/2/6
f 407/2/6 408/2/6 412/2/6
f 412/2/6 408/2/6 413/2/6
f 413/2/6 408/2/6 414/2/6
f 414/2/6 408/2/6 415/2/6
f 413/2/6 414/2/6 416/2/6
f 409/2/6 410/2/6 419/2/6
f 413/2/6 416/2/6 420/2/6
f 416/2/6 417/2/6 420/2/6
f 420/2/6 417/2/6 421/2/6
f 421/2/6 417/2/6 422/2/6
f 418/2/6 419/2/6 424/2/6
f 421/2/6 422/2/6 426/2/6
f 426/2/6 422/2/6 427/2/6
f 423/2/6 424/2/6 428/2/6
f 424/2/6 419/2/6 429/2/6
f 428/2/6 424/2/6 429/2/6
f 419/2/6 410/2/6 430/2/6
f 429/2/6 419/2/6 430/2/6
f 427/2/6 428/2/6 431/2/6
f 428/2/6 429/2/6 431/2/6
f 426/2/6 427/2/6 431/2/6
f 425/2/6 426/2/6 431/2/6
f 431/2/6 429/2/6 432/2/6
f 433/2/6 434/2/6 438/2/6
f 438/2/6 434/2/6 439/2/6
f 435/2/6 436/2/6 440/2/6
f 438/2/6 439/2/6 442/2/6
f 439/2/6 440/2/6 442/2/6
f 437/2/6 438/2/6 442/2/6
f 441/2/6 442/2/6 443/2/6
f 442/2/6 440/2/6 444/2/6
f 443/2/6 442/2/6 444/2/6
f 440/2/6 436/2/6 445/2/6
f 444/2/6 440/2/6 445/2/6
f 445/2/6 436/2/6 446/2/6
f 444/2/6 445/2/6 447/2/6
f 447/2/6 445/2/6 448/2/6
f 449/2/6 450/2/6 451/2/6
f 451/2/6 450/2/6 452/2/6
f 453/2/6 454/2/6 456/2/6
f 456/2/6 454/2/6 457/2/6
f 455/2/6 456/2/6 458/2/6
f 458/2/6 456/2/6 459/2/6
f 457/2/6 454/2/6 460/2/6
f 460/2/6 454/2/6 461/2/6
f 462/2/6 463/2/6 464/2/6
f 464/2/6 463/2/6 465/2/6
f 466/1/6 467/1/6 470/1/6
f 470/1/6 467/1/6 471/1/6
f 468/1/6 469/1/6 472/1/6
f 472/1/6 469/1/6 473/1/6
f 474/1/6 475/1/6 476/1/6
f 476/1/6 475/1/6 477/1/6
