# MagicaVoxel @ Ephtracy

# group
o 

# material
mtllib Lapide 06.mtl
usemtl palette

# normals
vn -1 0 0
vn 1 0 0
vn 0 0 1
vn 0 0 -1
vn 0 -1 0
vn 0 1 0

# texcoords
vt 0.927734 0.5
vt 0.990234 0.5

# verts
v -0.3 0 -1.2
v -0.3 0 -1.4
v -0.3 0.1 -1.2
v -0.3 0.1 -1.4
v -0.2 0 -1.1
v -0.2 0 -1.2
v -0.2 0 -1.4
v -0.2 0 -1.6
v -0.2 0.1 -1.1
v -0.2 0.1 -1.2
v -0.2 0.1 -1.4
v -0.2 0.1 -1.6
v -0.1 0 1.2
v -0.1 0 1
v -0.1 0 0.7
v -0.1 0 0.2
v -0.1 0 0
v -0.1 0 -0.5
v -0.1 0 -0.9
v -0.1 0 -1.1
v -0.1 0 -1.6
v -0.1 0 -1.7
v -0.1 0.1 1.2
v -0.1 0.1 1
v -0.1 0.1 0.7
v -0.1 0.1 0.2
v -0.1 0.1 0
v -0.1 0.1 -0.5
v -0.1 0.1 -0.9
v -0.1 0.1 -1.1
v -0.1 0.1 -1.2
v -0.1 0.1 -1.5
v -0.1 0.1 -1.6
v -0.1 0.1 -1.7
v -0.1 0.2 -1.2
v -0.1 0.2 -1.3
v -0.1 0.2 -1.4
v -0.1 0.2 -1.5
v -0.1 0.3 -1.3
v -0.1 0.3 -1.4
v 0 0 1.7
v 0 0 1.2
v 0 0 1
v 0 0 0.7
v 0 0 0.2
v 0 0 0
v 0 0 -0.5
v 0 0 -0.9
v 0 0.1 1.7
v 0 0.1 1.2
v 0 0.1 1
v 0 0.1 0.7
v 0 0.1 0.2
v 0 0.1 0
v 0 0.1 -0.5
v 0 0.1 -0.9
v 0 0.1 -1.5
v 0 0.1 -1.6
v 0 0.2 -1.4
v 0 0.2 -1.5
v 0 0.2 -1.6
v 0 0.3 -1.3
v 0 0.3 -1.4
v 0 1.4 -1.3
v 0 1.4 -1.5
v 0.1 0 1.8
v 0.1 0 1.7
v 0.1 0.1 1.8
v 0.1 0.1 1.7
v 0.1 0.1 1.6
v 0.1 0.1 -1
v 0.1 0.2 1.6
v 0.1 0.2 -1
v 0.1 0.2 -1.5
v 0.1 0.2 -1.6
v 0.1 0.3 -1.5
v 0.1 0.3 -1.6
v 0.2 0 1.9
v 0.2 0 1.8
v 0.2 0.1 1.9
v 0.2 0.1 1.8
v 0.2 0.1 1.7
v 0.2 0.1 1.6
v 0.2 0.1 -1
v 0.2 0.1 -1.1
v 0.2 0.2 1.7
v 0.2 0.2 1.6
v 0.2 0.2 -1
v 0.2 0.2 -1.1
v 0.3 0.1 -1.3
v 0.3 0.1 -1.4
v 0.3 0.2 1.5
v 0.3 0.2 -0.9
v 0.3 0.2 -1.3
v 0.3 0.2 -1.4
v 0.3 0.3 1.5
v 0.3 0.3 -0.9
v 0.4 0.1 -1.2
v 0.4 0.1 -1.3
v 0.4 0.2 -0.9
v 0.4 0.2 -1
v 0.4 0.2 -1.2
v 0.4 0.2 -1.3
v 0.4 0.2 -1.4
v 0.4 0.3 -0.9
v 0.4 0.3 -1
v 0.4 0.3 -1.3
v 0.4 0.3 -1.4
v 0.5 0 -1.7
v 0.5 0 -1.8
v 0.5 0.1 -1.7
v 0.5 0.1 -1.8
v 0.7 0.1 -1.3
v 0.7 0.1 -1.4
v 0.7 0.2 -1.3
v 0.7 0.2 -1.4
v 0.8 0.1 -1.2
v 0.8 0.1 -1.3
v 0.8 0.2 -1.2
v 0.8 0.2 -1.3
v 0.9 0.1 -1.1
v 0.9 0.1 -1.2
v 0.9 0.2 -1.1
v 0.9 0.2 -1.2
v 0.9 0.2 -1.3
v 0.9 0.2 -1.4
v 0.9 0.3 -1.2
v 0.9 0.3 -1.3
v 0.9 1.3 -1.3
v 0.9 1.3 -1.4
v 0.1 0.1 -1.2
v 0.1 0.1 -1.3
v 0.1 0.1 -1.4
v 0.1 0.2 -1.2
v 0.1 0.2 -1.3
v 0.1 1.3 -1.3
v 0.1 1.3 -1.4
v 0.5 0.1 -1.2
v 0.5 0.1 -1.3
v 0.5 0.2 -0.9
v 0.5 0.2 -1
v 0.5 0.2 -1.2
v 0.5 0.2 -1.3
v 0.5 0.3 -0.9
v 0.5 0.3 -1
v 0.6 0.1 -1.3
v 0.6 0.1 -1.4
v 0.6 0.2 1.5
v 0.6 0.2 1.4
v 0.6 0.2 -1.5
v 0.6 0.2 -1.6
v 0.6 0.3 1.5
v 0.6 0.3 1.4
v 0.6 0.3 -1.3
v 0.6 0.3 -1.4
v 0.6 0.3 -1.5
v 0.6 0.3 -1.6
v 0.7 0 1.9
v 0.7 0 1.8
v 0.7 0.1 1.9
v 0.7 0.1 1.8
v 0.7 0.2 1.4
v 0.7 0.2 -0.9
v 0.7 0.3 1.4
v 0.7 0.3 -0.9
v 0.8 0 -1.7
v 0.8 0 -1.8
v 0.8 0.1 1.7
v 0.8 0.1 1.4
v 0.8 0.1 -1
v 0.8 0.1 -1.1
v 0.8 0.1 -1.7
v 0.8 0.1 -1.8
v 0.8 0.2 1.7
v 0.8 0.2 1.4
v 0.8 0.2 -1
v 0.8 0.2 -1.1
v 0.9 0 1.8
v 0.9 0 1.6
v 0.9 0.1 1.8
v 0.9 0.1 1.6
v 0.9 0.1 1.4
v 0.9 0.1 -1
v 0.9 0.1 -1.5
v 0.9 0.1 -1.6
v 0.9 0.2 1.4
v 0.9 0.2 -1
v 0.9 0.2 -1.5
v 0.9 0.2 -1.6
v 1 0 1.6
v 1 0 0.9
v 1 0 0.5
v 1 0 0.1
v 1 0 -0.7
v 1 0 -1
v 1 0.1 1.6
v 1 0.1 0.9
v 1 0.1 0.5
v 1 0.1 0.1
v 1 0.1 -0.7
v 1 0.1 -1
v 1 0.1 -1.1
v 1 0.1 -1.2
v 1 0.1 -1.4
v 1 0.1 -1.5
v 1 0.2 -1.1
v 1 0.2 -1.2
v 1 0.2 -1.3
v 1 0.2 -1.4
v 1 0.3 -1.2
v 1 0.3 -1.3
v 1 1.4 -1.3
v 1 1.4 -1.5
v 1.1 0 0.9
v 1.1 0 0.5
v 1.1 0 0.1
v 1.1 0 -0.7
v 1.1 0 -1
v 1.1 0 -1.1
v 1.1 0 -1.6
v 1.1 0 -1.7
v 1.1 0.1 0.9
v 1.1 0.1 0.5
v 1.1 0.1 0.1
v 1.1 0.1 -0.7
v 1.1 0.1 -1
v 1.1 0.1 -1.1
v 1.1 0.1 -1.2
v 1.1 0.1 -1.4
v 1.1 0.1 -1.6
v 1.1 0.1 -1.7
v 1.1 0.2 -1.2
v 1.1 0.2 -1.4
v 1.2 0 -1.1
v 1.2 0 -1.6
v 1.2 0.1 -1.1
v 1.2 0.1 -1.6
v 0.2 0 1.9
v 0.2 0.1 1.9
v 0.7 0 1.9
v 0.7 0.1 1.9
v 0.1 0 1.8
v 0.1 0.1 1.8
v 0.2 0 1.8
v 0.2 0.1 1.8
v 0.7 0 1.8
v 0.7 0.1 1.8
v 0.9 0 1.8
v 0.9 0.1 1.8
v 0 0 1.7
v 0 0.1 1.7
v 0.1 0 1.7
v 0.1 0.1 1.7
v 0.2 0.1 1.7
v 0.2 0.2 1.7
v 0.8 0.1 1.7
v 0.8 0.2 1.7
v 0.1 0.1 1.6
v 0.1 0.2 1.6
v 0.2 0.1 1.6
v 0.2 0.2 1.6
v 0.9 0 1.6
v 0.9 0.1 1.6
v 1 0 1.6
v 1 0.1 1.6
v 0.3 0.2 1.5
v 0.3 0.3 1.5
v 0.6 0.2 1.5
v 0.6 0.3 1.5
v 0.6 0.2 1.4
v 0.6 0.3 1.4
v 0.7 0.2 1.4
v 0.7 0.3 1.4
v 0.8 0.1 1.4
v 0.8 0.2 1.4
v 0.9 0.1 1.4
v 0.9 0.2 1.4
v -0.1 0 1.2
v -0.1 0.1 1.2
v 0 0 1.2
v 0 0.1 1.2
v 1 0 0.9
v 1 0.1 0.9
v 1.1 0 0.9
v 1.1 0.1 0.9
v -0.1 0 0.7
v -0.1 0.1 0.7
v 0 0 0.7
v 0 0.1 0.7
v 1 0 0.1
v 1 0.1 0.1
v 1.1 0 0.1
v 1.1 0.1 0.1
v -0.1 0 0
v -0.1 0.1 0
v 0 0 0
v 0 0.1 0
v -0.1 0 -0.9
v -0.1 0.1 -0.9
v 0 0 -0.9
v 0 0.1 -0.9
v 1 0 -1
v 1 0.1 -1
v 1.1 0 -1
v 1.1 0.1 -1
v -0.2 0 -1.1
v -0.2 0.1 -1.1
v -0.1 0 -1.1
v -0.1 0.1 -1.1
v 0.9 0.1 -1.1
v 0.9 0.2 -1.1
v 1 0.1 -1.1
v 1 0.2 -1.1
v 1.1 0 -1.1
v 1.1 0.1 -1.1
v 1.2 0 -1.1
v 1.2 0.1 -1.1
v -0.3 0 -1.2
v -0.3 0.1 -1.2
v -0.2 0 -1.2
v -0.2 0.1 -1.2
v -0.1 0.1 -1.2
v -0.1 0.2 -1.2
v 0.1 0.1 -1.2
v 0.1 0.2 -1.2
v 0.4 0.1 -1.2
v 0.4 0.2 -1.2
v 0.5 0.1 -1.2
v 0.5 0.2 -1.2
v 0.8 0.1 -1.2
v 0.8 0.2 -1.2
v 0.9 0.1 -1.2
v 0.9 0.2 -1.2
v 0.9 0.3 -1.2
v 1 0.1 -1.2
v 1 0.2 -1.2
v 1 0.3 -1.2
v 1.1 0.1 -1.2
v 1.1 0.2 -1.2
v -0.1 0.2 -1.3
v -0.1 0.3 -1.3
v 0 0.2 -1.3
v 0 0.3 -1.3
v 0 1.4 -1.3
v 0.1 0.2 -1.3
v 0.1 1.3 -1.3
v 0.3 0.1 -1.3
v 0.3 0.2 -1.3
v 0.4 0.1 -1.3
v 0.4 0.2 -1.3
v 0.4 0.3 -1.3
v 0.5 0.1 -1.3
v 0.5 0.2 -1.3
v 0.6 0.1 -1.3
v 0.6 0.3 -1.3
v 0.7 0.1 -1.3
v 0.7 0.2 -1.3
v 0.8 0.1 -1.3
v 0.8 0.2 -1.3
v 0.9 0.3 -1.3
v 0.9 1.3 -1.3
v 1 0.3 -1.3
v 1 1.4 -1.3
v 0.1 0.1 -1.4
v 0.1 1.3 -1.4
v 0.3 0.1 -1.4
v 0.3 0.2 -1.4
v 0.4 0.2 -1.4
v 0.4 0.3 -1.4
v 0.6 0.1 -1.4
v 0.6 0.3 -1.4
v 0.7 0.1 -1.4
v 0.7 0.2 -1.4
v 0.9 0.2 -1.4
v 0.9 1.3 -1.4
v -0.1 0 1
v -0.1 0.1 1
v 0 0 1
v 0 0.1 1
v 1 0 0.5
v 1 0.1 0.5
v 1.1 0 0.5
v 1.1 0.1 0.5
v -0.1 0 0.2
v -0.1 0.1 0.2
v 0 0 0.2
v 0 0.1 0.2
v -0.1 0 -0.5
v -0.1 0.1 -0.5
v 0 0 -0.5
v 0 0.1 -0.5
v 1 0 -0.7
v 1 0.1 -0.7
v 1.1 0 -0.7
v 1.1 0.1 -0.7
v 0.3 0.2 -0.9
v 0.3 0.3 -0.9
v 0.4 0.2 -0.9
v 0.4 0.3 -0.9
v 0.5 0.2 -0.9
v 0.5 0.3 -0.9
v 0.7 0.2 -0.9
v 0.7 0.3 -0.9
v 0.1 0.1 -1
v 0.1 0.2 -1
v 0.2 0.1 -1
v 0.2 0.2 -1
v 0.4 0.2 -1
v 0.4 0.3 -1
v 0.5 0.2 -1
v 0.5 0.3 -1
v 0.8 0.1 -1
v 0.8 0.2 -1
v 0.9 0.1 -1
v 0.9 0.2 -1
v 0.2 0.1 -1.1
v 0.2 0.2 -1.1
v 0.8 0.1 -1.1
v 0.8 0.2 -1.1
v -0.3 0 -1.4
v -0.3 0.1 -1.4
v -0.2 0 -1.4
v -0.2 0.1 -1.4
v -0.1 0.2 -1.4
v -0.1 0.3 -1.4
v 0 0.2 -1.4
v 0 0.3 -1.4
v 1 0.1 -1.4
v 1 0.2 -1.4
v 1.1 0.1 -1.4
v 1.1 0.2 -1.4
v -0.1 0.1 -1.5
v -0.1 0.2 -1.5
v 0 0.1 -1.5
v 0 0.2 -1.5
v 0 1.4 -1.5
v 0.1 0.2 -1.5
v 0.1 0.3 -1.5
v 0.6 0.2 -1.5
v 0.6 0.3 -1.5
v 0.9 0.1 -1.5
v 0.9 0.2 -1.5
v 1 0.1 -1.5
v 1 1.4 -1.5
v -0.2 0 -1.6
v -0.2 0.1 -1.6
v -0.1 0 -1.6
v -0.1 0.1 -1.6
v 0 0.1 -1.6
v 0 0.2 -1.6
v 0.1 0.2 -1.6
v 0.1 0.3 -1.6
v 0.6 0.2 -1.6
v 0.6 0.3 -1.6
v 0.9 0.1 -1.6
v 0.9 0.2 -1.6
v 1.1 0 -1.6
v 1.1 0.1 -1.6
v 1.2 0 -1.6
v 1.2 0.1 -1.6
v -0.1 0 -1.7
v -0.1 0.1 -1.7
v 0.5 0 -1.7
v 0.5 0.1 -1.7
v 0.8 0 -1.7
v 0.8 0.1 -1.7
v 1.1 0 -1.7
v 1.1 0.1 -1.7
v 0.5 0 -1.8
v 0.5 0.1 -1.8
v 0.8 0 -1.8
v 0.8 0.1 -1.8
v 0.2 0 1.9
v 0.7 0 1.9
v 0.1 0 1.8
v 0.2 0 1.8
v 0.7 0 1.8
v 0.9 0 1.8
v 0 0 1.7
v 0.1 0 1.7
v 0.9 0 1.6
v 1 0 1.6
v -0.1 0 1.2
v 0 0 1.2
v -0.1 0 1
v 0 0 1
v 1 0 0.9
v 1.1 0 0.9
v -0.1 0 0.7
v 0 0 0.7
v 1 0 0.5
v 1.1 0 0.5
v -0.1 0 0.2
v 0 0 0.2
v 1 0 0.1
v 1.1 0 0.1
v -0.1 0 0
v 0 0 0
v -0.1 0 -0.5
v 0 0 -0.5
v 1 0 -0.7
v 1.1 0 -0.7
v -0.1 0 -0.9
v 0 0 -0.9
v 1 0 -1
v 1.1 0 -1
v -0.2 0 -1.1
v -0.1 0 -1.1
v 1.1 0 -1.1
v 1.2 0 -1.1
v -0.3 0 -1.2
v -0.2 0 -1.2
v 0 0 -1.3
v 0.1 0 -1.3
v 0.4 0 -1.3
v 0.6 0 -1.3
v 0.9 0 -1.3
v 1 0 -1.3
v -0.3 0 -1.4
v -0.2 0 -1.4
v 0.1 0 -1.4
v 0.2 0 -1.4
v 0.8 0 -1.4
v 0.9 0 -1.4
v 0 0 -1.5
v 0.2 0 -1.5
v 0.4 0 -1.5
v 0.6 0 -1.5
v 0.8 0 -1.5
v 1 0 -1.5
v -0.2 0 -1.6
v -0.1 0 -1.6
v 1.1 0 -1.6
v 1.2 0 -1.6
v -0.1 0 -1.7
v 0.5 0 -1.7
v 0.8 0 -1.7
v 1.1 0 -1.7
v 0.5 0 -1.8
v 0.8 0 -1.8
v 0.1 1.3 -1.3
v 0.9 1.3 -1.3
v 0.1 1.3 -1.4
v 0.9 1.3 -1.4
v 0.2 0.1 1.9
v 0.7 0.1 1.9
v 0.1 0.1 1.8
v 0.2 0.1 1.8
v 0.7 0.1 1.8
v 0.9 0.1 1.8
v 0 0.1 1.7
v 0.1 0.1 1.7
v 0.2 0.1 1.7
v 0.8 0.1 1.7
v 0.1 0.1 1.6
v 0.2 0.1 1.6
v 0.9 0.1 1.6
v 1 0.1 1.6
v 0.8 0.1 1.4
v 0.9 0.1 1.4
v -0.1 0.1 1.2
v 0 0.1 1.2
v -0.1 0.1 1
v 0 0.1 1
v 1 0.1 0.9
v 1.1 0.1 0.9
v -0.1 0.1 0.7
v 0 0.1 0.7
v 1 0.1 0.5
v 1.1 0.1 0.5
v -0.1 0.1 0.2
v 0 0.1 0.2
v 1 0.1 0.1
v 1.1 0.1 0.1
v -0.1 0.1 0
v 0 0.1 0
v -0.1 0.1 -0.5
v 0 0.1 -0.5
v 1 0.1 -0.7
v 1.1 0.1 -0.7
v -0.1 0.1 -0.9
v 0 0.1 -0.9
v 0.1 0.1 -1
v 0.2 0.1 -1
v 0.8 0.1 -1
v 0.9 0.1 -1
v 1 0.1 -1
v 1.1 0.1 -1
v -0.2 0.1 -1.1
v -0.1 0.1 -1.1
v 0.2 0.1 -1.1
v 0.8 0.1 -1.1
v 0.9 0.1 -1.1
v 1 0.1 -1.1
v 1.1 0.1 -1.1
v 1.2 0.1 -1.1
v -0.3 0.1 -1.2
v -0.2 0.1 -1.2
v -0.1 0.1 -1.2
v 0.1 0.1 -1.2
v 0.4 0.1 -1.2
v 0.5 0.1 -1.2
v 0.8 0.1 -1.2
v 0.9 0.1 -1.2
v 1 0.1 -1.2
v 1.1 0.1 -1.2
v 0.1 0.1 -1.3
v 0.3 0.1 -1.3
v 0.4 0.1 -1.3
v 0.5 0.1 -1.3
v 0.6 0.1 -1.3
v 0.7 0.1 -1.3
v 0.8 0.1 -1.3
v -0.3 0.1 -1.4
v -0.2 0.1 -1.4
v 0.1 0.1 -1.4
v 0.3 0.1 -1.4
v 0.6 0.1 -1.4
v 0.7 0.1 -1.4
v 1 0.1 -1.4
v 1.1 0.1 -1.4
v -0.1 0.1 -1.5
v 0 0.1 -1.5
v 0.9 0.1 -1.5
v 1 0.1 -1.5
v -0.2 0.1 -1.6
v -0.1 0.1 -1.6
v 0 0.1 -1.6
v 0.9 0.1 -1.6
v 1.1 0.1 -1.6
v 1.2 0.1 -1.6
v -0.1 0.1 -1.7
v 0.5 0.1 -1.7
v 0.8 0.1 -1.7
v 1.1 0.1 -1.7
v 0.5 0.1 -1.8
v 0.8 0.1 -1.8
v 0.2 0.2 1.7
v 0.8 0.2 1.7
v 0.1 0.2 1.6
v 0.2 0.2 1.6
v 0.3 0.2 1.5
v 0.6 0.2 1.5
v 0.6 0.2 1.4
v 0.7 0.2 1.4
v 0.8 0.2 1.4
v 0.9 0.2 1.4
v 0.3 0.2 -0.9
v 0.4 0.2 -0.9
v 0.5 0.2 -0.9
v 0.7 0.2 -0.9
v 0.1 0.2 -1
v 0.2 0.2 -1
v 0.4 0.2 -1
v 0.5 0.2 -1
v 0.8 0.2 -1
v 0.9 0.2 -1
v 0.2 0.2 -1.1
v 0.8 0.2 -1.1
v 0.9 0.2 -1.1
v 1 0.2 -1.1
v -0.1 0.2 -1.2
v 0.1 0.2 -1.2
v 0.4 0.2 -1.2
v 0.5 0.2 -1.2
v 0.8 0.2 -1.2
v 0.9 0.2 -1.2
v 1 0.2 -1.2
v 1.1 0.2 -1.2
v -0.1 0.2 -1.3
v 0 0.2 -1.3
v 0.1 0.2 -1.3
v 0.3 0.2 -1.3
v 0.4 0.2 -1.3
v 0.5 0.2 -1.3
v 0.7 0.2 -1.3
v 0.8 0.2 -1.3
v 0.9 0.2 -1.3
v 1 0.2 -1.3
v -0.1 0.2 -1.4
v 0 0.2 -1.4
v 0.3 0.2 -1.4
v 0.4 0.2 -1.4
v 0.7 0.2 -1.4
v 0.9 0.2 -1.4
v 1 0.2 -1.4
v 1.1 0.2 -1.4
v -0.1 0.2 -1.5
v 0 0.2 -1.5
v 0.1 0.2 -1.5
v 0.6 0.2 -1.5
v 0.9 0.2 -1.5
v 0 0.2 -1.6
v 0.1 0.2 -1.6
v 0.6 0.2 -1.6
v 0.9 0.2 -1.6
v 0.3 0.3 1.5
v 0.6 0.3 1.5
v 0.6 0.3 1.4
v 0.7 0.3 1.4
v 0.3 0.3 -0.9
v 0.4 0.3 -0.9
v 0.5 0.3 -0.9
v 0.7 0.3 -0.9
v 0.4 0.3 -1
v 0.5 0.3 -1
v 0.9 0.3 -1.2
v 1 0.3 -1.2
v -0.1 0.3 -1.3
v 0 0.3 -1.3
v 0.4 0.3 -1.3
v 0.6 0.3 -1.3
v 0.9 0.3 -1.3
v 1 0.3 -1.3
v -0.1 0.3 -1.4
v 0 0.3 -1.4
v 0.4 0.3 -1.4
v 0.6 0.3 -1.4
v 0.1 0.3 -1.5
v 0.6 0.3 -1.5
v 0.1 0.3 -1.6
v 0.6 0.3 -1.6
v 0 1.4 -1.3
v 1 1.4 -1.3
v 0 1.4 -1.5
v 1 1.4 -1.5

# faces
f 3/2/1 2/2/1 1/2/1
f 4/2/1 2/2/1 3/2/1
f 9/2/1 6/2/1 5/2/1
f 10/2/1 6/2/1 9/2/1
f 11/2/1 8/2/1 7/2/1
f 12/2/1 8/2/1 11/2/1
f 23/2/1 14/2/1 13/2/1
f 24/2/1 14/2/1 23/2/1
f 25/2/1 16/2/1 15/2/1
f 26/2/1 16/2/1 25/2/1
f 27/2/1 18/2/1 17/2/1
f 28/2/1 18/2/1 27/2/1
f 29/2/1 20/2/1 19/2/1
f 30/2/1 20/2/1 29/2/1
f 33/2/1 22/2/1 21/2/1
f 34/2/1 22/2/1 33/2/1
f 35/2/1 32/2/1 31/2/1
f 36/2/1 32/2/1 35/2/1
f 37/2/1 32/2/1 36/2/1
f 38/2/1 32/2/1 37/2/1
f 39/2/1 37/2/1 36/2/1
f 40/2/1 37/2/1 39/2/1
f 49/2/1 42/2/1 41/2/1
f 50/2/1 42/2/1 49/2/1
f 51/2/1 44/2/1 43/2/1
f 52/2/1 44/2/1 51/2/1
f 53/2/1 46/2/1 45/2/1
f 54/2/1 46/2/1 53/2/1
f 55/2/1 48/2/1 47/2/1
f 56/2/1 48/2/1 55/2/1
f 60/2/1 58/2/1 57/2/1
f 61/2/1 58/2/1 60/2/1
f 63/1/1 60/1/1 59/1/1
f 64/1/1 63/1/1 62/1/1
f 65/1/1 60/1/1 63/1/1
f 65/1/1 63/1/1 64/1/1
f 68/2/1 67/2/1 66/2/1
f 69/2/1 67/2/1 68/2/1
f 72/2/1 71/2/1 70/2/1
f 73/2/1 71/2/1 72/2/1
f 76/2/1 75/2/1 74/2/1
f 77/2/1 75/2/1 76/2/1
f 80/2/1 79/2/1 78/2/1
f 81/2/1 79/2/1 80/2/1
f 86/2/1 83/2/1 82/2/1
f 87/2/1 83/2/1 86/2/1
f 88/2/1 85/2/1 84/2/1
f 89/2/1 85/2/1 88/2/1
f 94/2/1 91/2/1 90/2/1
f 95/2/1 91/2/1 94/2/1
f 96/2/1 93/2/1 92/2/1
f 97/2/1 93/2/1 96/2/1
f 102/2/1 99/2/1 98/2/1
f 103/2/1 99/2/1 102/2/1
f 105/2/1 101/2/1 100/2/1
f 106/2/1 101/2/1 105/2/1
f 107/2/1 104/2/1 103/2/1
f 108/2/1 104/2/1 107/2/1
f 111/2/1 110/2/1 109/2/1
f 112/2/1 110/2/1 111/2/1
f 115/2/1 114/2/1 113/2/1
f 116/2/1 114/2/1 115/2/1
f 119/2/1 118/2/1 117/2/1
f 120/2/1 118/2/1 119/2/1
f 123/2/1 122/2/1 121/2/1
f 124/2/1 122/2/1 123/2/1
f 127/2/1 125/2/1 124/2/1
f 128/1/1 126/1/1 125/1/1
f 128/2/1 125/2/1 127/2/1
f 129/1/1 126/1/1 128/1/1
f 130/1/1 126/1/1 129/1/1
f 131/2/2 132/2/2 134/2/2
f 132/1/2 133/1/2 135/1/2
f 134/2/2 132/2/2 135/2/2
f 135/1/2 133/1/2 136/1/2
f 136/1/2 133/1/2 137/1/2
f 138/2/2 139/2/2 142/2/2
f 142/2/2 139/2/2 143/2/2
f 140/2/2 141/2/2 144/2/2
f 144/2/2 141/2/2 145/2/2
f 148/2/2 149/2/2 152/2/2
f 152/2/2 149/2/2 153/2/2
f 146/2/2 147/2/2 154/2/2
f 154/2/2 147/2/2 155/2/2
f 150/2/2 151/2/2 156/2/2
f 156/2/2 151/2/2 157/2/2
f 158/2/2 159/2/2 160/2/2
f 160/2/2 159/2/2 161/2/2
f 162/2/2 163/2/2 164/2/2
f 164/2/2 163/2/2 165/2/2
f 166/2/2 167/2/2 172/2/2
f 172/2/2 167/2/2 173/2/2
f 168/2/2 169/2/2 174/2/2
f 174/2/2 169/2/2 175/2/2
f 170/2/2 171/2/2 176/2/2
f 176/2/2 171/2/2 177/2/2
f 178/2/2 179/2/2 180/2/2
f 180/2/2 179/2/2 181/2/2
f 182/2/2 183/2/2 186/2/2
f 186/2/2 183/2/2 187/2/2
f 184/2/2 185/2/2 188/2/2
f 188/2/2 185/2/2 189/2/2
f 190/2/2 191/2/2 196/2/2
f 196/2/2 191/2/2 197/2/2
f 192/2/2 193/2/2 198/2/2
f 198/2/2 193/2/2 199/2/2
f 194/2/2 195/2/2 200/2/2
f 200/2/2 195/2/2 201/2/2
f 202/2/2 203/2/2 206/2/2
f 206/2/2 203/2/2 207/2/2
f 204/1/2 205/1/2 209/1/2
f 207/2/2 208/2/2 210/2/2
f 208/1/2 209/1/2 211/1/2
f 210/2/2 208/2/2 211/2/2
f 211/1/2 209/1/2 212/1/2
f 209/1/2 205/1/2 213/1/2
f 212/1/2 209/1/2 213/1/2
f 214/2/2 215/2/2 222/2/2
f 222/2/2 215/2/2 223/2/2
f 216/2/2 217/2/2 224/2/2
f 224/2/2 217/2/2 225/2/2
f 218/2/2 219/2/2 226/2/2
f 226/2/2 219/2/2 227/2/2
f 220/2/2 221/2/2 230/2/2
f 230/2/2 221/2/2 231/2/2
f 228/2/2 229/2/2 232/2/2
f 232/2/2 229/2/2 233/2/2
f 234/2/2 235/2/2 236/2/2
f 236/2/2 235/2/2 237/2/2
f 240/2/3 239/2/3 238/2/3
f 241/2/3 239/2/3 240/2/3
f 244/2/3 243/2/3 242/2/3
f 245/2/3 243/2/3 244/2/3
f 248/2/3 247/2/3 246/2/3
f 249/2/3 247/2/3 248/2/3
f 252/2/3 251/2/3 250/2/3
f 253/2/3 251/2/3 252/2/3
f 256/2/3 255/2/3 254/2/3
f 257/2/3 255/2/3 256/2/3
f 260/2/3 259/2/3 258/2/3
f 261/2/3 259/2/3 260/2/3
f 264/2/3 263/2/3 262/2/3
f 265/2/3 263/2/3 264/2/3
f 268/2/3 267/2/3 266/2/3
f 269/2/3 267/2/3 268/2/3
f 272/2/3 271/2/3 270/2/3
f 273/2/3 271/2/3 272/2/3
f 276/2/3 275/2/3 274/2/3
f 277/2/3 275/2/3 276/2/3
f 280/2/3 279/2/3 278/2/3
f 281/2/3 279/2/3 280/2/3
f 284/2/3 283/2/3 282/2/3
f 285/2/3 283/2/3 284/2/3
f 288/2/3 287/2/3 286/2/3
f 289/2/3 287/2/3 288/2/3
f 292/2/3 291/2/3 290/2/3
f 293/2/3 291/2/3 292/2/3
f 296/2/3 295/2/3 294/2/3
f 297/2/3 295/2/3 296/2/3
f 300/2/3 299/2/3 298/2/3
f 301/2/3 299/2/3 300/2/3
f 304/2/3 303/2/3 302/2/3
f 305/2/3 303/2/3 304/2/3
f 308/2/3 307/2/3 306/2/3
f 309/2/3 307/2/3 308/2/3
f 312/2/3 311/2/3 310/2/3
f 313/2/3 311/2/3 312/2/3
f 316/2/3 315/2/3 314/2/3
f 317/2/3 315/2/3 316/2/3
f 320/2/3 319/2/3 318/2/3
f 321/2/3 319/2/3 320/2/3
f 324/2/3 323/2/3 322/2/3
f 325/2/3 323/2/3 324/2/3
f 328/2/3 327/2/3 326/2/3
f 329/2/3 327/2/3 328/2/3
f 332/2/3 331/2/3 330/2/3
f 333/2/3 331/2/3 332/2/3
f 336/2/3 334/2/3 333/2/3
f 337/2/3 334/2/3 336/2/3
f 338/2/3 336/2/3 335/2/3
f 339/2/3 336/2/3 338/2/3
f 342/2/3 341/2/3 340/2/3
f 343/2/3 341/2/3 342/2/3
f 345/1/3 343/1/3 342/1/3
f 345/1/3 344/1/3 343/1/3
f 346/1/3 344/1/3 345/1/3
f 349/2/3 348/2/3 347/2/3
f 350/2/3 348/2/3 349/2/3
f 353/2/3 351/2/3 350/2/3
f 354/2/3 353/2/3 352/2/3
f 355/2/3 351/2/3 353/2/3
f 355/2/3 353/2/3 354/2/3
f 358/2/3 357/2/3 356/2/3
f 359/2/3 357/2/3 358/2/3
f 361/1/3 344/1/3 346/1/3
f 362/1/3 361/1/3 360/1/3
f 363/1/3 344/1/3 361/1/3
f 363/1/3 361/1/3 362/1/3
f 366/1/3 365/1/3 364/1/3
f 367/1/3 365/1/3 366/1/3
f 368/1/3 365/1/3 367/1/3
f 369/1/3 365/1/3 368/1/3
f 371/1/3 365/1/3 369/1/3
f 372/1/3 371/1/3 370/1/3
f 373/1/3 371/1/3 372/1/3
f 374/1/3 371/1/3 373/1/3
f 375/1/3 365/1/3 371/1/3
f 375/1/3 371/1/3 374/1/3
f 376/2/4 377/2/4 378/2/4
f 378/2/4 377/2/4 379/2/4
f 380/2/4 381/2/4 382/2/4
f 382/2/4 381/2/4 383/2/4
f 384/2/4 385/2/4 386/2/4
f 386/2/4 385/2/4 387/2/4
f 388/2/4 389/2/4 390/2/4
f 390/2/4 389/2/4 391/2/4
f 392/2/4 393/2/4 394/2/4
f 394/2/4 393/2/4 395/2/4
f 396/2/4 397/2/4 398/2/4
f 398/2/4 397/2/4 399/2/4
f 400/2/4 401/2/4 402/2/4
f 402/2/4 401/2/4 403/2/4
f 404/2/4 405/2/4 406/2/4
f 406/2/4 405/2/4 407/2/4
f 408/2/4 409/2/4 410/2/4
f 410/2/4 409/2/4 411/2/4
f 412/2/4 413/2/4 414/2/4
f 414/2/4 413/2/4 415/2/4
f 416/2/4 417/2/4 418/2/4
f 418/2/4 417/2/4 419/2/4
f 420/2/4 421/2/4 422/2/4
f 422/2/4 421/2/4 423/2/4
f 424/2/4 425/2/4 426/2/4
f 426/2/4 425/2/4 427/2/4
f 428/2/4 429/2/4 430/2/4
f 430/2/4 429/2/4 431/2/4
f 432/2/4 433/2/4 434/2/4
f 434/2/4 433/2/4 435/2/4
f 435/1/4 436/1/4 437/1/4
f 437/1/4 436/1/4 438/1/4
f 438/1/4 436/1/4 440/1/4
f 439/1/4 440/1/4 442/1/4
f 441/1/4 442/1/4 443/1/4
f 440/1/4 436/1/4 444/1/4
f 443/1/4 442/1/4 444/1/4
f 442/1/4 440/1/4 444/1/4
f 445/2/4 446/2/4 447/2/4
f 447/2/4 446/2/4 448/2/4
f 449/2/4 450/2/4 451/2/4
f 449/2/4 451/2/4 453/2/4
f 451/2/4 452/2/4 453/2/4
f 453/2/4 452/2/4 454/2/4
f 449/2/4 453/2/4 455/2/4
f 455/2/4 453/2/4 456/2/4
f 457/2/4 458/2/4 459/2/4
f 459/2/4 458/2/4 460/2/4
f 461/2/4 462/2/4 463/2/4
f 463/2/4 462/2/4 464/2/4
f 465/2/4 466/2/4 467/2/4
f 467/2/4 466/2/4 468/2/4
f 469/2/4 470/2/4 471/2/4
f 471/2/4 470/2/4 472/2/4
f 476/2/5 474/2/5 473/2/5
f 477/2/5 474/2/5 476/2/5
f 480/2/5 476/2/5 475/2/5
f 480/2/5 478/2/5 477/2/5
f 480/2/5 477/2/5 476/2/5
f 481/2/5 478/2/5 480/2/5
f 481/2/5 480/2/5 479/2/5
f 484/2/5 481/2/5 479/2/5
f 484/2/5 482/2/5 481/2/5
f 485/2/5 484/2/5 483/2/5
f 486/2/5 482/2/5 484/2/5
f 486/2/5 484/2/5 485/2/5
f 487/2/5 482/2/5 486/2/5
f 490/2/5 487/2/5 486/2/5
f 490/2/5 488/2/5 487/2/5
f 491/2/5 488/2/5 490/2/5
f 491/2/5 490/2/5 489/2/5
f 492/2/5 488/2/5 491/2/5
f 493/2/5 491/2/5 489/2/5
f 494/2/5 491/2/5 493/2/5
f 495/2/5 491/2/5 494/2/5
f 498/2/5 495/2/5 494/2/5
f 498/2/5 496/2/5 495/2/5
f 499/2/5 498/2/5 497/2/5
f 500/2/5 496/2/5 498/2/5
f 500/2/5 498/2/5 499/2/5
f 501/2/5 496/2/5 500/2/5
f 502/2/5 496/2/5 501/2/5
f 504/2/5 501/2/5 500/2/5
f 505/2/5 501/2/5 504/2/5
f 505/2/5 504/2/5 503/2/5
f 508/2/5 505/2/5 503/2/5
f 508/2/5 506/2/5 505/2/5
f 509/2/5 506/2/5 508/2/5
f 512/2/5 509/2/5 508/2/5
f 512/2/5 510/2/5 509/2/5
f 512/2/5 508/2/5 507/2/5
f 513/2/5 510/2/5 512/2/5
f 513/2/5 512/2/5 511/2/5
f 514/2/5 510/2/5 513/2/5
f 515/2/5 510/2/5 514/2/5
f 516/2/5 510/2/5 515/2/5
f 517/2/5 510/2/5 516/2/5
f 518/2/5 510/2/5 517/2/5
f 519/2/5 513/2/5 511/2/5
f 520/2/5 513/2/5 519/2/5
f 521/1/5 514/1/5 513/1/5
f 521/2/5 515/2/5 514/2/5
f 522/2/5 515/2/5 521/2/5
f 523/2/5 517/2/5 516/2/5
f 524/1/5 518/1/5 517/1/5
f 524/2/5 517/2/5 523/2/5
f 525/2/5 513/2/5 520/2/5
f 525/1/5 521/1/5 513/1/5
f 525/1/5 522/1/5 521/1/5
f 526/2/5 515/2/5 522/2/5
f 526/1/5 522/1/5 525/1/5
f 527/1/5 516/1/5 515/1/5
f 527/2/5 515/2/5 526/2/5
f 528/2/5 523/2/5 516/2/5
f 528/1/5 516/1/5 527/1/5
f 529/1/5 524/1/5 523/1/5
f 529/2/5 523/2/5 528/2/5
f 530/2/5 510/2/5 518/2/5
f 530/1/5 524/1/5 529/1/5
f 530/1/5 518/1/5 524/1/5
f 531/2/5 529/2/5 528/2/5
f 531/2/5 528/2/5 527/2/5
f 531/2/5 530/2/5 529/2/5
f 531/2/5 527/2/5 526/2/5
f 531/2/5 525/2/5 520/2/5
f 531/2/5 526/2/5 525/2/5
f 532/2/5 530/2/5 531/2/5
f 533/2/5 510/2/5 530/2/5
f 533/2/5 530/2/5 532/2/5
f 534/2/5 510/2/5 533/2/5
f 535/2/5 533/2/5 532/2/5
f 536/2/5 533/2/5 535/2/5
f 537/2/5 533/2/5 536/2/5
f 538/2/5 533/2/5 537/2/5
f 539/2/5 537/2/5 536/2/5
f 540/2/5 537/2/5 539/2/5
f 543/1/5 542/1/5 541/1/5
f 544/1/5 542/1/5 543/1/5
f 545/2/6 546/2/6 548/2/6
f 548/2/6 546/2/6 549/2/6
f 547/2/6 548/2/6 552/2/6
f 549/2/6 550/2/6 552/2/6
f 548/2/6 549/2/6 552/2/6
f 552/2/6 550/2/6 553/2/6
f 553/2/6 550/2/6 554/2/6
f 551/2/6 552/2/6 555/2/6
f 552/2/6 553/2/6 555/2/6
f 555/2/6 553/2/6 556/2/6
f 554/2/6 550/2/6 557/2/6
f 557/2/6 558/2/6 559/2/6
f 554/2/6 557/2/6 559/2/6
f 559/2/6 558/2/6 560/2/6
f 551/2/6 555/2/6 562/2/6
f 561/2/6 562/2/6 563/2/6
f 562/2/6 555/2/6 564/2/6
f 563/2/6 562/2/6 564/2/6
f 560/2/6 558/2/6 565/2/6
f 564/2/6 555/2/6 568/2/6
f 565/2/6 566/2/6 569/2/6
f 560/2/6 565/2/6 569/2/6
f 569/2/6 566/2/6 570/2/6
f 567/2/6 568/2/6 571/2/6
f 568/2/6 555/2/6 572/2/6
f 571/2/6 568/2/6 572/2/6
f 560/2/6 569/2/6 573/2/6
f 572/2/6 555/2/6 576/2/6
f 575/2/6 576/2/6 577/2/6
f 576/2/6 555/2/6 578/2/6
f 577/2/6 576/2/6 578/2/6
f 573/2/6 574/2/6 579/2/6
f 560/2/6 573/2/6 579/2/6
f 579/2/6 574/2/6 580/2/6
f 578/2/6 555/2/6 582/2/6
f 582/2/6 555/2/6 583/2/6
f 581/2/6 582/2/6 583/2/6
f 560/2/6 579/2/6 586/2/6
f 586/2/6 579/2/6 587/2/6
f 583/2/6 584/2/6 590/2/6
f 581/2/6 583/2/6 590/2/6
f 590/2/6 584/2/6 591/2/6
f 587/2/6 588/2/6 592/2/6
f 586/2/6 587/2/6 592/2/6
f 585/2/6 586/2/6 592/2/6
f 592/2/6 588/2/6 593/2/6
f 593/2/6 588/2/6 594/2/6
f 594/2/6 588/2/6 595/2/6
f 590/2/6 591/2/6 598/2/6
f 592/2/6 593/2/6 598/2/6
f 591/2/6 592/2/6 598/2/6
f 589/2/6 590/2/6 598/2/6
f 598/2/6 593/2/6 599/2/6
f 599/2/6 593/2/6 600/2/6
f 600/2/6 593/2/6 601/2/6
f 601/2/6 593/2/6 602/2/6
f 602/2/6 593/2/6 603/2/6
f 603/2/6 593/2/6 604/2/6
f 594/2/6 595/2/6 605/2/6
f 595/2/6 596/2/6 605/2/6
f 605/2/6 596/2/6 606/2/6
f 600/2/6 601/2/6 607/2/6
f 607/2/6 601/2/6 608/2/6
f 608/2/6 601/2/6 609/2/6
f 602/2/6 603/2/6 610/2/6
f 610/2/6 603/2/6 611/2/6
f 611/2/6 603/2/6 612/2/6
f 612/2/6 603/2/6 613/2/6
f 597/2/6 598/2/6 614/2/6
f 598/2/6 599/2/6 614/2/6
f 614/2/6 599/2/6 615/2/6
f 607/2/6 608/2/6 616/2/6
f 616/2/6 608/2/6 617/2/6
f 611/2/6 612/2/6 618/2/6
f 618/2/6 612/2/6 619/2/6
f 606/2/6 596/2/6 621/2/6
f 615/2/6 599/2/6 622/2/6
f 620/2/6 621/2/6 625/2/6
f 622/2/6 623/2/6 626/2/6
f 615/2/6 622/2/6 626/2/6
f 626/2/6 623/2/6 627/2/6
f 627/2/6 623/2/6 628/2/6
f 624/2/6 625/2/6 629/2/6
f 621/2/6 596/2/6 630/2/6
f 625/2/6 621/2/6 630/2/6
f 629/2/6 625/2/6 630/2/6
f 630/2/6 596/2/6 631/2/6
f 627/2/6 628/2/6 632/2/6
f 628/2/6 629/2/6 632/2/6
f 629/2/6 630/2/6 632/2/6
f 632/2/6 630/2/6 633/2/6
f 633/2/6 630/2/6 634/2/6
f 634/2/6 630/2/6 635/2/6
f 633/2/6 634/2/6 636/2/6
f 636/2/6 634/2/6 637/2/6
f 638/2/6 639/2/6 641/2/6
f 641/2/6 639/2/6 642/2/6
f 640/2/6 641/2/6 642/2/6
f 642/2/6 639/2/6 643/2/6
f 643/2/6 639/2/6 644/2/6
f 644/2/6 639/2/6 645/2/6
f 645/2/6 639/2/6 646/2/6
f 640/2/6 642/2/6 648/2/6
f 646/2/6 647/2/6 651/2/6
f 645/2/6 646/2/6 651/2/6
f 648/2/6 649/2/6 652/2/6
f 640/2/6 648/2/6 652/2/6
f 652/2/6 649/2/6 653/2/6
f 653/2/6 649/2/6 654/2/6
f 650/2/6 651/2/6 655/2/6
f 651/2/6 647/2/6 656/2/6
f 655/2/6 651/2/6 656/2/6
f 656/2/6 647/2/6 657/2/6
f 653/2/6 654/2/6 658/2/6
f 654/2/6 655/2/6 658/2/6
f 655/2/6 656/2/6 658/2/6
f 658/2/6 656/2/6 659/2/6
f 660/2/6 661/2/6 667/2/6
f 667/2/6 661/2/6 668/2/6
f 662/2/6 663/2/6 670/2/6
f 670/2/6 663/2/6 671/2/6
f 671/2/6 663/2/6 672/2/6
f 664/2/6 665/2/6 674/2/6
f 674/2/6 665/2/6 675/2/6
f 666/2/6 667/2/6 677/2/6
f 677/2/6 667/2/6 678/2/6
f 668/2/6 669/2/6 679/2/6
f 673/2/6 674/2/6 682/2/6
f 682/2/6 674/2/6 683/2/6
f 677/2/6 678/2/6 684/2/6
f 676/2/6 677/2/6 684/2/6
f 684/2/6 678/2/6 685/2/6
f 679/2/6 669/2/6 686/2/6
f 686/2/6 669/2/6 687/2/6
f 680/2/6 681/2/6 688/2/6
f 688/2/6 681/2/6 689/2/6
f 689/2/6 690/2/6 693/2/6
f 693/2/6 690/2/6 694/2/6
f 691/2/6 692/2/6 695/2/6
f 695/2/6 692/2/6 696/2/6
f 697/2/6 698/2/6 699/2/6
f 697/2/6 699/2/6 701/2/6
f 699/2/6 700/2/6 701/2/6
f 701/2/6 700/2/6 702/2/6
f 702/2/6 700/2/6 703/2/6
f 703/2/6 700/2/6 704/2/6
f 702/2/6 703/2/6 705/2/6
f 705/2/6 703/2/6 706/2/6
f 707/2/6 708/2/6 713/2/6
f 713/2/6 708/2/6 714/2/6
f 709/2/6 710/2/6 715/2/6
f 715/2/6 710/2/6 716/2/6
f 711/2/6 712/2/6 717/2/6
f 717/2/6 712/2/6 718/2/6
f 719/2/6 720/2/6 721/2/6
f 721/2/6 720/2/6 722/2/6
f 723/1/6 724/1/6 725/1/6
f 725/1/6 724/1/6 726/1/6
