# MagicaVoxel @ Ephtracy

# group
o 

# material
mtllib Tumba 01.mtl
usemtl palette

# normals
vn -1 0 0
vn 1 0 0
vn 0 0 1
vn 0 0 -1
vn 0 -1 0
vn 0 1 0

# texcoords
vt 0.919922 0.5
vt 0.923828 0.5

# verts
v -0.8 0 1.9
v -0.8 0 -1.9
v -0.8 0.1 1.9
v -0.8 0.1 -1.9
v -0.7 0.1 1.8
v -0.7 0.1 -1.8
v -0.7 0.3 1.8
v -0.7 0.3 -1.8
v -0.7 1 1.8
v -0.7 1 -1.8
v -0.7 1.2 1.8
v -0.7 1.2 -1.8
v -0.6 0.3 1.7
v -0.6 0.3 1.5
v -0.6 0.3 -1.5
v -0.6 0.3 -1.7
v -0.6 1 1.7
v -0.6 1 1.5
v -0.6 1 -1.5
v -0.6 1 -1.7
v -0.5 0.3 1.5
v -0.5 0.3 -1.5
v -0.5 1 1.5
v -0.5 1 -1.5
v 0.1 1.1 1.5
v 0.1 1.1 1.3
v 0.1 1.1 1.1
v 0.1 1.1 0.5
v 0.1 1.1 -1
v 0.1 1.1 -1.1
v 0.1 1.2 1.5
v 0.1 1.2 1.3
v 0.1 1.2 1.1
v 0.1 1.2 0.5
v 0.1 1.2 -1
v 0.1 1.2 -1.1
v 0.2 1.1 -0.4
v 0.2 1.1 -0.5
v 0.2 1.2 -0.4
v 0.2 1.2 -0.5
v 0.3 1.1 1.3
v 0.3 1.1 1.1
v 0.3 1.1 0
v 0.3 1.1 -0.1
v 0.3 1.1 -0.8
v 0.3 1.1 -0.9
v 0.3 1.2 1.3
v 0.3 1.2 1.1
v 0.3 1.2 0
v 0.3 1.2 -0.1
v 0.3 1.2 -0.8
v 0.3 1.2 -0.9
v 0.4 1.1 0.2
v 0.4 1.1 0.1
v 0.4 1.1 -0.2
v 0.4 1.1 -0.3
v 0.4 1.1 -0.6
v 0.4 1.1 -0.7
v 0.4 1.2 0.2
v 0.4 1.2 0.1
v 0.4 1.2 -0.2
v 0.4 1.2 -0.3
v 0.4 1.2 -0.6
v 0.4 1.2 -0.7
v -0.4 1.1 0.2
v -0.4 1.1 0.1
v -0.4 1.1 -0.2
v -0.4 1.1 -0.3
v -0.4 1.1 -0.6
v -0.4 1.1 -0.7
v -0.4 1.2 0.2
v -0.4 1.2 0.1
v -0.4 1.2 -0.2
v -0.4 1.2 -0.3
v -0.4 1.2 -0.6
v -0.4 1.2 -0.7
v -0.3 1.1 1.3
v -0.3 1.1 1.1
v -0.3 1.1 0
v -0.3 1.1 -0.1
v -0.3 1.1 -0.8
v -0.3 1.1 -0.9
v -0.3 1.2 1.3
v -0.3 1.2 1.1
v -0.3 1.2 0
v -0.3 1.2 -0.1
v -0.3 1.2 -0.8
v -0.3 1.2 -0.9
v -0.2 1.1 -0.4
v -0.2 1.1 -0.5
v -0.2 1.2 -0.4
v -0.2 1.2 -0.5
v -0.1 1.1 1.5
v -0.1 1.1 1.3
v -0.1 1.1 1.1
v -0.1 1.1 0.5
v -0.1 1.1 -1
v -0.1 1.1 -1.1
v -0.1 1.2 1.5
v -0.1 1.2 1.3
v -0.1 1.2 1.1
v -0.1 1.2 0.5
v -0.1 1.2 -1
v -0.1 1.2 -1.1
v 0.5 0.3 1.5
v 0.5 0.3 -1.5
v 0.5 1 1.5
v 0.5 1 -1.5
v 0.6 0.3 1.7
v 0.6 0.3 1.5
v 0.6 0.3 -1.5
v 0.6 0.3 -1.7
v 0.6 1 1.7
v 0.6 1 1.5
v 0.6 1 -1.5
v 0.6 1 -1.7
v 0.7 0.1 1.8
v 0.7 0.1 -1.8
v 0.7 0.3 1.8
v 0.7 0.3 -1.8
v 0.7 1 1.8
v 0.7 1 -1.8
v 0.7 1.2 1.8
v 0.7 1.2 -1.8
v 0.8 0 1.9
v 0.8 0 -1.9
v 0.8 0.1 1.9
v 0.8 0.1 -1.9
v -0.8 0 1.9
v -0.8 0.1 1.9
v 0.8 0 1.9
v 0.8 0.1 1.9
v -0.7 0.1 1.8
v -0.7 0.3 1.8
v -0.7 1 1.8
v -0.7 1.2 1.8
v 0.7 0.1 1.8
v 0.7 0.3 1.8
v 0.7 1 1.8
v 0.7 1.2 1.8
v -0.6 0.3 1.7
v -0.6 1 1.7
v 0.6 0.3 1.7
v 0.6 1 1.7
v -0.3 1.1 1.1
v -0.3 1.2 1.1
v -0.1 1.1 1.1
v -0.1 1.2 1.1
v 0.1 1.1 1.1
v 0.1 1.2 1.1
v 0.3 1.1 1.1
v 0.3 1.2 1.1
v -0.1 1.1 0.5
v -0.1 1.2 0.5
v 0.1 1.1 0.5
v 0.1 1.2 0.5
v -0.4 1.1 0.1
v -0.4 1.2 0.1
v 0.4 1.1 0.1
v 0.4 1.2 0.1
v -0.3 1.1 -0.1
v -0.3 1.2 -0.1
v 0.3 1.1 -0.1
v 0.3 1.2 -0.1
v -0.4 1.1 -0.3
v -0.4 1.2 -0.3
v 0.4 1.1 -0.3
v 0.4 1.2 -0.3
v -0.2 1.1 -0.5
v -0.2 1.2 -0.5
v 0.2 1.1 -0.5
v 0.2 1.2 -0.5
v -0.4 1.1 -0.7
v -0.4 1.2 -0.7
v 0.4 1.1 -0.7
v 0.4 1.2 -0.7
v -0.3 1.1 -0.9
v -0.3 1.2 -0.9
v 0.3 1.1 -0.9
v 0.3 1.2 -0.9
v -0.1 1.1 -1.1
v -0.1 1.2 -1.1
v 0.1 1.1 -1.1
v 0.1 1.2 -1.1
v -0.6 0.3 -1.5
v -0.6 1 -1.5
v -0.5 0.3 -1.5
v -0.5 1 -1.5
v 0.5 0.3 -1.5
v 0.5 1 -1.5
v 0.6 0.3 -1.5
v 0.6 1 -1.5
v -0.6 0.3 1.5
v -0.6 1 1.5
v -0.5 0.3 1.5
v -0.5 1 1.5
v -0.1 1.1 1.5
v -0.1 1.2 1.5
v 0.1 1.1 1.5
v 0.1 1.2 1.5
v 0.5 0.3 1.5
v 0.5 1 1.5
v 0.6 0.3 1.5
v 0.6 1 1.5
v -0.3 1.1 1.3
v -0.3 1.2 1.3
v -0.1 1.1 1.3
v -0.1 1.2 1.3
v 0.1 1.1 1.3
v 0.1 1.2 1.3
v 0.3 1.1 1.3
v 0.3 1.2 1.3
v -0.4 1.1 0.2
v -0.4 1.2 0.2
v 0.4 1.1 0.2
v 0.4 1.2 0.2
v -0.3 1.1 0
v -0.3 1.2 0
v 0.3 1.1 0
v 0.3 1.2 0
v -0.4 1.1 -0.2
v -0.4 1.2 -0.2
v 0.4 1.1 -0.2
v 0.4 1.2 -0.2
v -0.2 1.1 -0.4
v -0.2 1.2 -0.4
v 0.2 1.1 -0.4
v 0.2 1.2 -0.4
v -0.4 1.1 -0.6
v -0.4 1.2 -0.6
v 0.4 1.1 -0.6
v 0.4 1.2 -0.6
v -0.3 1.1 -0.8
v -0.3 1.2 -0.8
v 0.3 1.1 -0.8
v 0.3 1.2 -0.8
v -0.1 1.1 -1
v -0.1 1.2 -1
v 0.1 1.1 -1
v 0.1 1.2 -1
v -0.6 0.3 -1.7
v -0.6 1 -1.7
v 0.6 0.3 -1.7
v 0.6 1 -1.7
v -0.7 0.1 -1.8
v -0.7 0.3 -1.8
v -0.7 1 -1.8
v -0.7 1.2 -1.8
v 0.7 0.1 -1.8
v 0.7 0.3 -1.8
v 0.7 1 -1.8
v 0.7 1.2 -1.8
v -0.8 0 -1.9
v -0.8 0.1 -1.9
v 0.8 0 -1.9
v 0.8 0.1 -1.9
v -0.8 0 1.9
v 0.8 0 1.9
v -0.7 0 1.8
v 0.7 0 1.8
v -0.7 0 -1.8
v 0.7 0 -1.8
v -0.8 0 -1.9
v 0.8 0 -1.9
v -0.7 1 1.8
v 0.7 1 1.8
v -0.6 1 1.7
v 0.6 1 1.7
v -0.6 1 1.5
v -0.5 1 1.5
v 0.5 1 1.5
v 0.6 1 1.5
v -0.6 1 -1.5
v -0.5 1 -1.5
v 0.5 1 -1.5
v 0.6 1 -1.5
v -0.6 1 -1.7
v 0.6 1 -1.7
v -0.7 1 -1.8
v 0.7 1 -1.8
v -0.8 0.1 1.9
v 0.8 0.1 1.9
v -0.7 0.1 1.8
v 0.7 0.1 1.8
v -0.7 0.1 -1.8
v 0.7 0.1 -1.8
v -0.8 0.1 -1.9
v 0.8 0.1 -1.9
v -0.7 0.3 1.8
v 0.7 0.3 1.8
v -0.6 0.3 1.7
v 0.6 0.3 1.7
v -0.6 0.3 1.5
v -0.5 0.3 1.5
v 0.5 0.3 1.5
v 0.6 0.3 1.5
v -0.6 0.3 -1.5
v -0.5 0.3 -1.5
v 0.5 0.3 -1.5
v 0.6 0.3 -1.5
v -0.6 0.3 -1.7
v 0.6 0.3 -1.7
v -0.7 0.3 -1.8
v 0.7 0.3 -1.8
v -0.1 1.1 1.5
v 0.1 1.1 1.5
v -0.3 1.1 1.3
v -0.1 1.1 1.3
v 0.1 1.1 1.3
v 0.3 1.1 1.3
v -0.3 1.1 1.1
v -0.1 1.1 1.1
v 0.1 1.1 1.1
v 0.3 1.1 1.1
v -0.1 1.1 0.5
v 0.1 1.1 0.5
v -0.4 1.1 0.2
v 0.4 1.1 0.2
v -0.4 1.1 0.1
v 0.4 1.1 0.1
v -0.3 1.1 0
v 0.3 1.1 0
v -0.3 1.1 -0.1
v 0.3 1.1 -0.1
v -0.4 1.1 -0.2
v 0.4 1.1 -0.2
v -0.4 1.1 -0.3
v 0.4 1.1 -0.3
v -0.2 1.1 -0.4
v 0.2 1.1 -0.4
v -0.2 1.1 -0.5
v 0.2 1.1 -0.5
v -0.4 1.1 -0.6
v 0.4 1.1 -0.6
v -0.4 1.1 -0.7
v 0.4 1.1 -0.7
v -0.3 1.1 -0.8
v 0.3 1.1 -0.8
v -0.3 1.1 -0.9
v 0.3 1.1 -0.9
v -0.1 1.1 -1
v 0.1 1.1 -1
v -0.1 1.1 -1.1
v 0.1 1.1 -1.1
v -0.7 1.2 1.8
v 0.7 1.2 1.8
v -0.1 1.2 1.5
v 0.1 1.2 1.5
v -0.3 1.2 1.3
v -0.1 1.2 1.3
v 0.1 1.2 1.3
v 0.3 1.2 1.3
v -0.3 1.2 1.1
v -0.1 1.2 1.1
v 0.1 1.2 1.1
v 0.3 1.2 1.1
v -0.1 1.2 0.5
v 0.1 1.2 0.5
v -0.4 1.2 0.2
v 0.4 1.2 0.2
v -0.4 1.2 0.1
v 0.4 1.2 0.1
v -0.3 1.2 0
v 0.3 1.2 0
v -0.3 1.2 -0.1
v 0.3 1.2 -0.1
v -0.4 1.2 -0.2
v 0.4 1.2 -0.2
v -0.4 1.2 -0.3
v 0.4 1.2 -0.3
v -0.2 1.2 -0.4
v 0.2 1.2 -0.4
v -0.2 1.2 -0.5
v 0.2 1.2 -0.5
v -0.4 1.2 -0.6
v 0.4 1.2 -0.6
v -0.4 1.2 -0.7
v 0.4 1.2 -0.7
v -0.3 1.2 -0.8
v 0.3 1.2 -0.8
v -0.3 1.2 -0.9
v 0.3 1.2 -0.9
v -0.1 1.2 -1
v 0.1 1.2 -1
v -0.1 1.2 -1.1
v 0.1 1.2 -1.1
v -0.7 1.2 -1.8
v 0.7 1.2 -1.8

# faces
f 3/1/1 2/1/1 1/1/1
f 4/1/1 2/1/1 3/1/1
f 7/2/1 6/2/1 5/2/1
f 8/2/1 6/2/1 7/2/1
f 11/1/1 10/1/1 9/1/1
f 12/1/1 10/1/1 11/1/1
f 17/2/1 14/2/1 13/2/1
f 18/2/1 14/2/1 17/2/1
f 19/2/1 16/2/1 15/2/1
f 20/2/1 16/2/1 19/2/1
f 23/2/1 22/2/1 21/2/1
f 24/2/1 22/2/1 23/2/1
f 31/1/1 26/1/1 25/1/1
f 32/1/1 26/1/1 31/1/1
f 33/1/1 28/1/1 27/1/1
f 34/1/1 28/1/1 33/1/1
f 35/1/1 30/1/1 29/1/1
f 36/1/1 30/1/1 35/1/1
f 39/1/1 38/1/1 37/1/1
f 40/1/1 38/1/1 39/1/1
f 47/1/1 42/1/1 41/1/1
f 48/1/1 42/1/1 47/1/1
f 49/1/1 44/1/1 43/1/1
f 50/1/1 44/1/1 49/1/1
f 51/1/1 46/1/1 45/1/1
f 52/1/1 46/1/1 51/1/1
f 59/1/1 54/1/1 53/1/1
f 60/1/1 54/1/1 59/1/1
f 61/1/1 56/1/1 55/1/1
f 62/1/1 56/1/1 61/1/1
f 63/1/1 58/1/1 57/1/1
f 64/1/1 58/1/1 63/1/1
f 65/1/2 66/1/2 71/1/2
f 71/1/2 66/1/2 72/1/2
f 67/1/2 68/1/2 73/1/2
f 73/1/2 68/1/2 74/1/2
f 69/1/2 70/1/2 75/1/2
f 75/1/2 70/1/2 76/1/2
f 77/1/2 78/1/2 83/1/2
f 83/1/2 78/1/2 84/1/2
f 79/1/2 80/1/2 85/1/2
f 85/1/2 80/1/2 86/1/2
f 81/1/2 82/1/2 87/1/2
f 87/1/2 82/1/2 88/1/2
f 89/1/2 90/1/2 91/1/2
f 91/1/2 90/1/2 92/1/2
f 93/1/2 94/1/2 99/1/2
f 99/1/2 94/1/2 100/1/2
f 95/1/2 96/1/2 101/1/2
f 101/1/2 96/1/2 102/1/2
f 97/1/2 98/1/2 103/1/2
f 103/1/2 98/1/2 104/1/2
f 105/2/2 106/2/2 107/2/2
f 107/2/2 106/2/2 108/2/2
f 109/2/2 110/2/2 113/2/2
f 113/2/2 110/2/2 114/2/2
f 111/2/2 112/2/2 115/2/2
f 115/2/2 112/2/2 116/2/2
f 117/2/2 118/2/2 119/2/2
f 119/2/2 118/2/2 120/2/2
f 121/1/2 122/1/2 123/1/2
f 123/1/2 122/1/2 124/1/2
f 125/1/2 126/1/2 127/1/2
f 127/1/2 126/1/2 128/1/2
f 131/1/3 130/1/3 129/1/3
f 132/1/3 130/1/3 131/1/3
f 137/2/3 134/2/3 133/2/3
f 138/2/3 134/2/3 137/2/3
f 139/1/3 136/1/3 135/1/3
f 140/1/3 136/1/3 139/1/3
f 143/2/3 142/2/3 141/2/3
f 144/2/3 142/2/3 143/2/3
f 147/1/3 146/1/3 145/1/3
f 148/1/3 146/1/3 147/1/3
f 151/1/3 150/1/3 149/1/3
f 152/1/3 150/1/3 151/1/3
f 155/1/3 154/1/3 153/1/3
f 156/1/3 154/1/3 155/1/3
f 159/1/3 158/1/3 157/1/3
f 160/1/3 158/1/3 159/1/3
f 163/1/3 162/1/3 161/1/3
f 164/1/3 162/1/3 163/1/3
f 167/1/3 166/1/3 165/1/3
f 168/1/3 166/1/3 167/1/3
f 171/1/3 170/1/3 169/1/3
f 172/1/3 170/1/3 171/1/3
f 175/1/3 174/1/3 173/1/3
f 176/1/3 174/1/3 175/1/3
f 179/1/3 178/1/3 177/1/3
f 180/1/3 178/1/3 179/1/3
f 183/1/3 182/1/3 181/1/3
f 184/1/3 182/1/3 183/1/3
f 187/2/3 186/2/3 185/2/3
f 188/2/3 186/2/3 187/2/3
f 191/2/3 190/2/3 189/2/3
f 192/2/3 190/2/3 191/2/3
f 193/2/4 194/2/4 195/2/4
f 195/2/4 194/2/4 196/2/4
f 197/1/4 198/1/4 199/1/4
f 199/1/4 198/1/4 200/1/4
f 201/2/4 202/2/4 203/2/4
f 203/2/4 202/2/4 204/2/4
f 205/1/4 206/1/4 207/1/4
f 207/1/4 206/1/4 208/1/4
f 209/1/4 210/1/4 211/1/4
f 211/1/4 210/1/4 212/1/4
f 213/1/4 214/1/4 215/1/4
f 215/1/4 214/1/4 216/1/4
f 217/1/4 218/1/4 219/1/4
f 219/1/4 218/1/4 220/1/4
f 221/1/4 222/1/4 223/1/4
f 223/1/4 222/1/4 224/1/4
f 225/1/4 226/1/4 227/1/4
f 227/1/4 226/1/4 228/1/4
f 229/1/4 230/1/4 231/1/4
f 231/1/4 230/1/4 232/1/4
f 233/1/4 234/1/4 235/1/4
f 235/1/4 234/1/4 236/1/4
f 237/1/4 238/1/4 239/1/4
f 239/1/4 238/1/4 240/1/4
f 241/2/4 242/2/4 243/2/4
f 243/2/4 242/2/4 244/2/4
f 245/2/4 246/2/4 249/2/4
f 249/2/4 246/2/4 250/2/4
f 247/1/4 248/1/4 251/1/4
f 251/1/4 248/1/4 252/1/4
f 253/1/4 254/1/4 255/1/4
f 255/1/4 254/1/4 256/1/4
f 259/1/5 258/1/5 257/1/5
f 260/1/5 258/1/5 259/1/5
f 261/1/5 259/1/5 257/1/5
f 261/2/5 260/2/5 259/2/5
f 262/1/5 258/1/5 260/1/5
f 262/2/5 260/2/5 261/2/5
f 263/1/5 261/1/5 257/1/5
f 263/1/5 262/1/5 261/1/5
f 264/1/5 258/1/5 262/1/5
f 264/1/5 262/1/5 263/1/5
f 267/1/5 266/1/5 265/1/5
f 268/1/5 266/1/5 267/1/5
f 269/1/5 267/1/5 265/1/5
f 272/1/5 266/1/5 268/1/5
f 273/1/5 270/1/5 269/1/5
f 273/1/5 269/1/5 265/1/5
f 274/1/5 270/1/5 273/1/5
f 275/1/5 272/1/5 271/1/5
f 276/1/5 266/1/5 272/1/5
f 276/1/5 272/1/5 275/1/5
f 277/1/5 273/1/5 265/1/5
f 278/1/5 266/1/5 276/1/5
f 279/1/5 277/1/5 265/1/5
f 279/1/5 278/1/5 277/1/5
f 280/1/5 266/1/5 278/1/5
f 280/1/5 278/1/5 279/1/5
f 281/1/6 282/1/6 283/1/6
f 283/1/6 282/1/6 284/1/6
f 281/1/6 283/1/6 285/1/6
f 284/1/6 282/1/6 286/1/6
f 281/1/6 285/1/6 287/1/6
f 285/1/6 286/1/6 287/1/6
f 286/1/6 282/1/6 288/1/6
f 287/1/6 286/1/6 288/1/6
f 289/2/6 290/2/6 291/2/6
f 291/2/6 290/2/6 292/2/6
f 289/2/6 291/2/6 293/2/6
f 292/2/6 290/2/6 296/2/6
f 293/2/6 294/2/6 297/2/6
f 289/2/6 293/2/6 297/2/6
f 297/2/6 294/2/6 298/2/6
f 295/2/6 296/2/6 299/2/6
f 296/2/6 290/2/6 300/2/6
f 299/2/6 296/2/6 300/2/6
f 289/2/6 297/2/6 301/2/6
f 300/2/6 290/2/6 302/2/6
f 289/2/6 301/2/6 303/2/6
f 301/2/6 302/2/6 303/2/6
f 302/2/6 290/2/6 304/2/6
f 303/2/6 302/2/6 304/2/6
f 305/2/6 306/2/6 308/2/6
f 308/2/6 306/2/6 309/2/6
f 307/2/6 308/2/6 311/2/6
f 309/2/6 310/2/6 311/2/6
f 308/2/6 309/2/6 311/2/6
f 311/2/6 310/2/6 312/2/6
f 312/2/6 310/2/6 313/2/6
f 313/2/6 310/2/6 314/2/6
f 312/2/6 313/2/6 315/2/6
f 315/2/6 313/2/6 316/2/6
f 317/2/6 318/2/6 319/2/6
f 319/2/6 318/2/6 320/2/6
f 321/2/6 322/2/6 323/2/6
f 323/2/6 322/2/6 324/2/6
f 325/2/6 326/2/6 327/2/6
f 327/2/6 326/2/6 328/2/6
f 329/2/6 330/2/6 331/2/6
f 331/2/6 330/2/6 332/2/6
f 333/2/6 334/2/6 335/2/6
f 335/2/6 334/2/6 336/2/6
f 337/2/6 338/2/6 339/2/6
f 339/2/6 338/2/6 340/2/6
f 341/2/6 342/2/6 343/2/6
f 343/2/6 342/2/6 344/2/6
f 345/1/6 346/1/6 347/1/6
f 347/1/6 346/1/6 348/1/6
f 345/1/6 347/1/6 349/1/6
f 349/1/6 347/1/6 350/1/6
f 348/1/6 346/1/6 351/1/6
f 351/1/6 346/1/6 352/1/6
f 345/1/6 349/1/6 353/1/6
f 352/1/6 346/1/6 356/1/6
f 353/1/6 354/1/6 357/1/6
f 355/1/6 356/1/6 358/1/6
f 353/1/6 357/1/6 359/1/6
f 357/1/6 358/1/6 359/1/6
f 345/1/6 353/1/6 359/1/6
f 358/1/6 356/1/6 360/1/6
f 359/1/6 358/1/6 360/1/6
f 356/1/6 346/1/6 360/1/6
f 345/1/6 359/1/6 361/1/6
f 360/1/6 346/1/6 362/1/6
f 361/1/6 362/1/6 363/1/6
f 363/1/6 362/1/6 364/1/6
f 361/1/6 363/1/6 365/1/6
f 364/1/6 362/1/6 366/1/6
f 345/1/6 361/1/6 367/1/6
f 365/1/6 366/1/6 367/1/6
f 361/1/6 365/1/6 367/1/6
f 366/1/6 362/1/6 368/1/6
f 367/1/6 366/1/6 368/1/6
f 362/1/6 346/1/6 368/1/6
f 345/1/6 367/1/6 369/1/6
f 368/1/6 346/1/6 370/1/6
f 369/1/6 370/1/6 371/1/6
f 371/1/6 370/1/6 372/1/6
f 369/1/6 371/1/6 373/1/6
f 372/1/6 370/1/6 374/1/6
f 345/1/6 369/1/6 375/1/6
f 373/1/6 374/1/6 375/1/6
f 369/1/6 373/1/6 375/1/6
f 374/1/6 370/1/6 376/1/6
f 375/1/6 374/1/6 376/1/6
f 370/1/6 346/1/6 376/1/6
f 345/1/6 375/1/6 377/1/6
f 376/1/6 346/1/6 378/1/6
f 377/1/6 378/1/6 379/1/6
f 379/1/6 378/1/6 380/1/6
f 377/1/6 379/1/6 381/1/6
f 380/1/6 378/1/6 382/1/6
f 381/1/6 382/1/6 383/1/6
f 383/1/6 382/1/6 384/1/6
f 381/1/6 383/1/6 385/1/6
f 384/1/6 382/1/6 386/1/6
f 345/1/6 377/1/6 387/1/6
f 385/1/6 386/1/6 387/1/6
f 377/1/6 381/1/6 387/1/6
f 381/1/6 385/1/6 387/1/6
f 386/1/6 382/1/6 388/1/6
f 387/1/6 386/1/6 388/1/6
f 378/1/6 346/1/6 388/1/6
f 382/1/6 378/1/6 388/1/6
