# MagicaVoxel @ Ephtracy

# group
o 

# material
mtllib Armazena Madeira.mtl
usemtl palette

# normals
vn -1 0 0
vn 1 0 0
vn 0 0 1
vn 0 0 -1
vn 0 -1 0
vn 0 1 0

# texcoords
vt 0.955078 0.5
vt 0.974609 0.5
vt 0.982422 0.5
vt 0.986328 0.5
vt 0.990234 0.5

# verts
v -0.6 0.1 0.1
v -0.6 0.1 -0.2
v -0.6 0.2 0.2
v -0.6 0.2 0.1
v -0.6 0.2 -0.2
v -0.6 0.2 -0.3
v -0.6 0.5 0.2
v -0.6 0.5 0.1
v -0.6 0.5 -0.2
v -0.6 0.5 -0.3
v -0.6 0.6 0.4
v -0.6 0.6 0.1
v -0.6 0.6 -0.2
v -0.6 0.6 -0.4
v -0.6 0.6 -0.7
v -0.6 0.7 0.5
v -0.6 0.7 0.4
v -0.6 0.7 0.1
v -0.6 0.7 0
v -0.6 0.7 -0.3
v -0.6 0.7 -0.4
v -0.6 0.7 -0.7
v -0.6 0.7 -0.8
v -0.6 1 0.5
v -0.6 1 0.4
v -0.6 1 0.1
v -0.6 1 0
v -0.6 1 -0.3
v -0.6 1 -0.4
v -0.6 1 -0.7
v -0.6 1 -0.8
v -0.6 1.1 0.4
v -0.6 1.1 0.1
v -0.6 1.1 -0.4
v -0.6 1.1 -0.7
v -0.5 0 0.9
v -0.5 0 0.8
v -0.5 0 -0.8
v -0.5 0 -0.9
v -0.5 0.1 0.8
v -0.5 0.1 0.6
v -0.5 0.1 0.3
v -0.5 0.1 0.1
v -0.5 0.1 -0.2
v -0.5 0.1 -0.4
v -0.5 0.1 -0.7
v -0.5 0.1 -0.8
v -0.5 0.2 0.7
v -0.5 0.2 0.6
v -0.5 0.2 0.3
v -0.5 0.2 0.2
v -0.5 0.2 -0.3
v -0.5 0.2 -0.4
v -0.5 0.2 -0.7
v -0.5 0.2 -0.8
v -0.5 0.5 0.7
v -0.5 0.5 0.6
v -0.5 0.5 0.3
v -0.5 0.5 0.2
v -0.5 0.5 -0.3
v -0.5 0.5 -0.4
v -0.5 0.5 -0.7
v -0.5 0.5 -0.8
v -0.5 0.6 0.6
v -0.5 0.6 0.4
v -0.5 0.6 0.3
v -0.5 0.6 -0.4
v -0.5 0.6 -0.7
v -0.5 0.7 -0.8
v -0.5 0.8 0.9
v -0.5 0.8 0.8
v -0.5 0.8 -0.8
v -0.5 0.8 -0.9
v -0.5 0.9 0
v -0.5 0.9 -0.3
v -0.5 1 0.1
v -0.5 1 0
v -0.5 1 -0.3
v -0.5 1 -0.4
v -0.5 1.1 0.1
v -0.5 1.1 -0.4
v -0.5 1.3 0.1
v -0.5 1.3 0
v -0.5 1.3 -0.3
v -0.5 1.3 -0.4
v -0.5 1.4 0
v -0.5 1.4 -0.3
v 0.1 0.1 0.9
v 0.1 0.1 0.8
v 0.1 0.1 -0.8
v 0.1 0.1 -0.9
v 0.1 0.2 -0.8
v 0.1 0.5 -0.8
v 0.1 0.7 -0.8
v 0.1 0.8 0.9
v 0.1 0.8 0.8
v 0.1 0.8 -0.8
v 0.1 0.8 -0.9
v -0.4 0.1 0.9
v -0.4 0.1 0.8
v -0.4 0.1 -0.8
v -0.4 0.1 -0.9
v -0.4 0.2 -0.8
v -0.4 0.5 -0.8
v -0.4 0.7 -0.8
v -0.4 0.8 0.9
v -0.4 0.8 0.8
v -0.4 0.8 -0.8
v -0.4 0.8 -0.9
v 0.2 0 0.9
v 0.2 0 0.8
v 0.2 0 -0.8
v 0.2 0 -0.9
v 0.2 0.1 0.8
v 0.2 0.1 0.6
v 0.2 0.1 0.3
v 0.2 0.1 0.1
v 0.2 0.1 -0.2
v 0.2 0.1 -0.4
v 0.2 0.1 -0.7
v 0.2 0.1 -0.8
v 0.2 0.2 0.2
v 0.2 0.2 0.1
v 0.2 0.2 -0.2
v 0.2 0.2 -0.3
v 0.2 0.2 -0.8
v 0.2 0.5 0.2
v 0.2 0.5 0.1
v 0.2 0.5 -0.2
v 0.2 0.5 -0.3
v 0.2 0.5 -0.8
v 0.2 0.6 0.4
v 0.2 0.6 0.3
v 0.2 0.6 0.1
v 0.2 0.6 -0.2
v 0.2 0.7 0.5
v 0.2 0.7 0.4
v 0.2 0.7 0.1
v 0.2 0.7 0
v 0.2 0.7 -0.8
v 0.2 0.8 0.9
v 0.2 0.8 0.8
v 0.2 0.8 -0.8
v 0.2 0.8 -0.9
v 0.2 0.9 0
v 0.2 1 0.5
v 0.2 1 0.4
v 0.2 1 0.1
v 0.2 1 0
v 0.2 1.1 0.4
v 0.2 1.1 0.1
v 0.3 0.1 0.6
v 0.3 0.1 0.3
v 0.3 0.1 -0.4
v 0.3 0.1 -0.7
v 0.3 0.2 0.7
v 0.3 0.2 0.6
v 0.3 0.2 0.3
v 0.3 0.2 0.2
v 0.3 0.2 -0.3
v 0.3 0.2 -0.4
v 0.3 0.2 -0.7
v 0.3 0.2 -0.8
v 0.3 0.5 0.7
v 0.3 0.5 0.6
v 0.3 0.5 0.3
v 0.3 0.5 0.2
v 0.3 0.5 -0.3
v 0.3 0.5 -0.4
v 0.3 0.5 -0.7
v 0.3 0.5 -0.8
v 0.3 0.6 0.6
v 0.3 0.6 0.3
v 0.3 0.7 -0.3
v 0.3 0.7 -0.4
v 0.3 0.7 -0.7
v 0.3 0.7 -0.8
v 0.3 0.9 0
v 0.3 0.9 -0.3
v 0.3 1 0.1
v 0.3 1 0
v 0.3 1 -0.3
v 0.3 1 -0.4
v 0.3 1 -0.7
v 0.3 1 -0.8
v 0.3 1.1 -0.4
v 0.3 1.1 -0.7
v 0.3 1.3 0.1
v 0.3 1.3 0
v 0.3 1.3 -0.3
v 0.3 1.3 -0.4
v 0.3 1.4 0
v 0.3 1.4 -0.3
v -0.5 0 0.9
v -0.5 0.8 0.9
v -0.4 0 0.9
v -0.4 0.1 0.9
v -0.4 0.8 0.9
v 0.1 0 0.9
v 0.1 0.1 0.9
v 0.1 0.8 0.9
v 0.2 0 0.9
v 0.2 0.8 0.9
v -0.5 0.2 0.7
v -0.5 0.5 0.7
v 0.3 0.2 0.7
v 0.3 0.5 0.7
v -0.5 0.1 0.6
v -0.5 0.2 0.6
v -0.5 0.5 0.6
v -0.5 0.6 0.6
v 0.2 0.1 0.6
v 0.3 0.1 0.6
v 0.3 0.2 0.6
v 0.3 0.5 0.6
v 0.3 0.6 0.6
v -0.6 0.7 0.5
v -0.6 1 0.5
v 0.2 0.7 0.5
v 0.2 1 0.5
v -0.6 0.6 0.4
v -0.6 0.7 0.4
v -0.6 1 0.4
v -0.6 1.1 0.4
v -0.5 0.6 0.4
v 0.2 0.6 0.4
v 0.2 0.7 0.4
v 0.2 1 0.4
v 0.2 1.1 0.4
v -0.6 0.2 0.2
v -0.6 0.5 0.2
v -0.5 0.2 0.2
v -0.5 0.5 0.2
v -0.6 0.1 0.1
v -0.6 0.2 0.1
v -0.6 0.5 0.1
v -0.6 0.6 0.1
v -0.5 0.1 0.1
v -0.5 1.1 0.1
v -0.5 1.3 0.1
v 0.2 0.1 0.1
v 0.2 0.2 0.1
v 0.2 0.5 0.1
v 0.2 0.6 0.1
v 0.2 1 0.1
v 0.2 1.1 0.1
v 0.3 1 0.1
v 0.3 1.3 0.1
v -0.5 1.3 0
v -0.5 1.4 0
v 0.2 0.9 0
v 0.2 1 0
v 0.3 0.9 0
v 0.3 1 0
v 0.3 1.3 0
v 0.3 1.4 0
v -0.6 0.7 -0.3
v -0.6 1 -0.3
v -0.5 0.9 -0.3
v -0.5 1 -0.3
v 0.2 0.2 -0.3
v 0.2 0.5 -0.3
v 0.3 0.2 -0.3
v 0.3 0.5 -0.3
v 0.3 0.7 -0.3
v 0.3 0.9 -0.3
v -0.6 0.6 -0.4
v -0.6 0.7 -0.4
v -0.6 1 -0.4
v -0.6 1.1 -0.4
v -0.5 0.1 -0.4
v -0.5 0.2 -0.4
v -0.5 0.5 -0.4
v -0.5 0.6 -0.4
v -0.5 1 -0.4
v -0.5 1.1 -0.4
v 0.2 0.1 -0.4
v 0.3 0.1 -0.4
v 0.3 0.2 -0.4
v 0.3 0.5 -0.4
v 0.3 0.7 -0.4
v -0.5 0.1 -0.8
v -0.5 0.2 -0.8
v -0.5 0.5 -0.8
v -0.5 0.7 -0.8
v -0.4 0.1 -0.8
v -0.4 0.2 -0.8
v -0.4 0.5 -0.8
v -0.4 0.7 -0.8
v 0.1 0.1 -0.8
v 0.1 0.2 -0.8
v 0.1 0.5 -0.8
v 0.1 0.7 -0.8
v 0.2 0.1 -0.8
v 0.2 0.2 -0.8
v 0.2 0.5 -0.8
v 0.2 0.7 -0.8
v -0.5 0.1 0.8
v -0.5 0.8 0.8
v -0.4 0.1 0.8
v -0.4 0.8 0.8
v 0.1 0.1 0.8
v 0.1 0.8 0.8
v 0.2 0.1 0.8
v 0.2 0.8 0.8
v -0.5 0.1 0.3
v -0.5 0.2 0.3
v -0.5 0.5 0.3
v -0.5 0.6 0.3
v 0.2 0.1 0.3
v 0.2 0.6 0.3
v 0.3 0.1 0.3
v 0.3 0.2 0.3
v 0.3 0.5 0.3
v 0.3 0.6 0.3
v 0.2 0.2 0.2
v 0.2 0.5 0.2
v 0.3 0.2 0.2
v 0.3 0.5 0.2
v -0.6 0.6 0.1
v -0.6 0.7 0.1
v -0.6 1 0.1
v -0.6 1.1 0.1
v -0.5 1 0.1
v -0.5 1.1 0.1
v 0.2 0.6 0.1
v 0.2 0.7 0.1
v -0.6 0.7 0
v -0.6 1 0
v -0.5 0.9 0
v -0.5 1 0
v 0.2 0.7 0
v 0.2 0.9 0
v -0.6 0.1 -0.2
v -0.6 0.2 -0.2
v -0.6 0.5 -0.2
v -0.6 0.6 -0.2
v -0.5 0.1 -0.2
v 0.2 0.1 -0.2
v 0.2 0.2 -0.2
v 0.2 0.5 -0.2
v 0.2 0.6 -0.2
v -0.6 0.2 -0.3
v -0.6 0.5 -0.3
v -0.5 0.2 -0.3
v -0.5 0.5 -0.3
v -0.5 1.3 -0.3
v -0.5 1.4 -0.3
v 0.3 1.3 -0.3
v 0.3 1.4 -0.3
v -0.5 1.1 -0.4
v -0.5 1.3 -0.4
v 0.3 1.1 -0.4
v 0.3 1.3 -0.4
v -0.6 0.6 -0.7
v -0.6 0.7 -0.7
v -0.6 1 -0.7
v -0.6 1.1 -0.7
v -0.5 0.1 -0.7
v -0.5 0.2 -0.7
v -0.5 0.5 -0.7
v -0.5 0.6 -0.7
v 0.2 0.1 -0.7
v 0.3 0.1 -0.7
v 0.3 0.2 -0.7
v 0.3 0.5 -0.7
v 0.3 0.7 -0.7
v 0.3 1 -0.7
v 0.3 1.1 -0.7
v -0.6 0.7 -0.8
v -0.6 1 -0.8
v -0.5 0.7 -0.8
v -0.5 0.8 -0.8
v -0.4 0.2 -0.8
v -0.4 0.5 -0.8
v -0.4 0.7 -0.8
v -0.4 0.8 -0.8
v 0.1 0.2 -0.8
v 0.1 0.5 -0.8
v 0.1 0.7 -0.8
v 0.1 0.8 -0.8
v 0.2 0.2 -0.8
v 0.2 0.5 -0.8
v 0.2 0.7 -0.8
v 0.2 0.8 -0.8
v 0.3 0.2 -0.8
v 0.3 0.5 -0.8
v 0.3 0.7 -0.8
v 0.3 1 -0.8
v -0.5 0 -0.9
v -0.5 0.8 -0.9
v -0.4 0 -0.9
v -0.4 0.1 -0.9
v -0.4 0.8 -0.9
v 0.1 0 -0.9
v 0.1 0.1 -0.9
v 0.1 0.8 -0.9
v 0.2 0 -0.9
v 0.2 0.8 -0.9
v -0.5 0 0.9
v -0.4 0 0.9
v 0.1 0 0.9
v 0.2 0 0.9
v -0.5 0 0.8
v -0.4 0 0.8
v 0.1 0 0.8
v 0.2 0 0.8
v -0.5 0 -0.8
v -0.4 0 -0.8
v 0.1 0 -0.8
v 0.2 0 -0.8
v -0.5 0 -0.9
v -0.4 0 -0.9
v 0.1 0 -0.9
v 0.2 0 -0.9
v 0.2 0.1 0.6
v 0.3 0.1 0.6
v 0.2 0.1 0.3
v 0.3 0.1 0.3
v -0.6 0.1 0.1
v -0.5 0.1 0.1
v -0.6 0.1 -0.2
v -0.5 0.1 -0.2
v 0.2 0.1 -0.4
v 0.3 0.1 -0.4
v 0.2 0.1 -0.7
v 0.3 0.1 -0.7
v -0.5 0.2 0.7
v 0.3 0.2 0.7
v -0.5 0.2 0.6
v 0.3 0.2 0.6
v -0.5 0.2 0.3
v 0.3 0.2 0.3
v -0.6 0.2 0.2
v -0.5 0.2 0.2
v 0.2 0.2 0.2
v 0.3 0.2 0.2
v -0.6 0.2 0.1
v 0.2 0.2 0.1
v -0.6 0.2 -0.2
v 0.2 0.2 -0.2
v -0.6 0.2 -0.3
v -0.5 0.2 -0.3
v 0.2 0.2 -0.3
v 0.3 0.2 -0.3
v -0.5 0.2 -0.4
v 0.3 0.2 -0.4
v -0.5 0.2 -0.7
v 0.3 0.2 -0.7
v -0.5 0.2 -0.8
v -0.4 0.2 -0.8
v 0.1 0.2 -0.8
v 0.2 0.2 -0.8
v 0.3 0.2 -0.8
v -0.6 0.6 0.4
v -0.5 0.6 0.4
v -0.5 0.6 0.3
v 0.2 0.6 0.3
v -0.6 0.6 0.1
v 0.2 0.6 0.1
v -0.6 0.6 -0.4
v -0.5 0.6 -0.4
v -0.6 0.6 -0.7
v -0.5 0.6 -0.7
v -0.6 0.7 0.5
v 0.2 0.7 0.5
v -0.6 0.7 0.4
v 0.2 0.7 0.4
v -0.6 0.7 0.1
v 0.2 0.7 0.1
v -0.6 0.7 0
v 0.2 0.7 0
v -0.6 0.7 -0.3
v 0.3 0.7 -0.3
v -0.6 0.7 -0.4
v 0.3 0.7 -0.4
v -0.6 0.7 -0.7
v 0.3 0.7 -0.7
v -0.6 0.7 -0.8
v -0.5 0.7 -0.8
v -0.4 0.7 -0.8
v 0.1 0.7 -0.8
v 0.2 0.7 -0.8
v 0.3 0.7 -0.8
v -0.5 0.9 0
v 0.2 0.9 0
v 0.3 0.9 0
v -0.5 0.9 -0.3
v 0.3 0.9 -0.3
v 0.2 1 0.1
v 0.3 1 0.1
v 0.2 1 0
v 0.3 1 0
v -0.4 0.1 0.9
v 0.1 0.1 0.9
v -0.5 0.1 0.8
v -0.4 0.1 0.8
v 0.1 0.1 0.8
v 0.2 0.1 0.8
v -0.5 0.1 0.6
v 0.2 0.1 0.6
v -0.5 0.1 0.3
v 0.2 0.1 0.3
v -0.5 0.1 0.1
v 0.2 0.1 0.1
v -0.5 0.1 -0.2
v 0.2 0.1 -0.2
v -0.5 0.1 -0.4
v 0.2 0.1 -0.4
v -0.5 0.1 -0.7
v 0.2 0.1 -0.7
v -0.5 0.1 -0.8
v -0.4 0.1 -0.8
v 0.1 0.1 -0.8
v 0.2 0.1 -0.8
v -0.4 0.1 -0.9
v 0.1 0.1 -0.9
v -0.5 0.5 0.7
v 0.3 0.5 0.7
v -0.5 0.5 0.6
v 0.3 0.5 0.6
v -0.5 0.5 0.3
v 0.3 0.5 0.3
v -0.6 0.5 0.2
v -0.5 0.5 0.2
v 0.2 0.5 0.2
v 0.3 0.5 0.2
v -0.6 0.5 0.1
v 0.2 0.5 0.1
v -0.6 0.5 -0.2
v 0.2 0.5 -0.2
v -0.6 0.5 -0.3
v -0.5 0.5 -0.3
v 0.2 0.5 -0.3
v 0.3 0.5 -0.3
v -0.5 0.5 -0.4
v 0.3 0.5 -0.4
v -0.5 0.5 -0.7
v 0.3 0.5 -0.7
v -0.5 0.5 -0.8
v -0.4 0.5 -0.8
v 0.1 0.5 -0.8
v 0.2 0.5 -0.8
v 0.3 0.5 -0.8
v -0.5 0.6 0.6
v 0.3 0.6 0.6
v -0.5 0.6 0.4
v 0.2 0.6 0.4
v 0.2 0.6 0.3
v 0.3 0.6 0.3
v -0.6 0.6 0.1
v 0.2 0.6 0.1
v -0.6 0.6 -0.2
v 0.2 0.6 -0.2
v -0.5 0.8 0.9
v -0.4 0.8 0.9
v 0.1 0.8 0.9
v 0.2 0.8 0.9
v -0.5 0.8 0.8
v -0.4 0.8 0.8
v 0.1 0.8 0.8
v 0.2 0.8 0.8
v -0.5 0.8 -0.8
v -0.4 0.8 -0.8
v 0.1 0.8 -0.8
v 0.2 0.8 -0.8
v -0.5 0.8 -0.9
v -0.4 0.8 -0.9
v 0.1 0.8 -0.9
v 0.2 0.8 -0.9
v -0.6 1 0.5
v 0.2 1 0.5
v -0.6 1 0.4
v 0.2 1 0.4
v -0.6 1 0.1
v -0.5 1 0.1
v -0.6 1 0
v -0.5 1 0
v -0.6 1 -0.3
v -0.5 1 -0.3
v -0.6 1 -0.4
v -0.5 1 -0.4
v -0.6 1 -0.7
v 0.3 1 -0.7
v -0.6 1 -0.8
v 0.3 1 -0.8
v -0.6 1.1 0.4
v 0.2 1.1 0.4
v -0.6 1.1 0.1
v -0.5 1.1 0.1
v 0.2 1.1 0.1
v -0.6 1.1 -0.4
v -0.5 1.1 -0.4
v 0.3 1.1 -0.4
v -0.6 1.1 -0.7
v 0.3 1.1 -0.7
v -0.5 1.3 0.1
v 0.3 1.3 0.1
v -0.5 1.3 0
v 0.3 1.3 0
v -0.5 1.3 -0.3
v 0.3 1.3 -0.3
v -0.5 1.3 -0.4
v 0.3 1.3 -0.4
v -0.5 1.4 0
v 0.3 1.4 0
v -0.5 1.4 -0.3
v 0.3 1.4 -0.3

# faces
f 4/4/1 2/4/1 1/4/1
f 5/4/1 2/4/1 4/4/1
f 7/4/1 4/4/1 3/4/1
f 8/5/1 5/5/1 4/5/1
f 8/4/1 4/4/1 7/4/1
f 9/4/1 6/4/1 5/4/1
f 9/5/1 5/5/1 8/5/1
f 10/4/1 6/4/1 9/4/1
f 12/4/1 9/4/1 8/4/1
f 13/4/1 9/4/1 12/4/1
f 17/4/1 12/4/1 11/4/1
f 18/4/1 12/4/1 17/4/1
f 21/4/1 15/4/1 14/4/1
f 22/4/1 15/4/1 21/4/1
f 24/4/1 17/4/1 16/4/1
f 25/5/1 18/5/1 17/5/1
f 25/4/1 17/4/1 24/4/1
f 26/4/1 19/4/1 18/4/1
f 26/5/1 18/5/1 25/5/1
f 27/4/1 19/4/1 26/4/1
f 28/4/1 21/4/1 20/4/1
f 29/5/1 22/5/1 21/5/1
f 29/4/1 21/4/1 28/4/1
f 30/4/1 23/4/1 22/4/1
f 30/5/1 22/5/1 29/5/1
f 31/4/1 23/4/1 30/4/1
f 32/4/1 26/4/1 25/4/1
f 33/4/1 26/4/1 32/4/1
f 34/4/1 30/4/1 29/4/1
f 35/4/1 30/4/1 34/4/1
f 40/1/1 37/1/1 36/1/1
f 40/2/1 38/2/1 37/2/1
f 41/2/1 38/2/1 40/2/1
f 42/2/1 38/2/1 41/2/1
f 43/2/1 38/2/1 42/2/1
f 44/2/1 38/2/1 43/2/1
f 45/2/1 38/2/1 44/2/1
f 46/2/1 38/2/1 45/2/1
f 47/1/1 39/1/1 38/1/1
f 47/2/1 38/2/1 46/2/1
f 49/4/1 42/4/1 41/4/1
f 50/4/1 42/4/1 49/4/1
f 53/4/1 46/4/1 45/4/1
f 54/4/1 46/4/1 53/4/1
f 55/1/1 39/1/1 47/1/1
f 56/4/1 49/4/1 48/4/1
f 57/3/1 50/3/1 49/3/1
f 57/4/1 49/4/1 56/4/1
f 58/4/1 51/4/1 50/4/1
f 58/3/1 50/3/1 57/3/1
f 59/4/1 51/4/1 58/4/1
f 60/4/1 53/4/1 52/4/1
f 61/3/1 54/3/1 53/3/1
f 61/4/1 53/4/1 60/4/1
f 62/4/1 55/4/1 54/4/1
f 62/3/1 54/3/1 61/3/1
f 63/1/1 39/1/1 55/1/1
f 63/4/1 55/4/1 62/4/1
f 64/4/1 58/4/1 57/4/1
f 65/4/1 58/4/1 64/4/1
f 66/4/1 58/4/1 65/4/1
f 67/4/1 62/4/1 61/4/1
f 68/4/1 62/4/1 67/4/1
f 69/1/1 39/1/1 63/1/1
f 70/1/1 40/1/1 36/1/1
f 71/1/1 40/1/1 70/1/1
f 72/1/1 39/1/1 69/1/1
f 73/1/1 39/1/1 72/1/1
f 77/4/1 75/4/1 74/4/1
f 78/4/1 75/4/1 77/4/1
f 80/4/1 77/4/1 76/4/1
f 81/4/1 79/4/1 78/4/1
f 82/4/1 77/4/1 80/4/1
f 83/3/1 78/3/1 77/3/1
f 83/4/1 77/4/1 82/4/1
f 84/4/1 81/4/1 78/4/1
f 84/3/1 78/3/1 83/3/1
f 85/4/1 81/4/1 84/4/1
f 86/4/1 84/4/1 83/4/1
f 87/4/1 84/4/1 86/4/1
f 92/1/1 91/1/1 90/1/1
f 93/1/1 91/1/1 92/1/1
f 94/1/1 91/1/1 93/1/1
f 95/1/1 89/1/1 88/1/1
f 96/1/1 89/1/1 95/1/1
f 97/1/1 91/1/1 94/1/1
f 98/1/1 91/1/1 97/1/1
f 101/1/2 102/1/2 103/1/2
f 103/1/2 102/1/2 104/1/2
f 104/1/2 102/1/2 105/1/2
f 99/1/2 100/1/2 106/1/2
f 106/1/2 100/1/2 107/1/2
f 105/1/2 102/1/2 108/1/2
f 108/1/2 102/1/2 109/1/2
f 110/1/2 111/1/2 114/1/2
f 111/2/2 112/2/2 114/2/2
f 114/2/2 112/2/2 115/2/2
f 115/2/2 112/2/2 116/2/2
f 116/2/2 112/2/2 117/2/2
f 117/2/2 112/2/2 118/2/2
f 118/2/2 112/2/2 119/2/2
f 119/2/2 112/2/2 120/2/2
f 112/1/2 113/1/2 121/1/2
f 120/2/2 112/2/2 121/2/2
f 117/4/2 118/4/2 123/4/2
f 123/4/2 118/4/2 124/4/2
f 121/1/2 113/1/2 126/1/2
f 122/4/2 123/4/2 127/4/2
f 123/3/2 124/3/2 128/3/2
f 127/4/2 123/4/2 128/4/2
f 124/4/2 125/4/2 129/4/2
f 128/3/2 124/3/2 129/3/2
f 129/4/2 125/4/2 130/4/2
f 126/1/2 113/1/2 131/1/2
f 128/4/2 129/4/2 134/4/2
f 134/4/2 129/4/2 135/4/2
f 132/4/2 133/4/2 137/4/2
f 133/4/2 134/4/2 137/4/2
f 137/4/2 134/4/2 138/4/2
f 131/1/2 113/1/2 140/1/2
f 110/1/2 114/1/2 141/1/2
f 141/1/2 114/1/2 142/1/2
f 140/1/2 113/1/2 143/1/2
f 143/1/2 113/1/2 144/1/2
f 138/4/2 139/4/2 145/4/2
f 136/4/2 137/4/2 146/4/2
f 137/3/2 138/3/2 147/3/2
f 146/4/2 137/4/2 147/4/2
f 138/4/2 145/4/2 148/4/2
f 147/3/2 138/3/2 148/3/2
f 148/4/2 145/4/2 149/4/2
f 147/4/2 148/4/2 150/4/2
f 150/4/2 148/4/2 151/4/2
f 152/4/2 153/4/2 157/4/2
f 157/4/2 153/4/2 158/4/2
f 154/4/2 155/4/2 161/4/2
f 161/4/2 155/4/2 162/4/2
f 156/4/2 157/4/2 164/4/2
f 157/3/2 158/3/2 165/3/2
f 164/4/2 157/4/2 165/4/2
f 158/4/2 159/4/2 166/4/2
f 165/3/2 158/3/2 166/3/2
f 166/4/2 159/4/2 167/4/2
f 160/4/2 161/4/2 168/4/2
f 161/3/2 162/3/2 169/3/2
f 168/4/2 161/4/2 169/4/2
f 162/4/2 163/4/2 170/4/2
f 169/3/2 162/3/2 170/3/2
f 170/4/2 163/4/2 171/4/2
f 165/4/2 166/4/2 172/4/2
f 172/4/2 166/4/2 173/4/2
f 169/4/2 170/4/2 175/4/2
f 175/4/2 170/4/2 176/4/2
f 174/4/2 175/4/2 179/4/2
f 178/4/2 179/4/2 181/4/2
f 179/4/2 175/4/2 182/4/2
f 181/4/2 179/4/2 182/4/2
f 175/3/2 176/3/2 183/3/2
f 182/4/2 175/4/2 183/4/2
f 176/4/2 177/4/2 184/4/2
f 183/3/2 176/3/2 184/3/2
f 184/4/2 177/4/2 185/4/2
f 182/4/2 183/4/2 186/4/2
f 183/4/2 184/4/2 186/4/2
f 186/4/2 184/4/2 187/4/2
f 180/4/2 181/4/2 188/4/2
f 181/3/2 182/3/2 189/3/2
f 188/4/2 181/4/2 189/4/2
f 182/4/2 186/4/2 190/4/2
f 189/3/2 182/3/2 190/3/2
f 190/4/2 186/4/2 191/4/2
f 189/4/2 190/4/2 192/4/2
f 192/4/2 190/4/2 193/4/2
f 196/1/3 195/1/3 194/1/3
f 197/1/3 195/1/3 196/1/3
f 198/1/3 195/1/3 197/1/3
f 199/2/3 197/2/3 196/2/3
f 200/2/3 197/2/3 199/2/3
f 202/1/3 200/1/3 199/1/3
f 202/1/3 201/1/3 200/1/3
f 203/1/3 201/1/3 202/1/3
f 206/4/3 205/4/3 204/4/3
f 207/4/3 205/4/3 206/4/3
f 212/4/3 209/4/3 208/4/3
f 213/4/3 209/4/3 212/4/3
f 214/4/3 209/4/3 213/4/3
f 215/4/3 211/4/3 210/4/3
f 216/4/3 211/4/3 215/4/3
f 219/4/3 218/4/3 217/4/3
f 220/4/3 218/4/3 219/4/3
f 225/4/3 222/4/3 221/4/3
f 226/4/3 222/4/3 225/4/3
f 227/4/3 222/4/3 226/4/3
f 228/4/3 224/4/3 223/4/3
f 229/4/3 224/4/3 228/4/3
f 232/4/3 231/4/3 230/4/3
f 233/4/3 231/4/3 232/4/3
f 238/4/3 235/4/3 234/4/3
f 241/4/3 235/4/3 238/4/3
f 242/4/3 235/4/3 241/4/3
f 243/4/3 237/4/3 236/4/3
f 244/4/3 237/4/3 243/4/3
f 246/4/3 240/4/3 239/4/3
f 247/4/3 246/4/3 245/4/3
f 248/4/3 240/4/3 246/4/3
f 248/4/3 246/4/3 247/4/3
f 253/4/3 252/4/3 251/4/3
f 254/4/3 252/4/3 253/4/3
f 255/4/3 250/4/3 249/4/3
f 256/4/3 250/4/3 255/4/3
f 259/4/3 258/4/3 257/4/3
f 260/4/3 258/4/3 259/4/3
f 263/4/3 262/4/3 261/4/3
f 264/4/3 262/4/3 263/4/3
f 265/4/3 259/4/3 257/4/3
f 266/4/3 259/4/3 265/4/3
f 274/4/3 268/4/3 267/4/3
f 275/4/3 270/4/3 269/4/3
f 276/4/3 270/4/3 275/4/3
f 277/4/3 272/4/3 271/4/3
f 278/4/3 272/4/3 277/4/3
f 279/4/3 272/4/3 278/4/3
f 280/4/3 274/4/3 273/4/3
f 281/4/3 268/4/3 274/4/3
f 281/4/3 274/4/3 280/4/3
f 286/1/3 283/1/3 282/1/3
f 287/1/3 283/1/3 286/1/3
f 288/1/3 285/1/3 284/1/3
f 289/1/3 285/1/3 288/1/3
f 294/1/3 291/1/3 290/1/3
f 295/1/3 291/1/3 294/1/3
f 296/1/3 293/1/3 292/1/3
f 297/1/3 293/1/3 296/1/3
f 298/1/4 299/1/4 300/1/4
f 300/1/4 299/1/4 301/1/4
f 302/1/4 303/1/4 304/1/4
f 304/1/4 303/1/4 305/1/4
f 306/4/4 307/4/4 310/4/4
f 308/4/4 309/4/4 311/4/4
f 310/4/4 307/4/4 312/4/4
f 312/4/4 307/4/4 313/4/4
f 308/4/4 311/4/4 314/4/4
f 314/4/4 311/4/4 315/4/4
f 316/4/4 317/4/4 318/4/4
f 318/4/4 317/4/4 319/4/4
f 322/4/4 323/4/4 324/4/4
f 324/4/4 323/4/4 325/4/4
f 320/4/4 321/4/4 326/4/4
f 326/4/4 321/4/4 327/4/4
f 328/4/4 329/4/4 330/4/4
f 330/4/4 329/4/4 331/4/4
f 328/4/4 330/4/4 332/4/4
f 332/4/4 330/4/4 333/4/4
f 334/4/4 335/4/4 338/4/4
f 338/4/4 335/4/4 339/4/4
f 339/4/4 335/4/4 340/4/4
f 336/4/4 337/4/4 341/4/4
f 341/4/4 337/4/4 342/4/4
f 343/4/4 344/4/4 345/4/4
f 345/4/4 344/4/4 346/4/4
f 347/4/4 348/4/4 349/4/4
f 349/4/4 348/4/4 350/4/4
f 351/4/4 352/4/4 353/4/4
f 353/4/4 352/4/4 354/4/4
f 355/4/4 356/4/4 362/4/4
f 359/4/4 360/4/4 363/4/4
f 363/4/4 360/4/4 364/4/4
f 364/4/4 360/4/4 365/4/4
f 361/4/4 362/4/4 366/4/4
f 362/4/4 356/4/4 367/4/4
f 366/4/4 362/4/4 367/4/4
f 357/4/4 358/4/4 368/4/4
f 368/4/4 358/4/4 369/4/4
f 370/4/4 371/4/4 372/4/4
f 372/4/4 371/4/4 373/4/4
f 373/4/4 371/4/4 377/4/4
f 374/4/4 375/4/4 378/4/4
f 378/4/4 375/4/4 379/4/4
f 376/4/4 377/4/4 380/4/4
f 377/4/4 371/4/4 381/4/4
f 380/4/4 377/4/4 381/4/4
f 381/4/4 371/4/4 385/4/4
f 382/4/4 383/4/4 386/4/4
f 386/4/4 383/4/4 387/4/4
f 384/4/4 385/4/4 388/4/4
f 385/4/4 371/4/4 389/4/4
f 388/4/4 385/4/4 389/4/4
f 390/1/4 391/1/4 392/1/4
f 392/1/4 391/1/4 393/1/4
f 393/1/4 391/1/4 394/1/4
f 392/2/4 393/2/4 395/2/4
f 395/2/4 393/2/4 396/2/4
f 395/1/4 396/1/4 398/1/4
f 396/1/4 397/1/4 398/1/4
f 398/1/4 397/1/4 399/1/4
f 404/1/5 401/1/5 400/1/5
f 405/2/5 402/2/5 401/2/5
f 405/1/5 401/1/5 404/1/5
f 406/1/5 403/1/5 402/1/5
f 406/2/5 402/2/5 405/2/5
f 407/1/5 403/1/5 406/1/5
f 408/2/5 405/2/5 404/2/5
f 408/2/5 406/2/5 405/2/5
f 408/2/5 407/2/5 406/2/5
f 409/2/5 407/2/5 408/2/5
f 410/2/5 407/2/5 409/2/5
f 411/2/5 407/2/5 410/2/5
f 412/1/5 409/1/5 408/1/5
f 413/2/5 410/2/5 409/2/5
f 413/1/5 409/1/5 412/1/5
f 414/1/5 411/1/5 410/1/5
f 414/2/5 410/2/5 413/2/5
f 415/1/5 411/1/5 414/1/5
f 418/4/5 417/4/5 416/4/5
f 419/4/5 417/4/5 418/4/5
f 422/4/5 421/4/5 420/4/5
f 423/4/5 421/4/5 422/4/5
f 426/4/5 425/4/5 424/4/5
f 427/4/5 425/4/5 426/4/5
f 430/4/5 429/4/5 428/4/5
f 431/4/5 429/4/5 430/4/5
f 435/4/5 433/4/5 432/4/5
f 436/4/5 433/4/5 435/4/5
f 437/4/5 433/4/5 436/4/5
f 438/4/5 435/4/5 434/4/5
f 438/4/5 436/4/5 435/4/5
f 439/4/5 436/4/5 438/4/5
f 442/4/5 441/4/5 440/4/5
f 443/4/5 441/4/5 442/4/5
f 444/4/5 441/4/5 443/4/5
f 446/4/5 444/4/5 443/4/5
f 446/4/5 445/4/5 444/4/5
f 447/4/5 445/4/5 446/4/5
f 450/4/5 449/4/5 448/4/5
f 451/4/5 449/4/5 450/4/5
f 452/4/5 449/4/5 451/4/5
f 453/4/5 449/4/5 452/4/5
f 454/4/5 449/4/5 453/4/5
f 457/4/5 456/4/5 455/4/5
f 459/4/5 457/4/5 455/4/5
f 459/4/5 458/4/5 457/4/5
f 460/4/5 458/4/5 459/4/5
f 463/4/5 462/4/5 461/4/5
f 464/4/5 462/4/5 463/4/5
f 467/4/5 466/4/5 465/4/5
f 468/4/5 466/4/5 467/4/5
f 471/4/5 470/4/5 469/4/5
f 472/4/5 470/4/5 471/4/5
f 475/4/5 474/4/5 473/4/5
f 476/4/5 474/4/5 475/4/5
f 479/4/5 478/4/5 477/4/5
f 480/4/5 478/4/5 479/4/5
f 481/4/5 478/4/5 480/4/5
f 482/4/5 478/4/5 481/4/5
f 483/4/5 478/4/5 482/4/5
f 484/4/5 478/4/5 483/4/5
f 488/4/5 486/4/5 485/4/5
f 488/4/5 487/4/5 486/4/5
f 489/4/5 487/4/5 488/4/5
f 492/4/5 491/4/5 490/4/5
f 493/4/5 491/4/5 492/4/5
f 494/2/6 495/2/6 497/2/6
f 497/2/6 495/2/6 498/2/6
f 496/2/6 497/2/6 500/2/6
f 498/2/6 499/2/6 500/2/6
f 497/2/6 498/2/6 500/2/6
f 500/2/6 499/2/6 501/2/6
f 502/2/6 503/2/6 504/2/6
f 504/2/6 503/2/6 505/2/6
f 506/2/6 507/2/6 508/2/6
f 508/2/6 507/2/6 509/2/6
f 510/2/6 511/2/6 512/2/6
f 512/2/6 511/2/6 513/2/6
f 513/2/6 511/2/6 514/2/6
f 514/2/6 511/2/6 515/2/6
f 513/2/6 514/2/6 516/2/6
f 516/2/6 514/2/6 517/2/6
f 518/4/6 519/4/6 520/4/6
f 520/4/6 519/4/6 521/4/6
f 522/4/6 523/4/6 525/4/6
f 525/4/6 523/4/6 526/4/6
f 526/4/6 523/4/6 527/4/6
f 524/4/6 525/4/6 528/4/6
f 525/4/6 526/4/6 528/4/6
f 528/4/6 526/4/6 529/4/6
f 530/4/6 531/4/6 532/4/6
f 532/4/6 531/4/6 533/4/6
f 533/4/6 531/4/6 534/4/6
f 533/4/6 534/4/6 536/4/6
f 534/4/6 535/4/6 536/4/6
f 536/4/6 535/4/6 537/4/6
f 538/4/6 539/4/6 540/4/6
f 540/4/6 539/4/6 541/4/6
f 541/4/6 539/4/6 542/4/6
f 542/4/6 539/4/6 543/4/6
f 543/4/6 539/4/6 544/4/6
f 545/4/6 546/4/6 547/4/6
f 547/4/6 546/4/6 548/4/6
f 548/4/6 546/4/6 549/4/6
f 549/4/6 546/4/6 550/4/6
f 551/4/6 552/4/6 553/4/6
f 553/4/6 552/4/6 554/4/6
f 555/1/6 556/1/6 559/1/6
f 559/1/6 556/1/6 560/1/6
f 557/1/6 558/1/6 561/1/6
f 561/1/6 558/1/6 562/1/6
f 563/1/6 564/1/6 567/1/6
f 567/1/6 564/1/6 568/1/6
f 565/1/6 566/1/6 569/1/6
f 569/1/6 566/1/6 570/1/6
f 571/4/6 572/4/6 573/4/6
f 573/4/6 572/4/6 574/4/6
f 575/4/6 576/4/6 577/4/6
f 577/4/6 576/4/6 578/4/6
f 579/4/6 580/4/6 581/4/6
f 581/4/6 580/4/6 582/4/6
f 583/4/6 584/4/6 585/4/6
f 585/4/6 584/4/6 586/4/6
f 587/4/6 588/4/6 589/4/6
f 589/4/6 588/4/6 590/4/6
f 590/4/6 588/4/6 591/4/6
f 592/4/6 593/4/6 595/4/6
f 593/4/6 594/4/6 595/4/6
f 595/4/6 594/4/6 596/4/6
f 597/4/6 598/4/6 599/4/6
f 599/4/6 598/4/6 600/4/6
f 601/4/6 602/4/6 603/4/6
f 603/4/6 602/4/6 604/4/6
f 605/4/6 606/4/6 607/4/6
f 607/4/6 606/4/6 608/4/6
