# MagicaVoxel @ Ephtracy

# group
o 

# material
mtllib Chão do Centro.mtl
usemtl palette

# normals
vn -1 0 0
vn 1 0 0
vn 0 0 1
vn 0 0 -1
vn 0 -1 0
vn 0 1 0

# texcoords
vt 0.912109 0.5
vt 0.916016 0.5
vt 0.919922 0.5
vt 0.923828 0.5
vt 0.927734 0.5

# verts
v -1.7 0 1.5
v -1.7 0 1
v -1.7 0 0.5
v -1.7 0 0
v -1.7 0 -0.5
v -1.7 0 -1
v -1.7 0.1 1.5
v -1.7 0.1 1
v -1.7 0.1 0.5
v -1.7 0.1 0
v -1.7 0.1 -0.5
v -1.7 0.1 -1
v -1.5 0 1
v -1.5 0 0.5
v -1.5 0 0
v -1.5 0 -0.5
v -1.5 0 -1
v -1.5 0 -1.5
v -1.5 0.1 1
v -1.5 0.1 0.5
v -1.5 0.1 0
v -1.5 0.1 -0.5
v -1.5 0.1 -1
v -1.5 0.1 -1.5
v 1.3 0 1.5
v 1.3 0 1
v 1.3 0 0.5
v 1.3 0 0
v 1.3 0 -0.5
v 1.3 0 -1
v 1.3 0.1 1.5
v 1.3 0.1 1
v 1.3 0.1 0.5
v 1.3 0.1 0
v 1.3 0.1 -0.5
v 1.3 0.1 -1
v 1.5 0 1
v 1.5 0 0.5
v 1.5 0 0
v 1.5 0 -0.5
v 1.5 0 -1
v 1.5 0 -1.5
v 1.5 0.1 1
v 1.5 0.1 0.5
v 1.5 0.1 0
v 1.5 0.1 -0.5
v 1.5 0.1 -1
v 1.5 0.1 -1.5
v -1.7 0 1.5
v -1.7 0.1 1.5
v -0.7 0 1.5
v -0.7 0.1 1.5
v 0.3 0 1.5
v 0.3 0.1 1.5
v 1.3 0 1.5
v 1.3 0.1 1.5
v 1.3 0 1
v 1.3 0.1 1
v 1.5 0 1
v 1.5 0.1 1
v -1.7 0 0.5
v -1.7 0.1 0.5
v -1.5 0 0.5
v -1.5 0.1 0.5
v 1.3 0 0
v 1.3 0.1 0
v 1.5 0 0
v 1.5 0.1 0
v -1.7 0 -0.5
v -1.7 0.1 -0.5
v -1.5 0 -0.5
v -1.5 0.1 -0.5
v 1.3 0 -1
v 1.3 0.1 -1
v 1.5 0 -1
v 1.5 0.1 -1
v -1.7 0 1
v -1.7 0.1 1
v -1.5 0 1
v -1.5 0.1 1
v 1.3 0 0.5
v 1.3 0.1 0.5
v 1.5 0 0.5
v 1.5 0.1 0.5
v -1.7 0 0
v -1.7 0.1 0
v -1.5 0 0
v -1.5 0.1 0
v 1.3 0 -0.5
v 1.3 0.1 -0.5
v 1.5 0 -0.5
v 1.5 0.1 -0.5
v -1.7 0 -1
v -1.7 0.1 -1
v -1.5 0 -1
v -1.5 0.1 -1
v -1.5 0 -1.5
v -1.5 0.1 -1.5
v -0.5 0 -1.5
v -0.5 0.1 -1.5
v 0.5 0 -1.5
v 0.5 0.1 -1.5
v 1.5 0 -1.5
v 1.5 0.1 -1.5
v -1.7 0 1.5
v -0.7 0 1.5
v 0.3 0 1.5
v 1.3 0 1.5
v -1.7 0 1
v -1.5 0 1
v -0.7 0 1
v -0.5 0 1
v 0.3 0 1
v 0.5 0 1
v 1.3 0 1
v 1.5 0 1
v -1.7 0 0.5
v -1.5 0 0.5
v -0.7 0 0.5
v -0.5 0 0.5
v 0.3 0 0.5
v 0.5 0 0.5
v 1.3 0 0.5
v 1.5 0 0.5
v -1.7 0 0
v -1.5 0 0
v -0.7 0 0
v -0.5 0 0
v 0.3 0 0
v 0.5 0 0
v 1.3 0 0
v 1.5 0 0
v -1.7 0 -0.5
v -1.5 0 -0.5
v -0.7 0 -0.5
v -0.5 0 -0.5
v 0.3 0 -0.5
v 0.5 0 -0.5
v 1.3 0 -0.5
v 1.5 0 -0.5
v -1.7 0 -1
v -1.5 0 -1
v -0.7 0 -1
v -0.5 0 -1
v 0.3 0 -1
v 0.5 0 -1
v 1.3 0 -1
v 1.5 0 -1
v -1.5 0 -1.5
v -0.5 0 -1.5
v 0.5 0 -1.5
v 1.5 0 -1.5
v -1.7 0.1 1.5
v -0.7 0.1 1.5
v 0.3 0.1 1.5
v 1.3 0.1 1.5
v -1.7 0.1 1
v -1.5 0.1 1
v -0.7 0.1 1
v -0.5 0.1 1
v 0.3 0.1 1
v 0.5 0.1 1
v 1.3 0.1 1
v 1.5 0.1 1
v -1.7 0.1 0.5
v -1.5 0.1 0.5
v -0.7 0.1 0.5
v -0.5 0.1 0.5
v 0.3 0.1 0.5
v 0.5 0.1 0.5
v 1.3 0.1 0.5
v 1.5 0.1 0.5
v -1.7 0.1 0
v -1.5 0.1 0
v -0.7 0.1 0
v -0.5 0.1 0
v 0.3 0.1 0
v 0.5 0.1 0
v 1.3 0.1 0
v 1.5 0.1 0
v -1.7 0.1 -0.5
v -1.5 0.1 -0.5
v -0.7 0.1 -0.5
v -0.5 0.1 -0.5
v 0.3 0.1 -0.5
v 0.5 0.1 -0.5
v 1.3 0.1 -0.5
v 1.5 0.1 -0.5
v -1.7 0.1 -1
v -1.5 0.1 -1
v -0.7 0.1 -1
v -0.5 0.1 -1
v 0.3 0.1 -1
v 0.5 0.1 -1
v 1.3 0.1 -1
v 1.5 0.1 -1
v -1.5 0.1 -1.5
v -0.5 0.1 -1.5
v 0.5 0.1 -1.5
v 1.5 0.1 -1.5

# faces
f 7/5/1 2/5/1 1/5/1
f 8/5/1 2/5/1 7/5/1
f 9/5/1 4/5/1 3/5/1
f 10/5/1 4/5/1 9/5/1
f 11/5/1 6/5/1 5/5/1
f 12/5/1 6/5/1 11/5/1
f 19/4/1 14/4/1 13/4/1
f 20/4/1 14/4/1 19/4/1
f 21/4/1 16/4/1 15/4/1
f 22/4/1 16/4/1 21/4/1
f 23/4/1 18/4/1 17/4/1
f 24/4/1 18/4/1 23/4/1
f 25/3/2 26/3/2 31/3/2
f 31/3/2 26/3/2 32/3/2
f 27/3/2 28/3/2 33/3/2
f 33/3/2 28/3/2 34/3/2
f 29/3/2 30/3/2 35/3/2
f 35/3/2 30/3/2 36/3/2
f 37/1/2 38/1/2 43/1/2
f 43/1/2 38/1/2 44/1/2
f 39/1/2 40/1/2 45/1/2
f 45/1/2 40/1/2 46/1/2
f 41/1/2 42/1/2 47/1/2
f 47/1/2 42/1/2 48/1/2
f 51/5/3 50/5/3 49/5/3
f 52/5/3 50/5/3 51/5/3
f 53/1/3 52/1/3 51/1/3
f 54/1/3 52/1/3 53/1/3
f 55/3/3 54/3/3 53/3/3
f 56/3/3 54/3/3 55/3/3
f 59/1/3 58/1/3 57/1/3
f 60/1/3 58/1/3 59/1/3
f 63/5/3 62/5/3 61/5/3
f 64/5/3 62/5/3 63/5/3
f 67/1/3 66/1/3 65/1/3
f 68/1/3 66/1/3 67/1/3
f 71/5/3 70/5/3 69/5/3
f 72/5/3 70/5/3 71/5/3
f 75/1/3 74/1/3 73/1/3
f 76/1/3 74/1/3 75/1/3
f 77/5/4 78/5/4 79/5/4
f 79/5/4 78/5/4 80/5/4
f 81/1/4 82/1/4 83/1/4
f 83/1/4 82/1/4 84/1/4
f 85/5/4 86/5/4 87/5/4
f 87/5/4 86/5/4 88/5/4
f 89/1/4 90/1/4 91/1/4
f 91/1/4 90/1/4 92/1/4
f 93/5/4 94/5/4 95/5/4
f 95/5/4 94/5/4 96/5/4
f 97/4/4 98/4/4 99/4/4
f 99/4/4 98/4/4 100/4/4
f 99/2/4 100/2/4 101/2/4
f 101/2/4 100/2/4 102/2/4
f 101/1/4 102/1/4 103/1/4
f 103/1/4 102/1/4 104/1/4
f 109/5/5 106/5/5 105/5/5
f 110/5/5 106/5/5 109/5/5
f 111/1/5 107/1/5 106/1/5
f 111/5/5 106/5/5 110/5/5
f 112/1/5 107/1/5 111/1/5
f 113/3/5 108/3/5 107/3/5
f 113/1/5 107/1/5 112/1/5
f 114/3/5 108/3/5 113/3/5
f 115/3/5 108/3/5 114/3/5
f 118/4/5 112/4/5 111/4/5
f 118/4/5 111/4/5 110/4/5
f 119/4/5 112/4/5 118/4/5
f 120/2/5 114/2/5 113/2/5
f 120/4/5 112/4/5 119/4/5
f 120/2/5 113/2/5 112/2/5
f 121/2/5 114/2/5 120/2/5
f 122/1/5 115/1/5 114/1/5
f 122/2/5 114/2/5 121/2/5
f 122/1/5 116/1/5 115/1/5
f 123/1/5 116/1/5 122/1/5
f 124/1/5 116/1/5 123/1/5
f 125/5/5 119/5/5 118/5/5
f 125/5/5 118/5/5 117/5/5
f 126/5/5 119/5/5 125/5/5
f 127/1/5 121/1/5 120/1/5
f 127/5/5 119/5/5 126/5/5
f 127/1/5 120/1/5 119/1/5
f 128/1/5 121/1/5 127/1/5
f 129/3/5 123/3/5 122/3/5
f 129/1/5 121/1/5 128/1/5
f 129/3/5 122/3/5 121/3/5
f 130/3/5 123/3/5 129/3/5
f 131/3/5 123/3/5 130/3/5
f 134/4/5 128/4/5 127/4/5
f 134/4/5 127/4/5 126/4/5
f 135/4/5 128/4/5 134/4/5
f 136/2/5 130/2/5 129/2/5
f 136/4/5 128/4/5 135/4/5
f 136/2/5 129/2/5 128/2/5
f 137/2/5 130/2/5 136/2/5
f 138/1/5 132/1/5 131/1/5
f 138/2/5 130/2/5 137/2/5
f 138/1/5 131/1/5 130/1/5
f 139/1/5 132/1/5 138/1/5
f 140/1/5 132/1/5 139/1/5
f 141/5/5 135/5/5 134/5/5
f 141/5/5 134/5/5 133/5/5
f 142/5/5 135/5/5 141/5/5
f 143/1/5 137/1/5 136/1/5
f 143/5/5 135/5/5 142/5/5
f 143/1/5 136/1/5 135/1/5
f 144/1/5 137/1/5 143/1/5
f 145/3/5 139/3/5 138/3/5
f 145/1/5 137/1/5 144/1/5
f 145/3/5 138/3/5 137/3/5
f 146/3/5 139/3/5 145/3/5
f 147/3/5 139/3/5 146/3/5
f 149/4/5 144/4/5 143/4/5
f 149/4/5 143/4/5 142/4/5
f 150/2/5 146/2/5 145/2/5
f 150/4/5 144/4/5 149/4/5
f 150/2/5 145/2/5 144/2/5
f 151/1/5 148/1/5 147/1/5
f 151/2/5 146/2/5 150/2/5
f 151/1/5 147/1/5 146/1/5
f 152/1/5 148/1/5 151/1/5
f 153/5/6 154/5/6 157/5/6
f 157/5/6 154/5/6 158/5/6
f 154/1/6 155/1/6 159/1/6
f 158/5/6 154/5/6 159/5/6
f 159/1/6 155/1/6 160/1/6
f 155/3/6 156/3/6 161/3/6
f 160/1/6 155/1/6 161/1/6
f 161/3/6 156/3/6 162/3/6
f 162/3/6 156/3/6 163/3/6
f 159/4/6 160/4/6 166/4/6
f 158/4/6 159/4/6 166/4/6
f 166/4/6 160/4/6 167/4/6
f 161/2/6 162/2/6 168/2/6
f 167/4/6 160/4/6 168/4/6
f 160/2/6 161/2/6 168/2/6
f 168/2/6 162/2/6 169/2/6
f 162/1/6 163/1/6 170/1/6
f 169/2/6 162/2/6 170/2/6
f 163/1/6 164/1/6 170/1/6
f 170/1/6 164/1/6 171/1/6
f 171/1/6 164/1/6 172/1/6
f 166/5/6 167/5/6 173/5/6
f 165/5/6 166/5/6 173/5/6
f 173/5/6 167/5/6 174/5/6
f 168/1/6 169/1/6 175/1/6
f 174/5/6 167/5/6 175/5/6
f 167/1/6 168/1/6 175/1/6
f 175/1/6 169/1/6 176/1/6
f 170/3/6 171/3/6 177/3/6
f 176/1/6 169/1/6 177/1/6
f 169/3/6 170/3/6 177/3/6
f 177/3/6 171/3/6 178/3/6
f 178/3/6 171/3/6 179/3/6
f 175/4/6 176/4/6 182/4/6
f 174/4/6 175/4/6 182/4/6
f 182/4/6 176/4/6 183/4/6
f 177/2/6 178/2/6 184/2/6
f 183/4/6 176/4/6 184/4/6
f 176/2/6 177/2/6 184/2/6
f 184/2/6 178/2/6 185/2/6
f 179/1/6 180/1/6 186/1/6
f 185/2/6 178/2/6 186/2/6
f 178/1/6 179/1/6 186/1/6
f 186/1/6 180/1/6 187/1/6
f 187/1/6 180/1/6 188/1/6
f 182/5/6 183/5/6 189/5/6
f 181/5/6 182/5/6 189/5/6
f 189/5/6 183/5/6 190/5/6
f 184/1/6 185/1/6 191/1/6
f 190/5/6 183/5/6 191/5/6
f 183/1/6 184/1/6 191/1/6
f 191/1/6 185/1/6 192/1/6
f 186/3/6 187/3/6 193/3/6
f 192/1/6 185/1/6 193/1/6
f 185/3/6 186/3/6 193/3/6
f 193/3/6 187/3/6 194/3/6
f 194/3/6 187/3/6 195/3/6
f 191/4/6 192/4/6 197/4/6
f 190/4/6 191/4/6 197/4/6
f 193/2/6 194/2/6 198/2/6
f 197/4/6 192/4/6 198/4/6
f 192/2/6 193/2/6 198/2/6
f 195/1/6 196/1/6 199/1/6
f 198/2/6 194/2/6 199/2/6
f 194/1/6 195/1/6 199/1/6
f 199/1/6 196/1/6 200/1/6
