# MagicaVoxel @ Ephtracy

# group
o 

# material
mtllib Estábulo.mtl
usemtl palette

# normals
vn -1 0 0
vn 1 0 0
vn 0 0 1
vn 0 0 -1
vn 0 -1 0
vn 0 1 0

# texcoords
vt 0.982422 0.5
vt 0.986328 0.5

# verts
v -5.3 0 5.3
v -5.3 0 5
v -5.3 0 -2.4
v -5.3 0 -2.7
v -5.3 1.3 5.3
v -5.3 1.3 5
v -5.3 1.3 -2.4
v -5.3 1.3 -2.7
v -5.2 0.2 5
v -5.2 0.2 -2.4
v -5.2 0.5 5
v -5.2 0.5 -2.4
v -5.2 0.6 5
v -5.2 0.6 -2.4
v -5.2 0.9 5
v -5.2 0.9 -2.4
v -5.2 1 5
v -5.2 1 -2.4
v -5.2 1.1 5
v -5.2 1.1 -2.4
v -2.1 0.1 -2.7
v -2.1 0.1 -2.8
v -2.1 0.5 -2.7
v -2.1 0.5 -2.8
v -2 0.5 -2.7
v -2 0.5 -2.8
v -2 1 -2.7
v -2 1 -2.8
v -1 0 -2.4
v -1 0 -2.7
v -1 0.2 -2.5
v -1 0.2 -2.6
v -1 0.2 -2.7
v -1 0.5 -2.5
v -1 0.5 -2.6
v -1 0.5 -2.7
v -1 0.6 -2.5
v -1 0.6 -2.6
v -1 0.6 -2.7
v -1 0.9 -2.5
v -1 0.9 -2.6
v -1 0.9 -2.7
v -1 1 -2.5
v -1 1 -2.6
v -1 1.1 -2.5
v -1 1.1 -2.6
v -1 1.3 -2.4
v -1 1.3 -2.7
v 2.1 0 -2.4
v 2.1 0 -2.7
v 2.1 1.3 -2.4
v 2.1 1.3 -2.7
v 2.2 0.1 -3.8
v 2.2 0.1 -3.9
v 2.2 0.2 -2.7
v 2.2 0.2 -3.8
v 2.2 0.5 -2.7
v 2.2 0.5 -3.8
v 2.2 0.5 -3.9
v 2.2 0.5 -4
v 2.2 0.6 -2.7
v 2.2 0.6 -3.8
v 2.2 0.9 -2.7
v 2.2 0.9 -3.8
v 2.2 1 -3.8
v 2.2 1 -4
v 5.4 0 5.3
v 5.4 0 5
v 5.4 0 -2.4
v 5.4 0 -2.7
v 5.4 0.2 5.2
v 5.4 0.2 5.1
v 5.4 0.2 -2.5
v 5.4 0.2 -2.6
v 5.4 0.5 5.2
v 5.4 0.5 5.1
v 5.4 0.5 -2.5
v 5.4 0.5 -2.6
v 5.4 0.6 5.2
v 5.4 0.6 5.1
v 5.4 0.6 -2.5
v 5.4 0.6 -2.6
v 5.4 0.9 5.2
v 5.4 0.9 5.1
v 5.4 0.9 -2.5
v 5.4 0.9 -2.6
v 5.4 1 5.2
v 5.4 1 5.1
v 5.4 1 -2.5
v 5.4 1 -2.6
v 5.4 1.1 5.2
v 5.4 1.1 5.1
v 5.4 1.1 -2.5
v 5.4 1.1 -2.6
v 5.4 1.3 5.3
v 5.4 1.3 5
v 5.4 1.3 -2.4
v 5.4 1.3 -2.7
v 5.5 0.2 5
v 5.5 0.2 -2.4
v 5.5 0.5 5
v 5.5 0.5 -2.4
v 5.5 0.6 5
v 5.5 0.6 -2.4
v 5.5 0.9 5
v 5.5 0.9 -2.4
v 5.5 1 5
v 5.5 1 -2.4
v 5.5 1.1 5
v 5.5 1.1 -2.4
v -5.1 0.2 5
v -5.1 0.2 -2.4
v -5.1 0.5 5
v -5.1 0.5 -2.4
v -5.1 0.6 5
v -5.1 0.6 -2.4
v -5.1 0.9 5
v -5.1 0.9 -2.4
v -5.1 1 5
v -5.1 1 -2.4
v -5.1 1.1 5
v -5.1 1.1 -2.4
v -5 0 5.3
v -5 0 5
v -5 0 -2.4
v -5 0 -2.7
v -5 0.2 5.2
v -5 0.2 5.1
v -5 0.2 -2.5
v -5 0.2 -2.6
v -5 0.5 5.2
v -5 0.5 5.1
v -5 0.5 -2.5
v -5 0.5 -2.6
v -5 0.6 5.2
v -5 0.6 5.1
v -5 0.6 -2.5
v -5 0.6 -2.6
v -5 0.9 5.2
v -5 0.9 5.1
v -5 0.9 -2.5
v -5 0.9 -2.6
v -5 1 5.2
v -5 1 5.1
v -5 1 -2.5
v -5 1 -2.6
v -5 1.1 5.2
v -5 1.1 5.1
v -5 1.1 -2.5
v -5 1.1 -2.6
v -5 1.3 5.3
v -5 1.3 5
v -5 1.3 -2.4
v -5 1.3 -2.7
v -1.9 0.1 -2.7
v -1.9 0.1 -2.8
v -1.9 0.2 -2.7
v -1.9 0.2 -2.8
v -1.9 0.5 -2.7
v -1.9 0.5 -2.8
v -1.9 0.6 -2.7
v -1.9 0.6 -2.8
v -1.9 0.9 -2.7
v -1.9 0.9 -2.8
v -1.9 1 -2.7
v -1.9 1 -2.8
v -0.8 0.2 -2.7
v -0.8 0.2 -2.8
v -0.8 0.5 -2.7
v -0.8 0.5 -2.8
v -0.8 0.6 -2.7
v -0.8 0.6 -2.8
v -0.8 0.9 -2.7
v -0.8 0.9 -2.8
v -0.7 0 -2.4
v -0.7 0 -2.7
v -0.7 1.3 -2.4
v -0.7 1.3 -2.7
v 2.3 0.1 -3.8
v 2.3 0.1 -3.9
v 2.3 0.2 -2.7
v 2.3 0.2 -3.8
v 2.3 0.5 -2.7
v 2.3 0.5 -3.8
v 2.3 0.5 -3.9
v 2.3 0.5 -4
v 2.3 0.6 -2.7
v 2.3 0.6 -3.8
v 2.3 0.9 -2.7
v 2.3 0.9 -3.8
v 2.3 1 -3.8
v 2.3 1 -4
v 2.4 0 -2.4
v 2.4 0 -2.7
v 2.4 0.2 -2.5
v 2.4 0.2 -2.6
v 2.4 0.5 -2.5
v 2.4 0.5 -2.6
v 2.4 0.6 -2.5
v 2.4 0.6 -2.6
v 2.4 0.9 -2.5
v 2.4 0.9 -2.6
v 2.4 1 -2.5
v 2.4 1 -2.6
v 2.4 1.1 -2.5
v 2.4 1.1 -2.6
v 2.4 1.3 -2.4
v 2.4 1.3 -2.7
v 5.6 0.2 5
v 5.6 0.2 -2.4
v 5.6 0.5 5
v 5.6 0.5 -2.4
v 5.6 0.6 5
v 5.6 0.6 -2.4
v 5.6 0.9 5
v 5.6 0.9 -2.4
v 5.6 1 5
v 5.6 1 -2.4
v 5.6 1.1 5
v 5.6 1.1 -2.4
v 5.7 0 5.3
v 5.7 0 5
v 5.7 0 -2.4
v 5.7 0 -2.7
v 5.7 1.3 5.3
v 5.7 1.3 5
v 5.7 1.3 -2.4
v 5.7 1.3 -2.7
v -5.3 0 5.3
v -5.3 1.3 5.3
v -5 0 5.3
v -5 1.3 5.3
v 5.4 0 5.3
v 5.4 1.3 5.3
v 5.7 0 5.3
v 5.7 1.3 5.3
v -5 0.2 5.2
v -5 0.5 5.2
v -5 0.6 5.2
v -5 0.9 5.2
v -5 1 5.2
v -5 1.1 5.2
v 5.4 0.2 5.2
v 5.4 0.5 5.2
v 5.4 0.6 5.2
v 5.4 0.9 5.2
v 5.4 1 5.2
v 5.4 1.1 5.2
v -5.3 0 -2.4
v -5.3 1.3 -2.4
v -5.2 0.2 -2.4
v -5.2 0.5 -2.4
v -5.2 0.6 -2.4
v -5.2 0.9 -2.4
v -5.2 1 -2.4
v -5.2 1.1 -2.4
v -5.1 0.2 -2.4
v -5.1 0.5 -2.4
v -5.1 0.6 -2.4
v -5.1 0.9 -2.4
v -5.1 1 -2.4
v -5.1 1.1 -2.4
v -5 0 -2.4
v -5 1.3 -2.4
v -1 0 -2.4
v -1 1.3 -2.4
v -0.7 0 -2.4
v -0.7 1.3 -2.4
v 2.1 0 -2.4
v 2.1 1.3 -2.4
v 2.4 0 -2.4
v 2.4 1.3 -2.4
v 5.4 0 -2.4
v 5.4 1.3 -2.4
v 5.5 0.2 -2.4
v 5.5 0.5 -2.4
v 5.5 0.6 -2.4
v 5.5 0.9 -2.4
v 5.5 1 -2.4
v 5.5 1.1 -2.4
v 5.6 0.2 -2.4
v 5.6 0.5 -2.4
v 5.6 0.6 -2.4
v 5.6 0.9 -2.4
v 5.6 1 -2.4
v 5.6 1.1 -2.4
v 5.7 0 -2.4
v 5.7 1.3 -2.4
v -5 0.2 -2.5
v -5 0.5 -2.5
v -5 0.6 -2.5
v -5 0.9 -2.5
v -5 1 -2.5
v -5 1.1 -2.5
v -1 0.2 -2.5
v -1 0.5 -2.5
v -1 0.6 -2.5
v -1 0.9 -2.5
v -1 1 -2.5
v -1 1.1 -2.5
v 2.4 0.2 -2.5
v 2.4 0.5 -2.5
v 2.4 0.6 -2.5
v 2.4 0.9 -2.5
v 2.4 1 -2.5
v 2.4 1.1 -2.5
v 5.4 0.2 -2.5
v 5.4 0.5 -2.5
v 5.4 0.6 -2.5
v 5.4 0.9 -2.5
v 5.4 1 -2.5
v 5.4 1.1 -2.5
v -2.1 0.1 -2.7
v -2.1 0.5 -2.7
v -2 0.5 -2.7
v -2 1 -2.7
v -1.9 0.1 -2.7
v -1.9 0.2 -2.7
v -1.9 0.5 -2.7
v -1.9 0.6 -2.7
v -1.9 0.9 -2.7
v -1.9 1 -2.7
v -1 0.2 -2.7
v -1 0.5 -2.7
v -1 0.6 -2.7
v -1 0.9 -2.7
v 2.2 0.1 -3.8
v 2.2 0.2 -3.8
v 2.2 0.5 -3.8
v 2.2 0.6 -3.8
v 2.2 0.9 -3.8
v 2.2 1 -3.8
v 2.3 0.1 -3.8
v 2.3 0.2 -3.8
v 2.3 0.5 -3.8
v 2.3 0.6 -3.8
v 2.3 0.9 -3.8
v 2.3 1 -3.8
v -5 0.2 5.1
v -5 0.5 5.1
v -5 0.6 5.1
v -5 0.9 5.1
v -5 1 5.1
v -5 1.1 5.1
v 5.4 0.2 5.1
v 5.4 0.5 5.1
v 5.4 0.6 5.1
v 5.4 0.9 5.1
v 5.4 1 5.1
v 5.4 1.1 5.1
v -5.3 0 5
v -5.3 1.3 5
v -5.2 0.2 5
v -5.2 0.5 5
v -5.2 0.6 5
v -5.2 0.9 5
v -5.2 1 5
v -5.2 1.1 5
v -5.1 0.2 5
v -5.1 0.5 5
v -5.1 0.6 5
v -5.1 0.9 5
v -5.1 1 5
v -5.1 1.1 5
v -5 0 5
v -5 1.3 5
v 5.4 0 5
v 5.4 1.3 5
v 5.5 0.2 5
v 5.5 0.5 5
v 5.5 0.6 5
v 5.5 0.9 5
v 5.5 1 5
v 5.5 1.1 5
v 5.6 0.2 5
v 5.6 0.5 5
v 5.6 0.6 5
v 5.6 0.9 5
v 5.6 1 5
v 5.6 1.1 5
v 5.7 0 5
v 5.7 1.3 5
v -5 0.2 -2.6
v -5 0.5 -2.6
v -5 0.6 -2.6
v -5 0.9 -2.6
v -5 1 -2.6
v -5 1.1 -2.6
v -1 0.2 -2.6
v -1 0.5 -2.6
v -1 0.6 -2.6
v -1 0.9 -2.6
v -1 1 -2.6
v -1 1.1 -2.6
v 2.4 0.2 -2.6
v 2.4 0.5 -2.6
v 2.4 0.6 -2.6
v 2.4 0.9 -2.6
v 2.4 1 -2.6
v 2.4 1.1 -2.6
v 5.4 0.2 -2.6
v 5.4 0.5 -2.6
v 5.4 0.6 -2.6
v 5.4 0.9 -2.6
v 5.4 1 -2.6
v 5.4 1.1 -2.6
v -5.3 0 -2.7
v -5.3 1.3 -2.7
v -5 0 -2.7
v -5 1.3 -2.7
v -1 0 -2.7
v -1 0.2 -2.7
v -1 0.5 -2.7
v -1 0.6 -2.7
v -1 0.9 -2.7
v -1 1.3 -2.7
v -0.8 0.2 -2.7
v -0.8 0.5 -2.7
v -0.8 0.6 -2.7
v -0.8 0.9 -2.7
v -0.7 0 -2.7
v -0.7 1.3 -2.7
v 2.1 0 -2.7
v 2.1 1.3 -2.7
v 2.2 0.2 -2.7
v 2.2 0.5 -2.7
v 2.2 0.6 -2.7
v 2.2 0.9 -2.7
v 2.3 0.2 -2.7
v 2.3 0.5 -2.7
v 2.3 0.6 -2.7
v 2.3 0.9 -2.7
v 2.4 0 -2.7
v 2.4 1.3 -2.7
v 5.4 0 -2.7
v 5.4 1.3 -2.7
v 5.7 0 -2.7
v 5.7 1.3 -2.7
v -2.1 0.1 -2.8
v -2.1 0.5 -2.8
v -2 0.5 -2.8
v -2 1 -2.8
v -1.9 0.1 -2.8
v -1.9 0.2 -2.8
v -1.9 0.5 -2.8
v -1.9 0.6 -2.8
v -1.9 0.9 -2.8
v -1.9 1 -2.8
v -0.8 0.2 -2.8
v -0.8 0.5 -2.8
v -0.8 0.6 -2.8
v -0.8 0.9 -2.8
v 2.2 0.1 -3.9
v 2.2 0.5 -3.9
v 2.3 0.1 -3.9
v 2.3 0.5 -3.9
v 2.2 0.5 -4
v 2.2 1 -4
v 2.3 0.5 -4
v 2.3 1 -4
v -5.3 0 5.3
v -5 0 5.3
v 5.4 0 5.3
v 5.7 0 5.3
v -5.3 0 5
v -5 0 5
v 5.4 0 5
v 5.7 0 5
v -5.3 0 -2.4
v -5 0 -2.4
v -1 0 -2.4
v -0.7 0 -2.4
v 2.1 0 -2.4
v 2.4 0 -2.4
v 5.4 0 -2.4
v 5.7 0 -2.4
v -5.3 0 -2.7
v -5 0 -2.7
v -1 0 -2.7
v -0.7 0 -2.7
v 2.1 0 -2.7
v 2.4 0 -2.7
v 5.4 0 -2.7
v 5.7 0 -2.7
v -2.1 0.1 -2.7
v -1.9 0.1 -2.7
v -2.1 0.1 -2.8
v -1.9 0.1 -2.8
v 2.2 0.1 -3.8
v 2.3 0.1 -3.8
v 2.2 0.1 -3.9
v 2.3 0.1 -3.9
v -5 0.2 5.2
v 5.4 0.2 5.2
v -5 0.2 5.1
v 5.4 0.2 5.1
v -5.2 0.2 5
v -5.1 0.2 5
v 5.5 0.2 5
v 5.6 0.2 5
v -5.2 0.2 -2.4
v -5.1 0.2 -2.4
v 5.5 0.2 -2.4
v 5.6 0.2 -2.4
v -5 0.2 -2.5
v -1 0.2 -2.5
v 2.4 0.2 -2.5
v 5.4 0.2 -2.5
v -5 0.2 -2.6
v -1 0.2 -2.6
v 2.4 0.2 -2.6
v 5.4 0.2 -2.6
v -1.9 0.2 -2.7
v -1 0.2 -2.7
v -0.8 0.2 -2.7
v 2.2 0.2 -2.7
v 2.3 0.2 -2.7
v -1.9 0.2 -2.8
v -0.8 0.2 -2.8
v 2.2 0.2 -3.8
v 2.3 0.2 -3.8
v 2.2 0.5 -3.9
v 2.3 0.5 -3.9
v 2.2 0.5 -4
v 2.3 0.5 -4
v -5 0.6 5.2
v 5.4 0.6 5.2
v -5 0.6 5.1
v 5.4 0.6 5.1
v -5.2 0.6 5
v -5.1 0.6 5
v 5.5 0.6 5
v 5.6 0.6 5
v -5.2 0.6 -2.4
v -5.1 0.6 -2.4
v 5.5 0.6 -2.4
v 5.6 0.6 -2.4
v -5 0.6 -2.5
v -1 0.6 -2.5
v 2.4 0.6 -2.5
v 5.4 0.6 -2.5
v -5 0.6 -2.6
v -1 0.6 -2.6
v 2.4 0.6 -2.6
v 5.4 0.6 -2.6
v -1.9 0.6 -2.7
v -1 0.6 -2.7
v -0.8 0.6 -2.7
v 2.2 0.6 -2.7
v 2.3 0.6 -2.7
v -1.9 0.6 -2.8
v -0.8 0.6 -2.8
v 2.2 0.6 -3.8
v 2.3 0.6 -3.8
v -5 1 5.2
v 5.4 1 5.2
v -5 1 5.1
v 5.4 1 5.1
v -5.2 1 5
v -5.1 1 5
v 5.5 1 5
v 5.6 1 5
v -5.2 1 -2.4
v -5.1 1 -2.4
v 5.5 1 -2.4
v 5.6 1 -2.4
v -5 1 -2.5
v -1 1 -2.5
v 2.4 1 -2.5
v 5.4 1 -2.5
v -5 1 -2.6
v -1 1 -2.6
v 2.4 1 -2.6
v 5.4 1 -2.6
v -5 0.5 5.2
v 5.4 0.5 5.2
v -5 0.5 5.1
v 5.4 0.5 5.1
v -5.2 0.5 5
v -5.1 0.5 5
v 5.5 0.5 5
v 5.6 0.5 5
v -5.2 0.5 -2.4
v -5.1 0.5 -2.4
v 5.5 0.5 -2.4
v 5.6 0.5 -2.4
v -5 0.5 -2.5
v -1 0.5 -2.5
v 2.4 0.5 -2.5
v 5.4 0.5 -2.5
v -5 0.5 -2.6
v -1 0.5 -2.6
v 2.4 0.5 -2.6
v 5.4 0.5 -2.6
v -2.1 0.5 -2.7
v -2 0.5 -2.7
v -1.9 0.5 -2.7
v -1 0.5 -2.7
v -0.8 0.5 -2.7
v 2.2 0.5 -2.7
v 2.3 0.5 -2.7
v -2.1 0.5 -2.8
v -2 0.5 -2.8
v -1.9 0.5 -2.8
v -0.8 0.5 -2.8
v 2.2 0.5 -3.8
v 2.3 0.5 -3.8
v -5 0.9 5.2
v 5.4 0.9 5.2
v -5 0.9 5.1
v 5.4 0.9 5.1
v -5.2 0.9 5
v -5.1 0.9 5
v 5.5 0.9 5
v 5.6 0.9 5
v -5.2 0.9 -2.4
v -5.1 0.9 -2.4
v 5.5 0.9 -2.4
v 5.6 0.9 -2.4
v -5 0.9 -2.5
v -1 0.9 -2.5
v 2.4 0.9 -2.5
v 5.4 0.9 -2.5
v -5 0.9 -2.6
v -1 0.9 -2.6
v 2.4 0.9 -2.6
v 5.4 0.9 -2.6
v -1.9 0.9 -2.7
v -1 0.9 -2.7
v -0.8 0.9 -2.7
v 2.2 0.9 -2.7
v 2.3 0.9 -2.7
v -1.9 0.9 -2.8
v -0.8 0.9 -2.8
v 2.2 0.9 -3.8
v 2.3 0.9 -3.8
v -2 1 -2.7
v -1.9 1 -2.7
v -2 1 -2.8
v -1.9 1 -2.8
v 2.2 1 -3.8
v 2.3 1 -3.8
v 2.2 1 -4
v 2.3 1 -4
v -5 1.1 5.2
v 5.4 1.1 5.2
v -5 1.1 5.1
v 5.4 1.1 5.1
v -5.2 1.1 5
v -5.1 1.1 5
v 5.5 1.1 5
v 5.6 1.1 5
v -5.2 1.1 -2.4
v -5.1 1.1 -2.4
v 5.5 1.1 -2.4
v 5.6 1.1 -2.4
v -5 1.1 -2.5
v -1 1.1 -2.5
v 2.4 1.1 -2.5
v 5.4 1.1 -2.5
v -5 1.1 -2.6
v -1 1.1 -2.6
v 2.4 1.1 -2.6
v 5.4 1.1 -2.6
v -5.3 1.3 5.3
v -5 1.3 5.3
v 5.4 1.3 5.3
v 5.7 1.3 5.3
v -5.3 1.3 5
v -5 1.3 5
v 5.4 1.3 5
v 5.7 1.3 5
v -5.3 1.3 -2.4
v -5 1.3 -2.4
v -1 1.3 -2.4
v -0.7 1.3 -2.4
v 2.1 1.3 -2.4
v 2.4 1.3 -2.4
v 5.4 1.3 -2.4
v 5.7 1.3 -2.4
v -5.3 1.3 -2.7
v -5 1.3 -2.7
v -1 1.3 -2.7
v -0.7 1.3 -2.7
v 2.1 1.3 -2.7
v 2.4 1.3 -2.7
v 5.4 1.3 -2.7
v 5.7 1.3 -2.7

# faces
f 5/2/1 2/2/1 1/2/1
f 6/2/1 2/2/1 5/2/1
f 7/2/1 4/2/1 3/2/1
f 8/2/1 4/2/1 7/2/1
f 11/1/1 10/1/1 9/1/1
f 12/1/1 10/1/1 11/1/1
f 15/1/1 14/1/1 13/1/1
f 16/1/1 14/1/1 15/1/1
f 19/1/1 18/1/1 17/1/1
f 20/1/1 18/1/1 19/1/1
f 23/2/1 22/2/1 21/2/1
f 24/2/1 22/2/1 23/2/1
f 27/2/1 26/2/1 25/2/1
f 28/2/1 26/2/1 27/2/1
f 31/2/1 30/2/1 29/2/1
f 32/2/1 30/2/1 31/2/1
f 33/2/1 30/2/1 32/2/1
f 34/2/1 31/2/1 29/2/1
f 35/2/1 33/2/1 32/2/1
f 36/2/1 33/2/1 35/2/1
f 37/2/1 34/2/1 29/2/1
f 37/2/1 35/2/1 34/2/1
f 37/2/1 36/2/1 35/2/1
f 38/2/1 36/2/1 37/2/1
f 39/2/1 36/2/1 38/2/1
f 40/2/1 37/2/1 29/2/1
f 41/2/1 39/2/1 38/2/1
f 42/2/1 39/2/1 41/2/1
f 43/2/1 40/2/1 29/2/1
f 43/2/1 41/2/1 40/2/1
f 43/2/1 42/2/1 41/2/1
f 44/2/1 42/2/1 43/2/1
f 45/2/1 43/2/1 29/2/1
f 46/2/1 42/2/1 44/2/1
f 47/2/1 45/2/1 29/2/1
f 47/2/1 46/2/1 45/2/1
f 48/2/1 42/2/1 46/2/1
f 48/2/1 46/2/1 47/2/1
f 51/2/1 50/2/1 49/2/1
f 52/2/1 50/2/1 51/2/1
f 56/2/1 54/2/1 53/2/1
f 57/1/1 56/1/1 55/1/1
f 58/2/1 54/2/1 56/2/1
f 58/1/1 56/1/1 57/1/1
f 59/2/1 54/2/1 58/2/1
f 62/2/1 60/2/1 59/2/1
f 62/2/1 59/2/1 58/2/1
f 63/1/1 62/1/1 61/1/1
f 64/2/1 60/2/1 62/2/1
f 64/1/1 62/1/1 63/1/1
f 65/2/1 60/2/1 64/2/1
f 66/2/1 60/2/1 65/2/1
f 71/2/1 68/2/1 67/2/1
f 72/2/1 68/2/1 71/2/1
f 73/2/1 70/2/1 69/2/1
f 74/2/1 70/2/1 73/2/1
f 75/2/1 71/2/1 67/2/1
f 76/2/1 68/2/1 72/2/1
f 77/2/1 73/2/1 69/2/1
f 78/2/1 70/2/1 74/2/1
f 79/2/1 75/2/1 67/2/1
f 79/2/1 76/2/1 75/2/1
f 80/2/1 68/2/1 76/2/1
f 80/2/1 76/2/1 79/2/1
f 81/2/1 78/2/1 77/2/1
f 81/2/1 77/2/1 69/2/1
f 82/2/1 70/2/1 78/2/1
f 82/2/1 78/2/1 81/2/1
f 83/2/1 79/2/1 67/2/1
f 84/2/1 68/2/1 80/2/1
f 85/2/1 81/2/1 69/2/1
f 86/2/1 70/2/1 82/2/1
f 87/2/1 83/2/1 67/2/1
f 87/2/1 84/2/1 83/2/1
f 88/2/1 68/2/1 84/2/1
f 88/2/1 84/2/1 87/2/1
f 89/2/1 86/2/1 85/2/1
f 89/2/1 85/2/1 69/2/1
f 90/2/1 70/2/1 86/2/1
f 90/2/1 86/2/1 89/2/1
f 91/2/1 87/2/1 67/2/1
f 92/2/1 68/2/1 88/2/1
f 93/2/1 89/2/1 69/2/1
f 94/2/1 70/2/1 90/2/1
f 95/2/1 91/2/1 67/2/1
f 95/2/1 92/2/1 91/2/1
f 96/2/1 68/2/1 92/2/1
f 96/2/1 92/2/1 95/2/1
f 97/2/1 94/2/1 93/2/1
f 97/2/1 93/2/1 69/2/1
f 98/2/1 70/2/1 94/2/1
f 98/2/1 94/2/1 97/2/1
f 101/1/1 100/1/1 99/1/1
f 102/1/1 100/1/1 101/1/1
f 105/1/1 104/1/1 103/1/1
f 106/1/1 104/1/1 105/1/1
f 109/1/1 108/1/1 107/1/1
f 110/1/1 108/1/1 109/1/1
f 111/1/2 112/1/2 113/1/2
f 113/1/2 112/1/2 114/1/2
f 115/1/2 116/1/2 117/1/2
f 117/1/2 116/1/2 118/1/2
f 119/1/2 120/1/2 121/1/2
f 121/1/2 120/1/2 122/1/2
f 123/2/2 124/2/2 127/2/2
f 127/2/2 124/2/2 128/2/2
f 125/2/2 126/2/2 129/2/2
f 129/2/2 126/2/2 130/2/2
f 123/2/2 127/2/2 131/2/2
f 128/2/2 124/2/2 132/2/2
f 125/2/2 129/2/2 133/2/2
f 130/2/2 126/2/2 134/2/2
f 123/2/2 131/2/2 135/2/2
f 131/2/2 132/2/2 135/2/2
f 132/2/2 124/2/2 136/2/2
f 135/2/2 132/2/2 136/2/2
f 133/2/2 134/2/2 137/2/2
f 125/2/2 133/2/2 137/2/2
f 134/2/2 126/2/2 138/2/2
f 137/2/2 134/2/2 138/2/2
f 123/2/2 135/2/2 139/2/2
f 136/2/2 124/2/2 140/2/2
f 125/2/2 137/2/2 141/2/2
f 138/2/2 126/2/2 142/2/2
f 123/2/2 139/2/2 143/2/2
f 139/2/2 140/2/2 143/2/2
f 140/2/2 124/2/2 144/2/2
f 143/2/2 140/2/2 144/2/2
f 141/2/2 142/2/2 145/2/2
f 125/2/2 141/2/2 145/2/2
f 142/2/2 126/2/2 146/2/2
f 145/2/2 142/2/2 146/2/2
f 123/2/2 143/2/2 147/2/2
f 144/2/2 124/2/2 148/2/2
f 125/2/2 145/2/2 149/2/2
f 146/2/2 126/2/2 150/2/2
f 123/2/2 147/2/2 151/2/2
f 147/2/2 148/2/2 151/2/2
f 148/2/2 124/2/2 152/2/2
f 151/2/2 148/2/2 152/2/2
f 149/2/2 150/2/2 153/2/2
f 125/2/2 149/2/2 153/2/2
f 150/2/2 126/2/2 154/2/2
f 153/2/2 150/2/2 154/2/2
f 155/2/2 156/2/2 157/2/2
f 157/2/2 156/2/2 158/2/2
f 159/2/2 160/2/2 161/2/2
f 161/2/2 160/2/2 162/2/2
f 163/2/2 164/2/2 165/2/2
f 165/2/2 164/2/2 166/2/2
f 167/1/2 168/1/2 169/1/2
f 169/1/2 168/1/2 170/1/2
f 171/1/2 172/1/2 173/1/2
f 173/1/2 172/1/2 174/1/2
f 175/2/2 176/2/2 177/2/2
f 177/2/2 176/2/2 178/2/2
f 179/2/2 180/2/2 182/2/2
f 181/1/2 182/1/2 183/1/2
f 182/2/2 180/2/2 184/2/2
f 183/1/2 182/1/2 184/1/2
f 184/2/2 180/2/2 185/2/2
f 185/2/2 186/2/2 188/2/2
f 184/2/2 185/2/2 188/2/2
f 187/1/2 188/1/2 189/1/2
f 188/2/2 186/2/2 190/2/2
f 189/1/2 188/1/2 190/1/2
f 190/2/2 186/2/2 191/2/2
f 191/2/2 186/2/2 192/2/2
f 193/2/2 194/2/2 195/2/2
f 195/2/2 194/2/2 196/2/2
f 193/2/2 195/2/2 197/2/2
f 196/2/2 194/2/2 198/2/2
f 193/2/2 197/2/2 199/2/2
f 197/2/2 198/2/2 199/2/2
f 198/2/2 194/2/2 200/2/2
f 199/2/2 198/2/2 200/2/2
f 193/2/2 199/2/2 201/2/2
f 200/2/2 194/2/2 202/2/2
f 193/2/2 201/2/2 203/2/2
f 201/2/2 202/2/2 203/2/2
f 202/2/2 194/2/2 204/2/2
f 203/2/2 202/2/2 204/2/2
f 193/2/2 203/2/2 205/2/2
f 204/2/2 194/2/2 206/2/2
f 193/2/2 205/2/2 207/2/2
f 205/2/2 206/2/2 207/2/2
f 206/2/2 194/2/2 208/2/2
f 207/2/2 206/2/2 208/2/2
f 209/1/2 210/1/2 211/1/2
f 211/1/2 210/1/2 212/1/2
f 213/1/2 214/1/2 215/1/2
f 215/1/2 214/1/2 216/1/2
f 217/1/2 218/1/2 219/1/2
f 219/1/2 218/1/2 220/1/2
f 221/2/2 222/2/2 225/2/2
f 225/2/2 222/2/2 226/2/2
f 223/2/2 224/2/2 227/2/2
f 227/2/2 224/2/2 228/2/2
f 231/2/3 230/2/3 229/2/3
f 232/2/3 230/2/3 231/2/3
f 235/2/3 234/2/3 233/2/3
f 236/2/3 234/2/3 235/2/3
f 243/1/3 238/1/3 237/1/3
f 244/1/3 238/1/3 243/1/3
f 245/1/3 240/1/3 239/1/3
f 246/1/3 240/1/3 245/1/3
f 247/1/3 242/1/3 241/1/3
f 248/1/3 242/1/3 247/1/3
f 251/2/3 250/2/3 249/2/3
f 252/2/3 250/2/3 251/2/3
f 253/2/3 250/2/3 252/2/3
f 254/2/3 250/2/3 253/2/3
f 255/2/3 250/2/3 254/2/3
f 256/2/3 250/2/3 255/2/3
f 257/2/3 251/2/3 249/2/3
f 258/2/3 253/2/3 252/2/3
f 259/2/3 253/2/3 258/2/3
f 260/2/3 255/2/3 254/2/3
f 261/2/3 255/2/3 260/2/3
f 262/2/3 250/2/3 256/2/3
f 263/2/3 261/2/3 260/2/3
f 263/2/3 262/2/3 261/2/3
f 263/2/3 259/2/3 258/2/3
f 263/2/3 257/2/3 249/2/3
f 263/2/3 260/2/3 259/2/3
f 263/2/3 258/2/3 257/2/3
f 264/2/3 250/2/3 262/2/3
f 264/2/3 262/2/3 263/2/3
f 267/2/3 266/2/3 265/2/3
f 268/2/3 266/2/3 267/2/3
f 271/2/3 270/2/3 269/2/3
f 272/2/3 270/2/3 271/2/3
f 275/2/3 274/2/3 273/2/3
f 276/2/3 274/2/3 275/2/3
f 277/2/3 274/2/3 276/2/3
f 278/2/3 274/2/3 277/2/3
f 279/2/3 274/2/3 278/2/3
f 280/2/3 274/2/3 279/2/3
f 281/2/3 275/2/3 273/2/3
f 282/2/3 277/2/3 276/2/3
f 283/2/3 277/2/3 282/2/3
f 284/2/3 279/2/3 278/2/3
f 285/2/3 279/2/3 284/2/3
f 286/2/3 274/2/3 280/2/3
f 287/2/3 285/2/3 284/2/3
f 287/2/3 286/2/3 285/2/3
f 287/2/3 283/2/3 282/2/3
f 287/2/3 281/2/3 273/2/3
f 287/2/3 284/2/3 283/2/3
f 287/2/3 282/2/3 281/2/3
f 288/2/3 274/2/3 286/2/3
f 288/2/3 286/2/3 287/2/3
f 295/1/3 290/1/3 289/1/3
f 296/1/3 290/1/3 295/1/3
f 297/1/3 292/1/3 291/1/3
f 298/1/3 292/1/3 297/1/3
f 299/1/3 294/1/3 293/1/3
f 300/1/3 294/1/3 299/1/3
f 307/1/3 302/1/3 301/1/3
f 308/1/3 302/1/3 307/1/3
f 309/1/3 304/1/3 303/1/3
f 310/1/3 304/1/3 309/1/3
f 311/1/3 306/1/3 305/1/3
f 312/1/3 306/1/3 311/1/3
f 315/2/3 314/2/3 313/2/3
f 317/2/3 315/2/3 313/2/3
f 317/2/3 316/2/3 315/2/3
f 318/2/3 316/2/3 317/2/3
f 319/2/3 316/2/3 318/2/3
f 320/2/3 316/2/3 319/2/3
f 321/2/3 316/2/3 320/2/3
f 322/2/3 316/2/3 321/2/3
f 323/1/3 319/1/3 318/1/3
f 324/1/3 319/1/3 323/1/3
f 325/1/3 321/1/3 320/1/3
f 326/1/3 321/1/3 325/1/3
f 333/2/3 328/2/3 327/2/3
f 334/2/3 328/2/3 333/2/3
f 335/2/3 330/2/3 329/2/3
f 336/2/3 330/2/3 335/2/3
f 337/2/3 332/2/3 331/2/3
f 338/2/3 332/2/3 337/2/3
f 339/1/4 340/1/4 345/1/4
f 345/1/4 340/1/4 346/1/4
f 341/1/4 342/1/4 347/1/4
f 347/1/4 342/1/4 348/1/4
f 343/1/4 344/1/4 349/1/4
f 349/1/4 344/1/4 350/1/4
f 351/2/4 352/2/4 353/2/4
f 353/2/4 352/2/4 354/2/4
f 354/2/4 352/2/4 355/2/4
f 355/2/4 352/2/4 356/2/4
f 356/2/4 352/2/4 357/2/4
f 357/2/4 352/2/4 358/2/4
f 351/2/4 353/2/4 359/2/4
f 354/2/4 355/2/4 360/2/4
f 360/2/4 355/2/4 361/2/4
f 356/2/4 357/2/4 362/2/4
f 362/2/4 357/2/4 363/2/4
f 358/2/4 352/2/4 364/2/4
f 362/2/4 363/2/4 365/2/4
f 363/2/4 364/2/4 365/2/4
f 360/2/4 361/2/4 365/2/4
f 351/2/4 359/2/4 365/2/4
f 361/2/4 362/2/4 365/2/4
f 359/2/4 360/2/4 365/2/4
f 364/2/4 352/2/4 366/2/4
f 365/2/4 364/2/4 366/2/4
f 367/2/4 368/2/4 369/2/4
f 369/2/4 368/2/4 370/2/4
f 370/2/4 368/2/4 371/2/4
f 371/2/4 368/2/4 372/2/4
f 372/2/4 368/2/4 373/2/4
f 373/2/4 368/2/4 374/2/4
f 367/2/4 369/2/4 375/2/4
f 370/2/4 371/2/4 376/2/4
f 376/2/4 371/2/4 377/2/4
f 372/2/4 373/2/4 378/2/4
f 378/2/4 373/2/4 379/2/4
f 374/2/4 368/2/4 380/2/4
f 378/2/4 379/2/4 381/2/4
f 379/2/4 380/2/4 381/2/4
f 376/2/4 377/2/4 381/2/4
f 367/2/4 375/2/4 381/2/4
f 377/2/4 378/2/4 381/2/4
f 375/2/4 376/2/4 381/2/4
f 380/2/4 368/2/4 382/2/4
f 381/2/4 380/2/4 382/2/4
f 383/1/4 384/1/4 389/1/4
f 389/1/4 384/1/4 390/1/4
f 385/1/4 386/1/4 391/1/4
f 391/1/4 386/1/4 392/1/4
f 387/1/4 388/1/4 393/1/4
f 393/1/4 388/1/4 394/1/4
f 395/1/4 396/1/4 401/1/4
f 401/1/4 396/1/4 402/1/4
f 397/1/4 398/1/4 403/1/4
f 403/1/4 398/1/4 404/1/4
f 399/1/4 400/1/4 405/1/4
f 405/1/4 400/1/4 406/1/4
f 407/2/4 408/2/4 409/2/4
f 409/2/4 408/2/4 410/2/4
f 411/2/4 412/2/4 417/2/4
f 413/2/4 414/2/4 418/2/4
f 418/2/4 414/2/4 419/2/4
f 415/2/4 416/2/4 420/2/4
f 418/2/4 419/2/4 421/2/4
f 419/2/4 420/2/4 421/2/4
f 411/2/4 417/2/4 421/2/4
f 417/2/4 418/2/4 421/2/4
f 420/2/4 416/2/4 422/2/4
f 421/2/4 420/2/4 422/2/4
f 423/2/4 424/2/4 425/2/4
f 425/2/4 424/2/4 426/2/4
f 426/2/4 424/2/4 427/2/4
f 427/2/4 424/2/4 428/2/4
f 423/2/4 425/2/4 429/2/4
f 426/2/4 427/2/4 430/2/4
f 430/2/4 427/2/4 431/2/4
f 428/2/4 424/2/4 432/2/4
f 430/2/4 431/2/4 433/2/4
f 431/2/4 432/2/4 433/2/4
f 423/2/4 429/2/4 433/2/4
f 429/2/4 430/2/4 433/2/4
f 432/2/4 424/2/4 434/2/4
f 433/2/4 432/2/4 434/2/4
f 435/2/4 436/2/4 437/2/4
f 437/2/4 436/2/4 438/2/4
f 439/2/4 440/2/4 441/2/4
f 439/2/4 441/2/4 443/2/4
f 441/2/4 442/2/4 443/2/4
f 443/2/4 442/2/4 444/2/4
f 444/2/4 442/2/4 445/2/4
f 445/2/4 442/2/4 446/2/4
f 446/2/4 442/2/4 447/2/4
f 447/2/4 442/2/4 448/2/4
f 444/1/4 445/1/4 449/1/4
f 449/1/4 445/1/4 450/1/4
f 446/1/4 447/1/4 451/1/4
f 451/1/4 447/1/4 452/1/4
f 453/2/4 454/2/4 455/2/4
f 455/2/4 454/2/4 456/2/4
f 457/2/4 458/2/4 459/2/4
f 459/2/4 458/2/4 460/2/4
f 465/2/5 462/2/5 461/2/5
f 466/2/5 462/2/5 465/2/5
f 467/2/5 464/2/5 463/2/5
f 468/2/5 464/2/5 467/2/5
f 477/2/5 470/2/5 469/2/5
f 478/2/5 470/2/5 477/2/5
f 479/2/5 472/2/5 471/2/5
f 480/2/5 472/2/5 479/2/5
f 481/2/5 474/2/5 473/2/5
f 482/2/5 474/2/5 481/2/5
f 483/2/5 476/2/5 475/2/5
f 484/2/5 476/2/5 483/2/5
f 487/2/5 486/2/5 485/2/5
f 488/2/5 486/2/5 487/2/5
f 491/2/5 490/2/5 489/2/5
f 492/2/5 490/2/5 491/2/5
f 495/1/5 494/1/5 493/1/5
f 496/1/5 494/1/5 495/1/5
f 501/1/5 498/1/5 497/1/5
f 502/1/5 498/1/5 501/1/5
f 503/1/5 500/1/5 499/1/5
f 504/1/5 500/1/5 503/1/5
f 509/1/5 506/1/5 505/1/5
f 510/1/5 506/1/5 509/1/5
f 511/1/5 508/1/5 507/1/5
f 512/1/5 508/1/5 511/1/5
f 518/1/5 514/1/5 513/1/5
f 518/1/5 515/1/5 514/1/5
f 519/1/5 515/1/5 518/1/5
f 520/1/5 517/1/5 516/1/5
f 521/1/5 517/1/5 520/1/5
f 524/2/5 523/2/5 522/2/5
f 525/2/5 523/2/5 524/2/5
f 528/1/5 527/1/5 526/1/5
f 529/1/5 527/1/5 528/1/5
f 534/1/5 531/1/5 530/1/5
f 535/1/5 531/1/5 534/1/5
f 536/1/5 533/1/5 532/1/5
f 537/1/5 533/1/5 536/1/5
f 542/1/5 539/1/5 538/1/5
f 543/1/5 539/1/5 542/1/5
f 544/1/5 541/1/5 540/1/5
f 545/1/5 541/1/5 544/1/5
f 551/1/5 547/1/5 546/1/5
f 551/1/5 548/1/5 547/1/5
f 552/1/5 548/1/5 551/1/5
f 553/1/5 550/1/5 549/1/5
f 554/1/5 550/1/5 553/1/5
f 557/1/5 556/1/5 555/1/5
f 558/1/5 556/1/5 557/1/5
f 563/1/5 560/1/5 559/1/5
f 564/1/5 560/1/5 563/1/5
f 565/1/5 562/1/5 561/1/5
f 566/1/5 562/1/5 565/1/5
f 571/1/5 568/1/5 567/1/5
f 572/1/5 568/1/5 571/1/5
f 573/1/5 570/1/5 569/1/5
f 574/1/5 570/1/5 573/1/5
f 575/1/6 576/1/6 577/1/6
f 577/1/6 576/1/6 578/1/6
f 579/1/6 580/1/6 583/1/6
f 583/1/6 580/1/6 584/1/6
f 581/1/6 582/1/6 585/1/6
f 585/1/6 582/1/6 586/1/6
f 587/1/6 588/1/6 591/1/6
f 591/1/6 588/1/6 592/1/6
f 589/1/6 590/1/6 593/1/6
f 593/1/6 590/1/6 594/1/6
f 595/2/6 596/2/6 602/2/6
f 602/2/6 596/2/6 603/2/6
f 597/1/6 598/1/6 604/1/6
f 598/1/6 599/1/6 604/1/6
f 604/1/6 599/1/6 605/1/6
f 600/1/6 601/1/6 606/1/6
f 606/1/6 601/1/6 607/1/6
f 608/1/6 609/1/6 610/1/6
f 610/1/6 609/1/6 611/1/6
f 612/1/6 613/1/6 616/1/6
f 616/1/6 613/1/6 617/1/6
f 614/1/6 615/1/6 618/1/6
f 618/1/6 615/1/6 619/1/6
f 620/1/6 621/1/6 624/1/6
f 624/1/6 621/1/6 625/1/6
f 622/1/6 623/1/6 626/1/6
f 626/1/6 623/1/6 627/1/6
f 628/1/6 629/1/6 633/1/6
f 629/1/6 630/1/6 633/1/6
f 633/1/6 630/1/6 634/1/6
f 631/1/6 632/1/6 635/1/6
f 635/1/6 632/1/6 636/1/6
f 637/2/6 638/2/6 639/2/6
f 639/2/6 638/2/6 640/2/6
f 641/2/6 642/2/6 643/2/6
f 643/2/6 642/2/6 644/2/6
f 645/1/6 646/1/6 647/1/6
f 647/1/6 646/1/6 648/1/6
f 649/1/6 650/1/6 653/1/6
f 653/1/6 650/1/6 654/1/6
f 651/1/6 652/1/6 655/1/6
f 655/1/6 652/1/6 656/1/6
f 657/1/6 658/1/6 661/1/6
f 661/1/6 658/1/6 662/1/6
f 659/1/6 660/1/6 663/1/6
f 663/1/6 660/1/6 664/1/6
f 665/2/6 666/2/6 669/2/6
f 669/2/6 666/2/6 670/2/6
f 667/2/6 668/2/6 671/2/6
f 671/2/6 668/2/6 672/2/6
f 673/2/6 674/2/6 681/2/6
f 681/2/6 674/2/6 682/2/6
f 675/2/6 676/2/6 683/2/6
f 683/2/6 676/2/6 684/2/6
f 677/2/6 678/2/6 685/2/6
f 685/2/6 678/2/6 686/2/6
f 679/2/6 680/2/6 687/2/6
f 687/2/6 680/2/6 688/2/6
