# MagicaVoxel @ Ephtracy

# group
o 

# material
mtllib Poste.mtl
usemtl palette

# normals
vn -1 0 0
vn 1 0 0
vn 0 0 1
vn 0 0 -1
vn 0 -1 0
vn 0 1 0

# texcoords
vt 0.880859 0.5
vt 0.884766 0.5
vt 0.943359 0.5
vt 0.974609 0.5

# verts
v -0.2 3.9 0.0999999
v -0.2 3.9 -0.1
v -0.2 4 1.4
v -0.2 4 1.3
v -0.2 4 1.2
v -0.2 4 0.2
v -0.2 4 0.0999999
v -0.2 4 -0.1
v -0.2 4 -0.2
v -0.2 4.1 1.4
v -0.2 4.1 1.3
v -0.2 4.1 1.2
v -0.2 4.2 1.4
v -0.2 4.2 1.3
v -0.2 4.2 1.2
v -0.2 4.2 0.2
v -0.2 4.2 0.0999999
v -0.2 4.2 -0.1
v -0.2 4.2 -0.2
v -0.2 4.3 0.0999999
v -0.2 4.3 -0.1
v -0.0999999 0 0.0999999
v -0.0999999 0 -0.1
v -0.0999999 3.6 1.4
v -0.0999999 3.6 1.3
v -0.0999999 3.7 1.4
v -0.0999999 3.7 1.3
v -0.0999999 3.8 1.4
v -0.0999999 3.8 1.3
v -0.0999999 3.9 1.3
v -0.0999999 3.9 1.2
v -0.0999999 3.9 0.2
v -0.0999999 3.9 0.0999999
v -0.0999999 3.9 -0.1
v -0.0999999 3.9 -0.2
v -0.0999999 4 1.6
v -0.0999999 4 1.4
v -0.0999999 4 1.3
v -0.0999999 4 1.2
v -0.0999999 4 0.2
v -0.0999999 4 0.0999999
v -0.0999999 4 -0.1
v -0.0999999 4 -0.2
v -0.0999999 4 -0.4
v -0.0999999 4.1 1.4
v -0.0999999 4.1 1.2
v -0.0999999 4.2 1.6
v -0.0999999 4.2 1.4
v -0.0999999 4.2 1.3
v -0.0999999 4.2 1.2
v -0.0999999 4.2 0.2
v -0.0999999 4.2 0.0999999
v -0.0999999 4.2 -0.1
v -0.0999999 4.2 -0.2
v -0.0999999 4.2 -0.4
v -0.0999999 4.3 1.4
v -0.0999999 4.3 1.3
v -0.0999999 4.3 1.2
v -0.0999999 4.3 0.2
v -0.0999999 4.3 0.0999999
v -0.0999999 4.3 -0.1
v -0.0999999 4.3 -0.2
v -0.0999999 4.6 0.0999999
v -0.0999999 4.6 -0.1
v 5.96046e-008 3.6 1.4
v 5.96046e-008 3.6 1.3
v 5.96046e-008 3.7 1.4
v 5.96046e-008 3.7 1.3
v 5.96046e-008 3.8 1.4
v 5.96046e-008 3.8 1.3
v 5.96046e-008 3.9 1.4
v 5.96046e-008 3.9 1.3
v 0.1 0 0.0999999
v 0.1 0 -0.1
v 0.1 3.9 1.4
v 0.1 3.9 1.3
v 0.1 3.9 1.2
v 0.1 3.9 0.2
v 0.1 3.9 0.0999999
v 0.1 3.9 -0.1
v 0.1 3.9 -0.2
v 0.1 4 1.6
v 0.1 4 1.4
v 0.1 4 1.3
v 0.1 4 1.2
v 0.1 4 0.2
v 0.1 4 0.0999999
v 0.1 4 -0.1
v 0.1 4 -0.2
v 0.1 4 -0.4
v 0.1 4.1 1.4
v 0.1 4.1 1.2
v 0.1 4.2 1.6
v 0.1 4.2 1.4
v 0.1 4.2 1.3
v 0.1 4.2 1.2
v 0.1 4.2 0.2
v 0.1 4.2 0.0999999
v 0.1 4.2 -0.1
v 0.1 4.2 -0.2
v 0.1 4.2 -0.4
v 0.1 4.3 1.4
v 0.1 4.3 1.3
v 0.1 4.3 1.2
v 0.1 4.3 0.2
v 0.1 4.3 0.0999999
v 0.1 4.3 -0.1
v 0.1 4.3 -0.2
v 0.1 4.6 0.0999999
v 0.1 4.6 -0.1
v 0.2 3.9 0.0999999
v 0.2 3.9 -0.1
v 0.2 4 1.4
v 0.2 4 1.3
v 0.2 4 1.2
v 0.2 4 0.2
v 0.2 4 0.0999999
v 0.2 4 -0.1
v 0.2 4 -0.2
v 0.2 4.1 1.4
v 0.2 4.1 1.3
v 0.2 4.1 1.2
v 0.2 4.2 1.4
v 0.2 4.2 1.3
v 0.2 4.2 1.2
v 0.2 4.2 0.2
v 0.2 4.2 0.0999999
v 0.2 4.2 -0.1
v 0.2 4.2 -0.2
v 0.2 4.3 0.0999999
v 0.2 4.3 -0.1
v -0.0999999 4 1.6
v -0.0999999 4.2 1.6
v 0.1 4 1.6
v 0.1 4.2 1.6
v -0.2 4 1.4
v -0.2 4.1 1.4
v -0.2 4.2 1.4
v -0.0999999 3.6 1.4
v -0.0999999 3.7 1.4
v -0.0999999 3.8 1.4
v -0.0999999 4 1.4
v -0.0999999 4.1 1.4
v -0.0999999 4.2 1.4
v -0.0999999 4.3 1.4
v 5.96046e-008 3.6 1.4
v 5.96046e-008 3.7 1.4
v 5.96046e-008 3.8 1.4
v 5.96046e-008 3.9 1.4
v 5.96046e-008 4 1.4
v 5.96046e-008 4.2 1.4
v 5.96046e-008 4.3 1.4
v 0.1 3.9 1.4
v 0.1 4 1.4
v 0.1 4.1 1.4
v 0.1 4.2 1.4
v 0.1 4.3 1.4
v 0.2 4 1.4
v 0.2 4.1 1.4
v 0.2 4.2 1.4
v -0.2 4 0.2
v -0.2 4.2 0.2
v -0.0999999 3.9 0.2
v -0.0999999 4 0.2
v -0.0999999 4.2 0.2
v -0.0999999 4.3 0.2
v 0.1 3.9 0.2
v 0.1 4 0.2
v 0.1 4.2 0.2
v 0.1 4.3 0.2
v 0.2 4 0.2
v 0.2 4.2 0.2
v -0.2 3.9 0.0999999
v -0.2 4 0.0999999
v -0.2 4.2 0.0999999
v -0.2 4.3 0.0999999
v -0.0999999 0 0.0999999
v -0.0999999 3.9 0.0999999
v -0.0999999 4 0.0999999
v -0.0999999 4.2 0.0999999
v -0.0999999 4.3 0.0999999
v -0.0999999 4.6 0.0999999
v 0.1 0 0.0999999
v 0.1 3.9 0.0999999
v 0.1 4 0.0999999
v 0.1 4.2 0.0999999
v 0.1 4.3 0.0999999
v 0.1 4.6 0.0999999
v 0.2 3.9 0.0999999
v 0.2 4 0.0999999
v 0.2 4.2 0.0999999
v 0.2 4.3 0.0999999
v -0.0999999 3.6 1.3
v -0.0999999 3.7 1.3
v -0.0999999 3.8 1.3
v -0.0999999 3.9 1.3
v 5.96046e-008 3.6 1.3
v 5.96046e-008 3.7 1.3
v 5.96046e-008 3.8 1.3
v 5.96046e-008 3.9 1.3
v -0.2 4 1.2
v -0.2 4.1 1.2
v -0.2 4.2 1.2
v -0.0999999 3.9 1.2
v -0.0999999 4 1.2
v -0.0999999 4.1 1.2
v -0.0999999 4.2 1.2
v -0.0999999 4.3 1.2
v 5.96046e-008 3.9 1.2
v 5.96046e-008 4 1.2
v 5.96046e-008 4.2 1.2
v 5.96046e-008 4.3 1.2
v 0.1 3.9 1.2
v 0.1 4 1.2
v 0.1 4.1 1.2
v 0.1 4.2 1.2
v 0.1 4.3 1.2
v 0.2 4 1.2
v 0.2 4.1 1.2
v 0.2 4.2 1.2
v -0.2 3.9 -0.1
v -0.2 4 -0.1
v -0.2 4.2 -0.1
v -0.2 4.3 -0.1
v -0.0999999 0 -0.1
v -0.0999999 3.9 -0.1
v -0.0999999 4 -0.1
v -0.0999999 4.2 -0.1
v -0.0999999 4.3 -0.1
v -0.0999999 4.6 -0.1
v 0.1 0 -0.1
v 0.1 3.9 -0.1
v 0.1 4 -0.1
v 0.1 4.2 -0.1
v 0.1 4.3 -0.1
v 0.1 4.6 -0.1
v 0.2 3.9 -0.1
v 0.2 4 -0.1
v 0.2 4.2 -0.1
v 0.2 4.3 -0.1
v -0.2 4 -0.2
v -0.2 4.2 -0.2
v -0.0999999 3.9 -0.2
v -0.0999999 4 -0.2
v -0.0999999 4.2 -0.2
v -0.0999999 4.3 -0.2
v 0.1 3.9 -0.2
v 0.1 4 -0.2
v 0.1 4.2 -0.2
v 0.1 4.3 -0.2
v 0.2 4 -0.2
v 0.2 4.2 -0.2
v -0.0999999 4 -0.4
v -0.0999999 4.2 -0.4
v 0.1 4 -0.4
v 0.1 4.2 -0.4
v -0.0999999 0 0.0999999
v 0.1 0 0.0999999
v -0.0999999 0 -0.1
v 0.1 0 -0.1
v -0.0999999 3.6 1.4
v 5.96046e-008 3.6 1.4
v -0.0999999 3.6 1.3
v 5.96046e-008 3.6 1.3
v 5.96046e-008 3.9 1.4
v 0.1 3.9 1.4
v -0.0999999 3.9 1.3
v 5.96046e-008 3.9 1.3
v 0.1 3.9 1.3
v -0.0999999 3.9 1.2
v 5.96046e-008 3.9 1.2
v 0.1 3.9 1.2
v -0.0999999 3.9 0.2
v 0.1 3.9 0.2
v -0.2 3.9 0.0999999
v -0.0999999 3.9 0.0999999
v 0.1 3.9 0.0999999
v 0.2 3.9 0.0999999
v -0.2 3.9 -0.1
v -0.0999999 3.9 -0.1
v 0.1 3.9 -0.1
v 0.2 3.9 -0.1
v -0.0999999 3.9 -0.2
v 0.1 3.9 -0.2
v -0.0999999 4 1.6
v 0.1 4 1.6
v -0.2 4 1.4
v -0.0999999 4 1.4
v 5.96046e-008 4 1.4
v 0.1 4 1.4
v 0.2 4 1.4
v -0.2 4 1.3
v -0.0999999 4 1.3
v 0.1 4 1.3
v 0.2 4 1.3
v -0.2 4 1.2
v -0.0999999 4 1.2
v 5.96046e-008 4 1.2
v 0.1 4 1.2
v 0.2 4 1.2
v -0.2 4 0.2
v -0.0999999 4 0.2
v 0.1 4 0.2
v 0.2 4 0.2
v -0.2 4 0.0999999
v -0.0999999 4 0.0999999
v 0.1 4 0.0999999
v 0.2 4 0.0999999
v -0.2 4 -0.1
v -0.0999999 4 -0.1
v 0.1 4 -0.1
v 0.2 4 -0.1
v -0.2 4 -0.2
v -0.0999999 4 -0.2
v 0.1 4 -0.2
v 0.2 4 -0.2
v -0.0999999 4 -0.4
v 0.1 4 -0.4
v -0.0999999 4.2 1.6
v 0.1 4.2 1.6
v -0.2 4.2 1.4
v -0.0999999 4.2 1.4
v 5.96046e-008 4.2 1.4
v 0.1 4.2 1.4
v 0.2 4.2 1.4
v -0.2 4.2 1.3
v -0.0999999 4.2 1.3
v 0.1 4.2 1.3
v 0.2 4.2 1.3
v -0.2 4.2 1.2
v -0.0999999 4.2 1.2
v 5.96046e-008 4.2 1.2
v 0.1 4.2 1.2
v 0.2 4.2 1.2
v -0.2 4.2 0.2
v -0.0999999 4.2 0.2
v 0.1 4.2 0.2
v 0.2 4.2 0.2
v -0.2 4.2 0.0999999
v -0.0999999 4.2 0.0999999
v 0.1 4.2 0.0999999
v 0.2 4.2 0.0999999
v -0.2 4.2 -0.1
v -0.0999999 4.2 -0.1
v 0.1 4.2 -0.1
v 0.2 4.2 -0.1
v -0.2 4.2 -0.2
v -0.0999999 4.2 -0.2
v 0.1 4.2 -0.2
v 0.2 4.2 -0.2
v -0.0999999 4.2 -0.4
v 0.1 4.2 -0.4
v -0.0999999 4.3 1.4
v 5.96046e-008 4.3 1.4
v 0.1 4.3 1.4
v -0.0999999 4.3 1.3
v 5.96046e-008 4.3 1.3
v 0.1 4.3 1.3
v -0.0999999 4.3 1.2
v 5.96046e-008 4.3 1.2
v 0.1 4.3 1.2
v -0.0999999 4.3 0.2
v 0.1 4.3 0.2
v -0.2 4.3 0.0999999
v -0.0999999 4.3 0.0999999
v 0.1 4.3 0.0999999
v 0.2 4.3 0.0999999
v -0.2 4.3 -0.1
v -0.0999999 4.3 -0.1
v 0.1 4.3 -0.1
v 0.2 4.3 -0.1
v -0.0999999 4.3 -0.2
v 0.1 4.3 -0.2
v -0.0999999 4.6 0.0999999
v 0.1 4.6 0.0999999
v -0.0999999 4.6 -0.1
v 0.1 4.6 -0.1

# faces
f 7/3/1 2/3/1 1/3/1
f 8/3/1 2/3/1 7/3/1
f 10/1/1 4/1/1 3/1/1
f 11/2/1 5/2/1 4/2/1
f 11/1/1 4/1/1 10/1/1
f 12/2/1 5/2/1 11/2/1
f 13/2/1 11/2/1 10/2/1
f 14/1/1 12/1/1 11/1/1
f 14/2/1 11/2/1 13/2/1
f 15/1/1 12/1/1 14/1/1
f 16/3/1 9/3/1 8/3/1
f 16/3/1 7/3/1 6/3/1
f 16/3/1 8/3/1 7/3/1
f 17/3/1 9/3/1 16/3/1
f 18/3/1 9/3/1 17/3/1
f 19/3/1 9/3/1 18/3/1
f 20/3/1 18/3/1 17/3/1
f 21/3/1 18/3/1 20/3/1
f 26/2/1 25/2/1 24/2/1
f 27/2/1 25/2/1 26/2/1
f 28/1/1 27/1/1 26/1/1
f 29/1/1 27/1/1 28/1/1
f 30/2/1 29/2/1 28/2/1
f 33/4/1 23/4/1 22/4/1
f 34/4/1 23/4/1 33/4/1
f 37/2/1 30/2/1 28/2/1
f 38/1/1 31/1/1 30/1/1
f 38/2/1 30/2/1 37/2/1
f 39/1/1 31/1/1 38/1/1
f 40/3/1 33/3/1 32/3/1
f 41/3/1 33/3/1 40/3/1
f 42/3/1 35/3/1 34/3/1
f 43/3/1 35/3/1 42/3/1
f 45/4/1 37/4/1 36/4/1
f 46/4/1 40/4/1 39/4/1
f 47/4/1 45/4/1 36/4/1
f 48/4/1 45/4/1 47/4/1
f 50/4/1 40/4/1 46/4/1
f 51/4/1 40/4/1 50/4/1
f 54/4/1 44/4/1 43/4/1
f 55/4/1 44/4/1 54/4/1
f 56/1/1 49/1/1 48/1/1
f 57/2/1 50/2/1 49/2/1
f 57/1/1 49/1/1 56/1/1
f 58/2/1 50/2/1 57/2/1
f 59/3/1 52/3/1 51/3/1
f 60/3/1 52/3/1 59/3/1
f 61/3/1 54/3/1 53/3/1
f 62/3/1 54/3/1 61/3/1
f 63/4/1 61/4/1 60/4/1
f 64/4/1 61/4/1 63/4/1
f 65/2/2 66/2/2 67/2/2
f 67/2/2 66/2/2 68/2/2
f 67/1/2 68/1/2 69/1/2
f 69/1/2 68/1/2 70/1/2
f 69/2/2 70/2/2 71/2/2
f 71/2/2 70/2/2 72/2/2
f 73/4/2 74/4/2 79/4/2
f 79/4/2 74/4/2 80/4/2
f 75/1/2 76/1/2 83/1/2
f 76/2/2 77/2/2 84/2/2
f 83/1/2 76/1/2 84/1/2
f 84/2/2 77/2/2 85/2/2
f 78/3/2 79/3/2 86/3/2
f 86/3/2 79/3/2 87/3/2
f 80/3/2 81/3/2 88/3/2
f 88/3/2 81/3/2 89/3/2
f 82/4/2 83/4/2 91/4/2
f 85/4/2 86/4/2 92/4/2
f 82/4/2 91/4/2 93/4/2
f 93/4/2 91/4/2 94/4/2
f 92/4/2 86/4/2 96/4/2
f 96/4/2 86/4/2 97/4/2
f 89/4/2 90/4/2 100/4/2
f 100/4/2 90/4/2 101/4/2
f 94/2/2 95/2/2 102/2/2
f 95/1/2 96/1/2 103/1/2
f 102/2/2 95/2/2 103/2/2
f 103/1/2 96/1/2 104/1/2
f 97/3/2 98/3/2 105/3/2
f 105/3/2 98/3/2 106/3/2
f 99/3/2 100/3/2 107/3/2
f 107/3/2 100/3/2 108/3/2
f 106/4/2 107/4/2 109/4/2
f 109/4/2 107/4/2 110/4/2
f 111/3/2 112/3/2 117/3/2
f 117/3/2 112/3/2 118/3/2
f 113/2/2 114/2/2 120/2/2
f 114/1/2 115/1/2 121/1/2
f 120/2/2 114/2/2 121/2/2
f 121/1/2 115/1/2 122/1/2
f 120/1/2 121/1/2 123/1/2
f 121/2/2 122/2/2 124/2/2
f 123/1/2 121/1/2 124/1/2
f 124/2/2 122/2/2 125/2/2
f 118/3/2 119/3/2 126/3/2
f 116/3/2 117/3/2 126/3/2
f 117/3/2 118/3/2 126/3/2
f 126/3/2 119/3/2 127/3/2
f 127/3/2 119/3/2 128/3/2
f 128/3/2 119/3/2 129/3/2
f 127/3/2 128/3/2 130/3/2
f 130/3/2 128/3/2 131/3/2
f 134/4/3 133/4/3 132/4/3
f 135/4/3 133/4/3 134/4/3
f 142/1/3 137/1/3 136/1/3
f 143/2/3 138/2/3 137/2/3
f 143/1/3 137/1/3 142/1/3
f 144/2/3 138/2/3 143/2/3
f 146/2/3 140/2/3 139/2/3
f 147/1/3 141/1/3 140/1/3
f 147/2/3 140/2/3 146/2/3
f 148/2/3 142/2/3 141/2/3
f 148/1/3 141/1/3 147/1/3
f 149/2/3 142/2/3 148/2/3
f 150/2/3 142/2/3 149/2/3
f 151/1/3 145/1/3 144/1/3
f 152/1/3 145/1/3 151/1/3
f 153/1/3 150/1/3 149/1/3
f 154/1/3 150/1/3 153/1/3
f 156/2/3 152/2/3 151/2/3
f 157/2/3 152/2/3 156/2/3
f 158/2/3 155/2/3 154/2/3
f 159/1/3 156/1/3 155/1/3
f 159/2/3 155/2/3 158/2/3
f 160/1/3 156/1/3 159/1/3
f 164/3/3 162/3/3 161/3/3
f 165/3/3 162/3/3 164/3/3
f 167/3/3 164/3/3 163/3/3
f 168/3/3 164/3/3 167/3/3
f 169/3/3 166/3/3 165/3/3
f 170/3/3 166/3/3 169/3/3
f 171/3/3 169/3/3 168/3/3
f 172/3/3 169/3/3 171/3/3
f 178/3/3 174/3/3 173/3/3
f 179/3/3 174/3/3 178/3/3
f 180/3/3 176/3/3 175/3/3
f 181/3/3 176/3/3 180/3/3
f 183/4/3 178/4/3 177/4/3
f 184/4/3 178/4/3 183/4/3
f 187/4/3 182/4/3 181/4/3
f 188/4/3 182/4/3 187/4/3
f 189/3/3 185/3/3 184/3/3
f 190/3/3 185/3/3 189/3/3
f 191/3/3 187/3/3 186/3/3
f 192/3/3 187/3/3 191/3/3
f 193/2/4 194/2/4 197/2/4
f 194/1/4 195/1/4 198/1/4
f 197/2/4 194/2/4 198/2/4
f 195/2/4 196/2/4 199/2/4
f 198/1/4 195/1/4 199/1/4
f 199/2/4 196/2/4 200/2/4
f 201/2/4 202/2/4 205/2/4
f 202/1/4 203/1/4 206/1/4
f 205/2/4 202/2/4 206/2/4
f 206/1/4 203/1/4 207/1/4
f 204/1/4 205/1/4 209/1/4
f 209/1/4 205/1/4 210/1/4
f 207/2/4 208/2/4 211/2/4
f 211/2/4 208/2/4 212/2/4
f 209/2/4 210/2/4 213/2/4
f 213/2/4 210/2/4 214/2/4
f 211/1/4 212/1/4 216/1/4
f 216/1/4 212/1/4 217/1/4
f 214/1/4 215/1/4 218/1/4
f 215/2/4 216/2/4 219/2/4
f 218/1/4 215/1/4 219/1/4
f 219/2/4 216/2/4 220/2/4
f 221/3/4 222/3/4 226/3/4
f 226/3/4 222/3/4 227/3/4
f 223/3/4 224/3/4 228/3/4
f 228/3/4 224/3/4 229/3/4
f 225/4/4 226/4/4 231/4/4
f 231/4/4 226/4/4 232/4/4
f 229/4/4 230/4/4 235/4/4
f 235/4/4 230/4/4 236/4/4
f 232/3/4 233/3/4 237/3/4
f 237/3/4 233/3/4 238/3/4
f 234/3/4 235/3/4 239/3/4
f 239/3/4 235/3/4 240/3/4
f 241/3/4 242/3/4 244/3/4
f 244/3/4 242/3/4 245/3/4
f 243/3/4 244/3/4 247/3/4
f 247/3/4 244/3/4 248/3/4
f 245/3/4 246/3/4 249/3/4
f 249/3/4 246/3/4 250/3/4
f 248/3/4 249/3/4 251/3/4
f 251/3/4 249/3/4 252/3/4
f 253/4/4 254/4/4 255/4/4
f 255/4/4 254/4/4 256/4/4
f 259/4/5 258/4/5 257/4/5
f 260/4/5 258/4/5 259/4/5
f 263/2/5 262/2/5 261/2/5
f 264/2/5 262/2/5 263/2/5
f 268/1/5 266/1/5 265/1/5
f 269/1/5 266/1/5 268/1/5
f 270/1/5 268/1/5 267/1/5
f 271/2/5 269/2/5 268/2/5
f 271/1/5 268/1/5 270/1/5
f 272/2/5 269/2/5 271/2/5
f 276/3/5 274/3/5 273/3/5
f 277/3/5 274/3/5 276/3/5
f 279/3/5 276/3/5 275/3/5
f 280/3/5 276/3/5 279/3/5
f 281/3/5 278/3/5 277/3/5
f 282/3/5 278/3/5 281/3/5
f 283/3/5 281/3/5 280/3/5
f 284/3/5 281/3/5 283/3/5
f 288/4/5 286/4/5 285/4/5
f 289/4/5 286/4/5 288/4/5
f 290/4/5 286/4/5 289/4/5
f 292/1/5 288/1/5 287/1/5
f 293/1/5 288/1/5 292/1/5
f 294/2/5 291/2/5 290/2/5
f 295/2/5 291/2/5 294/2/5
f 296/2/5 293/2/5 292/2/5
f 297/2/5 293/2/5 296/2/5
f 299/1/5 295/1/5 294/1/5
f 300/1/5 295/1/5 299/1/5
f 302/4/5 298/4/5 297/4/5
f 302/4/5 299/4/5 298/4/5
f 303/4/5 299/4/5 302/4/5
f 305/3/5 302/3/5 301/3/5
f 306/3/5 302/3/5 305/3/5
f 307/3/5 304/3/5 303/3/5
f 308/3/5 304/3/5 307/3/5
f 313/3/5 310/3/5 309/3/5
f 314/3/5 310/3/5 313/3/5
f 315/3/5 312/3/5 311/3/5
f 316/3/5 312/3/5 315/3/5
f 317/4/5 315/4/5 314/4/5
f 318/4/5 315/4/5 317/4/5
f 319/4/6 320/4/6 322/4/6
f 322/4/6 320/4/6 323/4/6
f 323/4/6 320/4/6 324/4/6
f 321/2/6 322/2/6 326/2/6
f 326/2/6 322/2/6 327/2/6
f 324/1/6 325/1/6 328/1/6
f 328/1/6 325/1/6 329/1/6
f 326/1/6 327/1/6 330/1/6
f 330/1/6 327/1/6 331/1/6
f 328/2/6 329/2/6 333/2/6
f 333/2/6 329/2/6 334/2/6
f 331/4/6 332/4/6 336/4/6
f 332/4/6 333/4/6 336/4/6
f 336/4/6 333/4/6 337/4/6
f 335/3/6 336/3/6 339/3/6
f 339/3/6 336/3/6 340/3/6
f 337/3/6 338/3/6 341/3/6
f 341/3/6 338/3/6 342/3/6
f 343/3/6 344/3/6 347/3/6
f 347/3/6 344/3/6 348/3/6
f 345/3/6 346/3/6 349/3/6
f 349/3/6 346/3/6 350/3/6
f 348/4/6 349/4/6 351/4/6
f 351/4/6 349/4/6 352/4/6
f 353/1/6 354/1/6 356/1/6
f 354/2/6 355/2/6 357/2/6
f 356/1/6 354/1/6 357/1/6
f 357/2/6 355/2/6 358/2/6
f 356/2/6 357/2/6 359/2/6
f 357/1/6 358/1/6 360/1/6
f 359/2/6 357/2/6 360/2/6
f 360/1/6 358/1/6 361/1/6
f 362/3/6 363/3/6 365/3/6
f 365/3/6 363/3/6 366/3/6
f 364/3/6 365/3/6 368/3/6
f 368/3/6 365/3/6 369/3/6
f 366/3/6 367/3/6 370/3/6
f 370/3/6 367/3/6 371/3/6
f 369/3/6 370/3/6 372/3/6
f 372/3/6 370/3/6 373/3/6
f 374/4/6 375/4/6 376/4/6
f 376/4/6 375/4/6 377/4/6
