# MagicaVoxel @ Ephtracy

# group
o 

# material
mtllib Saco 01.mtl
usemtl palette

# normals
vn -1 0 0
vn 1 0 0
vn 0 0 1
vn 0 0 -1
vn 0 -1 0
vn 0 1 0

# texcoords
vt 0.857422 0.5
vt 0.861328 0.5

# verts
v -0.1 0.1 0.6
v -0.1 0.1 0.5
v -0.1 0.1 0.4
v -0.1 0.1 -0.4
v -0.1 0.1 -0.5
v -0.1 0.1 -0.6
v -0.1 0.2 0.6
v -0.1 0.2 0.5
v -0.1 0.2 0.4
v -0.1 0.2 0.3
v -0.1 0.2 0.2
v -0.1 0.2 -0.4
v -0.1 0.2 -0.5
v -0.1 0.2 -0.6
v -0.1 0.3 0.4
v -0.1 0.3 0.3
v -0.1 0.3 0.2
v -0.1 0.3 -0.2
v -0.1 0.3 -0.3
v -0.1 0.4 0.3
v -0.1 0.4 0.2
v -0.1 0.4 -0.1
v -0.1 0.4 -0.2
v -0.1 0.4 -0.3
v -0.1 0.5 0.4
v -0.1 0.5 0.2
v -0.1 0.5 -0.3
v -0.1 0.5 -0.4
v -0.1 0.6 -0.1
v -0.1 0.6 -0.2
v -0.1 0.7 0.2
v -0.1 0.7 0.1
v -0.1 0.8 0.2
v -0.1 0.8 0.1
v -0.1 0.8 -0.3
v -0.1 0.8 -0.4
v -0.1 0.9 0.4
v -0.1 0.9 0.3
v -0.1 0.9 -0.2
v -0.1 0.9 -0.3
v -0.1 1 0.4
v -0.1 1 0.3
v -0.1 1 0.2
v -0.1 1 0.1
v -0.1 1.1 0.3
v -0.1 1.1 0.2
v -0.1 1.1 0.1
v -0.1 1.1 -0.2
v -0.1 1.1 -0.3
v -0.1 1.2 0.3
v -0.1 1.2 0.2
v -0.1 1.3 5.96046e-008
v -0.1 1.3 -0.2
v -0.1 1.4 5.96046e-008
v -0.1 1.4 -0.2
v -0.1 1.4 -0.3
v -0.1 1.4 -0.4
v -0.1 1.5 0.3
v -0.1 1.5 0.2
v -0.1 1.5 -0.3
v -0.1 1.5 -0.4
v -0.1 1.6 0.6
v -0.1 1.6 0.4
v -0.1 1.6 0.3
v -0.1 1.6 0.2
v -0.1 1.6 -0.4
v -0.1 1.6 -0.5
v -0.1 1.6 -0.6
v -0.1 1.7 0.6
v -0.1 1.7 0.4
v -0.1 1.7 -0.4
v -0.1 1.7 -0.5
v -0.1 1.7 -0.6
v 0 0 0.5
v 0 0 0.4
v 0 0 -0.4
v 0 0 -0.5
v 0 0.1 0.5
v 0 0.1 0.4
v 0 0.1 0.3
v 0 0.1 -0.1
v 0 0.1 -0.2
v 0 0.1 -0.4
v 0 0.1 -0.5
v 0 0.2 0.5
v 0 0.2 0.4
v 0 0.2 0.3
v 0 0.2 0.2
v 0 0.2 -0.1
v 0 0.2 -0.2
v 0 0.2 -0.4
v 0 0.2 -0.5
v 0 0.3 0.4
v 0 0.5 0.4
v 0 0.5 -0.4
v 0 0.5 -0.5
v 0 0.6 -0.4
v 0 0.6 -0.5
v 0 0.8 -0.4
v 0 0.9 0.4
v 0 1 0.4
v 0 1.1 0.5
v 0 1.1 0.4
v 0 1.2 0.5
v 0 1.2 0.4
v 0 1.4 -0.4
v 0 1.4 -0.5
v 0 1.5 -0.4
v 0 1.6 0.5
v 0 1.6 0.4
v 0 1.6 0.3
v 0 1.6 0.2
v 0 1.6 5.96046e-008
v 0 1.6 -0.2
v 0 1.6 -0.4
v 0 1.6 -0.5
v 0 1.7 0.5
v 0 1.7 0.4
v 0 1.7 5.96046e-008
v 0 1.7 -0.2
v 0 1.7 -0.4
v 0 1.7 -0.5
v 0 1.8 0.5
v 0 1.8 0.4
v 0 1.8 -0.4
v 0 1.8 -0.5
v 0.1 0 0.5
v 0.1 0 0.4
v 0.1 0 -0.4
v 0.1 0 -0.5
v 0.1 0.1 0.5
v 0.1 0.1 0.4
v 0.1 0.1 0.3
v 0.1 0.1 -0.1
v 0.1 0.1 -0.2
v 0.1 0.1 -0.4
v 0.1 0.1 -0.5
v 0.1 0.2 0.5
v 0.1 0.2 0.4
v 0.1 0.2 0.3
v 0.1 0.2 -0.1
v 0.1 0.2 -0.2
v 0.1 0.2 -0.4
v 0.1 0.2 -0.5
v 0.1 0.5 -0.4
v 0.1 0.5 -0.5
v 0.1 0.6 -0.4
v 0.1 0.6 -0.5
v 0.1 1.1 0.5
v 0.1 1.1 0.4
v 0.1 1.2 0.5
v 0.1 1.2 0.4
v 0.1 1.3 0.4
v 0.1 1.4 -0.4
v 0.1 1.4 -0.5
v 0.1 1.6 0.5
v 0.1 1.6 0.4
v 0.1 1.6 5.96046e-008
v 0.1 1.6 -0.2
v 0.1 1.6 -0.4
v 0.1 1.6 -0.5
v 0.1 1.7 0.5
v 0.1 1.7 0.4
v 0.1 1.7 5.96046e-008
v 0.1 1.7 -0.2
v 0.1 1.7 -0.4
v 0.1 1.7 -0.5
v 0.1 1.8 0.5
v 0.1 1.8 0.4
v 0.1 1.8 -0.4
v 0.1 1.8 -0.5
v 0.2 0.1 0.6
v 0.2 0.1 0.5
v 0.2 0.1 0.4
v 0.2 0.1 -0.4
v 0.2 0.1 -0.5
v 0.2 0.1 -0.6
v 0.2 0.2 0.6
v 0.2 0.2 0.5
v 0.2 0.2 0.4
v 0.2 0.2 -0.4
v 0.2 0.2 -0.5
v 0.2 0.2 -0.6
v 0.2 0.3 0.3
v 0.2 0.3 0.1
v 0.2 0.3 -0.2
v 0.2 0.3 -0.3
v 0.2 0.4 0.3
v 0.2 0.4 0.1
v 0.2 0.4 5.96046e-008
v 0.2 0.4 -0.2
v 0.2 0.4 -0.3
v 0.2 0.5 0.1
v 0.2 0.5 5.96046e-008
v 0.2 0.6 5.96046e-008
v 0.2 0.6 -0.1
v 0.2 0.8 0.3
v 0.2 0.8 0.2
v 0.2 0.8 5.96046e-008
v 0.2 0.8 -0.1
v 0.2 0.8 -0.2
v 0.2 0.8 -0.3
v 0.2 0.9 0.3
v 0.2 0.9 0.2
v 0.2 0.9 0.1
v 0.2 1 0.2
v 0.2 1 0.1
v 0.2 1 -0.1
v 0.2 1 -0.2
v 0.2 1 -0.3
v 0.2 1.1 0.2
v 0.2 1.1 0.1
v 0.2 1.1 -0.1
v 0.2 1.1 -0.2
v 0.2 1.2 0.4
v 0.2 1.2 0.3
v 0.2 1.2 -0.1
v 0.2 1.2 -0.3
v 0.2 1.3 0.4
v 0.2 1.3 0.3
v 0.2 1.3 0.2
v 0.2 1.3 0.1
v 0.2 1.3 -0.1
v 0.2 1.3 -0.3
v 0.2 1.4 5.96046e-008
v 0.2 1.4 -0.1
v 0.2 1.5 5.96046e-008
v 0.2 1.5 -0.1
v 0.2 1.6 0.6
v 0.2 1.6 0.5
v 0.2 1.6 0.4
v 0.2 1.6 -0.4
v 0.2 1.6 -0.5
v 0.2 1.6 -0.6
v 0.2 1.7 0.6
v 0.2 1.7 0.5
v 0.2 1.7 0.4
v 0.2 1.7 -0.4
v 0.2 1.7 -0.5
v 0.2 1.7 -0.6
v -0.1 0.1 0.6
v -0.1 0.2 0.6
v -0.1 1.6 0.6
v -0.1 1.7 0.6
v 0 1.6 0.6
v 0 1.7 0.6
v 0.1 0.1 0.6
v 0.1 0.2 0.6
v 0.2 0.1 0.6
v 0.2 0.2 0.6
v 0.2 1.6 0.6
v 0.2 1.7 0.6
v 0 0 0.5
v 0 0.1 0.5
v 0 0.2 0.5
v 0 1.1 0.5
v 0 1.2 0.5
v 0 1.6 0.5
v 0 1.7 0.5
v 0 1.8 0.5
v 0.1 0 0.5
v 0.1 0.1 0.5
v 0.1 0.2 0.5
v 0.1 1.1 0.5
v 0.1 1.2 0.5
v 0.1 1.6 0.5
v 0.1 1.7 0.5
v 0.1 1.8 0.5
v -0.1 0.2 0.4
v -0.1 0.3 0.4
v -0.1 0.5 0.4
v -0.1 0.9 0.4
v -0.1 1 0.4
v -0.1 1.6 0.4
v 0 0.2 0.4
v 0 0.3 0.4
v 0 0.5 0.4
v 0 0.9 0.4
v 0 1 0.4
v 0 1.1 0.4
v 0 1.2 0.4
v 0 1.6 0.4
v 0.1 0.2 0.4
v 0.1 1.1 0.4
v 0.1 1.2 0.4
v 0.1 1.3 0.4
v 0.1 1.6 0.4
v 0.2 0.2 0.4
v 0.2 1.2 0.4
v 0.2 1.3 0.4
v 0.2 1.6 0.4
v -0.1 0.1 -0.4
v -0.1 0.2 -0.4
v -0.1 1.6 -0.4
v -0.1 1.7 -0.4
v 0 0 -0.4
v 0 0.1 -0.4
v 0 0.2 -0.4
v 0 1.6 -0.4
v 0 1.7 -0.4
v 0 1.8 -0.4
v 0.1 0 -0.4
v 0.1 0.1 -0.4
v 0.1 0.2 -0.4
v 0.1 1.6 -0.4
v 0.1 1.7 -0.4
v 0.1 1.8 -0.4
v 0.2 0.1 -0.4
v 0.2 0.2 -0.4
v 0.2 1.6 -0.4
v 0.2 1.7 -0.4
v -0.1 0.1 0.4
v -0.1 0.2 0.4
v -0.1 1.6 0.4
v -0.1 1.7 0.4
v 0 0 0.4
v 0 0.1 0.4
v 0 0.2 0.4
v 0 1.6 0.4
v 0 1.7 0.4
v 0 1.8 0.4
v 0.1 0 0.4
v 0.1 0.1 0.4
v 0.1 0.2 0.4
v 0.1 1.6 0.4
v 0.1 1.7 0.4
v 0.1 1.8 0.4
v 0.2 0.1 0.4
v 0.2 0.2 0.4
v 0.2 1.6 0.4
v 0.2 1.7 0.4
v -0.1 0.2 -0.4
v -0.1 0.5 -0.4
v -0.1 0.8 -0.4
v -0.1 1.4 -0.4
v -0.1 1.5 -0.4
v -0.1 1.6 -0.4
v 0 0.2 -0.4
v 0 0.5 -0.4
v 0 0.6 -0.4
v 0 0.8 -0.4
v 0 1.4 -0.4
v 0 1.5 -0.4
v 0 1.6 -0.4
v 0.1 0.2 -0.4
v 0.1 0.5 -0.4
v 0.1 0.6 -0.4
v 0.1 1.4 -0.4
v 0.1 1.6 -0.4
v 0.2 0.2 -0.4
v 0.2 1.6 -0.4
v 0 0 -0.5
v 0 0.1 -0.5
v 0 0.2 -0.5
v 0 0.5 -0.5
v 0 0.6 -0.5
v 0 1.4 -0.5
v 0 1.6 -0.5
v 0 1.7 -0.5
v 0 1.8 -0.5
v 0.1 0 -0.5
v 0.1 0.1 -0.5
v 0.1 0.2 -0.5
v 0.1 0.5 -0.5
v 0.1 0.6 -0.5
v 0.1 1.4 -0.5
v 0.1 1.6 -0.5
v 0.1 1.7 -0.5
v 0.1 1.8 -0.5
v -0.1 0.1 -0.6
v -0.1 0.2 -0.6
v -0.1 1.6 -0.6
v -0.1 1.7 -0.6
v 0.1 1.6 -0.6
v 0.1 1.7 -0.6
v 0.2 0.1 -0.6
v 0.2 0.2 -0.6
v 0.2 1.6 -0.6
v 0.2 1.7 -0.6
v 0 0 0.5
v 0.1 0 0.5
v 0 0 0.4
v 0.1 0 0.4
v 0 0 -0.4
v 0.1 0 -0.4
v 0 0 -0.5
v 0.1 0 -0.5
v -0.1 0.1 0.6
v 0.1 0.1 0.6
v 0.2 0.1 0.6
v -0.1 0.1 0.5
v 0 0.1 0.5
v 0.1 0.1 0.5
v 0.2 0.1 0.5
v -0.1 0.1 0.4
v 0 0.1 0.4
v 0.1 0.1 0.4
v 0.2 0.1 0.4
v 0 0.1 0.3
v 0.1 0.1 0.3
v 0 0.1 -0.1
v 0.1 0.1 -0.1
v 0 0.1 -0.2
v 0.1 0.1 -0.2
v -0.1 0.1 -0.4
v 0 0.1 -0.4
v 0.1 0.1 -0.4
v 0.2 0.1 -0.4
v -0.1 0.1 -0.5
v 0 0.1 -0.5
v 0.1 0.1 -0.5
v 0.2 0.1 -0.5
v -0.1 0.1 -0.6
v 0.2 0.1 -0.6
v -0.1 0.2 0.4
v 0 0.2 0.4
v 0.1 0.2 0.4
v 0.2 0.2 0.4
v -0.1 0.2 0.3
v 0 0.2 0.3
v 0.1 0.2 0.3
v -0.1 0.2 0.2
v 0 0.2 0.2
v 0 0.2 -0.1
v 0.1 0.2 -0.1
v 0 0.2 -0.2
v 0.1 0.2 -0.2
v -0.1 0.2 -0.4
v 0 0.2 -0.4
v 0.1 0.2 -0.4
v 0.2 0.2 -0.4
v -0.1 1.6 0.6
v 0 1.6 0.6
v 0.2 1.6 0.6
v 0 1.6 0.5
v 0.1 1.6 0.5
v 0.2 1.6 0.5
v -0.1 1.6 0.4
v 0 1.6 0.4
v 0.1 1.6 0.4
v 0.2 1.6 0.4
v -0.1 1.6 -0.4
v 0 1.6 -0.4
v 0.1 1.6 -0.4
v 0.2 1.6 -0.4
v -0.1 1.6 -0.5
v 0 1.6 -0.5
v 0.1 1.6 -0.5
v 0.2 1.6 -0.5
v -0.1 1.6 -0.6
v 0.1 1.6 -0.6
v 0.2 1.6 -0.6
v -0.1 0.2 0.6
v 0.1 0.2 0.6
v 0.2 0.2 0.6
v -0.1 0.2 0.5
v 0 0.2 0.5
v 0.1 0.2 0.5
v 0.2 0.2 0.5
v -0.1 0.2 0.4
v 0 0.2 0.4
v 0.1 0.2 0.4
v 0.2 0.2 0.4
v -0.1 0.2 -0.4
v 0 0.2 -0.4
v 0.1 0.2 -0.4
v 0.2 0.2 -0.4
v -0.1 0.2 -0.5
v 0 0.2 -0.5
v 0.1 0.2 -0.5
v 0.2 0.2 -0.5
v -0.1 0.2 -0.6
v 0.2 0.2 -0.6
v -0.1 1.6 0.4
v 0 1.6 0.4
v 0.1 1.6 0.4
v 0.2 1.6 0.4
v -0.1 1.6 0.3
v 0 1.6 0.3
v -0.1 1.6 0.2
v 0 1.6 0.2
v 0 1.6 5.96046e-008
v 0.1 1.6 5.96046e-008
v 0 1.6 -0.2
v 0.1 1.6 -0.2
v -0.1 1.6 -0.4
v 0 1.6 -0.4
v 0.1 1.6 -0.4
v 0.2 1.6 -0.4
v -0.1 1.7 0.6
v 0 1.7 0.6
v 0.2 1.7 0.6
v 0 1.7 0.5
v 0.1 1.7 0.5
v 0.2 1.7 0.5
v -0.1 1.7 0.4
v 0 1.7 0.4
v 0.1 1.7 0.4
v 0.2 1.7 0.4
v 0 1.7 5.96046e-008
v 0.1 1.7 5.96046e-008
v 0 1.7 -0.2
v 0.1 1.7 -0.2
v -0.1 1.7 -0.4
v 0 1.7 -0.4
v 0.1 1.7 -0.4
v 0.2 1.7 -0.4
v -0.1 1.7 -0.5
v 0 1.7 -0.5
v 0.1 1.7 -0.5
v 0.2 1.7 -0.5
v -0.1 1.7 -0.6
v 0.1 1.7 -0.6
v 0.2 1.7 -0.6
v 0 1.8 0.5
v 0.1 1.8 0.5
v 0 1.8 0.4
v 0.1 1.8 0.4
v 0 1.8 -0.4
v 0.1 1.8 -0.4
v 0 1.8 -0.5
v 0.1 1.8 -0.5

# faces
f 7/2/1 2/2/1 1/2/1
f 8/1/1 3/1/1 2/1/1
f 8/2/1 2/2/1 7/2/1
f 9/1/1 3/1/1 8/1/1
f 12/2/1 5/2/1 4/2/1
f 13/1/1 6/1/1 5/1/1
f 13/2/1 5/2/1 12/2/1
f 14/1/1 6/1/1 13/1/1
f 15/1/1 10/1/1 9/1/1
f 16/2/1 11/2/1 10/2/1
f 16/1/1 10/1/1 15/1/1
f 17/1/1 12/1/1 11/1/1
f 17/2/1 11/2/1 16/2/1
f 18/1/1 12/1/1 17/1/1
f 19/1/1 12/1/1 18/1/1
f 20/2/1 16/2/1 15/2/1
f 20/1/1 17/1/1 16/1/1
f 20/1/1 18/1/1 17/1/1
f 21/1/1 18/1/1 20/1/1
f 22/1/1 18/1/1 21/1/1
f 23/2/1 19/2/1 18/2/1
f 23/1/1 18/1/1 22/1/1
f 24/1/1 12/1/1 19/1/1
f 24/2/1 19/2/1 23/2/1
f 25/2/1 20/2/1 15/2/1
f 25/2/1 21/2/1 20/2/1
f 26/1/1 22/1/1 21/1/1
f 26/2/1 21/2/1 25/2/1
f 27/1/1 12/1/1 24/1/1
f 27/1/1 24/1/1 23/1/1
f 28/1/1 12/1/1 27/1/1
f 29/2/1 23/2/1 22/2/1
f 29/1/1 22/1/1 26/1/1
f 29/1/1 26/1/1 25/1/1
f 30/1/1 27/1/1 23/1/1
f 30/2/1 23/2/1 29/2/1
f 31/1/1 29/1/1 25/1/1
f 31/1/1 30/1/1 29/1/1
f 32/1/1 30/1/1 31/1/1
f 33/1/1 31/1/1 25/1/1
f 33/2/1 32/2/1 31/2/1
f 34/1/1 30/1/1 32/1/1
f 34/2/1 32/2/1 33/2/1
f 35/2/1 28/2/1 27/2/1
f 35/1/1 30/1/1 34/1/1
f 35/1/1 27/1/1 30/1/1
f 36/2/1 28/2/1 35/2/1
f 37/1/1 34/1/1 33/1/1
f 37/1/1 33/1/1 25/1/1
f 37/1/1 36/1/1 35/1/1
f 37/1/1 35/1/1 34/1/1
f 38/1/1 36/1/1 37/1/1
f 39/1/1 36/1/1 38/1/1
f 40/1/1 36/1/1 39/1/1
f 41/2/1 38/2/1 37/2/1
f 42/1/1 39/1/1 38/1/1
f 42/2/1 38/2/1 41/2/1
f 43/1/1 39/1/1 42/1/1
f 44/1/1 39/1/1 43/1/1
f 45/1/1 42/1/1 41/1/1
f 45/1/1 43/1/1 42/1/1
f 46/2/1 44/2/1 43/2/1
f 46/1/1 43/1/1 45/1/1
f 47/1/1 39/1/1 44/1/1
f 47/2/1 44/2/1 46/2/1
f 48/2/1 40/2/1 39/2/1
f 48/1/1 39/1/1 47/1/1
f 49/1/1 36/1/1 40/1/1
f 49/2/1 40/2/1 48/2/1
f 50/2/1 46/2/1 45/2/1
f 50/1/1 45/1/1 41/1/1
f 51/1/1 48/1/1 47/1/1
f 51/2/1 46/2/1 50/2/1
f 51/1/1 47/1/1 46/1/1
f 51/1/1 49/1/1 48/1/1
f 52/1/1 51/1/1 50/1/1
f 52/1/1 49/1/1 51/1/1
f 53/1/1 49/1/1 52/1/1
f 54/1/1 52/1/1 50/1/1
f 54/2/1 53/2/1 52/2/1
f 55/1/1 49/1/1 53/1/1
f 55/2/1 53/2/1 54/2/1
f 56/1/1 36/1/1 49/1/1
f 56/1/1 49/1/1 55/1/1
f 57/1/1 36/1/1 56/1/1
f 58/1/1 50/1/1 41/1/1
f 58/1/1 55/1/1 54/1/1
f 58/1/1 54/1/1 50/1/1
f 58/1/1 56/1/1 55/1/1
f 59/1/1 56/1/1 58/1/1
f 60/2/1 57/2/1 56/2/1
f 60/1/1 56/1/1 59/1/1
f 61/2/1 57/2/1 60/2/1
f 63/1/1 58/1/1 41/1/1
f 64/2/1 59/2/1 58/2/1
f 64/1/1 58/1/1 63/1/1
f 65/1/1 60/1/1 59/1/1
f 65/2/1 59/2/1 64/2/1
f 65/1/1 61/1/1 60/1/1
f 66/1/1 61/1/1 65/1/1
f 69/1/1 63/1/1 62/1/1
f 70/1/1 63/1/1 69/1/1
f 71/1/1 67/1/1 66/1/1
f 72/2/1 68/2/1 67/2/1
f 72/1/1 67/1/1 71/1/1
f 73/2/1 68/2/1 72/2/1
f 78/1/1 75/1/1 74/1/1
f 79/1/1 75/1/1 78/1/1
f 83/2/1 77/2/1 76/2/1
f 84/2/1 77/2/1 83/2/1
f 86/2/1 80/2/1 79/2/1
f 87/1/1 81/1/1 80/1/1
f 87/2/1 80/2/1 86/2/1
f 88/1/1 81/1/1 87/1/1
f 89/2/1 82/2/1 81/2/1
f 89/1/1 81/1/1 88/1/1
f 90/1/1 83/1/1 82/1/1
f 90/2/1 82/2/1 89/2/1
f 91/1/1 83/1/1 90/1/1
f 93/1/1 86/1/1 85/1/1
f 94/1/1 93/1/1 85/1/1
f 95/1/1 92/1/1 91/1/1
f 96/1/1 92/1/1 95/1/1
f 97/2/1 96/2/1 95/2/1
f 98/2/1 96/2/1 97/2/1
f 99/1/1 98/1/1 97/1/1
f 100/1/1 94/1/1 85/1/1
f 101/1/1 100/1/1 85/1/1
f 102/1/1 101/1/1 85/1/1
f 103/1/1 101/1/1 102/1/1
f 104/2/1 103/2/1 102/2/1
f 105/2/1 103/2/1 104/2/1
f 106/1/1 98/1/1 99/1/1
f 107/1/1 98/1/1 106/1/1
f 108/2/1 107/2/1 106/2/1
f 109/1/1 105/1/1 104/1/1
f 110/1/1 105/1/1 109/1/1
f 115/2/1 107/2/1 108/2/1
f 116/2/1 107/2/1 115/2/1
f 118/1/1 111/1/1 110/1/1
f 118/1/1 112/1/1 111/1/1
f 118/1/1 113/1/1 112/1/1
f 119/2/1 114/2/1 113/2/1
f 119/1/1 113/1/1 118/1/1
f 120/1/1 115/1/1 114/1/1
f 120/2/1 114/2/1 119/2/1
f 121/1/1 115/1/1 120/1/1
f 123/2/1 118/2/1 117/2/1
f 124/2/1 118/2/1 123/2/1
f 125/1/1 122/1/1 121/1/1
f 126/1/1 122/1/1 125/1/1
f 127/1/2 128/1/2 131/1/2
f 131/1/2 128/1/2 132/1/2
f 129/2/2 130/2/2 136/2/2
f 136/2/2 130/2/2 137/2/2
f 132/2/2 133/2/2 139/2/2
f 133/1/2 134/1/2 140/1/2
f 139/2/2 133/2/2 140/2/2
f 134/2/2 135/2/2 141/2/2
f 140/1/2 134/1/2 141/1/2
f 135/1/2 136/1/2 142/1/2
f 141/2/2 135/2/2 142/2/2
f 142/1/2 136/1/2 143/1/2
f 143/1/2 144/1/2 145/1/2
f 145/1/2 144/1/2 146/1/2
f 145/2/2 146/2/2 147/2/2
f 147/2/2 146/2/2 148/2/2
f 138/1/2 139/1/2 149/1/2
f 149/1/2 139/1/2 150/1/2
f 149/2/2 150/2/2 151/2/2
f 151/2/2 150/2/2 152/2/2
f 151/1/2 152/1/2 153/1/2
f 147/1/2 148/1/2 154/1/2
f 154/1/2 148/1/2 155/1/2
f 151/1/2 153/1/2 156/1/2
f 156/1/2 153/1/2 157/1/2
f 154/2/2 155/2/2 160/2/2
f 160/2/2 155/2/2 161/2/2
f 157/1/2 158/1/2 163/1/2
f 158/2/2 159/2/2 164/2/2
f 163/1/2 158/1/2 164/1/2
f 159/1/2 160/1/2 165/1/2
f 164/2/2 159/2/2 165/2/2
f 165/1/2 160/1/2 166/1/2
f 162/2/2 163/2/2 168/2/2
f 168/2/2 163/2/2 169/2/2
f 166/1/2 167/1/2 170/1/2
f 170/1/2 167/1/2 171/1/2
f 172/1/2 173/1/2 178/1/2
f 173/2/2 174/2/2 179/2/2
f 178/1/2 173/1/2 179/1/2
f 179/2/2 174/2/2 180/2/2
f 175/2/2 176/2/2 181/2/2
f 176/1/2 177/1/2 182/1/2
f 181/2/2 176/2/2 182/2/2
f 182/1/2 177/1/2 183/1/2
f 180/1/2 181/1/2 184/1/2
f 184/1/2 181/1/2 185/1/2
f 185/1/2 181/1/2 186/1/2
f 186/1/2 181/1/2 187/1/2
f 180/1/2 184/1/2 188/1/2
f 184/2/2 185/2/2 188/2/2
f 185/1/2 186/1/2 189/1/2
f 188/2/2 185/2/2 189/2/2
f 189/1/2 186/1/2 190/1/2
f 186/2/2 187/2/2 191/2/2
f 190/1/2 186/1/2 191/1/2
f 187/1/2 181/1/2 192/1/2
f 191/2/2 187/2/2 192/2/2
f 189/2/2 190/2/2 193/2/2
f 188/1/2 189/1/2 193/1/2
f 190/1/2 191/1/2 194/1/2
f 193/2/2 190/2/2 194/2/2
f 191/1/2 192/1/2 194/1/2
f 193/1/2 194/1/2 195/1/2
f 194/1/2 192/1/2 195/1/2
f 195/1/2 192/1/2 196/1/2
f 188/1/2 193/1/2 197/1/2
f 180/1/2 188/1/2 197/1/2
f 193/1/2 195/1/2 197/1/2
f 197/1/2 195/1/2 198/1/2
f 195/2/2 196/2/2 199/2/2
f 198/1/2 195/1/2 199/1/2
f 196/1/2 192/1/2 200/1/2
f 199/2/2 196/2/2 200/2/2
f 200/1/2 192/1/2 201/1/2
f 192/1/2 181/1/2 202/1/2
f 201/1/2 192/1/2 202/1/2
f 197/2/2 198/2/2 203/2/2
f 180/1/2 197/1/2 203/1/2
f 198/1/2 199/1/2 204/1/2
f 203/2/2 198/2/2 204/2/2
f 200/1/2 201/1/2 204/1/2
f 199/1/2 200/1/2 204/1/2
f 204/1/2 201/1/2 205/1/2
f 203/1/2 204/1/2 206/1/2
f 204/2/2 205/2/2 206/2/2
f 205/1/2 201/1/2 207/1/2
f 206/2/2 205/2/2 207/2/2
f 207/1/2 201/1/2 208/1/2
f 201/2/2 202/2/2 209/2/2
f 208/1/2 201/1/2 209/1/2
f 202/1/2 181/1/2 210/1/2
f 209/2/2 202/2/2 210/2/2
f 207/1/2 208/1/2 211/1/2
f 203/1/2 206/1/2 211/1/2
f 206/1/2 207/1/2 211/1/2
f 211/1/2 208/1/2 212/1/2
f 208/2/2 209/2/2 213/2/2
f 212/1/2 208/1/2 213/1/2
f 209/1/2 210/1/2 214/1/2
f 213/2/2 209/2/2 214/2/2
f 180/1/2 203/1/2 215/1/2
f 203/1/2 211/1/2 215/1/2
f 215/1/2 211/1/2 216/1/2
f 212/1/2 213/1/2 217/1/2
f 213/1/2 214/1/2 217/1/2
f 214/1/2 210/1/2 218/1/2
f 217/1/2 214/1/2 218/1/2
f 210/1/2 181/1/2 218/1/2
f 215/2/2 216/2/2 219/2/2
f 216/1/2 211/1/2 220/1/2
f 219/2/2 216/2/2 220/2/2
f 211/2/2 212/2/2 221/2/2
f 220/1/2 211/1/2 221/1/2
f 212/1/2 217/1/2 222/1/2
f 221/2/2 212/2/2 222/2/2
f 217/2/2 218/2/2 223/2/2
f 222/1/2 217/1/2 223/1/2
f 218/1/2 181/1/2 224/1/2
f 223/2/2 218/2/2 224/2/2
f 220/1/2 221/1/2 225/1/2
f 219/1/2 220/1/2 225/1/2
f 223/1/2 224/1/2 225/1/2
f 221/1/2 222/1/2 225/1/2
f 222/1/2 223/1/2 225/1/2
f 225/1/2 224/1/2 226/1/2
f 219/1/2 225/1/2 227/1/2
f 225/2/2 226/2/2 227/2/2
f 226/1/2 224/1/2 228/1/2
f 227/2/2 226/2/2 228/2/2
f 219/1/2 227/1/2 231/1/2
f 227/1/2 228/1/2 231/1/2
f 224/1/2 181/1/2 232/1/2
f 228/1/2 224/1/2 232/1/2
f 231/1/2 228/1/2 232/1/2
f 229/2/2 230/2/2 235/2/2
f 230/1/2 231/1/2 236/1/2
f 235/2/2 230/2/2 236/2/2
f 236/1/2 231/1/2 237/1/2
f 232/2/2 233/2/2 238/2/2
f 233/1/2 234/1/2 239/1/2
f 238/2/2 233/2/2 239/2/2
f 239/1/2 234/1/2 240/1/2
f 245/1/3 244/1/3 243/1/3
f 246/1/3 244/1/3 245/1/3
f 247/2/3 242/2/3 241/2/3
f 248/2/3 242/2/3 247/2/3
f 249/1/3 248/1/3 247/1/3
f 250/1/3 248/1/3 249/1/3
f 251/2/3 246/2/3 245/2/3
f 252/2/3 246/2/3 251/2/3
f 261/1/3 254/1/3 253/1/3
f 262/1/3 254/1/3 261/1/3
f 263/1/3 256/1/3 255/1/3
f 264/2/3 257/2/3 256/2/3
f 264/1/3 256/1/3 263/1/3
f 265/1/3 258/1/3 257/1/3
f 265/2/3 257/2/3 264/2/3
f 266/1/3 258/1/3 265/1/3
f 267/2/3 260/2/3 259/2/3
f 268/2/3 260/2/3 267/2/3
f 275/1/3 270/1/3 269/1/3
f 276/2/3 271/2/3 270/2/3
f 276/1/3 270/1/3 275/1/3
f 277/1/3 272/1/3 271/1/3
f 277/2/3 271/2/3 276/2/3
f 278/2/3 273/2/3 272/2/3
f 278/1/3 272/1/3 277/1/3
f 279/1/3 274/1/3 273/1/3
f 279/2/3 273/2/3 278/2/3
f 280/1/3 274/1/3 279/1/3
f 281/1/3 274/1/3 280/1/3
f 282/1/3 274/1/3 281/1/3
f 288/1/3 284/1/3 283/1/3
f 288/1/3 285/1/3 284/1/3
f 289/2/3 286/2/3 285/2/3
f 289/1/3 285/1/3 288/1/3
f 290/1/3 287/1/3 286/1/3
f 290/2/3 286/2/3 289/2/3
f 291/1/3 287/1/3 290/1/3
f 297/2/3 293/2/3 292/2/3
f 298/2/3 293/2/3 297/2/3
f 299/1/3 295/1/3 294/1/3
f 300/1/3 295/1/3 299/1/3
f 302/2/3 297/2/3 296/2/3
f 303/2/3 297/2/3 302/2/3
f 306/1/3 301/1/3 300/1/3
f 307/1/3 301/1/3 306/1/3
f 308/2/3 304/2/3 303/2/3
f 309/2/3 304/2/3 308/2/3
f 310/2/3 306/2/3 305/2/3
f 311/2/3 306/2/3 310/2/3
f 312/1/4 313/1/4 317/1/4
f 317/1/4 313/1/4 318/1/4
f 314/1/4 315/1/4 319/1/4
f 319/1/4 315/1/4 320/1/4
f 316/1/4 317/1/4 322/1/4
f 322/1/4 317/1/4 323/1/4
f 320/2/4 321/2/4 326/2/4
f 326/2/4 321/2/4 327/2/4
f 323/2/4 324/2/4 328/2/4
f 328/2/4 324/2/4 329/2/4
f 325/1/4 326/1/4 330/1/4
f 330/1/4 326/1/4 331/1/4
f 332/1/4 333/1/4 338/1/4
f 333/2/4 334/2/4 339/2/4
f 338/1/4 333/1/4 339/1/4
f 339/2/4 334/2/4 340/2/4
f 334/1/4 335/1/4 341/1/4
f 340/2/4 334/2/4 341/2/4
f 335/2/4 336/2/4 342/2/4
f 341/1/4 335/1/4 342/1/4
f 336/1/4 337/1/4 343/1/4
f 342/2/4 336/2/4 343/2/4
f 343/1/4 337/1/4 344/1/4
f 345/1/4 346/1/4 350/1/4
f 348/1/4 349/1/4 350/1/4
f 347/1/4 348/1/4 350/1/4
f 346/1/4 347/1/4 350/1/4
f 350/1/4 349/1/4 351/1/4
f 352/2/4 353/2/4 361/2/4
f 361/2/4 353/2/4 362/2/4
f 354/1/4 355/1/4 363/1/4
f 355/2/4 356/2/4 364/2/4
f 363/1/4 355/1/4 364/1/4
f 356/1/4 357/1/4 365/1/4
f 364/2/4 356/2/4 365/2/4
f 357/2/4 358/2/4 366/2/4
f 365/1/4 357/1/4 366/1/4
f 366/2/4 358/2/4 367/2/4
f 359/1/4 360/1/4 368/1/4
f 368/1/4 360/1/4 369/1/4
f 372/2/4 373/2/4 374/2/4
f 374/2/4 373/2/4 375/2/4
f 370/1/4 371/1/4 376/1/4
f 376/1/4 371/1/4 377/1/4
f 374/1/4 375/1/4 378/1/4
f 378/1/4 375/1/4 379/1/4
f 382/1/5 381/1/5 380/1/5
f 383/1/5 381/1/5 382/1/5
f 386/2/5 385/2/5 384/2/5
f 387/2/5 385/2/5 386/2/5
f 391/2/5 389/2/5 388/2/5
f 392/2/5 389/2/5 391/2/5
f 393/1/5 390/1/5 389/1/5
f 393/2/5 389/2/5 392/2/5
f 394/1/5 390/1/5 393/1/5
f 395/1/5 392/1/5 391/1/5
f 396/1/5 392/1/5 395/1/5
f 397/2/5 394/2/5 393/2/5
f 398/2/5 394/2/5 397/2/5
f 399/2/5 397/2/5 396/2/5
f 400/2/5 397/2/5 399/2/5
f 401/1/5 400/1/5 399/1/5
f 402/1/5 400/1/5 401/1/5
f 403/2/5 402/2/5 401/2/5
f 404/2/5 402/2/5 403/2/5
f 406/1/5 404/1/5 403/1/5
f 407/1/5 404/1/5 406/1/5
f 409/2/5 406/2/5 405/2/5
f 410/2/5 406/2/5 409/2/5
f 411/2/5 408/2/5 407/2/5
f 412/2/5 408/2/5 411/2/5
f 413/1/5 410/1/5 409/1/5
f 413/1/5 411/1/5 410/1/5
f 413/1/5 412/1/5 411/1/5
f 414/1/5 412/1/5 413/1/5
f 419/1/5 416/1/5 415/1/5
f 420/1/5 416/1/5 419/1/5
f 421/1/5 418/1/5 417/1/5
f 422/2/5 420/2/5 419/2/5
f 423/2/5 420/2/5 422/2/5
f 424/1/5 423/1/5 422/1/5
f 425/1/5 418/1/5 421/1/5
f 426/1/5 424/1/5 422/1/5
f 427/1/5 418/1/5 425/1/5
f 428/1/5 426/1/5 422/1/5
f 429/1/5 426/1/5 428/1/5
f 430/1/5 418/1/5 427/1/5
f 431/1/5 418/1/5 430/1/5
f 435/1/5 433/1/5 432/1/5
f 435/2/5 434/2/5 433/2/5
f 436/2/5 434/2/5 435/2/5
f 437/2/5 434/2/5 436/2/5
f 438/1/5 435/1/5 432/1/5
f 439/1/5 435/1/5 438/1/5
f 440/1/5 437/1/5 436/1/5
f 441/1/5 437/1/5 440/1/5
f 446/1/5 443/1/5 442/1/5
f 447/1/5 443/1/5 446/1/5
f 448/2/5 445/2/5 444/2/5
f 449/2/5 445/2/5 448/2/5
f 450/2/5 447/2/5 446/2/5
f 450/2/5 448/2/5 447/2/5
f 451/1/5 449/1/5 448/1/5
f 451/2/5 448/2/5 450/2/5
f 452/1/5 449/1/5 451/1/5
f 453/2/6 454/2/6 456/2/6
f 456/2/6 454/2/6 457/2/6
f 454/1/6 455/1/6 458/1/6
f 457/2/6 454/2/6 458/2/6
f 458/1/6 455/1/6 459/1/6
f 456/1/6 457/1/6 460/1/6
f 460/1/6 457/1/6 461/1/6
f 458/2/6 459/2/6 462/2/6
f 462/2/6 459/2/6 463/2/6
f 464/2/6 465/2/6 468/2/6
f 468/2/6 465/2/6 469/2/6
f 466/2/6 467/2/6 470/2/6
f 470/2/6 467/2/6 471/2/6
f 468/1/6 469/1/6 472/1/6
f 469/1/6 470/1/6 472/1/6
f 470/1/6 471/1/6 472/1/6
f 472/1/6 471/1/6 473/1/6
f 474/1/6 475/1/6 478/1/6
f 478/1/6 475/1/6 479/1/6
f 478/2/6 479/2/6 480/2/6
f 480/2/6 479/2/6 481/2/6
f 480/1/6 481/1/6 482/1/6
f 476/1/6 477/1/6 483/1/6
f 480/1/6 482/1/6 484/1/6
f 483/1/6 477/1/6 485/1/6
f 480/1/6 484/1/6 486/1/6
f 486/1/6 484/1/6 487/1/6
f 485/1/6 477/1/6 488/1/6
f 488/1/6 477/1/6 489/1/6
f 490/1/6 491/1/6 493/1/6
f 491/2/6 492/2/6 493/2/6
f 493/2/6 492/2/6 494/2/6
f 494/2/6 492/2/6 495/2/6
f 490/1/6 493/1/6 496/1/6
f 496/1/6 493/1/6 497/1/6
f 494/1/6 495/1/6 498/1/6
f 498/1/6 495/1/6 499/1/6
f 497/1/6 498/1/6 500/1/6
f 500/1/6 498/1/6 501/1/6
f 500/2/6 501/2/6 502/2/6
f 502/2/6 501/2/6 503/2/6
f 502/1/6 503/1/6 505/1/6
f 505/1/6 503/1/6 506/1/6
f 504/1/6 505/1/6 508/1/6
f 508/1/6 505/1/6 509/1/6
f 506/2/6 507/2/6 510/2/6
f 510/2/6 507/2/6 511/2/6
f 508/2/6 509/2/6 512/2/6
f 509/2/6 510/2/6 512/2/6
f 510/1/6 511/1/6 513/1/6
f 512/2/6 510/2/6 513/2/6
f 513/1/6 511/1/6 514/1/6
f 515/2/6 516/2/6 517/2/6
f 517/2/6 516/2/6 518/2/6
f 519/1/6 520/1/6 521/1/6
f 521/1/6 520/1/6 522/1/6
