# MagicaVoxel @ Ephtracy

# group
o 

# material
mtllib tampa do caixote.mtl
usemtl palette

# normals
vn -1 0 0
vn 1 0 0
vn 0 0 1
vn 0 0 -1
vn 0 -1 0
vn 0 1 0

# texcoords
vt 0.970703 0.5
vt 0.974609 0.5

# verts
v 0.9 0.1 0.4
v 0.9 0.1 -0.7
v 0.9 0.2 0.4
v 0.9 0.2 0.3
v 0.9 0.3 0.6
v 0.9 0.3 0.5
v 0.9 0.3 0.3
v 0.9 0.3 0.2
v 0.9 0.4 0.5
v 0.9 0.4 0.4
v 0.9 0.4 0.2
v 0.9 0.4 0.1
v 0.9 0.5 0.4
v 0.9 0.5 0.3
v 0.9 0.5 0.1
v 0.9 0.5 -5.96046e-008
v 0.9 0.6 0.3
v 0.9 0.6 0.2
v 0.9 0.6 -5.96046e-008
v 0.9 0.6 -0.1
v 0.9 0.7 0.2
v 0.9 0.7 0.1
v 0.9 0.7 -0.1
v 0.9 0.7 -0.2
v 0.9 0.8 0.1
v 0.9 0.8 -5.96046e-008
v 0.9 0.8 -0.2
v 0.9 0.8 -0.3
v 0.9 0.9 -5.96046e-008
v 0.9 0.9 -0.1
v 0.9 0.9 -0.3
v 0.9 0.9 -0.4
v 0.9 1 -0.1
v 0.9 1 -0.2
v 0.9 1 -0.4
v 0.9 1 -0.5
v 0.9 1.1 -0.2
v 0.9 1.1 -0.3
v 0.9 1.1 -0.5
v 0.9 1.1 -0.6
v 0.9 1.2 -0.3
v 0.9 1.2 -0.4
v 0.9 1.2 -0.6
v 0.9 1.2 -0.7
v 0.9 1.3 -0.4
v 0.9 1.3 -0.5
v 0.9 1.4 0.6
v 0.9 1.4 -0.5
v 1 0 0.7
v 1 0 -0.8
v 1 0.1 0.4
v 1 0.1 -0.7
v 1 0.2 0.4
v 1 0.2 0.3
v 1 0.3 0.6
v 1 0.3 0.5
v 1 0.3 0.3
v 1 0.3 0.2
v 1 0.4 0.5
v 1 0.4 0.4
v 1 0.4 0.2
v 1 0.4 0.1
v 1 0.5 0.4
v 1 0.5 0.3
v 1 0.5 0.1
v 1 0.5 -5.96046e-008
v 1 0.6 0.3
v 1 0.6 0.2
v 1 0.6 -5.96046e-008
v 1 0.6 -0.1
v 1 0.7 0.2
v 1 0.7 0.1
v 1 0.7 -0.1
v 1 0.7 -0.2
v 1 0.8 0.1
v 1 0.8 -5.96046e-008
v 1 0.8 -0.2
v 1 0.8 -0.3
v 1 0.9 -5.96046e-008
v 1 0.9 -0.1
v 1 0.9 -0.3
v 1 0.9 -0.4
v 1 1 -0.1
v 1 1 -0.2
v 1 1 -0.4
v 1 1 -0.5
v 1 1.1 -0.2
v 1 1.1 -0.3
v 1 1.1 -0.5
v 1 1.1 -0.6
v 1 1.2 -0.3
v 1 1.2 -0.4
v 1 1.2 -0.6
v 1 1.2 -0.7
v 1 1.3 -0.4
v 1 1.3 -0.5
v 1 1.4 0.6
v 1 1.4 -0.5
v 1 1.5 0.7
v 1 1.5 -0.8
v 1 0.1 0.4
v 1 0.1 -0.7
v 1 0.2 0.4
v 1 0.2 0.3
v 1 0.3 0.6
v 1 0.3 0.5
v 1 0.3 0.3
v 1 0.3 0.2
v 1 0.4 0.5
v 1 0.4 0.4
v 1 0.4 0.2
v 1 0.4 0.1
v 1 0.5 0.4
v 1 0.5 0.3
v 1 0.5 0.1
v 1 0.5 -5.96046e-008
v 1 0.6 0.3
v 1 0.6 0.2
v 1 0.6 -5.96046e-008
v 1 0.6 -0.1
v 1 0.7 0.2
v 1 0.7 0.1
v 1 0.7 -0.1
v 1 0.7 -0.2
v 1 0.8 0.1
v 1 0.8 -5.96046e-008
v 1 0.8 -0.2
v 1 0.8 -0.3
v 1 0.9 -5.96046e-008
v 1 0.9 -0.1
v 1 0.9 -0.3
v 1 0.9 -0.4
v 1 1 -0.1
v 1 1 -0.2
v 1 1 -0.4
v 1 1 -0.5
v 1 1.1 -0.2
v 1 1.1 -0.3
v 1 1.1 -0.5
v 1 1.1 -0.6
v 1 1.2 -0.3
v 1 1.2 -0.4
v 1 1.2 -0.6
v 1 1.2 -0.7
v 1 1.3 -0.4
v 1 1.3 -0.5
v 1 1.4 0.6
v 1 1.4 -0.5
v 1.1 0 0.7
v 1.1 0 -0.8
v 1.1 0.1 0.4
v 1.1 0.1 -0.7
v 1.1 0.2 0.4
v 1.1 0.2 0.3
v 1.1 0.3 0.6
v 1.1 0.3 0.5
v 1.1 0.3 0.3
v 1.1 0.3 0.2
v 1.1 0.4 0.5
v 1.1 0.4 0.4
v 1.1 0.4 0.2
v 1.1 0.4 0.1
v 1.1 0.5 0.4
v 1.1 0.5 0.3
v 1.1 0.5 0.1
v 1.1 0.5 -5.96046e-008
v 1.1 0.6 0.3
v 1.1 0.6 0.2
v 1.1 0.6 -5.96046e-008
v 1.1 0.6 -0.1
v 1.1 0.7 0.2
v 1.1 0.7 0.1
v 1.1 0.7 -0.1
v 1.1 0.7 -0.2
v 1.1 0.8 0.1
v 1.1 0.8 -5.96046e-008
v 1.1 0.8 -0.2
v 1.1 0.8 -0.3
v 1.1 0.9 -5.96046e-008
v 1.1 0.9 -0.1
v 1.1 0.9 -0.3
v 1.1 0.9 -0.4
v 1.1 1 -0.1
v 1.1 1 -0.2
v 1.1 1 -0.4
v 1.1 1 -0.5
v 1.1 1.1 -0.2
v 1.1 1.1 -0.3
v 1.1 1.1 -0.5
v 1.1 1.1 -0.6
v 1.1 1.2 -0.3
v 1.1 1.2 -0.4
v 1.1 1.2 -0.6
v 1.1 1.2 -0.7
v 1.1 1.3 -0.4
v 1.1 1.3 -0.5
v 1.1 1.4 0.6
v 1.1 1.4 -0.5
v 1.1 1.5 0.7
v 1.1 1.5 -0.8
v 1 0 0.7
v 1 1.5 0.7
v 1.1 0 0.7
v 1.1 1.5 0.7
v 0.9 0.3 0.6
v 0.9 1.4 0.6
v 1 0.3 0.6
v 1 1.4 0.6
v 1 0.3 0.5
v 1 0.4 0.5
v 1.1 0.3 0.5
v 1.1 0.4 0.5
v 0.9 0.1 0.4
v 0.9 0.2 0.4
v 1 0.1 0.4
v 1 0.2 0.4
v 1 0.4 0.4
v 1 0.5 0.4
v 1.1 0.4 0.4
v 1.1 0.5 0.4
v 0.9 0.2 0.3
v 0.9 0.3 0.3
v 1 0.2 0.3
v 1 0.3 0.3
v 1 0.5 0.3
v 1 0.6 0.3
v 1.1 0.5 0.3
v 1.1 0.6 0.3
v 0.9 0.3 0.2
v 0.9 0.4 0.2
v 1 0.3 0.2
v 1 0.4 0.2
v 1 0.6 0.2
v 1 0.7 0.2
v 1.1 0.6 0.2
v 1.1 0.7 0.2
v 0.9 0.4 0.1
v 0.9 0.5 0.1
v 1 0.4 0.1
v 1 0.5 0.1
v 1 0.7 0.1
v 1 0.8 0.1
v 1.1 0.7 0.1
v 1.1 0.8 0.1
v 0.9 0.5 -5.96046e-008
v 0.9 0.6 -5.96046e-008
v 1 0.5 -5.96046e-008
v 1 0.6 -5.96046e-008
v 1 0.8 -5.96046e-008
v 1 0.9 -5.96046e-008
v 1.1 0.8 -5.96046e-008
v 1.1 0.9 -5.96046e-008
v 0.9 0.6 -0.1
v 0.9 0.7 -0.1
v 1 0.6 -0.1
v 1 0.7 -0.1
v 1 0.9 -0.1
v 1 1 -0.1
v 1.1 0.9 -0.1
v 1.1 1 -0.1
v 0.9 0.7 -0.2
v 0.9 0.8 -0.2
v 1 0.7 -0.2
v 1 0.8 -0.2
v 1 1 -0.2
v 1 1.1 -0.2
v 1.1 1 -0.2
v 1.1 1.1 -0.2
v 0.9 0.8 -0.3
v 0.9 0.9 -0.3
v 1 0.8 -0.3
v 1 0.9 -0.3
v 1 1.1 -0.3
v 1 1.2 -0.3
v 1.1 1.1 -0.3
v 1.1 1.2 -0.3
v 0.9 0.9 -0.4
v 0.9 1 -0.4
v 1 0.9 -0.4
v 1 1 -0.4
v 1 1.2 -0.4
v 1 1.3 -0.4
v 1.1 1.2 -0.4
v 1.1 1.3 -0.4
v 0.9 1 -0.5
v 0.9 1.1 -0.5
v 1 1 -0.5
v 1 1.1 -0.5
v 1 1.3 -0.5
v 1 1.4 -0.5
v 1.1 1.3 -0.5
v 1.1 1.4 -0.5
v 0.9 1.1 -0.6
v 0.9 1.2 -0.6
v 1 1.1 -0.6
v 1 1.2 -0.6
v 1 0.1 -0.7
v 1 1.2 -0.7
v 1.1 0.1 -0.7
v 1.1 1.2 -0.7
v 1 0.3 0.6
v 1 1.4 0.6
v 1.1 0.3 0.6
v 1.1 1.4 0.6
v 0.9 0.3 0.5
v 0.9 0.4 0.5
v 1 0.3 0.5
v 1 0.4 0.5
v 0.9 0.4 0.4
v 0.9 0.5 0.4
v 1 0.1 0.4
v 1 0.2 0.4
v 1 0.4 0.4
v 1 0.5 0.4
v 1.1 0.1 0.4
v 1.1 0.2 0.4
v 0.9 0.5 0.3
v 0.9 0.6 0.3
v 1 0.2 0.3
v 1 0.3 0.3
v 1 0.5 0.3
v 1 0.6 0.3
v 1.1 0.2 0.3
v 1.1 0.3 0.3
v 0.9 0.6 0.2
v 0.9 0.7 0.2
v 1 0.3 0.2
v 1 0.4 0.2
v 1 0.6 0.2
v 1 0.7 0.2
v 1.1 0.3 0.2
v 1.1 0.4 0.2
v 0.9 0.7 0.1
v 0.9 0.8 0.1
v 1 0.4 0.1
v 1 0.5 0.1
v 1 0.7 0.1
v 1 0.8 0.1
v 1.1 0.4 0.1
v 1.1 0.5 0.1
v 0.9 0.8 -5.96046e-008
v 0.9 0.9 -5.96046e-008
v 1 0.5 -5.96046e-008
v 1 0.6 -5.96046e-008
v 1 0.8 -5.96046e-008
v 1 0.9 -5.96046e-008
v 1.1 0.5 -5.96046e-008
v 1.1 0.6 -5.96046e-008
v 0.9 0.9 -0.1
v 0.9 1 -0.1
v 1 0.6 -0.1
v 1 0.7 -0.1
v 1 0.9 -0.1
v 1 1 -0.1
v 1.1 0.6 -0.1
v 1.1 0.7 -0.1
v 0.9 1 -0.2
v 0.9 1.1 -0.2
v 1 0.7 -0.2
v 1 0.8 -0.2
v 1 1 -0.2
v 1 1.1 -0.2
v 1.1 0.7 -0.2
v 1.1 0.8 -0.2
v 0.9 1.1 -0.3
v 0.9 1.2 -0.3
v 1 0.8 -0.3
v 1 0.9 -0.3
v 1 1.1 -0.3
v 1 1.2 -0.3
v 1.1 0.8 -0.3
v 1.1 0.9 -0.3
v 0.9 1.2 -0.4
v 0.9 1.3 -0.4
v 1 0.9 -0.4
v 1 1 -0.4
v 1 1.2 -0.4
v 1 1.3 -0.4
v 1.1 0.9 -0.4
v 1.1 1 -0.4
v 0.9 1.3 -0.5
v 0.9 1.4 -0.5
v 1 1 -0.5
v 1 1.1 -0.5
v 1 1.3 -0.5
v 1 1.4 -0.5
v 1.1 1 -0.5
v 1.1 1.1 -0.5
v 1 1.1 -0.6
v 1 1.2 -0.6
v 1.1 1.1 -0.6
v 1.1 1.2 -0.6
v 0.9 0.1 -0.7
v 0.9 1.2 -0.7
v 1 0.1 -0.7
v 1 1.2 -0.7
v 1 0 -0.8
v 1 1.5 -0.8
v 1.1 0 -0.8
v 1.1 1.5 -0.8
v 1 0 0.7
v 1.1 0 0.7
v 1 0 -0.8
v 1.1 0 -0.8
v 0.9 0.1 0.4
v 1 0.1 0.4
v 0.9 0.1 -0.7
v 1 0.1 -0.7
v 1 0.2 0.4
v 1.1 0.2 0.4
v 1 0.2 0.3
v 1.1 0.2 0.3
v 0.9 0.3 0.6
v 1 0.3 0.6
v 0.9 0.3 0.5
v 1 0.3 0.5
v 1 0.3 0.3
v 1.1 0.3 0.3
v 1 0.3 0.2
v 1.1 0.3 0.2
v 0.9 0.4 0.5
v 1 0.4 0.5
v 0.9 0.4 0.4
v 1 0.4 0.4
v 1 0.4 0.2
v 1.1 0.4 0.2
v 1 0.4 0.1
v 1.1 0.4 0.1
v 0.9 0.5 0.4
v 1 0.5 0.4
v 0.9 0.5 0.3
v 1 0.5 0.3
v 1 0.5 0.1
v 1.1 0.5 0.1
v 1 0.5 -5.96046e-008
v 1.1 0.5 -5.96046e-008
v 0.9 0.6 0.3
v 1 0.6 0.3
v 0.9 0.6 0.2
v 1 0.6 0.2
v 1 0.6 -5.96046e-008
v 1.1 0.6 -5.96046e-008
v 1 0.6 -0.1
v 1.1 0.6 -0.1
v 0.9 0.7 0.2
v 1 0.7 0.2
v 0.9 0.7 0.1
v 1 0.7 0.1
v 1 0.7 -0.1
v 1.1 0.7 -0.1
v 1 0.7 -0.2
v 1.1 0.7 -0.2
v 0.9 0.8 0.1
v 1 0.8 0.1
v 0.9 0.8 -5.96046e-008
v 1 0.8 -5.96046e-008
v 1 0.8 -0.2
v 1.1 0.8 -0.2
v 1 0.8 -0.3
v 1.1 0.8 -0.3
v 0.9 0.9 -5.96046e-008
v 1 0.9 -5.96046e-008
v 0.9 0.9 -0.1
v 1 0.9 -0.1
v 1 0.9 -0.3
v 1.1 0.9 -0.3
v 1 0.9 -0.4
v 1.1 0.9 -0.4
v 0.9 1 -0.1
v 1 1 -0.1
v 0.9 1 -0.2
v 1 1 -0.2
v 1 1 -0.4
v 1.1 1 -0.4
v 1 1 -0.5
v 1.1 1 -0.5
v 0.9 1.1 -0.2
v 1 1.1 -0.2
v 0.9 1.1 -0.3
v 1 1.1 -0.3
v 1 1.1 -0.5
v 1.1 1.1 -0.5
v 1 1.1 -0.6
v 1.1 1.1 -0.6
v 0.9 1.2 -0.3
v 1 1.2 -0.3
v 0.9 1.2 -0.4
v 1 1.2 -0.4
v 1 1.2 -0.6
v 1.1 1.2 -0.6
v 1 1.2 -0.7
v 1.1 1.2 -0.7
v 0.9 1.3 -0.4
v 1 1.3 -0.4
v 0.9 1.3 -0.5
v 1 1.3 -0.5
v 1 1.4 0.6
v 1.1 1.4 0.6
v 1 1.4 -0.5
v 1.1 1.4 -0.5
v 1 0.1 0.4
v 1.1 0.1 0.4
v 1 0.1 -0.7
v 1.1 0.1 -0.7
v 0.9 0.2 0.4
v 1 0.2 0.4
v 0.9 0.2 0.3
v 1 0.2 0.3
v 1 0.3 0.6
v 1.1 0.3 0.6
v 1 0.3 0.5
v 1.1 0.3 0.5
v 0.9 0.3 0.3
v 1 0.3 0.3
v 0.9 0.3 0.2
v 1 0.3 0.2
v 1 0.4 0.5
v 1.1 0.4 0.5
v 1 0.4 0.4
v 1.1 0.4 0.4
v 0.9 0.4 0.2
v 1 0.4 0.2
v 0.9 0.4 0.1
v 1 0.4 0.1
v 1 0.5 0.4
v 1.1 0.5 0.4
v 1 0.5 0.3
v 1.1 0.5 0.3
v 0.9 0.5 0.1
v 1 0.5 0.1
v 0.9 0.5 -5.96046e-008
v 1 0.5 -5.96046e-008
v 1 0.6 0.3
v 1.1 0.6 0.3
v 1 0.6 0.2
v 1.1 0.6 0.2
v 0.9 0.6 -5.96046e-008
v 1 0.6 -5.96046e-008
v 0.9 0.6 -0.1
v 1 0.6 -0.1
v 1 0.7 0.2
v 1.1 0.7 0.2
v 1 0.7 0.1
v 1.1 0.7 0.1
v 0.9 0.7 -0.1
v 1 0.7 -0.1
v 0.9 0.7 -0.2
v 1 0.7 -0.2
v 1 0.8 0.1
v 1.1 0.8 0.1
v 1 0.8 -5.96046e-008
v 1.1 0.8 -5.96046e-008
v 0.9 0.8 -0.2
v 1 0.8 -0.2
v 0.9 0.8 -0.3
v 1 0.8 -0.3
v 1 0.9 -5.96046e-008
v 1.1 0.9 -5.96046e-008
v 1 0.9 -0.1
v 1.1 0.9 -0.1
v 0.9 0.9 -0.3
v 1 0.9 -0.3
v 0.9 0.9 -0.4
v 1 0.9 -0.4
v 1 1 -0.1
v 1.1 1 -0.1
v 1 1 -0.2
v 1.1 1 -0.2
v 0.9 1 -0.4
v 1 1 -0.4
v 0.9 1 -0.5
v 1 1 -0.5
v 1 1.1 -0.2
v 1.1 1.1 -0.2
v 1 1.1 -0.3
v 1.1 1.1 -0.3
v 0.9 1.1 -0.5
v 1 1.1 -0.5
v 0.9 1.1 -0.6
v 1 1.1 -0.6
v 1 1.2 -0.3
v 1.1 1.2 -0.3
v 1 1.2 -0.4
v 1.1 1.2 -0.4
v 0.9 1.2 -0.6
v 1 1.2 -0.6
v 0.9 1.2 -0.7
v 1 1.2 -0.7
v 1 1.3 -0.4
v 1.1 1.3 -0.4
v 1 1.3 -0.5
v 1.1 1.3 -0.5
v 0.9 1.4 0.6
v 1 1.4 0.6
v 0.9 1.4 -0.5
v 1 1.4 -0.5
v 1 1.5 0.7
v 1.1 1.5 0.7
v 1 1.5 -0.8
v 1.1 1.5 -0.8

# faces
f 3/2/1 2/2/1 1/2/1
f 4/2/1 2/2/1 3/2/1
f 7/2/1 2/2/1 4/2/1
f 8/2/1 2/2/1 7/2/1
f 9/2/1 6/2/1 5/2/1
f 11/2/1 2/2/1 8/2/1
f 12/2/1 2/2/1 11/2/1
f 13/2/1 10/2/1 9/2/1
f 15/2/1 2/2/1 12/2/1
f 16/2/1 2/2/1 15/2/1
f 17/2/1 14/2/1 13/2/1
f 19/2/1 2/2/1 16/2/1
f 20/2/1 2/2/1 19/2/1
f 21/2/1 18/2/1 17/2/1
f 23/2/1 2/2/1 20/2/1
f 24/2/1 2/2/1 23/2/1
f 25/2/1 22/2/1 21/2/1
f 27/2/1 2/2/1 24/2/1
f 28/2/1 2/2/1 27/2/1
f 29/2/1 26/2/1 25/2/1
f 31/2/1 2/2/1 28/2/1
f 32/2/1 2/2/1 31/2/1
f 33/2/1 30/2/1 29/2/1
f 35/2/1 2/2/1 32/2/1
f 36/2/1 2/2/1 35/2/1
f 37/2/1 34/2/1 33/2/1
f 39/2/1 2/2/1 36/2/1
f 40/2/1 2/2/1 39/2/1
f 41/2/1 38/2/1 37/2/1
f 43/2/1 2/2/1 40/2/1
f 44/2/1 2/2/1 43/2/1
f 45/2/1 42/2/1 41/2/1
f 47/2/1 9/2/1 5/2/1
f 47/2/1 46/2/1 45/2/1
f 47/2/1 45/2/1 41/2/1
f 47/2/1 13/2/1 9/2/1
f 47/2/1 41/2/1 37/2/1
f 47/2/1 17/2/1 13/2/1
f 47/2/1 37/2/1 33/2/1
f 47/2/1 21/2/1 17/2/1
f 47/2/1 33/2/1 29/2/1
f 47/2/1 25/2/1 21/2/1
f 47/2/1 29/2/1 25/2/1
f 48/2/1 46/2/1 47/2/1
f 51/1/1 50/1/1 49/1/1
f 52/1/1 50/1/1 51/1/1
f 53/1/1 51/1/1 49/1/1
f 55/1/1 53/1/1 49/1/1
f 55/1/1 54/1/1 53/1/1
f 56/1/1 54/1/1 55/1/1
f 57/1/1 54/1/1 56/1/1
f 59/1/1 58/1/1 57/1/1
f 59/1/1 57/1/1 56/1/1
f 60/1/1 58/1/1 59/1/1
f 61/1/1 58/1/1 60/1/1
f 63/1/1 62/1/1 61/1/1
f 63/1/1 61/1/1 60/1/1
f 64/1/1 62/1/1 63/1/1
f 65/1/1 62/1/1 64/1/1
f 67/1/1 66/1/1 65/1/1
f 67/1/1 65/1/1 64/1/1
f 68/1/1 66/1/1 67/1/1
f 69/1/1 66/1/1 68/1/1
f 71/1/1 70/1/1 69/1/1
f 71/1/1 69/1/1 68/1/1
f 72/1/1 70/1/1 71/1/1
f 73/1/1 70/1/1 72/1/1
f 75/1/1 74/1/1 73/1/1
f 75/1/1 73/1/1 72/1/1
f 76/1/1 74/1/1 75/1/1
f 77/1/1 74/1/1 76/1/1
f 79/1/1 78/1/1 77/1/1
f 79/1/1 77/1/1 76/1/1
f 80/1/1 78/1/1 79/1/1
f 81/1/1 78/1/1 80/1/1
f 83/1/1 82/1/1 81/1/1
f 83/1/1 81/1/1 80/1/1
f 84/1/1 82/1/1 83/1/1
f 85/1/1 82/1/1 84/1/1
f 87/1/1 86/1/1 85/1/1
f 87/1/1 85/1/1 84/1/1
f 88/1/1 86/1/1 87/1/1
f 89/1/1 86/1/1 88/1/1
f 91/1/1 90/1/1 89/1/1
f 91/1/1 89/1/1 88/1/1
f 92/1/1 90/1/1 91/1/1
f 93/1/1 90/1/1 92/1/1
f 94/1/1 50/1/1 52/1/1
f 95/1/1 93/1/1 92/1/1
f 95/1/1 94/1/1 93/1/1
f 96/1/1 94/1/1 95/1/1
f 97/1/1 55/1/1 49/1/1
f 98/1/1 94/1/1 96/1/1
f 99/1/1 97/1/1 49/1/1
f 99/1/1 98/1/1 97/1/1
f 100/1/1 50/1/1 94/1/1
f 100/1/1 98/1/1 99/1/1
f 100/1/1 94/1/1 98/1/1
f 101/2/2 102/2/2 103/2/2
f 103/2/2 102/2/2 104/2/2
f 104/2/2 102/2/2 107/2/2
f 107/2/2 102/2/2 108/2/2
f 105/2/2 106/2/2 109/2/2
f 108/2/2 102/2/2 111/2/2
f 111/2/2 102/2/2 112/2/2
f 109/2/2 110/2/2 113/2/2
f 112/2/2 102/2/2 115/2/2
f 115/2/2 102/2/2 116/2/2
f 113/2/2 114/2/2 117/2/2
f 116/2/2 102/2/2 119/2/2
f 119/2/2 102/2/2 120/2/2
f 117/2/2 118/2/2 121/2/2
f 120/2/2 102/2/2 123/2/2
f 123/2/2 102/2/2 124/2/2
f 121/2/2 122/2/2 125/2/2
f 124/2/2 102/2/2 127/2/2
f 127/2/2 102/2/2 128/2/2
f 125/2/2 126/2/2 129/2/2
f 128/2/2 102/2/2 131/2/2
f 131/2/2 102/2/2 132/2/2
f 129/2/2 130/2/2 133/2/2
f 132/2/2 102/2/2 135/2/2
f 135/2/2 102/2/2 136/2/2
f 133/2/2 134/2/2 137/2/2
f 136/2/2 102/2/2 139/2/2
f 139/2/2 102/2/2 140/2/2
f 137/2/2 138/2/2 141/2/2
f 140/2/2 102/2/2 143/2/2
f 143/2/2 102/2/2 144/2/2
f 141/2/2 142/2/2 145/2/2
f 105/2/2 109/2/2 147/2/2
f 145/2/2 146/2/2 147/2/2
f 141/2/2 145/2/2 147/2/2
f 109/2/2 113/2/2 147/2/2
f 137/2/2 141/2/2 147/2/2
f 113/2/2 117/2/2 147/2/2
f 133/2/2 137/2/2 147/2/2
f 117/2/2 121/2/2 147/2/2
f 129/2/2 133/2/2 147/2/2
f 121/2/2 125/2/2 147/2/2
f 125/2/2 129/2/2 147/2/2
f 147/2/2 146/2/2 148/2/2
f 149/1/2 150/1/2 151/1/2
f 151/1/2 150/1/2 152/1/2
f 149/1/2 151/1/2 153/1/2
f 149/1/2 153/1/2 155/1/2
f 153/1/2 154/1/2 155/1/2
f 155/1/2 154/1/2 156/1/2
f 156/1/2 154/1/2 157/1/2
f 157/1/2 158/1/2 159/1/2
f 156/1/2 157/1/2 159/1/2
f 159/1/2 158/1/2 160/1/2
f 160/1/2 158/1/2 161/1/2
f 161/1/2 162/1/2 163/1/2
f 160/1/2 161/1/2 163/1/2
f 163/1/2 162/1/2 164/1/2
f 164/1/2 162/1/2 165/1/2
f 165/1/2 166/1/2 167/1/2
f 164/1/2 165/1/2 167/1/2
f 167/1/2 166/1/2 168/1/2
f 168/1/2 166/1/2 169/1/2
f 169/1/2 170/1/2 171/1/2
f 168/1/2 169/1/2 171/1/2
f 171/1/2 170/1/2 172/1/2
f 172/1/2 170/1/2 173/1/2
f 173/1/2 174/1/2 175/1/2
f 172/1/2 173/1/2 175/1/2
f 175/1/2 174/1/2 176/1/2
f 176/1/2 174/1/2 177/1/2
f 177/1/2 178/1/2 179/1/2
f 176/1/2 177/1/2 179/1/2
f 179/1/2 178/1/2 180/1/2
f 180/1/2 178/1/2 181/1/2
f 181/1/2 182/1/2 183/1/2
f 180/1/2 181/1/2 183/1/2
f 183/1/2 182/1/2 184/1/2
f 184/1/2 182/1/2 185/1/2
f 185/1/2 186/1/2 187/1/2
f 184/1/2 185/1/2 187/1/2
f 187/1/2 186/1/2 188/1/2
f 188/1/2 186/1/2 189/1/2
f 189/1/2 190/1/2 191/1/2
f 188/1/2 189/1/2 191/1/2
f 191/1/2 190/1/2 192/1/2
f 192/1/2 190/1/2 193/1/2
f 152/1/2 150/1/2 194/1/2
f 192/1/2 193/1/2 195/1/2
f 193/1/2 194/1/2 195/1/2
f 195/1/2 194/1/2 196/1/2
f 149/1/2 155/1/2 197/1/2
f 196/1/2 194/1/2 198/1/2
f 149/1/2 197/1/2 199/1/2
f 197/1/2 198/1/2 199/1/2
f 194/1/2 150/1/2 200/1/2
f 199/1/2 198/1/2 200/1/2
f 198/1/2 194/1/2 200/1/2
f 203/1/3 202/1/3 201/1/3
f 204/1/3 202/1/3 203/1/3
f 207/2/3 206/2/3 205/2/3
f 208/2/3 206/2/3 207/2/3
f 211/1/3 210/1/3 209/1/3
f 212/1/3 210/1/3 211/1/3
f 215/2/3 214/2/3 213/2/3
f 216/2/3 214/2/3 215/2/3
f 219/1/3 218/1/3 217/1/3
f 220/1/3 218/1/3 219/1/3
f 223/2/3 222/2/3 221/2/3
f 224/2/3 222/2/3 223/2/3
f 227/1/3 226/1/3 225/1/3
f 228/1/3 226/1/3 227/1/3
f 231/2/3 230/2/3 229/2/3
f 232/2/3 230/2/3 231/2/3
f 235/1/3 234/1/3 233/1/3
f 236/1/3 234/1/3 235/1/3
f 239/2/3 238/2/3 237/2/3
f 240/2/3 238/2/3 239/2/3
f 243/1/3 242/1/3 241/1/3
f 244/1/3 242/1/3 243/1/3
f 247/2/3 246/2/3 245/2/3
f 248/2/3 246/2/3 247/2/3
f 251/1/3 250/1/3 249/1/3
f 252/1/3 250/1/3 251/1/3
f 255/2/3 254/2/3 253/2/3
f 256/2/3 254/2/3 255/2/3
f 259/1/3 258/1/3 257/1/3
f 260/1/3 258/1/3 259/1/3
f 263/2/3 262/2/3 261/2/3
f 264/2/3 262/2/3 263/2/3
f 267/1/3 266/1/3 265/1/3
f 268/1/3 266/1/3 267/1/3
f 271/2/3 270/2/3 269/2/3
f 272/2/3 270/2/3 271/2/3
f 275/1/3 274/1/3 273/1/3
f 276/1/3 274/1/3 275/1/3
f 279/2/3 278/2/3 277/2/3
f 280/2/3 278/2/3 279/2/3
f 283/1/3 282/1/3 281/1/3
f 284/1/3 282/1/3 283/1/3
f 287/2/3 286/2/3 285/2/3
f 288/2/3 286/2/3 287/2/3
f 291/1/3 290/1/3 289/1/3
f 292/1/3 290/1/3 291/1/3
f 295/2/3 294/2/3 293/2/3
f 296/2/3 294/2/3 295/2/3
f 299/1/3 298/1/3 297/1/3
f 300/1/3 298/1/3 299/1/3
f 301/1/4 302/1/4 303/1/4
f 303/1/4 302/1/4 304/1/4
f 305/2/4 306/2/4 307/2/4
f 307/2/4 306/2/4 308/2/4
f 309/2/4 310/2/4 313/2/4
f 313/2/4 310/2/4 314/2/4
f 311/1/4 312/1/4 315/1/4
f 315/1/4 312/1/4 316/1/4
f 317/2/4 318/2/4 321/2/4
f 321/2/4 318/2/4 322/2/4
f 319/1/4 320/1/4 323/1/4
f 323/1/4 320/1/4 324/1/4
f 325/2/4 326/2/4 329/2/4
f 329/2/4 326/2/4 330/2/4
f 327/1/4 328/1/4 331/1/4
f 331/1/4 328/1/4 332/1/4
f 333/2/4 334/2/4 337/2/4
f 337/2/4 334/2/4 338/2/4
f 335/1/4 336/1/4 339/1/4
f 339/1/4 336/1/4 340/1/4
f 341/2/4 342/2/4 345/2/4
f 345/2/4 342/2/4 346/2/4
f 343/1/4 344/1/4 347/1/4
f 347/1/4 344/1/4 348/1/4
f 349/2/4 350/2/4 353/2/4
f 353/2/4 350/2/4 354/2/4
f 351/1/4 352/1/4 355/1/4
f 355/1/4 352/1/4 356/1/4
f 357/2/4 358/2/4 361/2/4
f 361/2/4 358/2/4 362/2/4
f 359/1/4 360/1/4 363/1/4
f 363/1/4 360/1/4 364/1/4
f 365/2/4 366/2/4 369/2/4
f 369/2/4 366/2/4 370/2/4
f 367/1/4 368/1/4 371/1/4
f 371/1/4 368/1/4 372/1/4
f 373/2/4 374/2/4 377/2/4
f 377/2/4 374/2/4 378/2/4
f 375/1/4 376/1/4 379/1/4
f 379/1/4 376/1/4 380/1/4
f 381/2/4 382/2/4 385/2/4
f 385/2/4 382/2/4 386/2/4
f 383/1/4 384/1/4 387/1/4
f 387/1/4 384/1/4 388/1/4
f 389/1/4 390/1/4 391/1/4
f 391/1/4 390/1/4 392/1/4
f 393/2/4 394/2/4 395/2/4
f 395/2/4 394/2/4 396/2/4
f 397/1/4 398/1/4 399/1/4
f 399/1/4 398/1/4 400/1/4
f 403/1/5 402/1/5 401/1/5
f 404/1/5 402/1/5 403/1/5
f 407/2/5 406/2/5 405/2/5
f 408/2/5 406/2/5 407/2/5
f 411/1/5 410/1/5 409/1/5
f 412/1/5 410/1/5 411/1/5
f 415/2/5 414/2/5 413/2/5
f 416/2/5 414/2/5 415/2/5
f 419/1/5 418/1/5 417/1/5
f 420/1/5 418/1/5 419/1/5
f 423/2/5 422/2/5 421/2/5
f 424/2/5 422/2/5 423/2/5
f 427/1/5 426/1/5 425/1/5
f 428/1/5 426/1/5 427/1/5
f 431/2/5 430/2/5 429/2/5
f 432/2/5 430/2/5 431/2/5
f 435/1/5 434/1/5 433/1/5
f 436/1/5 434/1/5 435/1/5
f 439/2/5 438/2/5 437/2/5
f 440/2/5 438/2/5 439/2/5
f 443/1/5 442/1/5 441/1/5
f 444/1/5 442/1/5 443/1/5
f 447/2/5 446/2/5 445/2/5
f 448/2/5 446/2/5 447/2/5
f 451/1/5 450/1/5 449/1/5
f 452/1/5 450/1/5 451/1/5
f 455/2/5 454/2/5 453/2/5
f 456/2/5 454/2/5 455/2/5
f 459/1/5 458/1/5 457/1/5
f 460/1/5 458/1/5 459/1/5
f 463/2/5 462/2/5 461/2/5
f 464/2/5 462/2/5 463/2/5
f 467/1/5 466/1/5 465/1/5
f 468/1/5 466/1/5 467/1/5
f 471/2/5 470/2/5 469/2/5
f 472/2/5 470/2/5 471/2/5
f 475/1/5 474/1/5 473/1/5
f 476/1/5 474/1/5 475/1/5
f 479/2/5 478/2/5 477/2/5
f 480/2/5 478/2/5 479/2/5
f 483/1/5 482/1/5 481/1/5
f 484/1/5 482/1/5 483/1/5
f 487/2/5 486/2/5 485/2/5
f 488/2/5 486/2/5 487/2/5
f 491/1/5 490/1/5 489/1/5
f 492/1/5 490/1/5 491/1/5
f 495/2/5 494/2/5 493/2/5
f 496/2/5 494/2/5 495/2/5
f 499/1/5 498/1/5 497/1/5
f 500/1/5 498/1/5 499/1/5
f 501/1/6 502/1/6 503/1/6
f 503/1/6 502/1/6 504/1/6
f 505/2/6 506/2/6 507/2/6
f 507/2/6 506/2/6 508/2/6
f 509/1/6 510/1/6 511/1/6
f 511/1/6 510/1/6 512/1/6
f 513/2/6 514/2/6 515/2/6
f 515/2/6 514/2/6 516/2/6
f 517/1/6 518/1/6 519/1/6
f 519/1/6 518/1/6 520/1/6
f 521/2/6 522/2/6 523/2/6
f 523/2/6 522/2/6 524/2/6
f 525/1/6 526/1/6 527/1/6
f 527/1/6 526/1/6 528/1/6
f 529/2/6 530/2/6 531/2/6
f 531/2/6 530/2/6 532/2/6
f 533/1/6 534/1/6 535/1/6
f 535/1/6 534/1/6 536/1/6
f 537/2/6 538/2/6 539/2/6
f 539/2/6 538/2/6 540/2/6
f 541/1/6 542/1/6 543/1/6
f 543/1/6 542/1/6 544/1/6
f 545/2/6 546/2/6 547/2/6
f 547/2/6 546/2/6 548/2/6
f 549/1/6 550/1/6 551/1/6
f 551/1/6 550/1/6 552/1/6
f 553/2/6 554/2/6 555/2/6
f 555/2/6 554/2/6 556/2/6
f 557/1/6 558/1/6 559/1/6
f 559/1/6 558/1/6 560/1/6
f 561/2/6 562/2/6 563/2/6
f 563/2/6 562/2/6 564/2/6
f 565/1/6 566/1/6 567/1/6
f 567/1/6 566/1/6 568/1/6
f 569/2/6 570/2/6 571/2/6
f 571/2/6 570/2/6 572/2/6
f 573/1/6 574/1/6 575/1/6
f 575/1/6 574/1/6 576/1/6
f 577/2/6 578/2/6 579/2/6
f 579/2/6 578/2/6 580/2/6
f 581/1/6 582/1/6 583/1/6
f 583/1/6 582/1/6 584/1/6
f 585/2/6 586/2/6 587/2/6
f 587/2/6 586/2/6 588/2/6
f 589/1/6 590/1/6 591/1/6
f 591/1/6 590/1/6 592/1/6
f 593/2/6 594/2/6 595/2/6
f 595/2/6 594/2/6 596/2/6
f 597/1/6 598/1/6 599/1/6
f 599/1/6 598/1/6 600/1/6
