# MagicaVoxel @ Ephtracy

# group
o 

# material
mtllib Altar.mtl
usemtl palette

# normals
vn -1 0 0
vn 1 0 0
vn 0 0 1
vn 0 0 -1
vn 0 -1 0
vn 0 1 0

# texcoords
vt 0.470703 0.5
vt 0.474609 0.5
vt 0.958984 0.5

# verts
v -5.4 0 -5.2
v -5.4 0 -9.8
v -5.4 0.1 -6.7
v -5.4 0.1 -8.3
v -5.4 0.2 -5.2
v -5.4 0.2 -6.7
v -5.4 0.2 -8.3
v -5.4 0.2 -9.8
v -1.5 0 -5.1
v -1.5 0 -5.2
v -1.5 0 -9.8
v -1.5 0 -10.1
v -1.5 0.1 -5.1
v -1.5 0.1 -5.2
v -1.5 0.1 -9.8
v -1.5 0.1 -10.1
v -1.5 0.2 -5.2
v -1.5 0.2 -9.8
v 1.1 0.1 -5.2
v 1.1 0.1 -5.4
v 1.1 0.1 -9.6
v 1.1 0.1 -9.8
v 1.1 0.2 -5.2
v 1.1 0.2 -5.4
v 1.1 0.2 -9.6
v 1.1 0.2 -9.8
v 4.1 0.1 -5.4
v 4.1 0.1 -5.5
v 4.1 0.1 -9.5
v 4.1 0.1 -9.6
v 4.1 0.2 -5.4
v 4.1 0.2 -5.5
v 4.1 0.2 -9.5
v 4.1 0.2 -9.6
v 4.2 0.1 -5.5
v 4.2 0.1 -6.7
v 4.2 0.1 -8.3
v 4.2 0.1 -9.5
v 4.2 0.2 -5.5
v 4.2 0.2 -6.7
v 4.2 0.2 -8.3
v 4.2 0.2 -9.5
v -5.2 0.1 -5.5
v -5.2 0.1 -6.7
v -5.2 0.1 -8.3
v -5.2 0.1 -9.5
v -5.2 0.2 -5.5
v -5.2 0.2 -6.7
v -5.2 0.2 -8.3
v -5.2 0.2 -9.5
v -5.1 0.1 -5.4
v -5.1 0.1 -5.5
v -5.1 0.1 -9.5
v -5.1 0.1 -9.6
v -5.1 0.2 -5.4
v -5.1 0.2 -5.5
v -5.1 0.2 -9.5
v -5.1 0.2 -9.6
v -2 0.1 -5.2
v -2 0.1 -5.4
v -2 0.1 -9.6
v -2 0.1 -9.8
v -2 0.2 -5.2
v -2 0.2 -5.4
v -2 0.2 -9.6
v -2 0.2 -9.8
v 0.5 0 -5.1
v 0.5 0 -5.2
v 0.5 0 -9.8
v 0.5 0 -10.1
v 0.5 0.1 -5.1
v 0.5 0.1 -5.2
v 0.5 0.1 -9.8
v 0.5 0.1 -10.1
v 0.5 0.2 -5.2
v 0.5 0.2 -9.8
v 4.4 0 -5.2
v 4.4 0 -9.8
v 4.4 0.1 -6.7
v 4.4 0.1 -8.3
v 4.4 0.2 -5.2
v 4.4 0.2 -6.7
v 4.4 0.2 -8.3
v 4.4 0.2 -9.8
v -1.5 0 -5.1
v -1.5 0.1 -5.1
v -1.3 0 -5.1
v -1.3 0.1 -5.1
v -1.1 0 -5.1
v -1.1 0.1 -5.1
v 0.0999999 0 -5.1
v 0.0999999 0.1 -5.1
v 0.3 0 -5.1
v 0.3 0.1 -5.1
v 0.5 0 -5.1
v 0.5 0.1 -5.1
v -5.4 0 -5.2
v -5.4 0.2 -5.2
v -2 0.1 -5.2
v -2 0.2 -5.2
v -1.5 0 -5.2
v -1.5 0.1 -5.2
v -1.5 0.2 -5.2
v -1.3 0.1 -5.2
v -1.3 0.2 -5.2
v -1.1 0.1 -5.2
v -1.1 0.2 -5.2
v 0.0999999 0.1 -5.2
v 0.0999999 0.2 -5.2
v 0.3 0.1 -5.2
v 0.3 0.2 -5.2
v 0.5 0 -5.2
v 0.5 0.1 -5.2
v 0.5 0.2 -5.2
v 1.1 0.1 -5.2
v 1.1 0.2 -5.2
v 4.4 0 -5.2
v 4.4 0.2 -5.2
v -5.4 0.1 -8.3
v -5.4 0.2 -8.3
v -5.2 0.1 -8.3
v -5.2 0.2 -8.3
v 4.2 0.1 -8.3
v 4.2 0.2 -8.3
v 4.4 0.1 -8.3
v 4.4 0.2 -8.3
v -5.2 0.1 -9.5
v -5.2 0.2 -9.5
v -5.1 0.1 -9.5
v -5.1 0.2 -9.5
v 4.1 0.1 -9.5
v 4.1 0.2 -9.5
v 4.2 0.1 -9.5
v 4.2 0.2 -9.5
v -5.1 0.1 -9.6
v -5.1 0.2 -9.6
v -2 0.1 -9.6
v -2 0.2 -9.6
v 1.1 0.1 -9.6
v 1.1 0.2 -9.6
v 4.1 0.1 -9.6
v 4.1 0.2 -9.6
v -5.1 0.1 -5.4
v -5.1 0.2 -5.4
v -2 0.1 -5.4
v -2 0.2 -5.4
v 1.1 0.1 -5.4
v 1.1 0.2 -5.4
v 4.1 0.1 -5.4
v 4.1 0.2 -5.4
v -5.2 0.1 -5.5
v -5.2 0.2 -5.5
v -5.1 0.1 -5.5
v -5.1 0.2 -5.5
v 4.1 0.1 -5.5
v 4.1 0.2 -5.5
v 4.2 0.1 -5.5
v 4.2 0.2 -5.5
v -5.4 0.1 -6.7
v -5.4 0.2 -6.7
v -5.2 0.1 -6.7
v -5.2 0.2 -6.7
v 4.2 0.1 -6.7
v 4.2 0.2 -6.7
v 4.4 0.1 -6.7
v 4.4 0.2 -6.7
v -5.4 0 -9.8
v -5.4 0.2 -9.8
v -2 0.1 -9.8
v -2 0.2 -9.8
v -1.5 0 -9.8
v -1.5 0.1 -9.8
v -1.5 0.2 -9.8
v -1.3 0.1 -9.8
v -1.3 0.2 -9.8
v 0.3 0.1 -9.8
v 0.3 0.2 -9.8
v 0.5 0 -9.8
v 0.5 0.1 -9.8
v 0.5 0.2 -9.8
v 1.1 0.1 -9.8
v 1.1 0.2 -9.8
v 4.4 0 -9.8
v 4.4 0.2 -9.8
v -1.5 0 -10.1
v -1.5 0.1 -10.1
v 0.5 0 -10.1
v 0.5 0.1 -10.1
v -1.5 0 -5.1
v -1.3 0 -5.1
v -1.1 0 -5.1
v 0.0999999 0 -5.1
v 0.3 0 -5.1
v 0.5 0 -5.1
v -5.4 0 -5.2
v -1.5 0 -5.2
v -1.3 0 -5.2
v -1.1 0 -5.2
v 0.0999999 0 -5.2
v 0.3 0 -5.2
v 0.5 0 -5.2
v 4.4 0 -5.2
v -5.4 0 -9.8
v -1.5 0 -9.8
v -1.3 0 -9.8
v 0.3 0 -9.8
v 0.5 0 -9.8
v 4.4 0 -9.8
v -1.3 0 -9.9
v 0.3 0 -9.9
v -1.5 0 -10.1
v 0.5 0 -10.1
v -1.5 0.1 -5.1
v -1.3 0.1 -5.1
v -1.1 0.1 -5.1
v 0.0999999 0.1 -5.1
v 0.3 0.1 -5.1
v 0.5 0.1 -5.1
v -2 0.1 -5.2
v -1.5 0.1 -5.2
v -1.3 0.1 -5.2
v -1.1 0.1 -5.2
v 0.0999999 0.1 -5.2
v 0.3 0.1 -5.2
v 0.5 0.1 -5.2
v 1.1 0.1 -5.2
v -5.1 0.1 -5.4
v -2 0.1 -5.4
v 1.1 0.1 -5.4
v 4.1 0.1 -5.4
v -5.2 0.1 -5.5
v -5.1 0.1 -5.5
v 4.1 0.1 -5.5
v 4.2 0.1 -5.5
v -5.4 0.1 -6.7
v -5.2 0.1 -6.7
v 4.2 0.1 -6.7
v 4.4 0.1 -6.7
v -5.4 0.1 -8.3
v -5.2 0.1 -8.3
v 4.2 0.1 -8.3
v 4.4 0.1 -8.3
v -5.2 0.1 -9.5
v -5.1 0.1 -9.5
v 4.1 0.1 -9.5
v 4.2 0.1 -9.5
v -5.1 0.1 -9.6
v -2 0.1 -9.6
v 1.1 0.1 -9.6
v 4.1 0.1 -9.6
v -2 0.1 -9.8
v -1.5 0.1 -9.8
v -1.3 0.1 -9.8
v 0.3 0.1 -9.8
v 0.5 0.1 -9.8
v 1.1 0.1 -9.8
v -1.3 0.1 -9.9
v 0.3 0.1 -9.9
v -1.5 0.1 -10.1
v 0.5 0.1 -10.1
v -5.4 0.2 -5.2
v -2 0.2 -5.2
v -1.5 0.2 -5.2
v -1.3 0.2 -5.2
v -1.1 0.2 -5.2
v 0.0999999 0.2 -5.2
v 0.3 0.2 -5.2
v 0.5 0.2 -5.2
v 1.1 0.2 -5.2
v 4.4 0.2 -5.2
v -5.1 0.2 -5.4
v -2 0.2 -5.4
v 1.1 0.2 -5.4
v 4.1 0.2 -5.4
v -5.2 0.2 -5.5
v -5.1 0.2 -5.5
v 4.1 0.2 -5.5
v 4.2 0.2 -5.5
v -5.4 0.2 -6.7
v -5.2 0.2 -6.7
v 4.2 0.2 -6.7
v 4.4 0.2 -6.7
v -5.4 0.2 -8.3
v -5.2 0.2 -8.3
v 4.2 0.2 -8.3
v 4.4 0.2 -8.3
v -5.2 0.2 -9.5
v -5.1 0.2 -9.5
v 4.1 0.2 -9.5
v 4.2 0.2 -9.5
v -5.1 0.2 -9.6
v -2 0.2 -9.6
v 1.1 0.2 -9.6
v 4.1 0.2 -9.6
v -1.1 0.2 -9.7
v 0.0999999 0.2 -9.7
v -5.4 0.2 -9.8
v -2 0.2 -9.8
v -1.5 0.2 -9.8
v -1.3 0.2 -9.8
v 0.3 0.2 -9.8
v 0.5 0.2 -9.8
v 1.1 0.2 -9.8
v 4.4 0.2 -9.8

# faces
f 3/3/1 2/3/1 1/3/1
f 4/3/1 2/3/1 3/3/1
f 5/3/1 3/3/1 1/3/1
f 6/3/1 3/3/1 5/3/1
f 7/3/1 2/3/1 4/3/1
f 8/3/1 2/3/1 7/3/1
f 13/1/1 10/1/1 9/1/1
f 14/1/1 10/1/1 13/1/1
f 15/1/1 12/1/1 11/1/1
f 16/1/1 12/1/1 15/1/1
f 17/1/1 15/1/1 14/1/1
f 18/1/1 15/1/1 17/1/1
f 23/3/1 20/3/1 19/3/1
f 24/3/1 20/3/1 23/3/1
f 25/3/1 22/3/1 21/3/1
f 26/3/1 22/3/1 25/3/1
f 31/3/1 28/3/1 27/3/1
f 32/3/1 28/3/1 31/3/1
f 33/3/1 30/3/1 29/3/1
f 34/3/1 30/3/1 33/3/1
f 39/3/1 36/3/1 35/3/1
f 40/3/1 36/3/1 39/3/1
f 41/3/1 38/3/1 37/3/1
f 42/3/1 38/3/1 41/3/1
f 43/3/2 44/3/2 47/3/2
f 47/3/2 44/3/2 48/3/2
f 45/3/2 46/3/2 49/3/2
f 49/3/2 46/3/2 50/3/2
f 51/3/2 52/3/2 55/3/2
f 55/3/2 52/3/2 56/3/2
f 53/3/2 54/3/2 57/3/2
f 57/3/2 54/3/2 58/3/2
f 59/3/2 60/3/2 63/3/2
f 63/3/2 60/3/2 64/3/2
f 61/3/2 62/3/2 65/3/2
f 65/3/2 62/3/2 66/3/2
f 67/1/2 68/1/2 71/1/2
f 71/1/2 68/1/2 72/1/2
f 69/1/2 70/1/2 73/1/2
f 73/1/2 70/1/2 74/1/2
f 72/1/2 73/1/2 75/1/2
f 75/1/2 73/1/2 76/1/2
f 77/3/2 78/3/2 79/3/2
f 79/3/2 78/3/2 80/3/2
f 77/3/2 79/3/2 81/3/2
f 81/3/2 79/3/2 82/3/2
f 80/3/2 78/3/2 83/3/2
f 83/3/2 78/3/2 84/3/2
f 87/1/3 86/1/3 85/1/3
f 88/1/3 86/1/3 87/1/3
f 89/2/3 88/2/3 87/2/3
f 90/2/3 88/2/3 89/2/3
f 91/1/3 90/1/3 89/1/3
f 92/1/3 90/1/3 91/1/3
f 93/2/3 92/2/3 91/2/3
f 94/2/3 92/2/3 93/2/3
f 95/1/3 94/1/3 93/1/3
f 96/1/3 94/1/3 95/1/3
f 99/3/3 98/3/3 97/3/3
f 100/3/3 98/3/3 99/3/3
f 101/3/3 99/3/3 97/3/3
f 102/3/3 99/3/3 101/3/3
f 104/1/3 103/1/3 102/1/3
f 105/1/3 103/1/3 104/1/3
f 106/2/3 105/2/3 104/2/3
f 107/2/3 105/2/3 106/2/3
f 108/1/3 107/1/3 106/1/3
f 109/1/3 107/1/3 108/1/3
f 110/2/3 109/2/3 108/2/3
f 111/2/3 109/2/3 110/2/3
f 113/1/3 111/1/3 110/1/3
f 114/1/3 111/1/3 113/1/3
f 115/3/3 113/3/3 112/3/3
f 117/3/3 115/3/3 112/3/3
f 117/3/3 116/3/3 115/3/3
f 118/3/3 116/3/3 117/3/3
f 121/3/3 120/3/3 119/3/3
f 122/3/3 120/3/3 121/3/3
f 125/3/3 124/3/3 123/3/3
f 126/3/3 124/3/3 125/3/3
f 129/3/3 128/3/3 127/3/3
f 130/3/3 128/3/3 129/3/3
f 133/3/3 132/3/3 131/3/3
f 134/3/3 132/3/3 133/3/3
f 137/3/3 136/3/3 135/3/3
f 138/3/3 136/3/3 137/3/3
f 141/3/3 140/3/3 139/3/3
f 142/3/3 140/3/3 141/3/3
f 143/3/4 144/3/4 145/3/4
f 145/3/4 144/3/4 146/3/4
f 147/3/4 148/3/4 149/3/4
f 149/3/4 148/3/4 150/3/4
f 151/3/4 152/3/4 153/3/4
f 153/3/4 152/3/4 154/3/4
f 155/3/4 156/3/4 157/3/4
f 157/3/4 156/3/4 158/3/4
f 159/3/4 160/3/4 161/3/4
f 161/3/4 160/3/4 162/3/4
f 163/3/4 164/3/4 165/3/4
f 165/3/4 164/3/4 166/3/4
f 167/3/4 168/3/4 169/3/4
f 169/3/4 168/3/4 170/3/4
f 167/3/4 169/3/4 171/3/4
f 171/3/4 169/3/4 172/3/4
f 172/1/4 173/1/4 174/1/4
f 174/1/4 173/1/4 175/1/4
f 174/2/4 175/2/4 176/2/4
f 176/2/4 175/2/4 177/2/4
f 176/1/4 177/1/4 179/1/4
f 179/1/4 177/1/4 180/1/4
f 178/3/4 179/3/4 181/3/4
f 178/3/4 181/3/4 183/3/4
f 181/3/4 182/3/4 183/3/4
f 183/3/4 182/3/4 184/3/4
f 185/1/4 186/1/4 187/1/4
f 187/1/4 186/1/4 188/1/4
f 196/1/5 190/1/5 189/1/5
f 197/2/5 191/2/5 190/2/5
f 197/1/5 190/1/5 196/1/5
f 198/1/5 192/1/5 191/1/5
f 198/2/5 191/2/5 197/2/5
f 199/2/5 193/2/5 192/2/5
f 199/1/5 192/1/5 198/1/5
f 200/1/5 194/1/5 193/1/5
f 200/2/5 193/2/5 199/2/5
f 201/1/5 194/1/5 200/1/5
f 203/3/5 199/3/5 198/3/5
f 203/3/5 202/3/5 201/3/5
f 203/3/5 201/3/5 200/3/5
f 203/3/5 200/3/5 199/3/5
f 203/3/5 196/3/5 195/3/5
f 203/3/5 198/3/5 197/3/5
f 203/3/5 197/3/5 196/3/5
f 204/3/5 202/3/5 203/3/5
f 205/3/5 202/3/5 204/3/5
f 206/3/5 202/3/5 205/3/5
f 207/3/5 202/3/5 206/3/5
f 208/3/5 202/3/5 207/3/5
f 209/1/5 205/1/5 204/1/5
f 209/2/5 206/2/5 205/2/5
f 210/1/5 207/1/5 206/1/5
f 210/2/5 206/2/5 209/2/5
f 211/1/5 209/1/5 204/1/5
f 211/1/5 210/1/5 209/1/5
f 212/1/5 207/1/5 210/1/5
f 212/1/5 210/1/5 211/1/5
f 213/1/6 214/1/6 220/1/6
f 214/2/6 215/2/6 221/2/6
f 220/1/6 214/1/6 221/1/6
f 215/1/6 216/1/6 222/1/6
f 221/2/6 215/2/6 222/2/6
f 216/2/6 217/2/6 223/2/6
f 222/1/6 216/1/6 223/1/6
f 217/1/6 218/1/6 224/1/6
f 223/2/6 217/2/6 224/2/6
f 224/1/6 218/1/6 225/1/6
f 219/3/6 220/3/6 228/3/6
f 225/3/6 226/3/6 229/3/6
f 227/3/6 228/3/6 232/3/6
f 229/3/6 230/3/6 233/3/6
f 231/3/6 232/3/6 236/3/6
f 233/3/6 234/3/6 237/3/6
f 235/3/6 236/3/6 239/3/6
f 236/3/6 232/3/6 240/3/6
f 239/3/6 236/3/6 240/3/6
f 237/3/6 238/3/6 241/3/6
f 233/3/6 237/3/6 241/3/6
f 241/3/6 238/3/6 242/3/6
f 240/3/6 232/3/6 243/3/6
f 232/3/6 228/3/6 244/3/6
f 243/3/6 232/3/6 244/3/6
f 229/3/6 233/3/6 245/3/6
f 233/3/6 241/3/6 245/3/6
f 245/3/6 241/3/6 246/3/6
f 244/3/6 228/3/6 247/3/6
f 228/3/6 220/3/6 248/3/6
f 247/3/6 228/3/6 248/3/6
f 225/3/6 229/3/6 249/3/6
f 229/3/6 245/3/6 249/3/6
f 249/3/6 245/3/6 250/3/6
f 248/3/6 220/3/6 251/3/6
f 251/3/6 220/3/6 252/3/6
f 225/3/6 249/3/6 255/3/6
f 255/3/6 249/3/6 256/3/6
f 253/2/6 254/2/6 257/2/6
f 252/1/6 253/1/6 257/1/6
f 254/1/6 255/1/6 258/1/6
f 257/2/6 254/2/6 258/2/6
f 252/1/6 257/1/6 259/1/6
f 257/1/6 258/1/6 259/1/6
f 258/1/6 255/1/6 260/1/6
f 259/1/6 258/1/6 260/1/6
f 261/3/6 262/3/6 271/3/6
f 271/3/6 262/3/6 272/3/6
f 269/3/6 270/3/6 273/3/6
f 273/3/6 270/3/6 274/3/6
f 261/3/6 271/3/6 275/3/6
f 275/3/6 271/3/6 276/3/6
f 274/3/6 270/3/6 277/3/6
f 277/3/6 270/3/6 278/3/6
f 261/3/6 275/3/6 279/3/6
f 279/3/6 275/3/6 280/3/6
f 278/3/6 270/3/6 281/3/6
f 281/3/6 270/3/6 282/3/6
f 283/3/6 284/3/6 287/3/6
f 285/3/6 286/3/6 290/3/6
f 287/3/6 288/3/6 291/3/6
f 289/3/6 290/3/6 294/3/6
f 264/2/6 265/2/6 295/2/6
f 265/1/6 266/1/6 295/1/6
f 266/2/6 267/2/6 296/2/6
f 295/1/6 266/1/6 296/1/6
f 291/3/6 292/3/6 297/3/6
f 283/3/6 287/3/6 297/3/6
f 287/3/6 291/3/6 297/3/6
f 297/3/6 292/3/6 298/3/6
f 263/1/6 264/1/6 299/1/6
f 264/2/6 295/2/6 300/2/6
f 299/1/6 264/1/6 300/1/6
f 295/2/6 296/2/6 300/2/6
f 267/1/6 268/1/6 301/1/6
f 300/2/6 296/2/6 301/2/6
f 296/2/6 267/2/6 301/2/6
f 301/1/6 268/1/6 302/1/6
f 293/3/6 294/3/6 303/3/6
f 294/3/6 290/3/6 304/3/6
f 303/3/6 294/3/6 304/3/6
f 290/3/6 286/3/6 304/3/6
