# MagicaVoxel @ Ephtracy

# group
o 

# material
mtllib Ostia.mtl
usemtl palette

# normals
vn -1 0 0
vn 1 0 0
vn 0 0 1
vn 0 0 -1
vn 0 -1 0
vn 0 1 0

# texcoords
vt 0.439453 0.5
vt 0.443359 0.5
vt 0.494141 0.5
vt 0.498047 0.5

# verts
v -0.3 0.1 0.2
v -0.3 0.1 -0.2
v -0.3 0.3 0.2
v -0.3 0.3 -0.2
v -0.2 0 0.2
v -0.2 0 -0.2
v -0.2 0.1 0.3
v -0.2 0.1 0.2
v -0.2 0.1 -0.2
v -0.2 0.1 -0.3
v -0.2 0.3 0.3
v -0.2 0.3 0.2
v -0.2 0.3 -0.2
v -0.2 0.3 -0.3
v 0.2 0.2 0.2
v 0.2 0.2 0.1
v 0.2 0.2 0
v 0.2 0.2 -0.1
v 0.2 0.2 -0.2
v 0.2 0.3 0.2
v 0.2 0.3 -0.2
v -0.2 0.2 0.2
v -0.2 0.2 0.1
v -0.2 0.2 -0.1
v -0.2 0.2 -0.2
v -0.2 0.3 0.2
v -0.2 0.3 -0.2
v 0.2 0 0.2
v 0.2 0 -0.2
v 0.2 0.1 0.3
v 0.2 0.1 0.2
v 0.2 0.1 -0.2
v 0.2 0.1 -0.3
v 0.2 0.3 0.3
v 0.2 0.3 0.2
v 0.2 0.3 -0.2
v 0.2 0.3 -0.3
v 0.3 0.1 0.2
v 0.3 0.1 -0.2
v 0.3 0.3 0.2
v 0.3 0.3 -0.2
v -0.2 0.1 0.3
v -0.2 0.3 0.3
v 0.2 0.1 0.3
v 0.2 0.3 0.3
v -0.3 0.1 0.2
v -0.3 0.3 0.2
v -0.2 0 0.2
v -0.2 0.1 0.2
v -0.2 0.3 0.2
v 0.2 0 0.2
v 0.2 0.1 0.2
v 0.2 0.3 0.2
v 0.3 0.1 0.2
v 0.3 0.3 0.2
v -0.2 0.2 -0.2
v -0.2 0.3 -0.2
v -0.1 0.2 -0.2
v 0 0.2 -0.2
v 0.1 0.2 -0.2
v 0.2 0.2 -0.2
v 0.2 0.3 -0.2
v -0.2 0.2 0.2
v -0.2 0.3 0.2
v -0.1 0.2 0.2
v 0 0.2 0.2
v 0.1 0.2 0.2
v 0.2 0.2 0.2
v 0.2 0.3 0.2
v -0.3 0.1 -0.2
v -0.3 0.3 -0.2
v -0.2 0 -0.2
v -0.2 0.1 -0.2
v -0.2 0.3 -0.2
v 0.2 0 -0.2
v 0.2 0.1 -0.2
v 0.2 0.3 -0.2
v 0.3 0.1 -0.2
v 0.3 0.3 -0.2
v -0.2 0.1 -0.3
v -0.2 0.3 -0.3
v 0.2 0.1 -0.3
v 0.2 0.3 -0.3
v -0.2 0 0.2
v 0.2 0 0.2
v -0.2 0 -0.2
v 0.2 0 -0.2
v -0.2 0.1 0.3
v 0.2 0.1 0.3
v -0.3 0.1 0.2
v -0.2 0.1 0.2
v 0.2 0.1 0.2
v 0.3 0.1 0.2
v -0.3 0.1 -0.2
v -0.2 0.1 -0.2
v 0.2 0.1 -0.2
v 0.3 0.1 -0.2
v -0.2 0.1 -0.3
v 0.2 0.1 -0.3
v -0.2 0.2 0.2
v -0.1 0.2 0.2
v 0 0.2 0.2
v 0.1 0.2 0.2
v 0.2 0.2 0.2
v -0.2 0.2 0.1
v -0.1 0.2 0.1
v 0 0.2 0.1
v 0.1 0.2 0.1
v 0.2 0.2 0.1
v -0.1 0.2 0
v 0 0.2 0
v 0.1 0.2 0
v 0.2 0.2 0
v -0.2 0.2 -0.1
v -0.1 0.2 -0.1
v 0 0.2 -0.1
v 0.1 0.2 -0.1
v 0.2 0.2 -0.1
v -0.2 0.2 -0.2
v -0.1 0.2 -0.2
v 0 0.2 -0.2
v 0.1 0.2 -0.2
v 0.2 0.2 -0.2
v -0.2 0.3 0.3
v 0.2 0.3 0.3
v -0.3 0.3 0.2
v -0.2 0.3 0.2
v 0.2 0.3 0.2
v 0.3 0.3 0.2
v -0.3 0.3 -0.2
v -0.2 0.3 -0.2
v 0.2 0.3 -0.2
v 0.3 0.3 -0.2
v -0.2 0.3 -0.3
v 0.2 0.3 -0.3

# faces
f 3/3/1 2/3/1 1/3/1
f 4/3/1 2/3/1 3/3/1
f 8/3/1 6/3/1 5/3/1
f 9/3/1 6/3/1 8/3/1
f 11/3/1 8/3/1 7/3/1
f 12/3/1 8/3/1 11/3/1
f 13/3/1 10/3/1 9/3/1
f 14/3/1 10/3/1 13/3/1
f 20/3/1 16/3/1 15/3/1
f 20/3/1 19/3/1 18/3/1
f 20/3/1 18/3/1 17/3/1
f 20/3/1 17/3/1 16/3/1
f 21/3/1 19/3/1 20/3/1
f 22/3/2 23/3/2 26/3/2
f 24/3/2 25/3/2 26/3/2
f 23/3/2 24/3/2 26/3/2
f 26/3/2 25/3/2 27/3/2
f 28/3/2 29/3/2 31/3/2
f 31/3/2 29/3/2 32/3/2
f 30/3/2 31/3/2 34/3/2
f 34/3/2 31/3/2 35/3/2
f 32/3/2 33/3/2 36/3/2
f 36/3/2 33/3/2 37/3/2
f 38/3/2 39/3/2 40/3/2
f 40/3/2 39/3/2 41/3/2
f 44/3/3 43/3/3 42/3/3
f 45/3/3 43/3/3 44/3/3
f 49/3/3 47/3/3 46/3/3
f 50/3/3 47/3/3 49/3/3
f 51/3/3 49/3/3 48/3/3
f 52/3/3 49/3/3 51/3/3
f 54/3/3 53/3/3 52/3/3
f 55/3/3 53/3/3 54/3/3
f 58/3/3 57/3/3 56/3/3
f 59/3/3 57/3/3 58/3/3
f 60/3/3 57/3/3 59/3/3
f 61/3/3 57/3/3 60/3/3
f 62/3/3 57/3/3 61/3/3
f 63/3/4 64/3/4 65/3/4
f 65/3/4 64/3/4 66/3/4
f 66/3/4 64/3/4 67/3/4
f 67/3/4 64/3/4 68/3/4
f 68/3/4 64/3/4 69/3/4
f 70/3/4 71/3/4 73/3/4
f 73/3/4 71/3/4 74/3/4
f 72/3/4 73/3/4 75/3/4
f 75/3/4 73/3/4 76/3/4
f 76/3/4 77/3/4 78/3/4
f 78/3/4 77/3/4 79/3/4
f 80/3/4 81/3/4 82/3/4
f 82/3/4 81/3/4 83/3/4
f 86/3/5 85/3/5 84/3/5
f 87/3/5 85/3/5 86/3/5
f 91/3/5 89/3/5 88/3/5
f 92/3/5 89/3/5 91/3/5
f 94/3/5 91/3/5 90/3/5
f 95/3/5 91/3/5 94/3/5
f 96/3/5 93/3/5 92/3/5
f 97/3/5 93/3/5 96/3/5
f 98/3/5 96/3/5 95/3/5
f 99/3/5 96/3/5 98/3/5
f 100/4/6 101/4/6 105/4/6
f 101/1/6 102/1/6 106/1/6
f 105/4/6 101/4/6 106/4/6
f 102/2/6 103/2/6 107/2/6
f 106/1/6 102/1/6 107/1/6
f 103/4/6 104/4/6 108/4/6
f 107/2/6 103/2/6 108/2/6
f 108/4/6 104/4/6 109/4/6
f 106/1/6 107/1/6 110/1/6
f 105/2/6 106/2/6 110/2/6
f 107/4/6 108/4/6 111/4/6
f 110/1/6 107/1/6 111/1/6
f 108/1/6 109/1/6 112/1/6
f 111/4/6 108/4/6 112/4/6
f 112/1/6 109/1/6 113/1/6
f 105/2/6 110/2/6 114/2/6
f 110/4/6 111/4/6 115/4/6
f 114/2/6 110/2/6 115/2/6
f 111/1/6 112/1/6 116/1/6
f 115/4/6 111/4/6 116/4/6
f 112/4/6 113/4/6 117/4/6
f 116/1/6 112/1/6 117/1/6
f 117/4/6 113/4/6 118/4/6
f 114/4/6 115/4/6 119/4/6
f 115/2/6 116/2/6 120/2/6
f 119/4/6 115/4/6 120/4/6
f 116/4/6 117/4/6 121/4/6
f 120/2/6 116/2/6 121/2/6
f 117/2/6 118/2/6 122/2/6
f 121/4/6 117/4/6 122/4/6
f 122/2/6 118/2/6 123/2/6
f 124/3/6 125/3/6 127/3/6
f 127/3/6 125/3/6 128/3/6
f 126/3/6 127/3/6 130/3/6
f 130/3/6 127/3/6 131/3/6
f 128/3/6 129/3/6 132/3/6
f 132/3/6 129/3/6 133/3/6
f 131/3/6 132/3/6 134/3/6
f 134/3/6 132/3/6 135/3/6
