# MagicaVoxel @ Ephtracy

# group
o 

# material
mtllib Task Flower 4.mtl
usemtl palette

# normals
vn -1 0 0
vn 1 0 0
vn 0 0 1
vn 0 0 -1
vn 0 -1 0
vn 0 1 0

# texcoords
vt 0.576172 0.5
vt 0.619141 0.5
vt 0.623047 0.5

# verts
v -1.1 0.7 -1
v -1.1 0.7 -1.1
v -1.1 0.8 -1
v -1.1 0.8 -1.1
v -1 0.5 -1
v -1 0.5 -1.1
v -1 0.6 -1
v -1 0.6 -1.1
v -1 0.7 -0.9
v -1 0.7 -1
v -1 0.7 -1.1
v -1 0.7 -1.2
v -1 0.8 -0.9
v -1 0.8 -1
v -1 0.8 -1.1
v -1 0.8 -1.2
v -1 1 -1
v -1 1 -1.1
v -0.9 0.4 -1
v -0.9 0.4 -1.1
v -0.9 0.5 -0.9
v -0.9 0.5 -1
v -0.9 0.5 -1.1
v -0.9 0.5 -1.2
v -0.9 0.6 -0.9
v -0.9 0.6 -1
v -0.9 0.6 -1.1
v -0.9 0.6 -1.2
v -0.9 0.7 -0.8
v -0.9 0.7 -0.9
v -0.9 0.7 -1
v -0.9 0.7 -1.1
v -0.9 0.7 -1.2
v -0.9 0.7 -1.3
v -0.9 0.8 -0.8
v -0.9 0.8 -0.9
v -0.9 0.8 -1
v -0.9 0.8 -1.1
v -0.9 0.8 -1.2
v -0.9 0.8 -1.3
v -0.9 1 -0.9
v -0.9 1 -1
v -0.9 1 -1.1
v -0.9 1 -1.2
v -0.9 1.2 -1
v -0.9 1.2 -1.1
v -0.8 0.7 -0.9
v -0.8 0.7 -1
v -0.8 0.7 -1.1
v -0.8 0.7 -1.2
v -0.8 0.8 -0.9
v -0.8 0.8 -1
v -0.8 0.8 -1.1
v -0.8 0.8 -1.2
v -0.8 1.2 -1
v -0.8 1.2 -1.1
v -0.8 1.3 -1
v -0.8 1.3 -1.1
v -0.7 0.7 -1
v -0.7 0.7 -1.1
v -0.7 0.8 -1
v -0.7 0.8 -1.1
v -0.6 1.1 -1
v -0.6 1.1 -1.1
v -0.6 1.2 -1
v -0.6 1.2 -1.1
v -0.5 0 -1
v -0.5 0 -1.1
v -0.5 1.1 -1
v -0.5 1.1 -1.1
v -1 0.7 -1
v -1 0.7 -1.1
v -1 0.8 -1
v -1 0.8 -1.1
v -0.9 0.7 -0.9
v -0.9 0.7 -1
v -0.9 0.7 -1.1
v -0.9 0.7 -1.2
v -0.9 0.8 -0.9
v -0.9 0.8 -1
v -0.9 0.8 -1.1
v -0.9 0.8 -1.2
v -0.8 0.4 -1
v -0.8 0.4 -1.1
v -0.8 0.5 -0.9
v -0.8 0.5 -1
v -0.8 0.5 -1.1
v -0.8 0.5 -1.2
v -0.8 0.6 -0.9
v -0.8 0.6 -1
v -0.8 0.6 -1.1
v -0.8 0.6 -1.2
v -0.8 0.7 -0.8
v -0.8 0.7 -0.9
v -0.8 0.7 -1
v -0.8 0.7 -1.1
v -0.8 0.7 -1.2
v -0.8 0.7 -1.3
v -0.8 0.8 -0.8
v -0.8 0.8 -0.9
v -0.8 0.8 -1
v -0.8 0.8 -1.1
v -0.8 0.8 -1.2
v -0.8 0.8 -1.3
v -0.8 1 -0.9
v -0.8 1 -1
v -0.8 1 -1.1
v -0.8 1 -1.2
v -0.8 1.2 -1
v -0.8 1.2 -1.1
v -0.7 0.5 -1
v -0.7 0.5 -1.1
v -0.7 0.6 -1
v -0.7 0.6 -1.1
v -0.7 0.7 -0.9
v -0.7 0.7 -1
v -0.7 0.7 -1.1
v -0.7 0.7 -1.2
v -0.7 0.8 -0.9
v -0.7 0.8 -1
v -0.7 0.8 -1.1
v -0.7 0.8 -1.2
v -0.7 1 -1
v -0.7 1 -1.1
v -0.6 0.7 -1
v -0.6 0.7 -1.1
v -0.6 0.8 -1
v -0.6 0.8 -1.1
v -0.6 1.2 -1
v -0.6 1.2 -1.1
v -0.6 1.3 -1
v -0.6 1.3 -1.1
v -0.5 1.1 -1
v -0.5 1.1 -1.1
v -0.5 1.2 -1
v -0.5 1.2 -1.1
v -0.4 0 -1
v -0.4 0 -1.1
v -0.4 1.1 -1
v -0.4 1.1 -1.1
v -0.9 0.7 -0.8
v -0.9 0.8 -0.8
v -0.8 0.7 -0.8
v -0.8 0.8 -0.8
v -1 0.7 -0.9
v -1 0.8 -0.9
v -0.9 0.5 -0.9
v -0.9 0.6 -0.9
v -0.9 0.7 -0.9
v -0.9 0.8 -0.9
v -0.9 1 -0.9
v -0.8 0.5 -0.9
v -0.8 0.6 -0.9
v -0.8 0.7 -0.9
v -0.8 0.8 -0.9
v -0.8 1 -0.9
v -0.7 0.7 -0.9
v -0.7 0.8 -0.9
v -1.1 0.7 -1
v -1.1 0.8 -1
v -1 0.5 -1
v -1 0.6 -1
v -1 0.7 -1
v -1 0.8 -1
v -1 1 -1
v -0.9 0.4 -1
v -0.9 0.5 -1
v -0.9 0.6 -1
v -0.9 0.7 -1
v -0.9 0.8 -1
v -0.9 1 -1
v -0.9 1.2 -1
v -0.8 0.4 -1
v -0.8 0.5 -1
v -0.8 0.6 -1
v -0.8 0.7 -1
v -0.8 0.8 -1
v -0.8 1 -1
v -0.8 1.2 -1
v -0.8 1.3 -1
v -0.7 0.5 -1
v -0.7 0.6 -1
v -0.7 0.7 -1
v -0.7 0.8 -1
v -0.7 1 -1
v -0.6 0.7 -1
v -0.6 0.8 -1
v -0.6 1.1 -1
v -0.6 1.2 -1
v -0.6 1.3 -1
v -0.5 0 -1
v -0.5 1.1 -1
v -0.5 1.2 -1
v -0.4 0 -1
v -0.4 1.1 -1
v -1 0.7 -1.1
v -1 0.8 -1.1
v -0.9 0.7 -1.1
v -0.9 0.8 -1.1
v -0.8 0.7 -1.1
v -0.8 0.8 -1.1
v -0.7 0.7 -1.1
v -0.7 0.8 -1.1
v -0.9 0.7 -1.2
v -0.9 0.8 -1.2
v -0.8 0.7 -1.2
v -0.8 0.8 -1.2
v -0.9 0.7 -0.9
v -0.9 0.8 -0.9
v -0.8 0.7 -0.9
v -0.8 0.8 -0.9
v -1 0.7 -1
v -1 0.8 -1
v -0.9 0.7 -1
v -0.9 0.8 -1
v -0.8 0.7 -1
v -0.8 0.8 -1
v -0.7 0.7 -1
v -0.7 0.8 -1
v -1.1 0.7 -1.1
v -1.1 0.8 -1.1
v -1 0.5 -1.1
v -1 0.6 -1.1
v -1 0.7 -1.1
v -1 0.8 -1.1
v -1 1 -1.1
v -0.9 0.4 -1.1
v -0.9 0.5 -1.1
v -0.9 0.6 -1.1
v -0.9 0.7 -1.1
v -0.9 0.8 -1.1
v -0.9 1 -1.1
v -0.9 1.2 -1.1
v -0.8 0.4 -1.1
v -0.8 0.5 -1.1
v -0.8 0.6 -1.1
v -0.8 0.7 -1.1
v -0.8 0.8 -1.1
v -0.8 1 -1.1
v -0.8 1.2 -1.1
v -0.8 1.3 -1.1
v -0.7 0.5 -1.1
v -0.7 0.6 -1.1
v -0.7 0.7 -1.1
v -0.7 0.8 -1.1
v -0.7 1 -1.1
v -0.6 0.7 -1.1
v -0.6 0.8 -1.1
v -0.6 1.1 -1.1
v -0.6 1.2 -1.1
v -0.6 1.3 -1.1
v -0.5 0 -1.1
v -0.5 1.1 -1.1
v -0.5 1.2 -1.1
v -0.4 0 -1.1
v -0.4 1.1 -1.1
v -1 0.7 -1.2
v -1 0.8 -1.2
v -0.9 0.5 -1.2
v -0.9 0.6 -1.2
v -0.9 0.7 -1.2
v -0.9 0.8 -1.2
v -0.9 1 -1.2
v -0.8 0.5 -1.2
v -0.8 0.6 -1.2
v -0.8 0.7 -1.2
v -0.8 0.8 -1.2
v -0.8 1 -1.2
v -0.7 0.7 -1.2
v -0.7 0.8 -1.2
v -0.9 0.7 -1.3
v -0.9 0.8 -1.3
v -0.8 0.7 -1.3
v -0.8 0.8 -1.3
v -0.5 0 -1
v -0.4 0 -1
v -0.5 0 -1.1
v -0.4 0 -1.1
v -0.9 0.4 -1
v -0.8 0.4 -1
v -0.9 0.4 -1.1
v -0.8 0.4 -1.1
v -0.9 0.5 -0.9
v -0.8 0.5 -0.9
v -1 0.5 -1
v -0.9 0.5 -1
v -0.8 0.5 -1
v -0.7 0.5 -1
v -1 0.5 -1.1
v -0.9 0.5 -1.1
v -0.8 0.5 -1.1
v -0.7 0.5 -1.1
v -0.9 0.5 -1.2
v -0.8 0.5 -1.2
v -0.9 0.7 -0.8
v -0.8 0.7 -0.8
v -1 0.7 -0.9
v -0.9 0.7 -0.9
v -0.8 0.7 -0.9
v -0.7 0.7 -0.9
v -1.1 0.7 -1
v -1 0.7 -1
v -0.9 0.7 -1
v -0.8 0.7 -1
v -0.7 0.7 -1
v -0.6 0.7 -1
v -1.1 0.7 -1.1
v -1 0.7 -1.1
v -0.9 0.7 -1.1
v -0.8 0.7 -1.1
v -0.7 0.7 -1.1
v -0.6 0.7 -1.1
v -1 0.7 -1.2
v -0.9 0.7 -1.2
v -0.8 0.7 -1.2
v -0.7 0.7 -1.2
v -0.9 0.7 -1.3
v -0.8 0.7 -1.3
v -0.9 0.8 -0.9
v -0.8 0.8 -0.9
v -1 0.8 -1
v -0.9 0.8 -1
v -0.8 0.8 -1
v -0.7 0.8 -1
v -1 0.8 -1.1
v -0.9 0.8 -1.1
v -0.8 0.8 -1.1
v -0.7 0.8 -1.1
v -0.9 0.8 -1.2
v -0.8 0.8 -1.2
v -0.6 1.1 -1
v -0.5 1.1 -1
v -0.6 1.1 -1.1
v -0.5 1.1 -1.1
v -0.8 1.2 -1
v -0.6 1.2 -1
v -0.8 1.2 -1.1
v -0.6 1.2 -1.1
v -0.9 0.6 -0.9
v -0.8 0.6 -0.9
v -1 0.6 -1
v -0.9 0.6 -1
v -0.8 0.6 -1
v -0.7 0.6 -1
v -1 0.6 -1.1
v -0.9 0.6 -1.1
v -0.8 0.6 -1.1
v -0.7 0.6 -1.1
v -0.9 0.6 -1.2
v -0.8 0.6 -1.2
v -0.9 0.8 -0.8
v -0.8 0.8 -0.8
v -1 0.8 -0.9
v -0.9 0.8 -0.9
v -0.8 0.8 -0.9
v -0.7 0.8 -0.9
v -1.1 0.8 -1
v -1 0.8 -1
v -0.9 0.8 -1
v -0.8 0.8 -1
v -0.7 0.8 -1
v -0.6 0.8 -1
v -1.1 0.8 -1.1
v -1 0.8 -1.1
v -0.9 0.8 -1.1
v -0.8 0.8 -1.1
v -0.7 0.8 -1.1
v -0.6 0.8 -1.1
v -1 0.8 -1.2
v -0.9 0.8 -1.2
v -0.8 0.8 -1.2
v -0.7 0.8 -1.2
v -0.9 0.8 -1.3
v -0.8 0.8 -1.3
v -0.9 1 -0.9
v -0.8 1 -0.9
v -1 1 -1
v -0.9 1 -1
v -0.8 1 -1
v -0.7 1 -1
v -1 1 -1.1
v -0.9 1 -1.1
v -0.8 1 -1.1
v -0.7 1 -1.1
v -0.9 1 -1.2
v -0.8 1 -1.2
v -0.5 1.1 -1
v -0.4 1.1 -1
v -0.5 1.1 -1.1
v -0.4 1.1 -1.1
v -0.9 1.2 -1
v -0.8 1.2 -1
v -0.6 1.2 -1
v -0.5 1.2 -1
v -0.9 1.2 -1.1
v -0.8 1.2 -1.1
v -0.6 1.2 -1.1
v -0.5 1.2 -1.1
v -0.8 1.3 -1
v -0.6 1.3 -1
v -0.8 1.3 -1.1
v -0.6 1.3 -1.1

# faces
f 3/2/1 2/2/1 1/2/1
f 4/2/1 2/2/1 3/2/1
f 7/2/1 6/2/1 5/2/1
f 8/2/1 6/2/1 7/2/1
f 13/2/1 10/2/1 9/2/1
f 14/2/1 10/2/1 13/2/1
f 15/2/1 12/2/1 11/2/1
f 16/2/1 12/2/1 15/2/1
f 17/2/1 15/2/1 14/2/1
f 18/2/1 15/2/1 17/2/1
f 22/2/1 20/2/1 19/2/1
f 23/2/1 20/2/1 22/2/1
f 25/2/1 22/2/1 21/2/1
f 26/2/1 22/2/1 25/2/1
f 27/2/1 24/2/1 23/2/1
f 28/2/1 24/2/1 27/2/1
f 31/3/1 27/3/1 26/3/1
f 32/3/1 27/3/1 31/3/1
f 35/2/1 30/2/1 29/2/1
f 36/2/1 30/2/1 35/2/1
f 37/3/1 32/3/1 31/3/1
f 38/3/1 32/3/1 37/3/1
f 39/2/1 34/2/1 33/2/1
f 40/2/1 34/2/1 39/2/1
f 41/2/1 37/2/1 36/2/1
f 42/2/1 37/2/1 41/2/1
f 43/2/1 39/2/1 38/2/1
f 44/2/1 39/2/1 43/2/1
f 45/1/1 43/1/1 42/1/1
f 46/1/1 43/1/1 45/1/1
f 51/2/1 48/2/1 47/2/1
f 52/2/1 48/2/1 51/2/1
f 53/2/1 50/2/1 49/2/1
f 54/2/1 50/2/1 53/2/1
f 57/1/1 56/1/1 55/1/1
f 58/1/1 56/1/1 57/1/1
f 61/2/1 60/2/1 59/2/1
f 62/2/1 60/2/1 61/2/1
f 65/1/1 64/1/1 63/1/1
f 66/1/1 64/1/1 65/1/1
f 69/1/1 68/1/1 67/1/1
f 70/1/1 68/1/1 69/1/1
f 71/2/2 72/2/2 73/2/2
f 73/2/2 72/2/2 74/2/2
f 75/2/2 76/2/2 79/2/2
f 79/2/2 76/2/2 80/2/2
f 77/2/2 78/2/2 81/2/2
f 81/2/2 78/2/2 82/2/2
f 83/2/2 84/2/2 86/2/2
f 86/2/2 84/2/2 87/2/2
f 85/2/2 86/2/2 89/2/2
f 89/2/2 86/2/2 90/2/2
f 87/2/2 88/2/2 91/2/2
f 91/2/2 88/2/2 92/2/2
f 90/3/2 91/3/2 95/3/2
f 95/3/2 91/3/2 96/3/2
f 93/2/2 94/2/2 99/2/2
f 99/2/2 94/2/2 100/2/2
f 95/3/2 96/3/2 101/3/2
f 101/3/2 96/3/2 102/3/2
f 97/2/2 98/2/2 103/2/2
f 103/2/2 98/2/2 104/2/2
f 100/2/2 101/2/2 105/2/2
f 105/2/2 101/2/2 106/2/2
f 102/2/2 103/2/2 107/2/2
f 107/2/2 103/2/2 108/2/2
f 106/1/2 107/1/2 109/1/2
f 109/1/2 107/1/2 110/1/2
f 111/2/2 112/2/2 113/2/2
f 113/2/2 112/2/2 114/2/2
f 115/2/2 116/2/2 119/2/2
f 119/2/2 116/2/2 120/2/2
f 117/2/2 118/2/2 121/2/2
f 121/2/2 118/2/2 122/2/2
f 120/2/2 121/2/2 123/2/2
f 123/2/2 121/2/2 124/2/2
f 125/2/2 126/2/2 127/2/2
f 127/2/2 126/2/2 128/2/2
f 129/1/2 130/1/2 131/1/2
f 131/1/2 130/1/2 132/1/2
f 133/1/2 134/1/2 135/1/2
f 135/1/2 134/1/2 136/1/2
f 137/1/2 138/1/2 139/1/2
f 139/1/2 138/1/2 140/1/2
f 143/2/3 142/2/3 141/2/3
f 144/2/3 142/2/3 143/2/3
f 149/2/3 146/2/3 145/2/3
f 150/2/3 146/2/3 149/2/3
f 152/2/3 148/2/3 147/2/3
f 153/2/3 148/2/3 152/2/3
f 155/2/3 151/2/3 150/2/3
f 156/2/3 151/2/3 155/2/3
f 157/2/3 155/2/3 154/2/3
f 158/2/3 155/2/3 157/2/3
f 163/2/3 160/2/3 159/2/3
f 164/2/3 160/2/3 163/2/3
f 167/2/3 162/2/3 161/2/3
f 168/2/3 162/2/3 167/2/3
f 170/2/3 165/2/3 164/2/3
f 171/2/3 165/2/3 170/2/3
f 173/2/3 167/2/3 166/2/3
f 174/2/3 167/2/3 173/2/3
f 175/3/3 169/3/3 168/3/3
f 175/3/3 170/3/3 169/3/3
f 176/3/3 170/3/3 175/3/3
f 177/3/3 170/3/3 176/3/3
f 178/1/3 172/1/3 171/1/3
f 179/1/3 172/1/3 178/1/3
f 181/2/3 175/2/3 174/2/3
f 182/2/3 175/2/3 181/2/3
f 184/2/3 178/2/3 177/2/3
f 185/2/3 178/2/3 184/2/3
f 186/2/3 184/2/3 183/2/3
f 187/2/3 184/2/3 186/2/3
f 189/1/3 180/1/3 179/1/3
f 190/1/3 180/1/3 189/1/3
f 192/1/3 189/1/3 188/1/3
f 193/1/3 189/1/3 192/1/3
f 194/1/3 192/1/3 191/1/3
f 195/1/3 192/1/3 194/1/3
f 198/2/3 197/2/3 196/2/3
f 199/2/3 197/2/3 198/2/3
f 202/2/3 201/2/3 200/2/3
f 203/2/3 201/2/3 202/2/3
f 206/2/3 205/2/3 204/2/3
f 207/2/3 205/2/3 206/2/3
f 208/2/4 209/2/4 210/2/4
f 210/2/4 209/2/4 211/2/4
f 212/2/4 213/2/4 214/2/4
f 214/2/4 213/2/4 215/2/4
f 216/2/4 217/2/4 218/2/4
f 218/2/4 217/2/4 219/2/4
f 220/2/4 221/2/4 224/2/4
f 224/2/4 221/2/4 225/2/4
f 222/2/4 223/2/4 228/2/4
f 228/2/4 223/2/4 229/2/4
f 225/2/4 226/2/4 231/2/4
f 231/2/4 226/2/4 232/2/4
f 227/2/4 228/2/4 234/2/4
f 234/2/4 228/2/4 235/2/4
f 229/3/4 230/3/4 236/3/4
f 230/3/4 231/3/4 236/3/4
f 236/3/4 231/3/4 237/3/4
f 237/3/4 231/3/4 238/3/4
f 232/1/4 233/1/4 239/1/4
f 239/1/4 233/1/4 240/1/4
f 235/2/4 236/2/4 242/2/4
f 242/2/4 236/2/4 243/2/4
f 238/2/4 239/2/4 245/2/4
f 245/2/4 239/2/4 246/2/4
f 244/2/4 245/2/4 247/2/4
f 247/2/4 245/2/4 248/2/4
f 240/1/4 241/1/4 250/1/4
f 250/1/4 241/1/4 251/1/4
f 249/1/4 250/1/4 253/1/4
f 253/1/4 250/1/4 254/1/4
f 252/1/4 253/1/4 255/1/4
f 255/1/4 253/1/4 256/1/4
f 257/2/4 258/2/4 261/2/4
f 261/2/4 258/2/4 262/2/4
f 259/2/4 260/2/4 264/2/4
f 264/2/4 260/2/4 265/2/4
f 262/2/4 263/2/4 267/2/4
f 267/2/4 263/2/4 268/2/4
f 266/2/4 267/2/4 269/2/4
f 269/2/4 267/2/4 270/2/4
f 271/2/4 272/2/4 273/2/4
f 273/2/4 272/2/4 274/2/4
f 277/1/5 276/1/5 275/1/5
f 278/1/5 276/1/5 277/1/5
f 281/2/5 280/2/5 279/2/5
f 282/2/5 280/2/5 281/2/5
f 286/2/5 284/2/5 283/2/5
f 287/2/5 284/2/5 286/2/5
f 289/2/5 286/2/5 285/2/5
f 290/2/5 286/2/5 289/2/5
f 291/2/5 288/2/5 287/2/5
f 292/2/5 288/2/5 291/2/5
f 293/2/5 291/2/5 290/2/5
f 294/2/5 291/2/5 293/2/5
f 298/2/5 296/2/5 295/2/5
f 299/2/5 296/2/5 298/2/5
f 302/2/5 298/2/5 297/2/5
f 303/2/5 298/2/5 302/2/5
f 304/2/5 300/2/5 299/2/5
f 305/2/5 300/2/5 304/2/5
f 307/2/5 302/2/5 301/2/5
f 308/2/5 302/2/5 307/2/5
f 311/2/5 306/2/5 305/2/5
f 312/2/5 306/2/5 311/2/5
f 313/2/5 309/2/5 308/2/5
f 314/2/5 309/2/5 313/2/5
f 315/2/5 311/2/5 310/2/5
f 316/2/5 311/2/5 315/2/5
f 317/2/5 315/2/5 314/2/5
f 318/2/5 315/2/5 317/2/5
f 322/2/5 320/2/5 319/2/5
f 323/2/5 320/2/5 322/2/5
f 325/2/5 322/2/5 321/2/5
f 326/2/5 322/2/5 325/2/5
f 327/2/5 324/2/5 323/2/5
f 328/2/5 324/2/5 327/2/5
f 329/2/5 327/2/5 326/2/5
f 330/2/5 327/2/5 329/2/5
f 333/1/5 332/1/5 331/1/5
f 334/1/5 332/1/5 333/1/5
f 337/1/5 336/1/5 335/1/5
f 338/1/5 336/1/5 337/1/5
f 339/2/6 340/2/6 342/2/6
f 342/2/6 340/2/6 343/2/6
f 341/2/6 342/2/6 345/2/6
f 345/2/6 342/2/6 346/2/6
f 343/2/6 344/2/6 347/2/6
f 347/2/6 344/2/6 348/2/6
f 346/2/6 347/2/6 349/2/6
f 349/2/6 347/2/6 350/2/6
f 351/2/6 352/2/6 354/2/6
f 354/2/6 352/2/6 355/2/6
f 353/2/6 354/2/6 358/2/6
f 358/2/6 354/2/6 359/2/6
f 355/2/6 356/2/6 360/2/6
f 360/2/6 356/2/6 361/2/6
f 357/2/6 358/2/6 363/2/6
f 363/2/6 358/2/6 364/2/6
f 361/2/6 362/2/6 367/2/6
f 367/2/6 362/2/6 368/2/6
f 364/2/6 365/2/6 369/2/6
f 369/2/6 365/2/6 370/2/6
f 366/2/6 367/2/6 371/2/6
f 371/2/6 367/2/6 372/2/6
f 370/2/6 371/2/6 373/2/6
f 373/2/6 371/2/6 374/2/6
f 375/2/6 376/2/6 378/2/6
f 378/2/6 376/2/6 379/2/6
f 377/2/6 378/2/6 381/2/6
f 381/2/6 378/2/6 382/2/6
f 379/2/6 380/2/6 383/2/6
f 383/2/6 380/2/6 384/2/6
f 382/2/6 383/2/6 385/2/6
f 385/2/6 383/2/6 386/2/6
f 387/1/6 388/1/6 389/1/6
f 389/1/6 388/1/6 390/1/6
f 391/1/6 392/1/6 395/1/6
f 395/1/6 392/1/6 396/1/6
f 393/1/6 394/1/6 397/1/6
f 397/1/6 394/1/6 398/1/6
f 399/1/6 400/1/6 401/1/6
f 401/1/6 400/1/6 402/1/6
